<svg width="164" height="163" viewBox="0 0 164 163" fill="none" xmlns="http://www.w3.org/2000/svg">
<mask id="mask0_4132_32316" style="mask-type:luminance" maskUnits="userSpaceOnUse" x="3" y="1" width="160" height="161">
<path d="M75.1581 161.112C72.482 159.913 69.9448 158.263 67.5697 156.165C65.3519 154.211 63.3055 151.878 61.4674 149.232C41.5448 143.261 25.266 128.841 16.8441 110.174C15.8441 109.823 14.8625 109.418 13.9041 108.957C9.6909 106.937 6.21381 103.95 3.73218 100.308C11.8531 133.202 40.4012 158.189 75.1581 161.112ZM157.335 95.5225C155.372 97.7262 153.024 99.7639 150.371 101.599C144.376 121.437 129.893 137.646 111.147 146.032C110.799 147.023 110.392 148.001 109.929 148.955C107.896 153.155 104.892 156.617 101.229 159.093C134.273 151.007 159.372 122.575 162.303 87.9571C161.099 90.6218 159.441 93.1574 157.335 95.5225ZM96.4327 6.1348C98.6504 8.09415 100.697 10.427 102.535 13.0732C122.458 19.0434 138.736 33.4642 147.154 52.131C148.149 52.4768 149.135 52.8825 150.098 53.3435C154.311 55.3674 157.784 58.3548 160.27 61.9969C152.149 29.1029 123.606 4.12013 88.8488 1.19727C91.5249 2.3913 94.0621 4.04177 96.4327 6.1348Z" fill="white"/>
</mask>
<g mask="url(#mask0_4132_32316)">
<path d="M162.303 1.19727H3.73218V161.112H162.303V1.19727Z" fill="url(#paint0_linear_4132_32316)"/>
</g>
<mask id="mask1_4132_32316" style="mask-type:luminance" maskUnits="userSpaceOnUse" x="1" y="3" width="62" height="72">
<path d="M1.70422 74.3385C2.90338 71.6738 4.56088 69.1428 6.66751 66.7777C8.6306 64.574 10.9733 62.5363 13.6309 60.7061C19.6267 40.8683 34.1091 24.6541 52.8603 16.2727C53.2076 15.2815 53.615 14.3041 54.078 13.3452C56.1059 9.15452 59.1061 5.69224 62.7591 3.21655C29.7246 11.3075 4.63497 39.7295 1.70422 74.3385Z" fill="white"/>
</mask>
<g mask="url(#mask1_4132_32316)">
<path d="M62.7591 3.21802H1.70422V74.3399H62.7591V3.21802Z" fill="url(#paint1_linear_4132_32316)"/>
</g>
<mask id="mask2_4132_32316" style="mask-type:luminance" maskUnits="userSpaceOnUse" x="65" y="52" width="98" height="58">
<path d="M113.275 98.732C109.857 98.4466 106.605 97.8008 103.56 96.9101C104.867 96.1959 106.118 95.3454 107.288 94.3518C112.386 90.0228 115.449 84.6542 118.403 79.4571C121.901 73.3182 124.918 68.0182 130.815 65.0423C134.944 62.9636 140.174 62.947 144.459 64.9967C146.569 66.0132 150.269 68.4576 151.307 73.4491C152.362 78.5494 151.157 82.9637 147.613 86.9446C140.77 94.634 126.719 98.8496 116.202 98.8496C115.191 98.8496 114.212 98.8109 113.275 98.732ZM125.991 55.5623C117.222 59.9831 112.914 67.5438 109.117 74.2149C106.502 78.8062 104.03 83.1467 100.359 86.2591C98.4721 87.8583 96.2294 88.749 93.689 88.8975C92.1407 90.9195 90.3624 92.7751 88.4067 94.3855L84.4263 97.6523L80.9904 93.8258C79.3334 91.9642 78.9148 88.7149 81.3979 86.3619C81.6275 86.1452 81.9317 85.8478 82.3039 85.4712C82.0919 85.3398 81.8798 85.1969 81.6678 85.0539C79.9186 83.6146 78.5704 82.3524 77.6643 81.4561C77.2856 81.091 76.9874 80.7821 76.7693 80.5539C74.4062 78.081 71.143 78.4977 69.273 80.1482L65.4311 83.569L68.7114 87.5269C70.3226 89.4802 72.1866 91.2446 74.2233 92.7922C74.6016 93.0836 74.9914 93.3689 75.3873 93.6432C82.8318 99.6458 95.8909 107.949 112.38 109.326C116.384 109.662 120.95 109.451 125.664 108.675C136.67 106.87 148.462 102.015 155.603 93.9918C161.373 87.5153 163.5 79.6683 161.762 71.2961C160.323 64.3803 155.706 58.5949 149.093 55.4199C145.481 53.6874 141.549 52.822 137.635 52.822C133.613 52.822 129.61 53.7358 125.991 55.5623Z" fill="white"/>
</mask>
<g mask="url(#mask2_4132_32316)">
<path d="M104.237 62.9468H103.56V99.6285H104.237V62.9468Z" fill="#1744D0"/>
<path d="M105.044 62.9468H104.237V99.6285H105.044V62.9468Z" fill="#1744CF"/>
<path d="M105.851 62.9468H105.044V99.6285H105.851V62.9468Z" fill="#1743CE"/>
<path d="M106.659 62.9468H105.852V99.6285H106.659V62.9468Z" fill="#1643CD"/>
<path d="M107.466 62.9468H106.659V99.6285H107.466V62.9468Z" fill="#1642CC"/>
<path d="M108.273 62.9468H107.466V99.6285H108.273V62.9468Z" fill="#1642CB"/>
<path d="M109.08 62.9468H108.273V99.6285H109.08V62.9468Z" fill="#1641CA"/>
<path d="M109.887 62.9468H109.08V99.6285H109.887V62.9468Z" fill="#1541C9"/>
<path d="M110.694 62.9468H109.887V99.6285H110.694V62.9468Z" fill="#1540C8"/>
<path d="M111.501 62.9468H110.694V99.6285H111.501V62.9468Z" fill="#1540C7"/>
<path d="M112.309 62.9468H111.502V99.6285H112.309V62.9468Z" fill="#143FC6"/>
<path d="M113.116 62.9468H112.309V99.6285H113.116V62.9468Z" fill="#143FC5"/>
<path d="M113.923 62.9468H113.116V99.6285H113.923V62.9468Z" fill="#143EC4"/>
<path d="M114.73 62.9468H113.923V99.6285H114.73V62.9468Z" fill="#133EC2"/>
<path d="M115.537 62.9468H114.73V99.6285H115.537V62.9468Z" fill="#133DC1"/>
<path d="M116.344 62.9468H115.537V99.6285H116.344V62.9468Z" fill="#133DC0"/>
<path d="M117.152 62.9468H116.345V99.6285H117.152V62.9468Z" fill="#123CBF"/>
<path d="M117.959 62.9468H117.152V99.6285H117.959V62.9468Z" fill="#123CBE"/>
<path d="M118.766 62.9468H117.959V99.6285H118.766V62.9468Z" fill="#123BBD"/>
<path d="M119.573 62.9468H118.766V99.6285H119.573V62.9468Z" fill="#113BBC"/>
<path d="M120.38 62.9468H119.573V99.6285H120.38V62.9468Z" fill="#113ABB"/>
<path d="M121.187 62.9468H120.38V99.6285H121.187V62.9468Z" fill="#113ABA"/>
<path d="M121.994 62.9468H121.187V99.6285H121.994V62.9468Z" fill="#1139B9"/>
<path d="M122.801 62.9468H121.995V99.6285H122.801V62.9468Z" fill="#1039B8"/>
<path d="M123.608 62.9468H122.802V99.6285H123.608V62.9468Z" fill="#1038B7"/>
<path d="M124.416 62.9468H123.609V99.6285H124.416V62.9468Z" fill="#1038B6"/>
<path d="M125.223 62.9468H124.416V99.6285H125.223V62.9468Z" fill="#0F37B5"/>
<path d="M126.03 62.9468H125.223V99.6285H126.03V62.9468Z" fill="#0F37B4"/>
<path d="M126.837 62.9468H126.03V99.6285H126.837V62.9468Z" fill="#0F36B3"/>
<path d="M127.644 62.9468H126.837V99.6285H127.644V62.9468Z" fill="#0E36B2"/>
<path d="M128.451 62.9468H127.644V99.6285H128.451V62.9468Z" fill="#0E35B1"/>
<path d="M129.258 62.9468H128.451V99.6285H129.258V62.9468Z" fill="#0E35B0"/>
<path d="M130.065 62.9468H129.258V99.6285H130.065V62.9468Z" fill="#0D34AF"/>
<path d="M130.873 62.9468H130.066V99.6285H130.873V62.9468Z" fill="#0D34AE"/>
<path d="M131.68 62.9468H130.873V99.6285H131.68V62.9468Z" fill="#0D33AD"/>
<path d="M132.487 62.9468H131.68V99.6285H132.487V62.9468Z" fill="#0D33AC"/>
<path d="M133.294 62.9468H132.487V99.6285H133.294V62.9468Z" fill="#0C32AB"/>
<path d="M134.101 62.9468H133.294V99.6285H134.101V62.9468Z" fill="#0C32AA"/>
<path d="M134.908 62.9468H134.101V99.6285H134.908V62.9468Z" fill="#0C31A9"/>
<path d="M135.715 62.9468H134.908V99.6285H135.715V62.9468Z" fill="#0B31A8"/>
<path d="M136.523 62.9468H135.716V99.6285H136.523V62.9468Z" fill="#0B30A7"/>
<path d="M137.33 62.9468H136.523V99.6285H137.33V62.9468Z" fill="#0B30A6"/>
<path d="M138.137 62.9468H137.33V99.6285H138.137V62.9468Z" fill="#0A2FA5"/>
<path d="M138.944 62.9468H138.137V99.6285H138.944V62.9468Z" fill="#0A2FA4"/>
<path d="M139.751 62.9468H138.944V99.6285H139.751V62.9468Z" fill="#0A2EA3"/>
<path d="M140.558 62.9468H139.751V99.6285H140.558V62.9468Z" fill="#092EA2"/>
<path d="M141.366 62.9468H140.559V99.6285H141.366V62.9468Z" fill="#092DA1"/>
<path d="M142.173 62.9468H141.366V99.6285H142.173V62.9468Z" fill="#092DA0"/>
<path d="M142.98 62.9468H142.173V99.6285H142.98V62.9468Z" fill="#082C9F"/>
<path d="M143.787 62.9468H142.98V99.6285H143.787V62.9468Z" fill="#082C9E"/>
<path d="M144.594 62.9468H143.787V99.6285H144.594V62.9468Z" fill="#082B9D"/>
<path d="M145.401 62.9468H144.594V99.6285H145.401V62.9468Z" fill="#082B9C"/>
<path d="M146.208 62.9468H145.401V99.6285H146.208V62.9468Z" fill="#072A9B"/>
<path d="M147.016 62.9468H146.209V99.6285H147.016V62.9468Z" fill="#072A9A"/>
<path d="M147.823 62.9468H147.016V99.6285H147.823V62.9468Z" fill="#072999"/>
<path d="M148.63 62.9468H147.823V99.6285H148.63V62.9468Z" fill="#062998"/>
<path d="M149.437 62.9468H148.63V99.6285H149.437V62.9468Z" fill="#062897"/>
<path d="M150.244 62.9468H149.437V99.6285H150.244V62.9468Z" fill="#062896"/>
<path d="M151.051 62.9468H150.244V99.6285H151.051V62.9468Z" fill="#052795"/>
<path d="M151.858 62.9468H151.051V99.6285H151.858V62.9468Z" fill="#052794"/>
<path d="M152.362 62.9468H151.858V99.6285H152.362V62.9468Z" fill="#052693"/>
<path d="M65.495 51.9084H65.4311V109.664H65.495V51.9084Z" fill="#265CFF"/>
<path d="M66.302 51.9077H65.495V109.663H66.302V51.9077Z" fill="#265CFF"/>
<path d="M67.109 51.9077H66.302V109.663H67.109V51.9077Z" fill="#265BFE"/>
<path d="M67.916 51.9077H67.109V109.663H67.916V51.9077Z" fill="#255BFD"/>
<path d="M68.7234 51.9077H67.9164V109.663H68.7234V51.9077Z" fill="#255AFC"/>
<path d="M69.5304 51.9077H68.7234V109.663H69.5304V51.9077Z" fill="#255AFB"/>
<path d="M70.3374 51.9077H69.5305V109.663H70.3374V51.9077Z" fill="#2459FA"/>
<path d="M71.1449 51.9077H70.3379V109.663H71.1449V51.9077Z" fill="#2459F9"/>
<path d="M71.9519 51.9077H71.1449V109.663H71.9519V51.9077Z" fill="#2458F8"/>
<path d="M72.7589 51.9077H71.9519V109.663H72.7589V51.9077Z" fill="#2458F7"/>
<path d="M73.5659 51.9077H72.7589V109.663H73.5659V51.9077Z" fill="#2357F6"/>
<path d="M74.3733 51.9077H73.5663V109.663H74.3733V51.9077Z" fill="#2357F5"/>
<path d="M75.1803 51.9077H74.3734V109.663H75.1803V51.9077Z" fill="#2356F4"/>
<path d="M75.9874 51.9077H75.1804V109.663H75.9874V51.9077Z" fill="#2256F3"/>
<path d="M76.7948 51.9077H75.9878V109.663H76.7948V51.9077Z" fill="#2255F2"/>
<path d="M77.6018 51.9077H76.7948V109.663H77.6018V51.9077Z" fill="#2255F1"/>
<path d="M78.4088 51.9077H77.6018V109.663H78.4088V51.9077Z" fill="#2154F0"/>
<path d="M79.2162 51.9077H78.4092V109.663H79.2162V51.9077Z" fill="#2154EF"/>
<path d="M80.0233 51.9077H79.2163V109.663H80.0233V51.9077Z" fill="#2153EE"/>
<path d="M80.8302 51.9077H80.0233V109.663H80.8302V51.9077Z" fill="#2053ED"/>
<path d="M81.6372 51.9077H80.8303V109.663H81.6372V51.9077Z" fill="#2052EC"/>
<path d="M82.4447 51.9077H81.6377V109.663H82.4447V51.9077Z" fill="#2052EB"/>
<path d="M83.2517 51.9077H82.4447V109.663H83.2517V51.9077Z" fill="#1F51EA"/>
<path d="M84.0587 51.9077H83.2517V109.663H84.0587V51.9077Z" fill="#1F51E9"/>
<path d="M84.8661 51.9077H84.0591V109.663H84.8661V51.9077Z" fill="#1F50E8"/>
<path d="M85.6732 51.9077H84.8662V109.663H85.6732V51.9077Z" fill="#1F50E7"/>
<path d="M86.4801 51.9077H85.6732V109.663H86.4801V51.9077Z" fill="#1E4FE6"/>
<path d="M87.2876 51.9077H86.4807V109.663H87.2876V51.9077Z" fill="#1E4FE5"/>
<path d="M88.0946 51.9077H87.2876V109.663H88.0946V51.9077Z" fill="#1E4EE4"/>
<path d="M88.9016 51.9077H88.0946V109.663H88.9016V51.9077Z" fill="#1D4EE3"/>
<path d="M89.7086 51.9077H88.9016V109.663H89.7086V51.9077Z" fill="#1D4DE2"/>
<path d="M90.5161 51.9077H89.7091V109.663H90.5161V51.9077Z" fill="#1D4DE1"/>
<path d="M91.323 51.9077H90.5161V109.663H91.323V51.9077Z" fill="#1C4CE0"/>
<path d="M92.13 51.9077H91.3231V109.663H92.13V51.9077Z" fill="#1C4CDF"/>
<path d="M92.9375 51.9077H92.1305V109.663H92.9375V51.9077Z" fill="#1C4BDE"/>
<path d="M93.7446 51.9077H92.9376V109.663H93.7446V51.9077Z" fill="#1B4BDD"/>
<path d="M94.5515 51.9077H93.7445V109.663H94.5515V51.9077Z" fill="#1B4ADC"/>
<path d="M95.359 51.9077H94.552V109.663H95.359V51.9077Z" fill="#1B4ADB"/>
<path d="M96.166 51.9077H95.359V109.663H96.166V51.9077Z" fill="#1A49DA"/>
<path d="M96.9729 51.9077H96.166V109.663H96.9729V51.9077Z" fill="#1A49D9"/>
<path d="M97.78 51.9077H96.973V109.663H97.78V51.9077Z" fill="#1A48D8"/>
<path d="M98.5874 51.9077H97.7804V109.663H98.5874V51.9077Z" fill="#1A48D7"/>
<path d="M99.3945 51.9077H98.5875V109.663H99.3945V51.9077Z" fill="#1947D6"/>
<path d="M100.201 51.9077H99.3944V109.663H100.201V51.9077Z" fill="#1947D5"/>
<path d="M101.009 51.9077H100.202V109.663H101.009V51.9077Z" fill="#1946D4"/>
<path d="M101.816 51.9077H101.009V109.663H101.816V51.9077Z" fill="#1846D3"/>
<path d="M102.623 51.9077H101.816V109.663H102.623V51.9077Z" fill="#1845D2"/>
<path d="M103.43 51.9077H102.623V109.663H103.43V51.9077Z" fill="#1845D1"/>
<path d="M104.237 51.9077H103.43V109.663H104.237V51.9077Z" fill="#1744D0"/>
<path d="M105.044 51.9077H104.237V109.663H105.044V51.9077Z" fill="#1744CF"/>
<path d="M105.851 51.9077H105.044V109.663H105.851V51.9077Z" fill="#1743CE"/>
<path d="M106.659 51.9077H105.852V109.663H106.659V51.9077Z" fill="#1643CD"/>
<path d="M107.466 51.9077H106.659V109.663H107.466V51.9077Z" fill="#1642CC"/>
<path d="M108.273 51.9077H107.466V109.663H108.273V51.9077Z" fill="#1642CB"/>
<path d="M109.08 51.9077H108.273V109.663H109.08V51.9077Z" fill="#1641CA"/>
<path d="M109.887 51.9077H109.08V109.663H109.887V51.9077Z" fill="#1541C9"/>
<path d="M110.694 51.9077H109.887V109.663H110.694V51.9077Z" fill="#1540C8"/>
<path d="M111.501 51.9077H110.694V109.663H111.501V51.9077Z" fill="#1540C7"/>
<path d="M112.309 51.9077H111.502V109.663H112.309V51.9077Z" fill="#143FC6"/>
<path d="M113.116 51.9077H112.309V109.663H113.116V51.9077Z" fill="#143FC5"/>
<path d="M113.923 51.9077H113.116V109.663H113.923V51.9077Z" fill="#143EC4"/>
<path d="M114.73 51.9077H113.923V109.663H114.73V51.9077Z" fill="#133EC2"/>
<path d="M115.537 51.9077H114.73V109.663H115.537V51.9077Z" fill="#133DC1"/>
<path d="M116.344 51.9077H115.537V109.663H116.344V51.9077Z" fill="#133DC0"/>
<path d="M117.152 51.9077H116.345V109.663H117.152V51.9077Z" fill="#123CBF"/>
<path d="M117.959 51.9077H117.152V109.663H117.959V51.9077Z" fill="#123CBE"/>
<path d="M118.766 51.9077H117.959V109.663H118.766V51.9077Z" fill="#123BBD"/>
<path d="M119.573 51.9077H118.766V109.663H119.573V51.9077Z" fill="#113BBC"/>
<path d="M120.38 51.9077H119.573V109.663H120.38V51.9077Z" fill="#113ABB"/>
<path d="M121.187 51.9077H120.38V109.663H121.187V51.9077Z" fill="#113ABA"/>
<path d="M121.994 51.9077H121.187V109.663H121.994V51.9077Z" fill="#1139B9"/>
<path d="M122.801 51.9077H121.995V109.663H122.801V51.9077Z" fill="#1039B8"/>
<path d="M123.608 51.9077H122.802V109.663H123.608V51.9077Z" fill="#1038B7"/>
<path d="M124.416 51.9077H123.609V109.663H124.416V51.9077Z" fill="#1038B6"/>
<path d="M125.223 51.9077H124.416V109.663H125.223V51.9077Z" fill="#0F37B5"/>
<path d="M126.03 51.9077H125.223V109.663H126.03V51.9077Z" fill="#0F37B4"/>
<path d="M126.837 51.9077H126.03V109.663H126.837V51.9077Z" fill="#0F36B3"/>
<path d="M127.644 51.9077H126.837V109.663H127.644V51.9077Z" fill="#0E36B2"/>
<path d="M128.451 51.9077H127.644V109.663H128.451V51.9077Z" fill="#0E35B1"/>
<path d="M129.258 51.9077H128.451V109.663H129.258V51.9077Z" fill="#0E35B0"/>
<path d="M130.065 51.9077H129.258V109.663H130.065V51.9077Z" fill="#0D34AF"/>
<path d="M130.873 51.9077H130.066V109.663H130.873V51.9077Z" fill="#0D34AE"/>
<path d="M131.68 51.9077H130.873V109.663H131.68V51.9077Z" fill="#0D33AD"/>
<path d="M132.487 51.9077H131.68V109.663H132.487V51.9077Z" fill="#0D33AC"/>
<path d="M133.294 51.9077H132.487V109.663H133.294V51.9077Z" fill="#0C32AB"/>
<path d="M134.101 51.9077H133.294V109.663H134.101V51.9077Z" fill="#0C32AA"/>
<path d="M134.908 51.9077H134.101V109.663H134.908V51.9077Z" fill="#0C31A9"/>
<path d="M135.715 51.9077H134.908V109.663H135.715V51.9077Z" fill="#0B31A8"/>
<path d="M136.523 51.9077H135.716V109.663H136.523V51.9077Z" fill="#0B30A7"/>
<path d="M137.33 51.9077H136.523V109.663H137.33V51.9077Z" fill="#0B30A6"/>
<path d="M138.137 51.9077H137.33V109.663H138.137V51.9077Z" fill="#0A2FA5"/>
<path d="M138.944 51.9077H138.137V109.663H138.944V51.9077Z" fill="#0A2FA4"/>
<path d="M139.751 51.9077H138.944V109.663H139.751V51.9077Z" fill="#0A2EA3"/>
<path d="M140.558 51.9077H139.751V109.663H140.558V51.9077Z" fill="#092EA2"/>
<path d="M141.366 51.9077H140.559V109.663H141.366V51.9077Z" fill="#092DA1"/>
<path d="M142.173 51.9077H141.366V109.663H142.173V51.9077Z" fill="#092DA0"/>
<path d="M142.98 51.9077H142.173V109.663H142.98V51.9077Z" fill="#082C9F"/>
<path d="M143.787 51.9077H142.98V109.663H143.787V51.9077Z" fill="#082C9E"/>
<path d="M144.594 51.9077H143.787V109.663H144.594V51.9077Z" fill="#082B9D"/>
<path d="M145.401 51.9077H144.594V109.663H145.401V51.9077Z" fill="#082B9C"/>
<path d="M146.208 51.9077H145.401V109.663H146.208V51.9077Z" fill="#072A9B"/>
<path d="M147.016 51.9077H146.209V109.663H147.016V51.9077Z" fill="#072A9A"/>
<path d="M147.823 51.9077H147.016V109.663H147.823V51.9077Z" fill="#072999"/>
<path d="M148.63 51.9077H147.823V109.663H148.63V51.9077Z" fill="#062998"/>
<path d="M149.437 51.9077H148.63V109.663H149.437V51.9077Z" fill="#062897"/>
<path d="M150.244 51.9077H149.437V109.663H150.244V51.9077Z" fill="#062896"/>
<path d="M151.051 51.9077H150.244V109.663H151.051V51.9077Z" fill="#052795"/>
<path d="M151.858 51.9077H151.051V109.663H151.858V51.9077Z" fill="#052794"/>
<path d="M152.665 51.9077H151.859V109.663H152.665V51.9077Z" fill="#052693"/>
<path d="M153.472 51.9077H152.665V109.663H153.472V51.9077Z" fill="#042692"/>
<path d="M154.279 51.9077H153.473V109.663H154.279V51.9077Z" fill="#042591"/>
<path d="M155.087 51.9077H154.28V109.663H155.087V51.9077Z" fill="#042590"/>
<path d="M155.894 51.9077H155.087V109.663H155.894V51.9077Z" fill="#03248F"/>
<path d="M156.701 51.9077H155.894V109.663H156.701V51.9077Z" fill="#03248E"/>
<path d="M157.508 51.9077H156.701V109.663H157.508V51.9077Z" fill="#03238D"/>
<path d="M158.315 51.9077H157.508V109.663H158.315V51.9077Z" fill="#03238C"/>
<path d="M159.122 51.9077H158.315V109.663H159.122V51.9077Z" fill="#02228B"/>
<path d="M159.929 51.9077H159.122V109.663H159.929V51.9077Z" fill="#02228A"/>
<path d="M160.737 51.9077H159.93V109.663H160.737V51.9077Z" fill="#022189"/>
<path d="M161.544 51.9077H160.737V109.663H161.544V51.9077Z" fill="#012188"/>
<path d="M162.351 51.9077H161.544V109.663H162.351V51.9077Z" fill="#012087"/>
</g>
<mask id="mask3_4132_32316" style="mask-type:luminance" maskUnits="userSpaceOnUse" x="1" y="52" width="98" height="58">
<path d="M19.5415 97.3042C17.4312 96.2932 13.7374 93.8489 12.6994 88.8518C11.6382 83.752 12.8429 79.3432 16.3871 75.3623C23.895 66.9275 40.0572 62.6782 50.725 63.5689C54.1489 63.8552 57.3954 64.5062 60.4465 65.3909C59.133 66.105 57.8889 66.9616 56.7185 67.9495C51.614 72.2841 48.5568 77.6527 45.5974 82.8438C42.1045 88.9828 39.0821 94.2887 33.1919 97.2586C31.1089 98.3088 28.7472 98.8339 26.3693 98.8344C24.0265 98.8344 21.668 98.3245 19.5415 97.3042ZM38.3367 53.6265C27.3304 55.4364 15.5385 60.291 8.39819 68.3096C2.6279 74.7856 0.499977 82.6386 2.24315 91.0108C3.6775 97.9266 8.29446 103.712 14.9074 106.882C22.237 110.394 30.8691 110.342 38.0154 106.745C46.7794 102.319 51.0866 94.7571 54.8887 88.0865C57.5042 83.4948 59.9705 79.1602 63.6411 76.0419C65.5339 74.4371 67.7645 73.5579 70.3115 73.4094C71.8602 71.3874 73.6381 69.5258 75.5993 67.9154L79.5741 64.6546L83.0095 68.4806C84.667 70.3427 85.0861 73.592 82.6026 75.9451C82.3729 76.1617 82.0692 76.4591 81.696 76.8358C81.9141 76.9671 82.1206 77.1101 82.3326 77.253C84.0823 78.6923 85.4356 79.9541 86.3361 80.8503C86.7149 81.2159 87.013 81.5248 87.2311 81.753C89.5938 84.2259 92.8574 83.8032 94.727 82.1583L98.5698 78.7379L95.289 74.774C93.6778 72.8267 91.8078 71.0504 89.7776 69.5087C89.3988 69.2118 89.0085 68.932 88.6192 68.6577C81.1687 62.6556 68.109 54.3577 51.62 52.9755C50.4042 52.8727 49.1351 52.8215 47.8257 52.8215C44.8283 52.8215 41.6175 53.0899 38.3367 53.6265Z" fill="white"/>
</mask>
<g mask="url(#mask3_4132_32316)">
<path d="M12.2086 62.6782H11.6382V99.3599H12.2086V62.6782Z" fill="#2256F3"/>
<path d="M13.0156 62.6782H12.2086V99.3599H13.0156V62.6782Z" fill="#2255F2"/>
<path d="M13.8231 62.6782H13.0161V99.3599H13.8231V62.6782Z" fill="#2255F1"/>
<path d="M14.6301 62.6782H13.8231V99.3599H14.6301V62.6782Z" fill="#2154F0"/>
<path d="M15.4371 62.6782H14.6301V99.3599H15.4371V62.6782Z" fill="#2154EF"/>
<path d="M16.2441 62.6782H15.4371V99.3599H16.2441V62.6782Z" fill="#2153EE"/>
<path d="M17.0511 62.6782H16.2441V99.3599H17.0511V62.6782Z" fill="#2053ED"/>
<path d="M17.8585 62.6782H17.0515V99.3599H17.8585V62.6782Z" fill="#2052EC"/>
<path d="M18.6655 62.6782H17.8585V99.3599H18.6655V62.6782Z" fill="#2052EB"/>
<path d="M19.4725 62.6782H18.6655V99.3599H19.4725V62.6782Z" fill="#1F51EA"/>
<path d="M20.28 62.6782H19.473V99.3599H20.28V62.6782Z" fill="#1F51E9"/>
<path d="M21.087 62.6782H20.28V99.3599H21.087V62.6782Z" fill="#1F50E8"/>
<path d="M21.894 62.6782H21.087V99.3599H21.894V62.6782Z" fill="#1F50E7"/>
<path d="M22.701 62.6782H21.894V99.3599H22.701V62.6782Z" fill="#1E4FE6"/>
<path d="M23.5085 62.6782H22.7015V99.3599H23.5085V62.6782Z" fill="#1E4FE5"/>
<path d="M24.3154 62.6782H23.5084V99.3599H24.3154V62.6782Z" fill="#1E4EE4"/>
<path d="M25.1225 62.6782H24.3155V99.3599H25.1225V62.6782Z" fill="#1D4EE3"/>
<path d="M25.9294 62.6782H25.1224V99.3599H25.9294V62.6782Z" fill="#1D4DE2"/>
<path d="M26.7369 62.6782H25.9299V99.3599H26.7369V62.6782Z" fill="#1D4DE1"/>
<path d="M27.5439 62.6782H26.7369V99.3599H27.5439V62.6782Z" fill="#1C4CE0"/>
<path d="M28.3509 62.6782H27.5439V99.3599H28.3509V62.6782Z" fill="#1C4CDF"/>
<path d="M29.1579 62.6782H28.3509V99.3599H29.1579V62.6782Z" fill="#1C4BDE"/>
<path d="M29.9654 62.6782H29.1584V99.3599H29.9654V62.6782Z" fill="#1B4BDD"/>
<path d="M30.7724 62.6782H29.9654V99.3599H30.7724V62.6782Z" fill="#1B4ADC"/>
<path d="M31.5793 62.6782H30.7723V99.3599H31.5793V62.6782Z" fill="#1B4ADB"/>
<path d="M32.3863 62.6782H31.5793V99.3599H32.3863V62.6782Z" fill="#1A49DA"/>
<path d="M33.1938 62.6782H32.3868V99.3599H33.1938V62.6782Z" fill="#1A49D9"/>
<path d="M34.0008 62.6782H33.1938V99.3599H34.0008V62.6782Z" fill="#1A48D8"/>
<path d="M34.8078 62.6782H34.0008V99.3599H34.8078V62.6782Z" fill="#1A48D7"/>
<path d="M35.6148 62.6782H34.8078V99.3599H35.6148V62.6782Z" fill="#1947D6"/>
<path d="M36.4223 62.6782H35.6153V99.3599H36.4223V62.6782Z" fill="#1947D5"/>
<path d="M37.2293 62.6782H36.4223V99.3599H37.2293V62.6782Z" fill="#1946D4"/>
<path d="M38.0362 62.6782H37.2292V99.3599H38.0362V62.6782Z" fill="#1846D3"/>
<path d="M38.8432 62.6782H38.0363V99.3599H38.8432V62.6782Z" fill="#1845D2"/>
<path d="M39.6507 62.6782H38.8437V99.3599H39.6507V62.6782Z" fill="#1845D1"/>
<path d="M40.4577 62.6782H39.6507V99.3599H40.4577V62.6782Z" fill="#1744D0"/>
<path d="M41.2647 62.6782H40.4577V99.3599H41.2647V62.6782Z" fill="#1744CF"/>
<path d="M42.0717 62.6782H41.2647V99.3599H42.0717V62.6782Z" fill="#1743CE"/>
<path d="M42.8791 62.6782H42.0721V99.3599H42.8791V62.6782Z" fill="#1643CD"/>
<path d="M43.6861 62.6782H42.8792V99.3599H43.6861V62.6782Z" fill="#1642CC"/>
<path d="M44.4931 62.6782H43.6862V99.3599H44.4931V62.6782Z" fill="#1642CB"/>
<path d="M45.3001 62.6782H44.4932V99.3599H45.3001V62.6782Z" fill="#1641CA"/>
<path d="M46.1076 62.6782H45.3006V99.3599H46.1076V62.6782Z" fill="#1541C9"/>
<path d="M46.9146 62.6782H46.1076V99.3599H46.9146V62.6782Z" fill="#1540C8"/>
<path d="M47.7216 62.6782H46.9146V99.3599H47.7216V62.6782Z" fill="#1540C7"/>
<path d="M48.5286 62.6782H47.7216V99.3599H48.5286V62.6782Z" fill="#143FC6"/>
<path d="M49.336 62.6782H48.5291V99.3599H49.336V62.6782Z" fill="#143FC5"/>
<path d="M50.143 62.6782H49.3361V99.3599H50.143V62.6782Z" fill="#143EC4"/>
<path d="M50.9501 62.6782H50.1431V99.3599H50.9501V62.6782Z" fill="#133EC2"/>
<path d="M51.7571 62.6782H50.9501V99.3599H51.7571V62.6782Z" fill="#133DC1"/>
<path d="M52.5646 62.6782H51.7576V99.3599H52.5646V62.6782Z" fill="#133DC0"/>
<path d="M53.3715 62.6782H52.5645V99.3599H53.3715V62.6782Z" fill="#123CBF"/>
<path d="M54.1785 62.6782H53.3715V99.3599H54.1785V62.6782Z" fill="#123CBE"/>
<path d="M54.9855 62.6782H54.1785V99.3599H54.9855V62.6782Z" fill="#123BBD"/>
<path d="M55.7929 62.6782H54.986V99.3599H55.7929V62.6782Z" fill="#113BBC"/>
<path d="M56.6 62.6782H55.793V99.3599H56.6V62.6782Z" fill="#113ABB"/>
<path d="M57.407 62.6782H56.6V99.3599H57.407V62.6782Z" fill="#113ABA"/>
<path d="M58.214 62.6782H57.407V99.3599H58.214V62.6782Z" fill="#1139B9"/>
<path d="M59.0214 62.6782H58.2144V99.3599H59.0214V62.6782Z" fill="#1039B8"/>
<path d="M59.8284 62.6782H59.0214V99.3599H59.8284V62.6782Z" fill="#1038B7"/>
<path d="M60.4465 62.6782H59.8284V99.3599H60.4465V62.6782Z" fill="#1038B6"/>
<path d="M1.71629 52.6384H0.5V110.393H1.71629V52.6384Z" fill="#265CFF"/>
<path d="M2.52325 52.6384H1.71625V110.393H2.52325V52.6384Z" fill="#265CFF"/>
<path d="M3.33026 52.6384H2.52325V110.393H3.33026V52.6384Z" fill="#265BFE"/>
<path d="M4.13775 52.6384H3.33075V110.393H4.13775V52.6384Z" fill="#255BFD"/>
<path d="M4.94476 52.6384H4.13776V110.393H4.94476V52.6384Z" fill="#255AFC"/>
<path d="M5.75177 52.6384H4.94476V110.393H5.75177V52.6384Z" fill="#255AFB"/>
<path d="M6.55871 52.6384H5.75171V110.393H6.55871V52.6384Z" fill="#2459FA"/>
<path d="M7.36572 52.6384H6.55872V110.393H7.36572V52.6384Z" fill="#2459F9"/>
<path d="M8.17321 52.6384H7.36621V110.393H8.17321V52.6384Z" fill="#2458F8"/>
<path d="M8.98016 52.6384H8.17316V110.393H8.98016V52.6384Z" fill="#2458F7"/>
<path d="M9.78716 52.6384H8.98016V110.393H9.78716V52.6384Z" fill="#2357F6"/>
<path d="M10.5947 52.6384H9.78766V110.393H10.5947V52.6384Z" fill="#2357F5"/>
<path d="M11.4017 52.6384H10.5947V110.393H11.4017V52.6384Z" fill="#2356F4"/>
<path d="M12.2086 52.6384H11.4016V110.393H12.2086V52.6384Z" fill="#2256F3"/>
<path d="M13.0156 52.6384H12.2086V110.393H13.0156V52.6384Z" fill="#2255F2"/>
<path d="M13.8231 52.6384H13.0161V110.393H13.8231V52.6384Z" fill="#2255F1"/>
<path d="M14.6301 52.6384H13.8231V110.393H14.6301V52.6384Z" fill="#2154F0"/>
<path d="M15.4371 52.6384H14.6301V110.393H15.4371V52.6384Z" fill="#2154EF"/>
<path d="M16.2441 52.6384H15.4371V110.393H16.2441V52.6384Z" fill="#2153EE"/>
<path d="M17.0511 52.6384H16.2441V110.393H17.0511V52.6384Z" fill="#2053ED"/>
<path d="M17.8585 52.6384H17.0515V110.393H17.8585V52.6384Z" fill="#2052EC"/>
<path d="M18.6655 52.6384H17.8585V110.393H18.6655V52.6384Z" fill="#2052EB"/>
<path d="M19.4725 52.6384H18.6655V110.393H19.4725V52.6384Z" fill="#1F51EA"/>
<path d="M20.28 52.6384H19.473V110.393H20.28V52.6384Z" fill="#1F51E9"/>
<path d="M21.087 52.6384H20.28V110.393H21.087V52.6384Z" fill="#1F50E8"/>
<path d="M21.894 52.6384H21.087V110.393H21.894V52.6384Z" fill="#1F50E7"/>
<path d="M22.701 52.6384H21.894V110.393H22.701V52.6384Z" fill="#1E4FE6"/>
<path d="M23.5085 52.6384H22.7015V110.393H23.5085V52.6384Z" fill="#1E4FE5"/>
<path d="M24.3154 52.6384H23.5084V110.393H24.3154V52.6384Z" fill="#1E4EE4"/>
<path d="M25.1225 52.6384H24.3155V110.393H25.1225V52.6384Z" fill="#1D4EE3"/>
<path d="M25.9294 52.6384H25.1224V110.393H25.9294V52.6384Z" fill="#1D4DE2"/>
<path d="M26.7369 52.6384H25.9299V110.393H26.7369V52.6384Z" fill="#1D4DE1"/>
<path d="M27.5439 52.6384H26.7369V110.393H27.5439V52.6384Z" fill="#1C4CE0"/>
<path d="M28.3509 52.6384H27.5439V110.393H28.3509V52.6384Z" fill="#1C4CDF"/>
<path d="M29.1579 52.6384H28.3509V110.393H29.1579V52.6384Z" fill="#1C4BDE"/>
<path d="M29.9654 52.6384H29.1584V110.393H29.9654V52.6384Z" fill="#1B4BDD"/>
<path d="M30.7724 52.6384H29.9654V110.393H30.7724V52.6384Z" fill="#1B4ADC"/>
<path d="M31.5793 52.6384H30.7723V110.393H31.5793V52.6384Z" fill="#1B4ADB"/>
<path d="M32.3863 52.6384H31.5793V110.393H32.3863V52.6384Z" fill="#1A49DA"/>
<path d="M33.1938 52.6384H32.3868V110.393H33.1938V52.6384Z" fill="#1A49D9"/>
<path d="M34.0008 52.6384H33.1938V110.393H34.0008V52.6384Z" fill="#1A48D8"/>
<path d="M34.8078 52.6384H34.0008V110.393H34.8078V52.6384Z" fill="#1A48D7"/>
<path d="M35.6148 52.6384H34.8078V110.393H35.6148V52.6384Z" fill="#1947D6"/>
<path d="M36.4223 52.6384H35.6153V110.393H36.4223V52.6384Z" fill="#1947D5"/>
<path d="M37.2293 52.6384H36.4223V110.393H37.2293V52.6384Z" fill="#1946D4"/>
<path d="M38.0362 52.6384H37.2292V110.393H38.0362V52.6384Z" fill="#1846D3"/>
<path d="M38.8432 52.6384H38.0363V110.393H38.8432V52.6384Z" fill="#1845D2"/>
<path d="M39.6507 52.6384H38.8437V110.393H39.6507V52.6384Z" fill="#1845D1"/>
<path d="M40.4577 52.6384H39.6507V110.393H40.4577V52.6384Z" fill="#1744D0"/>
<path d="M41.2647 52.6384H40.4577V110.393H41.2647V52.6384Z" fill="#1744CF"/>
<path d="M42.0717 52.6384H41.2647V110.393H42.0717V52.6384Z" fill="#1743CE"/>
<path d="M42.8791 52.6384H42.0721V110.393H42.8791V52.6384Z" fill="#1643CD"/>
<path d="M43.6861 52.6384H42.8792V110.393H43.6861V52.6384Z" fill="#1642CC"/>
<path d="M44.4931 52.6384H43.6862V110.393H44.4931V52.6384Z" fill="#1642CB"/>
<path d="M45.3001 52.6384H44.4932V110.393H45.3001V52.6384Z" fill="#1641CA"/>
<path d="M46.1076 52.6384H45.3006V110.393H46.1076V52.6384Z" fill="#1541C9"/>
<path d="M46.9146 52.6384H46.1076V110.393H46.9146V52.6384Z" fill="#1540C8"/>
<path d="M47.7216 52.6384H46.9146V110.393H47.7216V52.6384Z" fill="#1540C7"/>
<path d="M48.5286 52.6384H47.7216V110.393H48.5286V52.6384Z" fill="#143FC6"/>
<path d="M49.336 52.6384H48.5291V110.393H49.336V52.6384Z" fill="#143FC5"/>
<path d="M50.143 52.6384H49.3361V110.393H50.143V52.6384Z" fill="#143EC4"/>
<path d="M50.9501 52.6384H50.1431V110.393H50.9501V52.6384Z" fill="#133EC2"/>
<path d="M51.7571 52.6384H50.9501V110.393H51.7571V52.6384Z" fill="#133DC1"/>
<path d="M52.5646 52.6384H51.7576V110.393H52.5646V52.6384Z" fill="#133DC0"/>
<path d="M53.3715 52.6384H52.5645V110.393H53.3715V52.6384Z" fill="#123CBF"/>
<path d="M54.1785 52.6384H53.3715V110.393H54.1785V52.6384Z" fill="#123CBE"/>
<path d="M54.9855 52.6384H54.1785V110.393H54.9855V52.6384Z" fill="#123BBD"/>
<path d="M55.7929 52.6384H54.986V110.393H55.7929V52.6384Z" fill="#113BBC"/>
<path d="M56.6 52.6384H55.793V110.393H56.6V52.6384Z" fill="#113ABB"/>
<path d="M57.407 52.6384H56.6V110.393H57.407V52.6384Z" fill="#113ABA"/>
<path d="M58.214 52.6384H57.407V110.393H58.214V52.6384Z" fill="#1139B9"/>
<path d="M59.0214 52.6384H58.2144V110.393H59.0214V52.6384Z" fill="#1039B8"/>
<path d="M59.8284 52.6384H59.0214V110.393H59.8284V52.6384Z" fill="#1038B7"/>
<path d="M60.6354 52.6384H59.8284V110.393H60.6354V52.6384Z" fill="#1038B6"/>
<path d="M61.4424 52.6384H60.6354V110.393H61.4424V52.6384Z" fill="#0F37B5"/>
<path d="M62.2499 52.6384H61.4429V110.393H62.2499V52.6384Z" fill="#0F37B4"/>
<path d="M63.0569 52.6384H62.2499V110.393H63.0569V52.6384Z" fill="#0F36B3"/>
<path d="M63.8639 52.6384H63.0569V110.393H63.8639V52.6384Z" fill="#0E36B2"/>
<path d="M64.6708 52.6384H63.8638V110.393H64.6708V52.6384Z" fill="#0E35B1"/>
<path d="M65.4783 52.6384H64.6713V110.393H65.4783V52.6384Z" fill="#0E35B0"/>
<path d="M66.2853 52.6384H65.4783V110.393H66.2853V52.6384Z" fill="#0D34AF"/>
<path d="M67.0923 52.6384H66.2853V110.393H67.0923V52.6384Z" fill="#0D34AE"/>
<path d="M67.8993 52.6384H67.0923V110.393H67.8993V52.6384Z" fill="#0D33AD"/>
<path d="M68.7068 52.6384H67.8998V110.393H68.7068V52.6384Z" fill="#0D33AC"/>
<path d="M69.5138 52.6384H68.7068V110.393H69.5138V52.6384Z" fill="#0C32AB"/>
<path d="M70.3208 52.6384H69.5138V110.393H70.3208V52.6384Z" fill="#0C32AA"/>
<path d="M71.1278 52.6384H70.3208V110.393H71.1278V52.6384Z" fill="#0C31A9"/>
<path d="M71.9352 52.6384H71.1282V110.393H71.9352V52.6384Z" fill="#0B31A8"/>
<path d="M72.7422 52.6384H71.9352V110.393H72.7422V52.6384Z" fill="#0B30A7"/>
<path d="M73.5492 52.6384H72.7422V110.393H73.5492V52.6384Z" fill="#0B30A6"/>
<path d="M74.3562 52.6384H73.5492V110.393H74.3562V52.6384Z" fill="#0A2FA5"/>
<path d="M75.1637 52.6384H74.3567V110.393H75.1637V52.6384Z" fill="#0A2FA4"/>
<path d="M75.9707 52.6384H75.1637V110.393H75.9707V52.6384Z" fill="#0A2EA3"/>
<path d="M76.7777 52.6384H75.9707V110.393H76.7777V52.6384Z" fill="#092EA2"/>
<path d="M77.5847 52.6384H76.7777V110.393H77.5847V52.6384Z" fill="#092DA1"/>
<path d="M78.3921 52.6384H77.5851V110.393H78.3921V52.6384Z" fill="#092DA0"/>
<path d="M79.1991 52.6384H78.3921V110.393H79.1991V52.6384Z" fill="#082C9F"/>
<path d="M80.0061 52.6384H79.1991V110.393H80.0061V52.6384Z" fill="#082C9E"/>
<path d="M80.8131 52.6384H80.0061V110.393H80.8131V52.6384Z" fill="#082B9D"/>
<path d="M81.6206 52.6384H80.8136V110.393H81.6206V52.6384Z" fill="#082B9C"/>
<path d="M82.4276 52.6384H81.6206V110.393H82.4276V52.6384Z" fill="#072A9B"/>
<path d="M83.2346 52.6384H82.4276V110.393H83.2346V52.6384Z" fill="#072A9A"/>
<path d="M84.0415 52.6384H83.2346V110.393H84.0415V52.6384Z" fill="#072999"/>
<path d="M84.849 52.6384H84.0421V110.393H84.849V52.6384Z" fill="#062998"/>
<path d="M85.656 52.6384H84.849V110.393H85.656V52.6384Z" fill="#062897"/>
<path d="M86.4631 52.6384H85.6561V110.393H86.4631V52.6384Z" fill="#062896"/>
<path d="M87.27 52.6384H86.463V110.393H87.27V52.6384Z" fill="#052795"/>
<path d="M88.0775 52.6384H87.2705V110.393H88.0775V52.6384Z" fill="#052794"/>
<path d="M88.8845 52.6384H88.0775V110.393H88.8845V52.6384Z" fill="#052693"/>
<path d="M89.6914 52.6384H88.8845V110.393H89.6914V52.6384Z" fill="#042692"/>
<path d="M90.4985 52.6384H89.6915V110.393H90.4985V52.6384Z" fill="#042591"/>
<path d="M91.3059 52.6384H90.4989V110.393H91.3059V52.6384Z" fill="#042590"/>
<path d="M92.113 52.6384H91.306V110.393H92.113V52.6384Z" fill="#03248F"/>
<path d="M92.9199 52.6384H92.1129V110.393H92.9199V52.6384Z" fill="#03248E"/>
<path d="M93.7269 52.6384H92.9199V110.393H93.7269V52.6384Z" fill="#03238D"/>
<path d="M94.5344 52.6384H93.7274V110.393H94.5344V52.6384Z" fill="#03238C"/>
<path d="M95.3414 52.6384H94.5344V110.393H95.3414V52.6384Z" fill="#02228B"/>
<path d="M96.1484 52.6384H95.3414V110.393H96.1484V52.6384Z" fill="#02228A"/>
<path d="M96.9554 52.6384H96.1484V110.393H96.9554V52.6384Z" fill="#022189"/>
<path d="M97.7629 52.6384H96.9559V110.393H97.7629V52.6384Z" fill="#012188"/>
<path d="M98.5698 52.6384H97.7628V110.393H98.5698V52.6384Z" fill="#012087"/>
</g>
<mask id="mask4_4132_32316" style="mask-type:luminance" maskUnits="userSpaceOnUse" x="53" y="64" width="58" height="98">
<path d="M76.1846 146.487C67.7187 139.012 63.4462 122.918 64.3407 112.295C64.6333 108.886 65.2815 105.654 66.1765 102.615C66.8872 103.923 67.7479 105.163 68.7456 106.328C73.0932 111.41 78.4847 114.454 83.7036 117.401C89.8693 120.879 95.1914 123.889 98.174 129.754C100.267 133.872 100.285 139.08 98.2253 143.341C97.2044 145.448 94.7496 149.126 89.7368 150.159C88.5423 150.406 87.3848 150.53 86.2616 150.53C82.5706 150.53 79.2496 149.193 76.1846 146.487ZM75.5993 67.9156C73.6381 69.5259 71.8602 71.3875 70.3115 73.4096C70.0133 73.7862 69.7323 74.1749 69.4568 74.5631C63.4291 81.9818 55.0897 94.9859 53.7016 111.405C53.3692 115.385 53.5812 119.937 54.3614 124.632C56.1735 135.591 61.0488 147.333 69.1068 154.443C75.6109 160.188 83.4915 162.307 91.8995 160.57C98.8453 159.137 104.655 154.54 107.844 147.955C111.371 140.662 111.32 132.061 107.701 124.951C103.261 116.225 95.6678 111.936 88.9687 108.149C84.3573 105.545 79.9982 103.09 76.873 99.4348C75.2669 97.5501 74.3775 95.328 74.2233 92.7924C72.1866 91.2447 70.3226 89.4804 68.7114 87.527L65.4311 83.5691L69.273 80.1484C71.143 78.4979 74.4062 78.0811 76.7693 80.5541C76.9874 80.7823 77.2855 81.0912 77.6643 81.4563C77.7962 81.2391 77.9398 81.0335 78.0828 80.8224C79.5338 79.0751 80.8015 77.7326 81.696 76.8359C82.0692 76.4593 82.3729 76.1619 82.6026 75.9452C85.0861 73.5922 84.667 70.3429 83.0095 68.4808L79.5741 64.6548L75.5993 67.9156Z" fill="white"/>
</mask>
<g mask="url(#mask4_4132_32316)">
<path d="M63.5388 102.615H63.4457V151.216H63.5388V102.615Z" fill="#2052EB"/>
<path d="M64.0129 102.615H63.5392V151.216H64.0129V102.615Z" fill="#1F51EA"/>
<path d="M64.4865 102.615H64.0129V151.216H64.4865V102.615Z" fill="#1F51E9"/>
<path d="M64.9607 102.615H64.487V151.216H64.9607V102.615Z" fill="#1F50E8"/>
<path d="M65.4343 102.615H64.9606V151.216H65.4343V102.615Z" fill="#1F50E7"/>
<path d="M65.9084 102.615H65.4348V151.216H65.9084V102.615Z" fill="#1E4FE6"/>
<path d="M66.382 102.615H65.9084V151.216H66.382V102.615Z" fill="#1E4FE5"/>
<path d="M66.8561 102.615H66.3825V151.216H66.8561V102.615Z" fill="#1E4EE4"/>
<path d="M67.3298 102.615H66.8561V151.216H67.3298V102.615Z" fill="#1D4EE3"/>
<path d="M67.8038 102.615H67.3302V151.216H67.8038V102.615Z" fill="#1D4DE2"/>
<path d="M68.2775 102.615H67.8039V151.216H68.2775V102.615Z" fill="#1D4DE1"/>
<path d="M68.7516 102.615H68.278V151.216H68.7516V102.615Z" fill="#1C4CE0"/>
<path d="M69.2253 102.615H68.7516V151.216H69.2253V102.615Z" fill="#1C4CDF"/>
<path d="M69.6994 102.615H69.2257V151.216H69.6994V102.615Z" fill="#1C4BDE"/>
<path d="M70.173 102.615H69.6993V151.216H70.173V102.615Z" fill="#1B4BDD"/>
<path d="M70.6471 102.615H70.173V151.216H70.6471V102.615Z" fill="#1B4ADC"/>
<path d="M71.1207 102.615H70.6471V151.216H71.1207V102.615Z" fill="#1B4ADB"/>
<path d="M71.5949 102.615H71.1212V151.216H71.5949V102.615Z" fill="#1A49DA"/>
<path d="M72.0685 102.615H71.5948V151.216H72.0685V102.615Z" fill="#1A49D9"/>
<path d="M72.5426 102.615H72.069V151.216H72.5426V102.615Z" fill="#1A48D8"/>
<path d="M73.0163 102.615H72.5426V151.216H73.0163V102.615Z" fill="#1A48D7"/>
<path d="M73.4904 102.615H73.0167V151.216H73.4904V102.615Z" fill="#1947D6"/>
<path d="M73.964 102.615H73.4904V151.216H73.964V102.615Z" fill="#1947D5"/>
<path d="M74.4381 102.615H73.9645V151.216H74.4381V102.615Z" fill="#1946D4"/>
<path d="M74.9118 102.615H74.4381V151.216H74.9118V102.615Z" fill="#1846D3"/>
<path d="M75.3859 102.615H74.9122V151.216H75.3859V102.615Z" fill="#1845D2"/>
<path d="M75.8595 102.615H75.3859V151.216H75.8595V102.615Z" fill="#1845D1"/>
<path d="M76.3336 102.615H75.8599V151.216H76.3336V102.615Z" fill="#1744D0"/>
<path d="M76.8073 102.615H76.3336V151.216H76.8073V102.615Z" fill="#1744CF"/>
<path d="M77.2814 102.615H76.8077V151.216H77.2814V102.615Z" fill="#1743CE"/>
<path d="M77.755 102.615H77.2814V151.216H77.755V102.615Z" fill="#1643CD"/>
<path d="M78.2291 102.615H77.7555V151.216H78.2291V102.615Z" fill="#1642CC"/>
<path d="M78.7027 102.615H78.2291V151.216H78.7027V102.615Z" fill="#1642CB"/>
<path d="M79.1769 102.615H78.7028V151.216H79.1769V102.615Z" fill="#1641CA"/>
<path d="M79.651 102.615H79.1773V151.216H79.651V102.615Z" fill="#1541C9"/>
<path d="M80.1246 102.615H79.6509V151.216H80.1246V102.615Z" fill="#1540C8"/>
<path d="M80.5987 102.615H80.1251V151.216H80.5987V102.615Z" fill="#1540C7"/>
<path d="M81.0723 102.615H80.5987V151.216H81.0723V102.615Z" fill="#143FC6"/>
<path d="M81.5465 102.615H81.0728V151.216H81.5465V102.615Z" fill="#143FC5"/>
<path d="M82.0201 102.615H81.5464V151.216H82.0201V102.615Z" fill="#143EC4"/>
<path d="M82.4942 102.615H82.0206V151.216H82.4942V102.615Z" fill="#133EC2"/>
<path d="M82.9678 102.615H82.4942V151.216H82.9678V102.615Z" fill="#133DC1"/>
<path d="M83.442 102.615H82.9683V151.216H83.442V102.615Z" fill="#133DC0"/>
<path d="M83.9156 102.615H83.442V151.216H83.9156V102.615Z" fill="#123CBF"/>
<path d="M84.3897 102.615H83.916V151.216H84.3897V102.615Z" fill="#123CBE"/>
<path d="M84.8634 102.615H84.3897V151.216H84.8634V102.615Z" fill="#123BBD"/>
<path d="M85.3374 102.615H84.8638V151.216H85.3374V102.615Z" fill="#113BBC"/>
<path d="M85.8111 102.615H85.3375V151.216H85.8111V102.615Z" fill="#113ABB"/>
<path d="M86.2852 102.615H85.8115V151.216H86.2852V102.615Z" fill="#113ABA"/>
<path d="M86.7588 102.615H86.2852V151.216H86.7588V102.615Z" fill="#1139B9"/>
<path d="M87.2325 102.615H86.7589V151.216H87.2325V102.615Z" fill="#1039B8"/>
<path d="M87.7066 102.615H87.2325V151.216H87.7066V102.615Z" fill="#1038B7"/>
<path d="M88.1807 102.615H87.707V151.216H88.1807V102.615Z" fill="#1038B6"/>
<path d="M88.6543 102.615H88.1807V151.216H88.6543V102.615Z" fill="#0F37B5"/>
<path d="M89.1284 102.615H88.6548V151.216H89.1284V102.615Z" fill="#0F37B4"/>
<path d="M89.6021 102.615H89.1284V151.216H89.6021V102.615Z" fill="#0F36B3"/>
<path d="M90.0762 102.615H89.6025V151.216H90.0762V102.615Z" fill="#0E36B2"/>
<path d="M90.5498 102.615H90.0762V151.216H90.5498V102.615Z" fill="#0E35B1"/>
<path d="M91.0239 102.615H90.5503V151.216H91.0239V102.615Z" fill="#0E35B0"/>
<path d="M91.4976 102.615H91.0239V151.216H91.4976V102.615Z" fill="#0D34AF"/>
<path d="M91.9716 102.615H91.498V151.216H91.9716V102.615Z" fill="#0D34AE"/>
<path d="M92.4453 102.615H91.9717V151.216H92.4453V102.615Z" fill="#0D33AD"/>
<path d="M92.9194 102.615H92.4457V151.216H92.9194V102.615Z" fill="#0D33AC"/>
<path d="M93.3931 102.615H92.9194V151.216H93.3931V102.615Z" fill="#0C32AB"/>
<path d="M93.8672 102.615H93.3936V151.216H93.8672V102.615Z" fill="#0C32AA"/>
<path d="M94.3408 102.615H93.8671V151.216H94.3408V102.615Z" fill="#0C31A9"/>
<path d="M94.8149 102.615H94.3412V151.216H94.8149V102.615Z" fill="#0B31A8"/>
<path d="M95.2885 102.615H94.8149V151.216H95.2885V102.615Z" fill="#0B30A7"/>
<path d="M95.7626 102.615H95.289V151.216H95.7626V102.615Z" fill="#0B30A6"/>
<path d="M96.2363 102.615H95.7622V151.216H96.2363V102.615Z" fill="#0A2FA5"/>
<path d="M96.7104 102.615H96.2368V151.216H96.7104V102.615Z" fill="#0A2FA4"/>
<path d="M97.184 102.615H96.7104V151.216H97.184V102.615Z" fill="#0A2EA3"/>
<path d="M97.6582 102.615H97.1845V151.216H97.6582V102.615Z" fill="#092EA2"/>
<path d="M98.1318 102.615H97.6581V151.216H98.1318V102.615Z" fill="#092DA1"/>
<path d="M98.6059 102.615H98.1323V151.216H98.6059V102.615Z" fill="#092DA0"/>
<path d="M99.0795 102.615H98.6059V151.216H99.0795V102.615Z" fill="#082C9F"/>
<path d="M99.5537 102.615H99.08V151.216H99.5537V102.615Z" fill="#082C9E"/>
<path d="M100.027 102.615H99.5536V151.216H100.027V102.615Z" fill="#082B9D"/>
<path d="M100.285 102.615H100.027V151.216H100.285V102.615Z" fill="#082B9C"/>
<path d="M53.5877 64.6543H53.3691V162.307H53.5877V64.6543Z" fill="#265CFF"/>
<path d="M54.0613 64.6543H53.5876V162.307H54.0613V64.6543Z" fill="#265CFF"/>
<path d="M54.5354 64.6543H54.0618V162.307H54.5354V64.6543Z" fill="#265BFE"/>
<path d="M55.009 64.6543H54.5354V162.307H55.009V64.6543Z" fill="#255BFD"/>
<path d="M55.4832 64.6543H55.0095V162.307H55.4832V64.6543Z" fill="#255AFC"/>
<path d="M55.9568 64.6543H55.4832V162.307H55.9568V64.6543Z" fill="#255AFB"/>
<path d="M56.4309 64.6543H55.9573V162.307H56.4309V64.6543Z" fill="#2459FA"/>
<path d="M56.9046 64.6543H56.4309V162.307H56.9046V64.6543Z" fill="#2459F9"/>
<path d="M57.3787 64.6543H56.905V162.307H57.3787V64.6543Z" fill="#2458F8"/>
<path d="M57.8523 64.6543H57.3787V162.307H57.8523V64.6543Z" fill="#2458F7"/>
<path d="M58.3264 64.6543H57.8528V162.307H58.3264V64.6543Z" fill="#2357F6"/>
<path d="M58.8001 64.6543H58.3264V162.307H58.8001V64.6543Z" fill="#2357F5"/>
<path d="M59.2742 64.6543H58.8005V162.307H59.2742V64.6543Z" fill="#2356F4"/>
<path d="M59.7478 64.6543H59.2742V162.307H59.7478V64.6543Z" fill="#2256F3"/>
<path d="M60.2219 64.6543H59.7483V162.307H60.2219V64.6543Z" fill="#2255F2"/>
<path d="M60.6955 64.6543H60.2219V162.307H60.6955V64.6543Z" fill="#2255F1"/>
<path d="M61.1697 64.6543H60.696V162.307H61.1697V64.6543Z" fill="#2154F0"/>
<path d="M61.6433 64.6543H61.1697V162.307H61.6433V64.6543Z" fill="#2154EF"/>
<path d="M62.1174 64.6543H61.6433V162.307H62.1174V64.6543Z" fill="#2153EE"/>
<path d="M62.5911 64.6543H62.1174V162.307H62.5911V64.6543Z" fill="#2053ED"/>
<path d="M63.0651 64.6543H62.5915V162.307H63.0651V64.6543Z" fill="#2052EC"/>
<path d="M63.5388 64.6543H63.0651V162.307H63.5388V64.6543Z" fill="#2052EB"/>
<path d="M64.0129 64.6543H63.5392V162.307H64.0129V64.6543Z" fill="#1F51EA"/>
<path d="M64.4865 64.6543H64.0129V162.307H64.4865V64.6543Z" fill="#1F51E9"/>
<path d="M64.9607 64.6543H64.487V162.307H64.9607V64.6543Z" fill="#1F50E8"/>
<path d="M65.4343 64.6543H64.9606V162.307H65.4343V64.6543Z" fill="#1F50E7"/>
<path d="M65.9084 64.6543H65.4348V162.307H65.9084V64.6543Z" fill="#1E4FE6"/>
<path d="M66.382 64.6543H65.9084V162.307H66.382V64.6543Z" fill="#1E4FE5"/>
<path d="M66.8561 64.6543H66.3825V162.307H66.8561V64.6543Z" fill="#1E4EE4"/>
<path d="M67.3298 64.6543H66.8561V162.307H67.3298V64.6543Z" fill="#1D4EE3"/>
<path d="M67.8038 64.6543H67.3302V162.307H67.8038V64.6543Z" fill="#1D4DE2"/>
<path d="M68.2775 64.6543H67.8039V162.307H68.2775V64.6543Z" fill="#1D4DE1"/>
<path d="M68.7516 64.6543H68.278V162.307H68.7516V64.6543Z" fill="#1C4CE0"/>
<path d="M69.2253 64.6543H68.7516V162.307H69.2253V64.6543Z" fill="#1C4CDF"/>
<path d="M69.6994 64.6543H69.2257V162.307H69.6994V64.6543Z" fill="#1C4BDE"/>
<path d="M70.173 64.6543H69.6993V162.307H70.173V64.6543Z" fill="#1B4BDD"/>
<path d="M70.6471 64.6543H70.173V162.307H70.6471V64.6543Z" fill="#1B4ADC"/>
<path d="M71.1207 64.6543H70.6471V162.307H71.1207V64.6543Z" fill="#1B4ADB"/>
<path d="M71.5949 64.6543H71.1212V162.307H71.5949V64.6543Z" fill="#1A49DA"/>
<path d="M72.0685 64.6543H71.5948V162.307H72.0685V64.6543Z" fill="#1A49D9"/>
<path d="M72.5426 64.6543H72.069V162.307H72.5426V64.6543Z" fill="#1A48D8"/>
<path d="M73.0163 64.6543H72.5426V162.307H73.0163V64.6543Z" fill="#1A48D7"/>
<path d="M73.4904 64.6543H73.0167V162.307H73.4904V64.6543Z" fill="#1947D6"/>
<path d="M73.964 64.6543H73.4904V162.307H73.964V64.6543Z" fill="#1947D5"/>
<path d="M74.4381 64.6543H73.9645V162.307H74.4381V64.6543Z" fill="#1946D4"/>
<path d="M74.9118 64.6543H74.4381V162.307H74.9118V64.6543Z" fill="#1846D3"/>
<path d="M75.3859 64.6543H74.9122V162.307H75.3859V64.6543Z" fill="#1845D2"/>
<path d="M75.8595 64.6543H75.3859V162.307H75.8595V64.6543Z" fill="#1845D1"/>
<path d="M76.3336 64.6543H75.8599V162.307H76.3336V64.6543Z" fill="#1744D0"/>
<path d="M76.8073 64.6543H76.3336V162.307H76.8073V64.6543Z" fill="#1744CF"/>
<path d="M77.2814 64.6543H76.8077V162.307H77.2814V64.6543Z" fill="#1743CE"/>
<path d="M77.755 64.6543H77.2814V162.307H77.755V64.6543Z" fill="#1643CD"/>
<path d="M78.2291 64.6543H77.7555V162.307H78.2291V64.6543Z" fill="#1642CC"/>
<path d="M78.7027 64.6543H78.2291V162.307H78.7027V64.6543Z" fill="#1642CB"/>
<path d="M79.1769 64.6543H78.7028V162.307H79.1769V64.6543Z" fill="#1641CA"/>
<path d="M79.651 64.6543H79.1773V162.307H79.651V64.6543Z" fill="#1541C9"/>
<path d="M80.1246 64.6543H79.6509V162.307H80.1246V64.6543Z" fill="#1540C8"/>
<path d="M80.5987 64.6543H80.1251V162.307H80.5987V64.6543Z" fill="#1540C7"/>
<path d="M81.0723 64.6543H80.5987V162.307H81.0723V64.6543Z" fill="#143FC6"/>
<path d="M81.5465 64.6543H81.0728V162.307H81.5465V64.6543Z" fill="#143FC5"/>
<path d="M82.0201 64.6543H81.5464V162.307H82.0201V64.6543Z" fill="#143EC4"/>
<path d="M82.4942 64.6543H82.0206V162.307H82.4942V64.6543Z" fill="#133EC2"/>
<path d="M82.9678 64.6543H82.4942V162.307H82.9678V64.6543Z" fill="#133DC1"/>
<path d="M83.442 64.6543H82.9683V162.307H83.442V64.6543Z" fill="#133DC0"/>
<path d="M83.9156 64.6543H83.442V162.307H83.9156V64.6543Z" fill="#123CBF"/>
<path d="M84.3897 64.6543H83.916V162.307H84.3897V64.6543Z" fill="#123CBE"/>
<path d="M84.8634 64.6543H84.3897V162.307H84.8634V64.6543Z" fill="#123BBD"/>
<path d="M85.3374 64.6543H84.8638V162.307H85.3374V64.6543Z" fill="#113BBC"/>
<path d="M85.8111 64.6543H85.3375V162.307H85.8111V64.6543Z" fill="#113ABB"/>
<path d="M86.2852 64.6543H85.8115V162.307H86.2852V64.6543Z" fill="#113ABA"/>
<path d="M86.7588 64.6543H86.2852V162.307H86.7588V64.6543Z" fill="#1139B9"/>
<path d="M87.2325 64.6543H86.7589V162.307H87.2325V64.6543Z" fill="#1039B8"/>
<path d="M87.7066 64.6543H87.2325V162.307H87.7066V64.6543Z" fill="#1038B7"/>
<path d="M88.1807 64.6543H87.707V162.307H88.1807V64.6543Z" fill="#1038B6"/>
<path d="M88.6543 64.6543H88.1807V162.307H88.6543V64.6543Z" fill="#0F37B5"/>
<path d="M89.1284 64.6543H88.6548V162.307H89.1284V64.6543Z" fill="#0F37B4"/>
<path d="M89.6021 64.6543H89.1284V162.307H89.6021V64.6543Z" fill="#0F36B3"/>
<path d="M90.0762 64.6543H89.6025V162.307H90.0762V64.6543Z" fill="#0E36B2"/>
<path d="M90.5498 64.6543H90.0762V162.307H90.5498V64.6543Z" fill="#0E35B1"/>
<path d="M91.0239 64.6543H90.5503V162.307H91.0239V64.6543Z" fill="#0E35B0"/>
<path d="M91.4976 64.6543H91.0239V162.307H91.4976V64.6543Z" fill="#0D34AF"/>
<path d="M91.9716 64.6543H91.498V162.307H91.9716V64.6543Z" fill="#0D34AE"/>
<path d="M92.4453 64.6543H91.9717V162.307H92.4453V64.6543Z" fill="#0D33AD"/>
<path d="M92.9194 64.6543H92.4457V162.307H92.9194V64.6543Z" fill="#0D33AC"/>
<path d="M93.3931 64.6543H92.9194V162.307H93.3931V64.6543Z" fill="#0C32AB"/>
<path d="M93.8672 64.6543H93.3936V162.307H93.8672V64.6543Z" fill="#0C32AA"/>
<path d="M94.3408 64.6543H93.8671V162.307H94.3408V64.6543Z" fill="#0C31A9"/>
<path d="M94.8149 64.6543H94.3412V162.307H94.8149V64.6543Z" fill="#0B31A8"/>
<path d="M95.2885 64.6543H94.8149V162.307H95.2885V64.6543Z" fill="#0B30A7"/>
<path d="M95.7626 64.6543H95.289V162.307H95.7626V64.6543Z" fill="#0B30A6"/>
<path d="M96.2363 64.6543H95.7622V162.307H96.2363V64.6543Z" fill="#0A2FA5"/>
<path d="M96.7104 64.6543H96.2368V162.307H96.7104V64.6543Z" fill="#0A2FA4"/>
<path d="M97.184 64.6543H96.7104V162.307H97.184V64.6543Z" fill="#0A2EA3"/>
<path d="M97.6582 64.6543H97.1845V162.307H97.6582V64.6543Z" fill="#092EA2"/>
<path d="M98.1318 64.6543H97.6581V162.307H98.1318V64.6543Z" fill="#092DA1"/>
<path d="M98.6059 64.6543H98.1323V162.307H98.6059V64.6543Z" fill="#092DA0"/>
<path d="M99.0795 64.6543H98.6059V162.307H99.0795V64.6543Z" fill="#082C9F"/>
<path d="M99.5537 64.6543H99.08V162.307H99.5537V64.6543Z" fill="#082C9E"/>
<path d="M100.027 64.6543H99.5536V162.307H100.027V64.6543Z" fill="#082B9D"/>
<path d="M100.501 64.6543H100.028V162.307H100.501V64.6543Z" fill="#082B9C"/>
<path d="M100.975 64.6543H100.501V162.307H100.975V64.6543Z" fill="#072A9B"/>
<path d="M101.449 64.6543H100.975V162.307H101.449V64.6543Z" fill="#072A9A"/>
<path d="M101.923 64.6543H101.449V162.307H101.923V64.6543Z" fill="#072999"/>
<path d="M102.397 64.6543H101.923V162.307H102.397V64.6543Z" fill="#062998"/>
<path d="M102.87 64.6543H102.397V162.307H102.87V64.6543Z" fill="#062897"/>
<path d="M103.345 64.6543H102.871V162.307H103.345V64.6543Z" fill="#062896"/>
<path d="M103.818 64.6543H103.345V162.307H103.818V64.6543Z" fill="#052795"/>
<path d="M104.292 64.6543H103.819V162.307H104.292V64.6543Z" fill="#052794"/>
<path d="M104.766 64.6543H104.292V162.307H104.766V64.6543Z" fill="#052693"/>
<path d="M105.24 64.6543H104.766V162.307H105.24V64.6543Z" fill="#042692"/>
<path d="M105.714 64.6543H105.24V162.307H105.714V64.6543Z" fill="#042591"/>
<path d="M106.188 64.6543H105.714V162.307H106.188V64.6543Z" fill="#042590"/>
<path d="M106.662 64.6543H106.188V162.307H106.662V64.6543Z" fill="#03248F"/>
<path d="M107.136 64.6543H106.662V162.307H107.136V64.6543Z" fill="#03248E"/>
<path d="M107.609 64.6543H107.136V162.307H107.609V64.6543Z" fill="#03238D"/>
<path d="M108.083 64.6543H107.61V162.307H108.083V64.6543Z" fill="#03238C"/>
<path d="M108.557 64.6543H108.083V162.307H108.557V64.6543Z" fill="#02228B"/>
<path d="M109.031 64.6543H108.557V162.307H109.031V64.6543Z" fill="#02228A"/>
<path d="M109.505 64.6543H109.031V162.307H109.505V64.6543Z" fill="#022189"/>
<path d="M109.979 64.6543H109.505V162.307H109.979V64.6543Z" fill="#012188"/>
<path d="M110.452 64.6543H109.979V162.307H110.452V64.6543Z" fill="#012087"/>
<path d="M111.371 64.6543H110.453V162.307H111.371V64.6543Z" fill="#012087"/>
</g>
<mask id="mask5_4132_32316" style="mask-type:luminance" maskUnits="userSpaceOnUse" x="53" y="1" width="58" height="97">
<path d="M95.2548 55.9737C90.9073 50.8909 85.5158 47.8473 80.3029 44.906C74.1368 41.422 68.8086 38.418 65.8265 32.5473C63.7329 28.4295 63.7157 23.2268 65.7807 18.961C66.7956 16.8592 69.2503 13.1756 74.2632 12.142C79.3848 11.0853 83.8184 12.2905 87.8159 15.8141C96.2813 23.2895 100.554 39.3834 99.6593 50.0113C99.3727 53.4155 98.7189 56.6533 97.83 59.6859C97.1128 58.3839 96.253 57.1387 95.2548 55.9737ZM72.101 1.73073C65.1556 3.16451 59.3455 7.76184 56.1625 14.3466C52.6293 21.6395 52.6868 30.2399 56.3 37.3507C60.7392 46.0825 68.3327 50.3714 75.0373 54.1518C79.6487 56.7561 84.0018 59.2175 87.1335 62.8725C88.7447 64.7516 89.6285 66.9793 89.7776 69.5089C91.8078 71.0505 93.6779 72.8269 95.2891 74.7742L98.5699 78.7381L94.727 82.1584C92.8574 83.8033 89.5938 84.2261 87.2312 81.7532C87.0131 81.525 86.7149 81.2161 86.3362 80.8505C86.2042 81.0621 86.0612 81.2737 85.9176 81.4849C84.4661 83.2266 83.1989 84.5746 82.304 85.4713C81.9317 85.848 81.6275 86.1453 81.3979 86.362C78.9149 88.7151 79.3334 91.9644 80.9905 93.826L84.4263 97.6525L88.4067 94.3857C90.3624 92.7753 92.1408 90.9197 93.689 88.8976C93.9872 88.515 94.2742 88.1323 94.5497 87.7382C100.571 80.3254 108.911 67.3214 110.299 50.9025C110.637 46.916 110.419 42.3703 109.645 37.6758C107.826 26.7108 102.952 14.9745 94.8992 7.85864C89.8674 3.41809 84.0069 1.14523 77.719 1.14478C75.8795 1.14478 74.0039 1.33932 72.101 1.73073Z" fill="white"/>
</mask>
<g mask="url(#mask5_4132_32316)">
<path d="M64.0135 11.0852H63.7158V59.6857H64.0135V11.0852Z" fill="#1F51EA"/>
<path d="M64.4876 11.0852H64.0139V59.6857H64.4876V11.0852Z" fill="#1F51E9"/>
<path d="M64.9612 11.0852H64.4875V59.6857H64.9612V11.0852Z" fill="#1F50E8"/>
<path d="M65.4353 11.0852H64.9617V59.6857H65.4353V11.0852Z" fill="#1F50E7"/>
<path d="M65.909 11.0852H65.4353V59.6857H65.909V11.0852Z" fill="#1E4FE6"/>
<path d="M66.3831 11.0852H65.9094V59.6857H66.3831V11.0852Z" fill="#1E4FE5"/>
<path d="M66.8567 11.0852H66.3831V59.6857H66.8567V11.0852Z" fill="#1E4EE4"/>
<path d="M67.3308 11.0852H66.8572V59.6857H67.3308V11.0852Z" fill="#1D4EE3"/>
<path d="M67.8045 11.0852H67.3308V59.6857H67.8045V11.0852Z" fill="#1D4DE2"/>
<path d="M68.2786 11.0852H67.8049V59.6857H68.2786V11.0852Z" fill="#1D4DE1"/>
<path d="M68.7522 11.0852H68.2786V59.6857H68.7522V11.0852Z" fill="#1C4CE0"/>
<path d="M69.2263 11.0852H68.7527V59.6857H69.2263V11.0852Z" fill="#1C4CDF"/>
<path d="M69.7 11.0852H69.2263V59.6857H69.7V11.0852Z" fill="#1C4BDE"/>
<path d="M70.174 11.0852H69.7004V59.6857H70.174V11.0852Z" fill="#1B4BDD"/>
<path d="M70.6477 11.0852H70.1741V59.6857H70.6477V11.0852Z" fill="#1B4ADC"/>
<path d="M71.1218 11.0852H70.6481V59.6857H71.1218V11.0852Z" fill="#1B4ADB"/>
<path d="M71.5955 11.0852H71.1218V59.6857H71.5955V11.0852Z" fill="#1A49DA"/>
<path d="M72.0695 11.0852H71.5959V59.6857H72.0695V11.0852Z" fill="#1A49D9"/>
<path d="M72.5432 11.0852H72.0695V59.6857H72.5432V11.0852Z" fill="#1A48D8"/>
<path d="M73.0173 11.0852H72.5436V59.6857H73.0173V11.0852Z" fill="#1A48D7"/>
<path d="M73.4909 11.0852H73.0173V59.6857H73.4909V11.0852Z" fill="#1947D6"/>
<path d="M73.965 11.0852H73.4914V59.6857H73.965V11.0852Z" fill="#1947D5"/>
<path d="M74.4387 11.0852H73.965V59.6857H74.4387V11.0852Z" fill="#1946D4"/>
<path d="M74.9128 11.0852H74.4391V59.6857H74.9128V11.0852Z" fill="#1846D3"/>
<path d="M75.3864 11.0852H74.9128V59.6857H75.3864V11.0852Z" fill="#1845D2"/>
<path d="M75.8605 11.0852H75.3869V59.6857H75.8605V11.0852Z" fill="#1845D1"/>
<path d="M76.3342 11.0852H75.8605V59.6857H76.3342V11.0852Z" fill="#1744D0"/>
<path d="M76.8082 11.0852H76.3346V59.6857H76.8082V11.0852Z" fill="#1744CF"/>
<path d="M77.2819 11.0852H76.8083V59.6857H77.2819V11.0852Z" fill="#1743CE"/>
<path d="M77.756 11.0852H77.2819V59.6857H77.756V11.0852Z" fill="#1643CD"/>
<path d="M78.2297 11.0852H77.756V59.6857H78.2297V11.0852Z" fill="#1642CC"/>
<path d="M78.7038 11.0852H78.2301V59.6857H78.7038V11.0852Z" fill="#1642CB"/>
<path d="M79.1774 11.0852H78.7037V59.6857H79.1774V11.0852Z" fill="#1641CA"/>
<path d="M79.6515 11.0852H79.1779V59.6857H79.6515V11.0852Z" fill="#1541C9"/>
<path d="M80.1251 11.0852H79.6515V59.6857H80.1251V11.0852Z" fill="#1540C8"/>
<path d="M80.5993 11.0852H80.1256V59.6857H80.5993V11.0852Z" fill="#1540C7"/>
<path d="M81.0729 11.0852H80.5992V59.6857H81.0729V11.0852Z" fill="#143FC6"/>
<path d="M81.547 11.0852H81.0734V59.6857H81.547V11.0852Z" fill="#143FC5"/>
<path d="M82.0206 11.0852H81.547V59.6857H82.0206V11.0852Z" fill="#143EC4"/>
<path d="M82.4948 11.0852H82.0211V59.6857H82.4948V11.0852Z" fill="#133EC2"/>
<path d="M82.9684 11.0852H82.4948V59.6857H82.9684V11.0852Z" fill="#133DC1"/>
<path d="M83.4425 11.0852H82.9689V59.6857H83.4425V11.0852Z" fill="#133DC0"/>
<path d="M83.9162 11.0852H83.4425V59.6857H83.9162V11.0852Z" fill="#123CBF"/>
<path d="M84.3902 11.0852H83.9166V59.6857H84.3902V11.0852Z" fill="#123CBE"/>
<path d="M84.8639 11.0852H84.3903V59.6857H84.8639V11.0852Z" fill="#123BBD"/>
<path d="M85.338 11.0852H84.8643V59.6857H85.338V11.0852Z" fill="#113BBC"/>
<path d="M85.8117 11.0852H85.338V59.6857H85.8117V11.0852Z" fill="#113ABB"/>
<path d="M86.2858 11.0852H85.8121V59.6857H86.2858V11.0852Z" fill="#113ABA"/>
<path d="M86.7594 11.0852H86.2857V59.6857H86.7594V11.0852Z" fill="#1139B9"/>
<path d="M87.2335 11.0852H86.7599V59.6857H87.2335V11.0852Z" fill="#1039B8"/>
<path d="M87.7071 11.0852H87.2335V59.6857H87.7071V11.0852Z" fill="#1038B7"/>
<path d="M88.1812 11.0852H87.7076V59.6857H88.1812V11.0852Z" fill="#1038B6"/>
<path d="M88.6549 11.0852H88.1812V59.6857H88.6549V11.0852Z" fill="#0F37B5"/>
<path d="M89.129 11.0852H88.6553V59.6857H89.129V11.0852Z" fill="#0F37B4"/>
<path d="M89.6027 11.0852H89.129V59.6857H89.6027V11.0852Z" fill="#0F36B3"/>
<path d="M90.0767 11.0852H89.6031V59.6857H90.0767V11.0852Z" fill="#0E36B2"/>
<path d="M90.5504 11.0852H90.0767V59.6857H90.5504V11.0852Z" fill="#0E35B1"/>
<path d="M91.0245 11.0852H90.5508V59.6857H91.0245V11.0852Z" fill="#0E35B0"/>
<path d="M91.4981 11.0852H91.0245V59.6857H91.4981V11.0852Z" fill="#0D34AF"/>
<path d="M91.9722 11.0852H91.4986V59.6857H91.9722V11.0852Z" fill="#0D34AE"/>
<path d="M92.4459 11.0852H91.9722V59.6857H92.4459V11.0852Z" fill="#0D33AD"/>
<path d="M92.92 11.0852H92.4464V59.6857H92.92V11.0852Z" fill="#0D33AC"/>
<path d="M93.3936 11.0852H92.92V59.6857H93.3936V11.0852Z" fill="#0C32AB"/>
<path d="M93.8678 11.0852H93.3941V59.6857H93.8678V11.0852Z" fill="#0C32AA"/>
<path d="M94.3414 11.0852H93.8677V59.6857H94.3414V11.0852Z" fill="#0C31A9"/>
<path d="M94.8154 11.0852H94.3418V59.6857H94.8154V11.0852Z" fill="#0B31A8"/>
<path d="M95.2891 11.0852H94.8155V59.6857H95.2891V11.0852Z" fill="#0B30A7"/>
<path d="M95.7632 11.0852H95.2896V59.6857H95.7632V11.0852Z" fill="#0B30A6"/>
<path d="M96.2368 11.0852H95.7632V59.6857H96.2368V11.0852Z" fill="#0A2FA5"/>
<path d="M96.711 11.0852H96.2373V59.6857H96.711V11.0852Z" fill="#0A2FA4"/>
<path d="M97.1846 11.0852H96.7109V59.6857H97.1846V11.0852Z" fill="#0A2EA3"/>
<path d="M97.6587 11.0852H97.1851V59.6857H97.6587V11.0852Z" fill="#092EA2"/>
<path d="M98.1323 11.0852H97.6587V59.6857H98.1323V11.0852Z" fill="#092DA1"/>
<path d="M98.6065 11.0852H98.1328V59.6857H98.6065V11.0852Z" fill="#092DA0"/>
<path d="M99.0801 11.0852H98.6064V59.6857H99.0801V11.0852Z" fill="#082C9F"/>
<path d="M99.5542 11.0852H99.0806V59.6857H99.5542V11.0852Z" fill="#082C9E"/>
<path d="M100.028 11.0852H99.5542V59.6857H100.028V11.0852Z" fill="#082B9D"/>
<path d="M100.502 11.0852H100.028V59.6857H100.502V11.0852Z" fill="#082B9C"/>
<path d="M100.554 11.0852H100.502V59.6857H100.554V11.0852Z" fill="#072A9B"/>
<path d="M53.5882 0H52.6294V97.6524H53.5882V0Z" fill="#265CFF"/>
<path d="M54.0623 0H53.5887V97.6524H54.0623V0Z" fill="#265CFF"/>
<path d="M54.536 0H54.0624V97.6524H54.536V0Z" fill="#265BFE"/>
<path d="M55.0101 0H54.5364V97.6524H55.0101V0Z" fill="#255BFD"/>
<path d="M55.4837 0H55.0101V97.6524H55.4837V0Z" fill="#255AFC"/>
<path d="M55.9578 0H55.4842V97.6524H55.9578V0Z" fill="#255AFB"/>
<path d="M56.4315 0H55.9578V97.6524H56.4315V0Z" fill="#2459FA"/>
<path d="M56.9056 0H56.4319V97.6524H56.9056V0Z" fill="#2459F9"/>
<path d="M57.3792 0H56.9056V97.6524H57.3792V0Z" fill="#2458F8"/>
<path d="M57.8533 0H57.3797V97.6524H57.8533V0Z" fill="#2458F7"/>
<path d="M58.327 0H57.8533V97.6524H58.327V0Z" fill="#2357F6"/>
<path d="M58.8011 0H58.3275V97.6524H58.8011V0Z" fill="#2357F5"/>
<path d="M59.2747 0H58.8011V97.6524H59.2747V0Z" fill="#2356F4"/>
<path d="M59.7488 0H59.2751V97.6524H59.7488V0Z" fill="#2256F3"/>
<path d="M60.2225 0H59.7488V97.6524H60.2225V0Z" fill="#2255F2"/>
<path d="M60.6965 0H60.2229V97.6524H60.6965V0Z" fill="#2255F1"/>
<path d="M61.1702 0H60.6965V97.6524H61.1702V0Z" fill="#2154F0"/>
<path d="M61.6443 0H61.1707V97.6524H61.6443V0Z" fill="#2154EF"/>
<path d="M62.1179 0H61.6443V97.6524H62.1179V0Z" fill="#2153EE"/>
<path d="M62.5921 0H62.1184V97.6524H62.5921V0Z" fill="#2053ED"/>
<path d="M63.0657 0H62.592V97.6524H63.0657V0Z" fill="#2052EC"/>
<path d="M63.5398 0H63.0662V97.6524H63.5398V0Z" fill="#2052EB"/>
<path d="M64.0134 0H63.5398V97.6524H64.0134V0Z" fill="#1F51EA"/>
<path d="M64.4876 0H64.0139V97.6524H64.4876V0Z" fill="#1F51E9"/>
<path d="M64.9612 0H64.4875V97.6524H64.9612V0Z" fill="#1F50E8"/>
<path d="M65.4353 0H64.9617V97.6524H65.4353V0Z" fill="#1F50E7"/>
<path d="M65.909 0H65.4353V97.6524H65.909V0Z" fill="#1E4FE6"/>
<path d="M66.3831 0H65.9094V97.6524H66.3831V0Z" fill="#1E4FE5"/>
<path d="M66.8567 0H66.3831V97.6524H66.8567V0Z" fill="#1E4EE4"/>
<path d="M67.3308 0H66.8572V97.6524H67.3308V0Z" fill="#1D4EE3"/>
<path d="M67.8045 0H67.3308V97.6524H67.8045V0Z" fill="#1D4DE2"/>
<path d="M68.2786 0H67.8049V97.6524H68.2786V0Z" fill="#1D4DE1"/>
<path d="M68.7522 0H68.2786V97.6524H68.7522V0Z" fill="#1C4CE0"/>
<path d="M69.2263 0H68.7527V97.6524H69.2263V0Z" fill="#1C4CDF"/>
<path d="M69.7 0H69.2263V97.6524H69.7V0Z" fill="#1C4BDE"/>
<path d="M70.174 0H69.7004V97.6524H70.174V0Z" fill="#1B4BDD"/>
<path d="M70.6477 0H70.1741V97.6524H70.6477V0Z" fill="#1B4ADC"/>
<path d="M71.1218 0H70.6481V97.6524H71.1218V0Z" fill="#1B4ADB"/>
<path d="M71.5955 0H71.1218V97.6524H71.5955V0Z" fill="#1A49DA"/>
<path d="M72.0695 0H71.5959V97.6524H72.0695V0Z" fill="#1A49D9"/>
<path d="M72.5432 0H72.0695V97.6524H72.5432V0Z" fill="#1A48D8"/>
<path d="M73.0173 0H72.5436V97.6524H73.0173V0Z" fill="#1A48D7"/>
<path d="M73.4909 0H73.0173V97.6524H73.4909V0Z" fill="#1947D6"/>
<path d="M73.965 0H73.4914V97.6524H73.965V0Z" fill="#1947D5"/>
<path d="M74.4387 0H73.965V97.6524H74.4387V0Z" fill="#1946D4"/>
<path d="M74.9128 0H74.4391V97.6524H74.9128V0Z" fill="#1846D3"/>
<path d="M75.3864 0H74.9128V97.6524H75.3864V0Z" fill="#1845D2"/>
<path d="M75.8605 0H75.3869V97.6524H75.8605V0Z" fill="#1845D1"/>
<path d="M76.3342 0H75.8605V97.6524H76.3342V0Z" fill="#1744D0"/>
<path d="M76.8082 0H76.3346V97.6524H76.8082V0Z" fill="#1744CF"/>
<path d="M77.2819 0H76.8083V97.6524H77.2819V0Z" fill="#1743CE"/>
<path d="M77.756 0H77.2819V97.6524H77.756V0Z" fill="#1643CD"/>
<path d="M78.2297 0H77.756V97.6524H78.2297V0Z" fill="#1642CC"/>
<path d="M78.7038 0H78.2301V97.6524H78.7038V0Z" fill="#1642CB"/>
<path d="M79.1774 0H78.7037V97.6524H79.1774V0Z" fill="#1641CA"/>
<path d="M79.6515 0H79.1779V97.6524H79.6515V0Z" fill="#1541C9"/>
<path d="M80.1251 0H79.6515V97.6524H80.1251V0Z" fill="#1540C8"/>
<path d="M80.5993 0H80.1256V97.6524H80.5993V0Z" fill="#1540C7"/>
<path d="M81.0729 0H80.5992V97.6524H81.0729V0Z" fill="#143FC6"/>
<path d="M81.547 0H81.0734V97.6524H81.547V0Z" fill="#143FC5"/>
<path d="M82.0206 0H81.547V97.6524H82.0206V0Z" fill="#143EC4"/>
<path d="M82.4948 0H82.0211V97.6524H82.4948V0Z" fill="#133EC2"/>
<path d="M82.9684 0H82.4948V97.6524H82.9684V0Z" fill="#133DC1"/>
<path d="M83.4425 0H82.9689V97.6524H83.4425V0Z" fill="#133DC0"/>
<path d="M83.9162 0H83.4425V97.6524H83.9162V0Z" fill="#123CBF"/>
<path d="M84.3902 0H83.9166V97.6524H84.3902V0Z" fill="#123CBE"/>
<path d="M84.8639 0H84.3903V97.6524H84.8639V0Z" fill="#123BBD"/>
<path d="M85.338 0H84.8643V97.6524H85.338V0Z" fill="#113BBC"/>
<path d="M85.8117 0H85.338V97.6524H85.8117V0Z" fill="#113ABB"/>
<path d="M86.2858 0H85.8121V97.6524H86.2858V0Z" fill="#113ABA"/>
<path d="M86.7594 0H86.2857V97.6524H86.7594V0Z" fill="#1139B9"/>
<path d="M87.2335 0H86.7599V97.6524H87.2335V0Z" fill="#1039B8"/>
<path d="M87.7071 0H87.2335V97.6524H87.7071V0Z" fill="#1038B7"/>
<path d="M88.1812 0H87.7076V97.6524H88.1812V0Z" fill="#1038B6"/>
<path d="M88.6549 0H88.1812V97.6524H88.6549V0Z" fill="#0F37B5"/>
<path d="M89.129 0H88.6553V97.6524H89.129V0Z" fill="#0F37B4"/>
<path d="M89.6027 0H89.129V97.6524H89.6027V0Z" fill="#0F36B3"/>
<path d="M90.0767 0H89.6031V97.6524H90.0767V0Z" fill="#0E36B2"/>
<path d="M90.5504 0H90.0767V97.6524H90.5504V0Z" fill="#0E35B1"/>
<path d="M91.0245 0H90.5508V97.6524H91.0245V0Z" fill="#0E35B0"/>
<path d="M91.4981 0H91.0245V97.6524H91.4981V0Z" fill="#0D34AF"/>
<path d="M91.9722 0H91.4986V97.6524H91.9722V0Z" fill="#0D34AE"/>
<path d="M92.4459 0H91.9722V97.6524H92.4459V0Z" fill="#0D33AD"/>
<path d="M92.92 0H92.4464V97.6524H92.92V0Z" fill="#0D33AC"/>
<path d="M93.3936 0H92.92V97.6524H93.3936V0Z" fill="#0C32AB"/>
<path d="M93.8678 0H93.3941V97.6524H93.8678V0Z" fill="#0C32AA"/>
<path d="M94.3414 0H93.8677V97.6524H94.3414V0Z" fill="#0C31A9"/>
<path d="M94.8154 0H94.3418V97.6524H94.8154V0Z" fill="#0B31A8"/>
<path d="M95.2891 0H94.8155V97.6524H95.2891V0Z" fill="#0B30A7"/>
<path d="M95.7632 0H95.2896V97.6524H95.7632V0Z" fill="#0B30A6"/>
<path d="M96.2368 0H95.7632V97.6524H96.2368V0Z" fill="#0A2FA5"/>
<path d="M96.711 0H96.2373V97.6524H96.711V0Z" fill="#0A2FA4"/>
<path d="M97.1846 0H96.7109V97.6524H97.1846V0Z" fill="#0A2EA3"/>
<path d="M97.6587 0H97.1851V97.6524H97.6587V0Z" fill="#092EA2"/>
<path d="M98.1323 0H97.6587V97.6524H98.1323V0Z" fill="#092DA1"/>
<path d="M98.6065 0H98.1328V97.6524H98.6065V0Z" fill="#092DA0"/>
<path d="M99.0801 0H98.6064V97.6524H99.0801V0Z" fill="#082C9F"/>
<path d="M99.5542 0H99.0806V97.6524H99.5542V0Z" fill="#082C9E"/>
<path d="M100.028 0H99.5542V97.6524H100.028V0Z" fill="#082B9D"/>
<path d="M100.502 0H100.028V97.6524H100.502V0Z" fill="#082B9C"/>
<path d="M100.976 0H100.502V97.6524H100.976V0Z" fill="#072A9B"/>
<path d="M101.45 0H100.976V97.6524H101.45V0Z" fill="#072A9A"/>
<path d="M101.923 0H101.45V97.6524H101.923V0Z" fill="#072999"/>
<path d="M102.397 0H101.924V97.6524H102.397V0Z" fill="#062998"/>
<path d="M102.871 0H102.397V97.6524H102.871V0Z" fill="#062897"/>
<path d="M103.345 0H102.872V97.6524H103.345V0Z" fill="#062896"/>
<path d="M103.819 0H103.345V97.6524H103.819V0Z" fill="#052795"/>
<path d="M104.293 0H103.819V97.6524H104.293V0Z" fill="#052794"/>
<path d="M104.767 0H104.293V97.6524H104.767V0Z" fill="#052693"/>
<path d="M105.241 0H104.767V97.6524H105.241V0Z" fill="#042692"/>
<path d="M105.714 0H105.241V97.6524H105.714V0Z" fill="#042591"/>
<path d="M106.188 0H105.715V97.6524H106.188V0Z" fill="#042590"/>
<path d="M106.662 0H106.188V97.6524H106.662V0Z" fill="#03248F"/>
<path d="M107.136 0H106.663V97.6524H107.136V0Z" fill="#03248E"/>
<path d="M107.61 0H107.136V97.6524H107.61V0Z" fill="#03238D"/>
<path d="M108.084 0H107.61V97.6524H108.084V0Z" fill="#03238C"/>
<path d="M108.558 0H108.084V97.6524H108.558V0Z" fill="#02228B"/>
<path d="M109.032 0H108.558V97.6524H109.032V0Z" fill="#02228A"/>
<path d="M109.505 0H109.032V97.6524H109.505V0Z" fill="#022189"/>
<path d="M109.979 0H109.506V97.6524H109.979V0Z" fill="#012188"/>
<path d="M110.453 0H109.979V97.6524H110.453V0Z" fill="#012087"/>
<path d="M110.637 0.000488281H110.453V97.6529H110.637V0.000488281Z" fill="#012087"/>
</g>
<defs>
<linearGradient id="paint0_linear_4132_32316" x1="3.73286" y1="81.154" x2="162.303" y2="81.154" gradientUnits="userSpaceOnUse">
<stop stop-color="#265CFF"/>
<stop offset="0.00066" stop-color="#265CFF"/>
<stop offset="1" stop-color="#012087"/>
</linearGradient>
<linearGradient id="paint1_linear_4132_32316" x1="1.70516" y1="38.7796" x2="62.76" y2="38.7796" gradientUnits="userSpaceOnUse">
<stop stop-color="#265CFF"/>
<stop offset="0.00066" stop-color="#265CFF"/>
<stop offset="1" stop-color="#012087"/>
</linearGradient>
</defs>
</svg>
