<svg width="126" height="87" viewBox="0 0 126 87" fill="none" xmlns="http://www.w3.org/2000/svg">
<g clip-path="url(#clip0_4132_33110)">
<path d="M66.8546 10.9283C69.3093 14.9242 71.7511 18.8747 74.1682 22.8401C76.9308 27.3722 78.767 28.2536 84.0502 27.4996C86.2233 27.1894 87.525 26.0402 87.5464 23.7473C87.5693 21.3088 87.4438 18.8602 87.6451 16.4376C87.7018 15.7556 88.6797 15.1495 89.2351 14.5085C89.8764 15.1693 90.9303 15.7533 91.0717 16.507C91.3494 17.9867 91.0719 19.5621 91.1156 21.0953C91.1463 22.1722 91.0394 23.3986 91.5141 24.2813C92.1391 25.4434 93.2742 26.3337 94.1899 27.3409C94.9959 26.5252 96.0607 25.8421 96.5631 24.8708C98.7824 20.5807 101.324 16.5249 105.502 13.915C109.083 11.6781 112.931 10.1858 117.361 11.4803C122.019 12.8418 124.693 15.9843 124.89 20.8427C125.001 23.5479 125.053 26.2712 124.838 28.9633C124.782 29.6661 123.637 30.8462 122.982 30.8535C113.999 30.9523 105.014 30.8958 96.0304 30.8331C95.3357 30.8282 94.4264 30.707 93.987 30.2707C92.0461 28.3431 90.4318 29.2572 88.1403 29.9414C83.3831 31.3617 78.2444 32.58 73.8688 28.3948C73.4809 28.0238 72.0008 28.0708 71.6853 28.4563C69.9318 30.5998 67.6153 30.9814 65.0974 30.972C63.1009 30.9645 61.0808 31.1282 59.1184 30.8658C58.2298 30.7469 57.4558 29.7791 56.6298 29.1965C57.5122 28.6577 58.3578 27.7428 59.2841 27.6532C61.7125 27.4183 64.1915 27.7102 66.6221 27.4873C70.6396 27.1188 71.4995 25.4346 69.4974 21.9481C68.2001 19.6887 66.79 17.4687 65.1987 15.4083C63.5936 13.33 63.9879 12.0505 66.8546 10.9283ZM110.572 27.6055V27.5884C113.296 27.5884 116.027 27.698 118.741 27.5285C119.682 27.4697 121.077 26.9557 121.418 26.2464C123.727 21.4414 119.352 14.7918 114.013 14.6108C107.9 14.4037 101.916 20.5291 100.227 25.5281C99.6533 27.2254 100.773 27.5906 102.126 27.5998C104.941 27.6188 107.756 27.6055 110.572 27.6055Z" fill="#012087"/>
<path d="M50.7392 21.4863C50.7392 23.7438 50.6787 26.0035 50.7577 28.2583C50.8249 30.1777 50.1562 31.0427 48.0823 30.9719C44.4574 30.848 40.8244 30.984 37.1958 30.9343C35.3372 30.9089 34.3046 31.4129 33.7617 33.4755C32.3269 38.9265 27.5764 42.7444 21.8579 42.7569C17.122 42.7672 12.2674 42.5948 7.68154 41.5572C3.3165 40.5696 0.776019 37.182 0.569752 32.4713C0.474978 30.3067 0.370874 28.1421 0.311673 25.9765C0.277179 24.7147 0.503804 23.3574 2.1535 23.7674C2.85238 23.9411 3.60748 25.0814 3.77791 25.898C4.04897 27.1966 3.82854 28.5926 3.85668 29.9465C3.95085 34.4769 5.614 37.2176 9.88118 38.5408C15.939 40.4194 22.0265 40.57 27.7141 37.1225C28.4383 36.6835 29.1804 35.9816 29.4912 35.2285C29.9393 34.1425 30.3152 32.8288 30.0765 31.7543C29.9761 31.3026 28.2403 31.0935 27.2251 30.9837C24.8041 30.7218 22.2419 31.0043 19.9645 30.3181C13.2445 28.2935 13.6906 18.5692 17.8911 14.5029C21.018 11.4759 24.7029 10.9899 28.4651 12.226C32.2185 13.4592 33.4827 16.8776 33.9732 20.5347C34.057 21.159 34.0419 21.7964 34.0725 22.4278C34.2402 25.8899 36.0237 27.6166 39.4229 27.6081C44.6216 27.595 47.2241 25.0426 47.2304 19.9508C47.2326 17.9642 47.059 15.9562 47.3101 14.0018C47.4073 13.245 48.4579 12.6095 49.0742 11.9188C49.6224 12.5799 50.5901 13.2091 50.6435 13.9076C50.8354 16.4212 50.7188 18.9582 50.7188 21.4863C50.7256 21.4863 50.7324 21.4863 50.7392 21.4863ZM25.8409 27.5708C30.5394 27.7061 31.1602 27.0115 30.6324 22.7318C30.5552 22.1056 30.4195 21.4849 30.3728 20.8571C30.149 17.8486 28.7355 15.3729 25.7167 15.0925C23.8638 14.9204 21.4127 15.8504 20.0334 17.1379C17.9452 19.0873 17.6824 21.9554 18.9664 24.665C20.479 27.8572 23.5895 27.2775 25.8409 27.5708Z" fill="#012087"/>
<path d="M118.293 82.1086C119.234 83.2301 120.502 84.7401 121.77 86.2501C121.575 86.5 121.38 86.75 121.185 87C120.378 86.5316 119.475 86.1733 118.783 85.574C116.707 83.7766 114.965 81.8525 111.798 81.4571C108.899 81.0952 106.71 78.9097 105.743 75.8785C104.335 71.4634 104.113 67.0543 105.731 62.6584C107.08 58.9943 109.704 57.0761 113.684 56.8119C118.051 56.5219 121.653 57.6694 123.504 61.8738C125.588 66.6074 125.792 71.6064 123.615 76.2816C122.635 78.3871 120.373 79.9017 118.293 82.1086ZM123.023 69.0937C122.491 67.0204 122.114 64.891 121.388 62.8866C120.442 60.2737 118.404 58.8914 115.592 58.7057C112.695 58.5145 110.047 59.0937 108.652 61.8924C106.258 66.6973 106.254 71.6348 108.618 76.4555C110.044 79.364 112.749 79.9948 115.747 79.818C118.493 79.656 120.422 78.1451 121.379 75.7581C122.202 73.7053 122.471 71.4325 123.023 69.0937Z" fill="#012087"/>
<path d="M59.1701 69.1242C59.1701 65.8734 59.1791 62.6227 59.1664 59.372C59.1599 57.7289 59.8 56.8651 61.6051 56.9475C63.7782 57.0468 65.9598 56.9429 68.1363 56.9914C73.2468 57.1054 76.9483 60.1947 77.541 65.2836C77.8701 68.1089 77.8356 71.0582 77.4137 73.8697C76.6984 78.6371 72.9166 81.5078 67.7339 81.6614C65.7402 81.7205 63.7352 81.5467 61.7494 81.6825C59.788 81.8167 59.1524 80.9221 59.1692 79.1473C59.2009 75.8065 59.1784 72.4652 59.1784 69.1242C59.1756 69.1242 59.1729 69.1242 59.1701 69.1242ZM61.3888 68.9375C61.3933 68.9375 61.3977 68.9375 61.4022 68.9375C61.4022 71.2829 61.3815 73.6285 61.4071 75.9736C61.4441 79.3729 61.7219 79.6719 65.1679 79.6328C66.7899 79.6144 68.5362 79.7298 69.9956 79.1792C71.5063 78.6093 73.3212 77.5958 73.9853 76.271C76.2724 71.709 76.4688 66.7948 74.0669 62.2453C71.9689 58.2714 67.8337 58.9153 64.131 58.9357C64.0404 58.9362 63.9494 58.9441 63.8592 58.9387C62.1332 58.8343 61.3654 59.6685 61.3823 61.3599C61.4075 63.8856 61.3888 66.4116 61.3888 68.9375Z" fill="#012087"/>
<path d="M0.73032 79.4907C1.54857 79.4907 2.35052 79.4735 3.15149 79.4939C5.77138 79.5607 8.40933 79.8618 11.0048 79.6471C13.1011 79.4737 14.6944 78.272 14.9814 75.8779C15.2652 73.5097 14.1049 72.0606 12.0716 71.2361C9.9015 70.3561 7.65332 69.6691 5.46037 68.8423C1.97476 67.5281 0.335355 64.9339 0.796736 61.5621C1.14911 58.9869 3.79371 56.9928 7.24077 56.8781C9.41407 56.8057 11.6062 56.8316 13.7671 57.0437C14.8888 57.1538 15.9609 57.764 17.0554 58.1483C16.9895 58.4721 16.9236 58.7959 16.8577 59.1196C16.1593 59.1196 15.4589 59.1536 14.7628 59.1135C12.3249 58.973 9.88736 58.6712 7.45175 58.6903C5.20675 58.7079 3.62998 59.9851 3.22403 62.2061C2.81782 64.4286 4.22306 65.7918 6.09322 66.5921C8.08612 67.4449 10.1508 68.1409 12.2097 68.8297C15.5761 69.9558 17.4243 72.0519 17.4906 74.9354C17.5623 78.0497 16.217 80.5276 12.6006 81.1394C8.9876 81.7507 5.14616 81.0342 1.40627 80.8684C1.19129 80.8589 0.951605 80.5953 0.795189 80.3946C0.705722 80.2797 0.761316 80.0529 0.73032 79.4907Z" fill="#012087"/>
<path d="M47.8544 81.5815C45.0542 81.5444 44.9291 79.3262 44.6179 77.7748C44.1124 75.2544 42.7779 74.4672 40.424 74.7429C39.7967 74.8163 39.1424 74.843 38.5207 74.7527C34.4202 74.1572 31.4311 75.0922 30.7563 79.8164C30.6469 80.5828 29.594 81.2158 28.9772 81.9105C28.702 81.7399 28.4267 81.5694 28.1514 81.3988C28.5277 80.0875 28.8198 78.7451 29.2947 77.4702C31.5874 71.3156 33.8854 65.162 36.3042 59.0562C36.642 58.2036 37.6597 57.6178 38.3626 56.9084C38.9374 57.6173 39.7391 58.2394 40.0512 59.0486C42.7028 65.9221 45.2776 72.8252 47.8294 79.7362C48.0201 80.2528 47.8544 80.8998 47.8544 81.5815ZM38.0636 73.105V73.118C38.6082 73.118 39.1528 73.1245 39.6972 73.1169C42.4677 73.0784 42.9075 72.577 42.094 69.8767C41.2921 67.2145 40.3264 64.5984 39.346 61.9943C39.1553 61.4879 38.5671 61.1297 38.1623 60.7031C37.7613 61.1151 37.1796 61.4584 36.9904 61.951C36.1543 64.1274 35.5025 66.3745 34.6524 68.5449C32.878 73.075 32.8539 73.0764 37.7914 73.1049C37.8821 73.1055 37.9729 73.105 38.0636 73.105Z" fill="#012087"/>
<path d="M90.7231 81.7107C90.4159 80.6928 89.8554 79.678 89.8429 78.6565C89.7666 72.4311 89.8031 66.204 89.8377 59.9777C89.8416 59.2756 89.983 58.5429 90.2278 57.8861C90.3561 57.5418 90.9376 57.0508 91.1558 57.1201C91.5856 57.2569 92.0462 57.6758 92.2321 58.0935C92.4394 58.559 92.3929 59.1531 92.3925 59.6911C92.3878 66.1881 92.3886 72.6853 92.3357 79.182C92.3291 79.9945 92.0226 80.8045 91.855 81.6157L90.7231 81.7107Z" fill="#012087"/>
<ellipse cx="27.6197" cy="2.58514" rx="1.9508" ry="1.91852" fill="#012087"/>
<ellipse cx="49.0785" cy="39.037" rx="1.9508" ry="1.91852" fill="#012087"/>
<ellipse cx="21.7673" cy="2.58514" rx="1.9508" ry="1.91852" fill="#012087"/>
<ellipse cx="43.2261" cy="39.037" rx="1.9508" ry="1.91852" fill="#012087"/>
</g>
<defs>
<clipPath id="clip0_4132_33110">
<rect width="124.851" height="86.3333" fill="white" transform="translate(0.308533 0.666626)"/>
</clipPath>
</defs>
</svg>
