<svg width="24" height="25" viewBox="0 0 24 25" fill="none" xmlns="http://www.w3.org/2000/svg">
<g clip-path="url(#clip0_4021_35935)">
<path d="M19.3597 12.5329C19.3523 16.7647 16.0444 20.1881 11.9759 20.1743C7.91638 20.1606 4.63113 16.7289 4.63868 12.5099C4.64626 8.27696 7.95283 4.85508 12.022 4.86906C16.0831 4.88301 19.367 8.31286 19.3597 12.5329Z" fill="#265CFF"/>
<path d="M20.5777 3.78252C20.5777 3.43243 20.5671 3.14322 20.5799 2.85514C20.6068 2.2499 21.1824 1.90057 21.665 2.19185C21.8988 2.33293 22.0271 2.54868 22.028 2.83142C22.0312 3.76198 22.0355 4.69261 22.0266 5.62309C22.0225 6.05923 21.7253 6.37033 21.3061 6.37505C20.4193 6.38504 19.5322 6.38443 18.6453 6.37558C18.2234 6.37137 17.8994 6.01887 17.9083 5.60647C17.9173 5.19514 18.2301 4.8793 18.6481 4.86945C18.9273 4.86288 19.2067 4.86821 19.5326 4.86821C19.3787 4.70425 19.2644 4.56881 19.1368 4.44873C17.33 2.74885 15.216 1.77443 12.782 1.60011C8.3759 1.28453 4.42881 3.66525 2.48623 7.78583C0.347011 12.3235 1.62833 18.0341 5.47005 21.134C7.36954 22.6667 9.51521 23.4487 11.9156 23.4883C12.405 23.4963 12.7317 23.8075 12.725 24.2561C12.7183 24.7046 12.3864 25.0018 11.8939 25C6.35203 24.9801 1.46288 20.8675 0.2855 15.2353C-0.954311 9.3045 1.9263 3.35412 7.32499 1.05022C11.8165 -0.866539 16.0184 -0.135945 19.8056 3.04827C19.9371 3.15883 20.0612 3.27905 20.1862 3.39773C20.3029 3.50857 20.4161 3.62336 20.5777 3.78252Z" fill="#265CFF"/>
<path d="M10.7973 15.9751C10.7209 15.9748 10.6454 15.9583 10.5754 15.9266C10.5055 15.8948 10.4426 15.8485 10.3906 15.7904L7.68323 12.807C7.58202 12.6952 7.52781 12.5464 7.53251 12.3933C7.53721 12.2402 7.60044 12.0952 7.7083 11.9904C7.81615 11.8856 7.95979 11.8294 8.10762 11.8343C8.25545 11.8391 8.39536 11.9046 8.49656 12.0164L10.7917 14.5497L15.4768 9.24064C15.5243 9.17931 15.5834 9.1287 15.6506 9.09191C15.7177 9.05512 15.7913 9.03293 15.867 9.02671C15.9427 9.02049 16.0189 9.03036 16.0907 9.05572C16.1626 9.08108 16.2287 9.1214 16.285 9.17419C16.3413 9.22699 16.3866 9.29114 16.4181 9.36272C16.4495 9.4343 16.4666 9.51179 16.4681 9.59043C16.4696 9.66907 16.4556 9.74721 16.4269 9.82003C16.3982 9.89286 16.3554 9.95884 16.3012 10.0139L11.2095 15.7847C11.1581 15.8437 11.0954 15.8911 11.0254 15.9239C10.9554 15.9567 10.8797 15.9741 10.8029 15.9751H10.7973Z" fill="white" stroke="white" stroke-width="0.5"/>
<path d="M22.8788 8.73915C23.2846 8.73669 23.6077 9.05795 23.6137 9.46996C23.6198 9.8924 23.285 10.2498 22.8891 10.2435C22.4924 10.2372 22.1644 9.89773 22.1641 9.49292C22.1637 9.07715 22.4819 8.74156 22.8788 8.73915Z" fill="#265CFF"/>
<path d="M24.0001 12.5309C23.9951 12.9381 23.6629 13.2779 23.2715 13.2761C22.8703 13.2743 22.5374 12.9163 22.5491 12.4995C22.5606 12.0933 22.8996 11.7579 23.2895 11.767C23.6817 11.7762 24.0051 12.1239 24.0001 12.5309Z" fill="#265CFF"/>
<path d="M22.8839 16.3042C22.4863 16.3044 22.1667 15.972 22.1641 15.5557C22.1614 15.141 22.5061 14.7902 22.9076 14.7987C23.2971 14.807 23.6171 15.1555 23.6136 15.5675C23.6101 15.9798 23.2889 16.3041 22.8839 16.3042Z" fill="#265CFF"/>
<path d="M19.2515 20.8007C19.2554 20.3814 19.5708 20.0596 19.9759 20.0617C20.3766 20.0637 20.6982 20.3955 20.6997 20.8084C20.7012 21.2234 20.3532 21.5788 19.9564 21.5674C19.557 21.5559 19.2476 21.2193 19.2515 20.8007Z" fill="#265CFF"/>
<path d="M15.6371 23.8351C15.6384 24.2567 15.3274 24.5932 14.9326 24.5976C14.5259 24.6021 14.1853 24.2547 14.191 23.8412C14.1967 23.4283 14.5235 23.0887 14.914 23.09C15.3144 23.0912 15.6359 23.4225 15.6371 23.8351Z" fill="#265CFF"/>
<path d="M21.043 18.3762C21.0442 17.9591 21.3612 17.6321 21.7634 17.6329C22.1617 17.6338 22.4858 17.9652 22.4908 18.3766C22.4959 18.7964 22.1635 19.1355 21.7516 19.1308C21.3492 19.1263 21.0417 18.7988 21.043 18.3762Z" fill="#265CFF"/>
<path d="M17.6363 21.9246C18.0382 21.9238 18.3544 22.2498 18.3573 22.6678C18.3602 23.0847 18.0483 23.4206 17.6498 23.4299C17.2477 23.4392 16.9146 23.0933 16.9165 22.6684C16.9184 22.2493 17.2319 21.9253 17.6363 21.9246Z" fill="#265CFF"/>
</g>
<defs>
<clipPath id="clip0_4021_35935">
<rect width="24" height="25" fill="white"/>
</clipPath>
</defs>
</svg>
