<svg width="286" height="100" viewBox="0 0 286 100" fill="none" xmlns="http://www.w3.org/2000/svg">
<g filter="url(#filter0_d_4236_958)">
<path d="M14 44C14 24.6701 29.67 9.00003 49 9.00003H80.7683C91.1616 9.00003 100.736 14.7625 108.195 22C115.421 29.0111 127.454 41.3197 144.049 41.3197C160.643 41.3197 168.762 32.2934 179.874 22C187.438 14.9932 197.427 9 207.737 9.00001L237 9.00002C256.33 9.00002 272 24.6701 272 44V46C272 65.33 256.33 81 237 81H49C29.67 81 14 65.33 14 46V44Z" fill="white"/>
</g>
<defs>
<filter id="filter0_d_4236_958" x="0" y="0" width="286" height="100" filterUnits="userSpaceOnUse" color-interpolation-filters="sRGB">
<feFlood flood-opacity="0" result="BackgroundImageFix"/>
<feColorMatrix in="SourceAlpha" type="matrix" values="0 0 0 0 0 0 0 0 0 0 0 0 0 0 0 0 0 0 127 0" result="hardAlpha"/>
<feOffset dy="5"/>
<feGaussianBlur stdDeviation="7"/>
<feComposite in2="hardAlpha" operator="out"/>
<feColorMatrix type="matrix" values="0 0 0 0 0.423745 0 0 0 0 0.557057 0 0 0 0 1 0 0 0 0.2 0"/>
<feBlend mode="normal" in2="BackgroundImageFix" result="effect1_dropShadow_4236_958"/>
<feBlend mode="normal" in="SourceGraphic" in2="effect1_dropShadow_4236_958" result="shape"/>
</filter>
</defs>
</svg>
