<svg width="26" height="24" viewBox="0 0 26 24" fill="none" xmlns="http://www.w3.org/2000/svg">
<path d="M0.0190917 5.36304C1.40984 5.88333 2.75306 6.39039 4.1011 6.88522C4.30125 6.9587 4.31543 7.0828 4.31476 7.25044C4.31079 8.24683 4.31163 9.24325 4.31353 10.2396C4.31427 10.6296 4.35794 10.6579 4.75478 10.5405C5.23169 10.3994 5.70481 10.2445 6.18699 10.1231C6.30725 10.0928 6.49054 10.1268 6.58598 10.2014C7.15141 10.6434 7.69673 11.1093 8.2562 11.5587C8.34833 11.6327 8.47697 11.6643 8.58874 11.7155C8.6272 11.5945 8.69772 11.4739 8.69901 11.3525C8.7085 10.4616 8.70413 9.57053 8.70413 8.62306C9.98169 9.10157 11.2269 9.56796 12.4778 10.0365V23.9951C11.9509 23.7997 11.44 23.6122 10.9306 23.421C7.46309 22.1201 3.99585 20.8186 0.528718 19.5169C0.0634617 19.3422 0.000556753 19.2553 0.000472621 18.77C-0.000278096 14.4068 -8.39447e-05 10.0436 0.000699131 5.68037C0.000712074 5.58879 0.0110215 5.49721 0.0190917 5.36304Z" fill="white"/>
<path d="M26 12.2584V5.3772C25.8595 5.42462 25.7486 5.45847 25.6404 5.49907C21.7079 6.97509 17.7765 8.454 13.8411 9.92278C13.6492 9.99441 13.5229 10.1726 13.5234 10.3713C13.533 14.7967 13.5302 19.2221 13.531 23.6475C13.531 23.7559 13.5412 23.8643 13.5479 24C15.1912 23.383 23.2757 20.3217 25.4569 19.4956C25.7867 19.3707 26 19.0649 26 18.7228V12.2584Z" fill="white"/>
<path d="M0.743286 4.54391C2.23024 3.9842 3.63252 3.45519 5.0357 2.92842C7.56169 1.98011 10.0893 1.03579 12.6129 0.0817585C12.8823 -0.0200589 13.1202 -0.0314011 13.3933 0.0739471C14.6013 0.539928 15.8161 0.989354 17.0282 1.4454C17.0977 1.47153 17.1649 1.50318 17.29 1.55647C16.9683 1.68201 16.6966 1.79148 16.4223 1.8945C12.7454 3.27546 9.06741 4.65354 5.39277 6.03997C5.13278 6.13807 4.91321 6.13387 4.65283 6.03258C3.46649 5.57105 2.27122 5.13089 1.07943 4.68241C0.992446 4.64968 0.907551 4.61181 0.743286 4.54391Z" fill="white"/>
<path d="M25.2054 4.58608C24.4113 4.88566 23.6177 5.18633 22.8231 5.48464C19.6597 6.67229 16.495 7.85691 13.3342 9.05115C13.103 9.13849 12.913 9.13256 12.6853 9.04397C11.7301 8.67223 10.7669 8.31961 9.80702 7.95913C9.70962 7.92255 9.61456 7.88019 9.4635 7.81786C9.6068 7.75748 9.69877 7.71497 9.79352 7.67936C13.6638 6.22507 17.5349 4.77289 21.4032 3.31376C21.6203 3.23186 21.8047 3.22668 22.0226 3.3109C23.0782 3.71883 24.1398 4.11227 25.1993 4.51084L25.2054 4.58608Z" fill="white"/>
</svg>
