<svg width="20" height="20" viewBox="0 0 20 20" fill="none" xmlns="http://www.w3.org/2000/svg">
<path d="M15.8333 3.33329H15V2.49996C15 1.99996 14.6666 1.66663 14.1666 1.66663C13.6666 1.66663 13.3333 1.99996 13.3333 2.49996V3.33329H6.66663V2.49996C6.66663 1.99996 6.33329 1.66663 5.83329 1.66663C5.33329 1.66663 4.99996 1.99996 4.99996 2.49996V3.33329H4.16663C2.74996 3.33329 1.66663 4.41663 1.66663 5.83329V6.66663H18.3333V5.83329C18.3333 4.41663 17.25 3.33329 15.8333 3.33329ZM1.66663 15.8333C1.66663 17.25 2.74996 18.3333 4.16663 18.3333H15.8333C17.25 18.3333 18.3333 17.25 18.3333 15.8333V8.33329H1.66663V15.8333ZM14.1666 9.99996C14.6666 9.99996 15 10.3333 15 10.8333C15 11.3333 14.6666 11.6666 14.1666 11.6666C13.6666 11.6666 13.3333 11.3333 13.3333 10.8333C13.3333 10.3333 13.6666 9.99996 14.1666 9.99996ZM14.1666 13.3333C14.6666 13.3333 15 13.6666 15 14.1666C15 14.6666 14.6666 15 14.1666 15C13.6666 15 13.3333 14.6666 13.3333 14.1666C13.3333 13.6666 13.6666 13.3333 14.1666 13.3333ZM9.99996 9.99996C10.5 9.99996 10.8333 10.3333 10.8333 10.8333C10.8333 11.3333 10.5 11.6666 9.99996 11.6666C9.49996 11.6666 9.16663 11.3333 9.16663 10.8333C9.16663 10.3333 9.49996 9.99996 9.99996 9.99996ZM9.99996 13.3333C10.5 13.3333 10.8333 13.6666 10.8333 14.1666C10.8333 14.6666 10.5 15 9.99996 15C9.49996 15 9.16663 14.6666 9.16663 14.1666C9.16663 13.6666 9.49996 13.3333 9.99996 13.3333ZM5.83329 9.99996C6.33329 9.99996 6.66663 10.3333 6.66663 10.8333C6.66663 11.3333 6.33329 11.6666 5.83329 11.6666C5.33329 11.6666 4.99996 11.3333 4.99996 10.8333C4.99996 10.3333 5.33329 9.99996 5.83329 9.99996ZM5.83329 13.3333C6.33329 13.3333 6.66663 13.6666 6.66663 14.1666C6.66663 14.6666 6.33329 15 5.83329 15C5.33329 15 4.99996 14.6666 4.99996 14.1666C4.99996 13.6666 5.33329 13.3333 5.83329 13.3333Z" fill="#012087"/>
</svg>
