<svg width="25" height="25" viewBox="0 0 25 25" fill="none" xmlns="http://www.w3.org/2000/svg">
<g clip-path="url(#clip0_4021_37672)">
<path d="M12.4888 20.4177C8.09038 20.3936 4.55629 16.837 4.58443 12.4629C4.6127 8.06756 8.18545 4.55119 12.5914 4.58224C16.9424 4.61289 20.4409 8.19331 20.4161 12.5901C20.3919 16.9011 16.8065 20.4413 12.4888 20.4177ZM12.0849 13.7496C12.0849 14.7294 12.0864 15.6663 12.0839 16.6032C12.0833 16.8413 12.1791 17.013 12.4141 17.0683C12.6414 17.1218 12.7958 17.0023 12.8955 16.8042C13.0123 16.572 13.1274 16.3389 13.2436 16.1064C13.9369 14.7191 14.632 13.3327 15.3226 11.944C15.5197 11.5477 15.3521 11.2604 14.9269 11.2518C14.7101 11.2474 14.4932 11.2509 14.2763 11.2509C13.8287 11.2509 13.381 11.2509 12.9164 11.2509C12.9164 11.1238 12.9164 11.0296 12.9164 10.9355C12.9163 10.0852 12.9153 9.23495 12.9168 8.3847C12.9172 8.15704 12.8192 7.99326 12.5988 7.93585C12.374 7.87729 12.2125 7.98484 12.1118 8.18594C11.2899 9.82834 10.4659 11.4697 9.64953 13.1149C9.48661 13.4433 9.67112 13.7303 10.0357 13.7484C10.1309 13.7531 10.2264 13.7496 10.3219 13.7496C10.9007 13.7496 11.4796 13.7496 12.0849 13.7496Z" fill="#265CFF"/>
<path d="M18.7287 3.38581C18.2889 2.96071 17.9087 2.59332 17.5281 2.22547C17.7428 2.03196 17.9392 1.85489 18.1496 1.6653C18.4746 2.00421 18.8496 2.3953 19.2127 2.77387C19.443 2.54958 19.6324 2.36522 19.831 2.17184C19.4547 1.80317 19.0664 1.42284 18.6803 1.04452C18.9077 0.832071 19.1021 0.650433 19.3149 0.45166C19.6675 0.822645 20.0367 1.21115 20.4937 1.69211C20.5937 1.53667 20.6475 1.41044 20.7378 1.32131C20.9257 1.13596 21.1545 1.13046 21.3409 1.31247C21.7817 1.7429 22.2309 2.16727 22.6408 2.6262C23.241 3.29821 23.2927 4.29478 22.7897 5.06734C22.6967 5.21011 22.706 5.29569 22.7973 5.42863C24.3388 7.67469 25.0588 10.1645 24.9963 12.8852C24.8652 18.5878 20.6214 23.632 15.0292 24.743C12.6371 25.2183 10.3032 25.038 8.02213 24.1748C7.94247 24.1447 7.86436 24.1104 7.76273 24.0687C7.86754 23.8116 7.96682 23.5681 8.07224 23.3095C11.097 24.471 14.0932 24.4786 17.0629 23.2282C19.3202 22.2777 21.0982 20.7427 22.3946 18.6652C24.9807 14.5211 24.6248 9.39276 22.0344 5.80964C21.8333 5.87107 21.6332 5.94977 21.4258 5.9923C20.7493 6.13102 20.1474 5.95435 19.6446 5.49199C19.2233 5.10458 18.8264 4.69029 18.4253 4.28134C18.2075 4.05916 18.2137 3.84891 18.4352 3.62184C18.513 3.54201 18.6096 3.48042 18.7287 3.38581Z" fill="#265CFF"/>
<path d="M16.9318 1.68339C10.924 -0.688039 5.18211 2.21242 2.66157 6.22958C-0.0290458 10.5178 0.429506 15.7246 2.98371 19.2066C3.45993 18.9742 3.97394 18.8558 4.48341 19.0397C4.82451 19.1628 5.15566 19.3612 5.43631 19.5925C5.81631 19.9058 6.14417 20.2825 6.49344 20.6329C6.81946 20.96 6.81746 21.1276 6.48788 21.4632C6.43431 21.5178 6.384 21.5755 6.31115 21.6546C6.7055 22.038 7.09008 22.4118 7.48959 22.8002C7.2747 22.9952 7.07823 23.1735 6.85777 23.3736C6.50432 23.0121 6.12451 22.6237 5.74673 22.2373C5.54971 22.4431 5.37111 22.6296 5.20303 22.8052C5.56522 23.1645 5.95042 23.5466 6.34869 23.9416C6.10584 24.1699 5.91346 24.3507 5.69887 24.5523C5.33848 24.179 4.96205 23.789 4.51889 23.3299C4.4179 23.4735 4.36117 23.5868 4.27523 23.6699C4.07267 23.8656 3.84716 23.8725 3.65158 23.681C3.21756 23.2559 2.77716 22.8355 2.36949 22.3859C1.78522 21.7415 1.7121 20.7637 2.1585 20.0096C2.20686 19.928 2.26111 19.8498 2.31943 19.7594C0.434831 17.0413 -0.32698 14.039 0.128402 10.7573C0.49845 8.09056 1.63205 5.7729 3.50079 3.83417C7.30406 -0.111526 12.8814 -0.889071 17.2353 0.938708C17.1368 1.18038 17.038 1.42289 16.9318 1.68339Z" fill="#265CFF"/>
</g>
<defs>
<clipPath id="clip0_4021_37672">
<rect width="25" height="25" fill="white"/>
</clipPath>
</defs>
</svg>
