<svg width="26" height="26" viewBox="0 0 26 26" fill="none" xmlns="http://www.w3.org/2000/svg">
<path d="M17.3309 18.601H5.43118C5.43118 18.519 5.43118 18.4418 5.43118 18.3647C5.43118 12.7664 5.43105 7.16803 5.43136 1.56969C5.43139 0.842555 5.86037 0.409847 6.58143 0.409748C9.78132 0.409313 12.9812 0.40932 16.1811 0.409745C16.9012 0.40984 17.3306 0.83275 17.3306 1.54341C17.3311 7.15634 17.3309 12.7693 17.3309 18.3822V18.601ZM15.2307 2.51796C15.2307 2.852 15.2306 3.16444 15.2307 3.47689C15.2307 4.19119 15.2313 4.9055 15.2304 5.61981C15.2302 5.77784 15.2714 5.93234 15.434 5.96569C15.5544 5.99038 15.7239 5.9766 15.8106 5.90557C15.8919 5.83899 15.9239 5.67491 15.9249 5.55334C15.9331 4.46736 15.93 3.3813 15.9295 2.29526C15.9293 1.92161 15.8204 1.8111 15.4509 1.81105C12.7396 1.81071 10.0283 1.81073 7.31706 1.81102C6.94376 1.81106 6.83265 1.9207 6.83256 2.28876C6.83219 3.81942 6.83234 5.35008 6.83244 6.88074C6.83247 7.31374 6.92641 7.40893 7.35465 7.40895C10.0441 7.40908 12.7335 7.40904 15.4229 7.40886C15.4884 7.40885 15.5548 7.41248 15.6194 7.40415C15.8131 7.37921 15.9399 7.23377 15.9269 7.04479C15.9136 6.85234 15.8089 6.73554 15.6136 6.71352C15.5416 6.70541 15.468 6.71057 15.3951 6.71057C12.8661 6.71048 10.337 6.71049 7.80794 6.71049C7.72256 6.71049 7.63718 6.71049 7.54403 6.71049V2.51796H15.2307ZM11.5321 10.6576C11.5446 10.6624 11.5571 10.6672 11.5696 10.672C11.564 10.7658 11.5604 10.8597 11.5524 10.9533C11.5443 11.0476 11.5255 11.1413 11.5224 11.2357C11.5155 11.4467 11.6413 11.5915 11.8385 11.6091C12.0402 11.6272 12.1899 11.5136 12.2132 11.2997C12.2891 10.6046 12.3671 9.90928 12.4176 9.21212C12.4259 9.09657 12.3283 8.93472 12.2299 8.85878C12.0668 8.73294 11.8828 8.82079 11.7313 9.05609C11.0926 10.0481 10.455 11.0409 9.81731 12.0335C9.43154 12.634 9.04268 13.2325 8.66232 13.8364C8.47929 14.127 8.63319 14.4002 8.97557 14.4077C9.16497 14.4118 9.35453 14.4085 9.54402 14.4085C9.90607 14.4085 10.2681 14.4085 10.6325 14.4085C10.6325 14.48 10.6362 14.5237 10.6319 14.5666C10.5369 15.5088 10.4419 16.4509 10.3445 17.3928C10.3162 17.6672 10.3769 17.8122 10.5671 17.8797C10.7925 17.9597 10.9209 17.8327 11.0319 17.66C12.0475 16.0791 13.0644 14.4991 14.0821 12.9196C14.17 12.7831 14.2217 12.6465 14.1332 12.4913C14.0458 12.3379 13.9049 12.3073 13.7415 12.3086C13.2605 12.3127 12.7795 12.3099 12.2985 12.3102C12.1017 12.3103 11.9045 12.3033 11.7083 12.3145C11.5087 12.3259 11.385 12.4661 11.3837 12.6573C11.3825 12.8484 11.5063 12.9881 11.704 13.0047C11.8198 13.0145 11.937 13.0084 12.0536 13.0085C12.4205 13.0088 12.7874 13.0086 13.1925 13.0086C12.5201 14.0533 11.8729 15.059 11.196 16.1109C11.196 16.0182 11.1931 15.9838 11.1964 15.9501C11.2549 15.3629 11.3152 14.776 11.3727 14.1888C11.405 13.8588 11.2727 13.7126 10.9416 13.7104C10.6573 13.7084 10.3731 13.71 10.0889 13.7099C9.92744 13.7099 9.76601 13.7099 9.5708 13.7099C10.243 12.6638 10.8875 11.6607 11.5321 10.6576Z" fill="#012087"/>
<path d="M11.3835 21.4094C9.33577 21.4094 7.28801 21.4095 5.24025 21.4093C4.82688 21.4093 4.73086 21.3113 4.73066 20.8913C4.73047 20.5051 4.72894 20.1188 4.73121 19.7326C4.73298 19.4317 4.85537 19.3087 5.15704 19.3087C9.30358 19.3079 13.4501 19.3079 17.5966 19.3086C17.9087 19.3086 18.029 19.4314 18.0304 19.7477C18.0322 20.1486 18.0318 20.5494 18.0306 20.9502C18.0295 21.2921 17.9134 21.4089 17.5705 21.409C15.5082 21.4097 13.4459 21.4094 11.3835 21.4094Z" fill="#012087"/>
<path d="M19.43 8.46729H25.0141C25.0194 8.52783 25.0292 8.58353 25.0284 8.63906C25.0188 9.26492 25.0596 9.89711 24.9841 10.515C24.8822 11.3488 24.1532 11.9428 23.3123 11.9561C22.5912 11.9674 21.8695 11.9681 21.1483 11.956C20.2006 11.9402 19.4457 11.1812 19.4316 10.2379C19.4229 9.65576 19.43 9.07335 19.43 8.46729Z" fill="#012087"/>
<path d="M22.2274 5.65925C23.2324 5.65923 24.2374 5.65899 25.2425 5.65935C25.6174 5.65949 25.7282 5.76774 25.7289 6.13459C25.7297 6.53517 25.7311 6.93576 25.7284 7.33633C25.7263 7.63387 25.6 7.75968 25.2998 7.75985C23.2534 7.761 21.2069 7.76097 19.1604 7.75989C18.8584 7.75973 18.732 7.6354 18.7301 7.33906C18.7275 6.91665 18.7272 6.49419 18.7303 6.07177C18.7324 5.78689 18.8594 5.66054 19.1467 5.66002C20.1736 5.65814 21.2005 5.65928 22.2274 5.65925Z" fill="#012087"/>
<path d="M18.041 12.9438V12.3267C18.8004 12.2692 19.58 12.8978 19.7362 13.693C19.7682 13.856 19.7782 14.0256 19.7785 14.1922C19.7815 16.0143 19.7778 17.8365 19.7827 19.6586C19.7839 20.1094 19.9999 20.4423 20.416 20.6192C20.821 20.7915 21.2042 20.7246 21.5358 20.4347C21.7873 20.2148 21.8806 19.9237 21.8801 19.5932C21.8779 17.844 21.8791 16.0947 21.8791 14.3454C21.8791 14.2591 21.8791 14.1729 21.8791 14.0726H22.5705C22.574 14.1114 22.5798 14.1459 22.5798 14.1804C22.5801 16.0098 22.5863 17.8393 22.5772 19.6687C22.5723 20.6556 21.7704 21.424 20.7918 21.4078C19.8415 21.3921 19.0846 20.6154 19.0819 19.6358C19.0768 17.799 19.0788 15.9623 19.0817 14.1256C19.0822 13.7773 18.9873 13.4645 18.7023 13.2604C18.5143 13.1258 18.2803 13.0552 18.041 12.9438Z" fill="#012087"/>
<path d="M20.8301 12.6699H23.628C23.628 12.8003 23.6408 12.9237 23.6252 13.0433C23.5989 13.2444 23.4699 13.3559 23.2688 13.3572C22.5774 13.3617 21.886 13.3626 21.1947 13.3569C20.9735 13.3551 20.8438 13.2194 20.8312 13.0029C20.825 12.8959 20.8301 12.7883 20.8301 12.6699Z" fill="#012087"/>
<path d="M20.8298 4.95252H20.1293C20.1293 4.59367 20.1292 4.24073 20.1293 3.88778C20.1294 3.6627 20.1238 3.4374 20.1316 3.21258C20.1393 2.99245 20.2877 2.85227 20.4898 2.85757C20.682 2.86261 20.8254 2.99977 20.8277 3.21067C20.8339 3.78344 20.8298 4.35633 20.8298 4.95252Z" fill="#012087"/>
<path d="M24.3308 4.95549H23.6429C23.6383 4.88946 23.6302 4.82704 23.6301 4.76461C23.6291 4.26888 23.628 3.77315 23.6302 3.27743C23.6314 3.01381 23.7574 2.86293 23.9719 2.8578C24.1963 2.85244 24.3294 3.00659 24.3303 3.2818C24.3321 3.83393 24.3308 4.38606 24.3308 4.95549Z" fill="#012087"/>
<circle cx="5.81629" cy="19.599" r="5.43103" fill="white"/>
<path d="M6.17831 15.6162C5.21837 15.6172 4.29806 15.9838 3.61928 16.6354C2.94051 17.2871 2.5587 18.1706 2.55762 19.0922C2.55762 20.5064 3.62708 21.6809 4.7599 22.924C5.11835 23.3176 5.48947 23.7247 5.81986 24.1366C5.86214 24.1893 5.91644 24.2319 5.97858 24.2613C6.04073 24.2906 6.10906 24.3059 6.17831 24.3059C6.24756 24.3059 6.31589 24.2906 6.37803 24.2613C6.44017 24.2319 6.49448 24.1893 6.53676 24.1366C6.86714 23.7247 7.23826 23.3176 7.59671 22.924C8.72954 21.6809 9.799 20.5064 9.799 19.0922C9.79792 18.1706 9.41611 17.2871 8.73733 16.6354C8.05855 15.9838 7.13824 15.6172 6.17831 15.6162ZM6.17831 20.3956C5.90977 20.3956 5.64726 20.3192 5.42398 20.176C5.20069 20.0327 5.02667 19.8292 4.9239 19.591C4.82114 19.3528 4.79425 19.0907 4.84664 18.8379C4.89903 18.585 5.02834 18.3528 5.21823 18.1705C5.40811 17.9882 5.65004 17.864 5.91342 17.8137C6.1768 17.7634 6.4498 17.7892 6.6979 17.8879C6.946 17.9866 7.15805 18.1536 7.30724 18.368C7.45643 18.5823 7.53607 18.8344 7.53607 19.0922C7.53607 19.4379 7.39302 19.7694 7.13839 20.0139C6.88376 20.2583 6.53841 20.3956 6.17831 20.3956Z" fill="#012087"/>
</svg>
