<svg width="9" height="8" viewBox="0 0 9 8" fill="none" xmlns="http://www.w3.org/2000/svg">
<path d="M3.23517 7.21323C3.16942 7.21301 3.10442 7.19879 3.0442 7.17145C2.98399 7.1441 2.92984 7.10422 2.88513 7.05429L0.554778 4.48631C0.467666 4.39014 0.421001 4.26207 0.425048 4.13026C0.429094 3.99845 0.483521 3.8737 0.576356 3.78347C0.66919 3.69323 0.792827 3.64489 0.920068 3.64908C1.04731 3.65327 1.16773 3.70965 1.25484 3.80582L3.23037 5.98636L7.26294 1.41665C7.30386 1.36387 7.35477 1.3203 7.41254 1.28863C7.47031 1.25697 7.53372 1.23787 7.59887 1.23251C7.66402 1.22716 7.72954 1.23566 7.79141 1.25748C7.85328 1.27931 7.91018 1.31402 7.95863 1.35946C8.00708 1.4049 8.04605 1.46012 8.07315 1.52173C8.10025 1.58334 8.1149 1.65004 8.11621 1.71773C8.11751 1.78542 8.10545 1.85267 8.08075 1.91535C8.05606 1.97804 8.01925 2.03483 7.97259 2.08224L3.58999 7.04932C3.54571 7.10016 3.49175 7.14097 3.43151 7.16917C3.37128 7.19738 3.30606 7.21238 3.23996 7.21323H3.23517Z" fill="white" stroke="white" stroke-width="0.5"/>
</svg>
