<svg width="87" height="91" viewBox="0 0 87 91" fill="none" xmlns="http://www.w3.org/2000/svg">
<g clip-path="url(#clip0_4343_33281)">
<path d="M44.8436 3.74744H4.30151V91H44.8436V3.74744Z" fill="#012087"/>
<path d="M47.2103 2.99792H0V6.93272H47.2103V2.99792Z" fill="#5E7CCB"/>
<path d="M26.2135 13.3033H10.4637V80.5072H26.2135V13.3033Z" fill="#A0C9F9"/>
<path opacity="0.3" d="M21.3948 13.3033L10.4637 24.2646V19.1427L16.2867 13.3033H21.3948Z" fill="white"/>
<path opacity="0.3" d="M26.2135 47.3494V50.8027L10.4637 66.5961V63.1436L26.2135 47.3494Z" fill="white"/>
<path opacity="0.3" d="M26.2135 18.3307V27.027L10.4637 42.8208V34.1245L26.2135 18.3307Z" fill="white"/>
<path opacity="0.3" d="M26.2135 29.5713V38.2676L10.4637 54.0614V45.3651L26.2135 29.5713Z" fill="white"/>
<path d="M26.316 18.3624H10.3608V18.6435H26.316V18.3624Z" fill="#2D4084"/>
<path d="M26.316 23.5861H10.3608V23.8671H26.316V23.5861Z" fill="#2D4084"/>
<path d="M26.316 28.8098H10.3608V29.0909H26.316V28.8098Z" fill="#2D4084"/>
<path d="M26.316 34.0334H10.3608V34.3145H26.316V34.0334Z" fill="#2D4084"/>
<path d="M26.316 39.2571H10.3608V39.5381H26.316V39.2571Z" fill="#2D4084"/>
<path d="M26.316 44.4808H10.3608V44.7619H26.316V44.4808Z" fill="#2D4084"/>
<path d="M26.316 49.7045H10.3608V49.9855H26.316V49.7045Z" fill="#2D4084"/>
<path d="M26.316 54.9282H10.3608V55.2093H26.316V54.9282Z" fill="#2D4084"/>
<path d="M26.316 60.1519H10.3608V60.4329H26.316V60.1519Z" fill="#2D4084"/>
<path d="M26.316 65.3756H10.3608V65.6567H26.316V65.3756Z" fill="#2D4084"/>
<path d="M26.316 70.5992H10.3608V70.8803H26.316V70.5992Z" fill="#2D4084"/>
<path d="M26.316 75.8229H10.3608V76.1039H26.316V75.8229Z" fill="#2D4084"/>
<path opacity="0.2" d="M44.8436 6.93274H4.30151V8.93137H44.8436V6.93274Z" fill="#000641"/>
<path d="M37.9096 0H11.2354V3.74743H37.9096V0Z" fill="#5E7CCB"/>
<path d="M84.0816 15.8016H30.6431V91H84.0816V15.8016Z" fill="#5E7CCB"/>
<path d="M28.0391 18.6786L87 18.6786V14.6149L28.0391 14.6149V18.6786Z" fill="#5E7CCB"/>
<path d="M84.0816 87.5961H30.6431V91H84.0816V87.5961Z" fill="#001769"/>
<path d="M65.8428 76.4603H48.4819V91H65.8428V76.4603Z" fill="#001769"/>
<path d="M56.7432 77.1124H49.3276V90.348H56.7432V77.1124Z" fill="#A0C9F9"/>
<path d="M64.997 77.1124H57.5814V90.348H64.997V77.1124Z" fill="#A0C9F9"/>
<path opacity="0.3" d="M56.7432 77.1124V79.427L49.3276 86.8634V81.1528L53.3567 77.1124H56.7432Z" fill="white"/>
<path opacity="0.3" d="M64.997 77.4196V83.1298L57.7989 90.348H57.5814V84.8559L64.997 77.4196Z" fill="white"/>
<path d="M42.4368 23.7935H34.2726V30.6223H42.4368V23.7935Z" fill="#A0C9F9"/>
<path opacity="0.3" d="M42.2274 23.7935L35.4177 30.6223H34.2726V26.8937L37.3641 23.7935H42.2274Z" fill="white"/>
<path d="M79.809 23.7935H71.6448V30.6223H79.809V23.7935Z" fill="#A0C9F9"/>
<path opacity="0.3" d="M79.5996 23.7935L72.7899 30.6223H71.6448V26.8937L74.7363 23.7935H79.5996Z" fill="white"/>
<path d="M42.4368 31.8505H34.2726V38.6793H42.4368V31.8505Z" fill="#A0C9F9"/>
<path opacity="0.3" d="M42.2274 31.8505L35.4177 38.6793H34.2726V34.9507L37.3641 31.8505H42.2274Z" fill="white"/>
<path d="M79.809 31.8505H71.6448V38.6793H79.809V31.8505Z" fill="#A0C9F9"/>
<path opacity="0.3" d="M79.5996 31.8505L72.7899 38.6793H71.6448V34.9507L74.7363 31.8505H79.5996Z" fill="white"/>
<path d="M70.4658 23.7935H62.3016V30.6223H70.4658V23.7935Z" fill="#A0C9F9"/>
<path opacity="0.3" d="M70.2564 23.7935L63.4467 30.6223H62.3016V26.8937L65.3932 23.7935H70.2564Z" fill="white"/>
<path d="M61.1228 23.7935H52.9586V30.6223H61.1228V23.7935Z" fill="#A0C9F9"/>
<path opacity="0.3" d="M60.9134 23.7935L54.1037 30.6223H52.9586V26.8937L56.0502 23.7935H60.9134Z" fill="white"/>
<path d="M51.7798 23.7935H43.6156V30.6223H51.7798V23.7935Z" fill="#A0C9F9"/>
<path opacity="0.3" d="M51.5704 23.7935L44.7607 30.6223H43.6156V26.8937L46.7072 23.7935H51.5704Z" fill="white"/>
<path d="M42.4368 47.9644H34.2726V54.7932H42.4368V47.9644Z" fill="#A0C9F9"/>
<path opacity="0.3" d="M42.2274 47.9644L35.4177 54.7932H34.2726V51.0646L37.3641 47.9644H42.2274Z" fill="white"/>
<path d="M79.809 47.9644H71.6448V54.7932H79.809V47.9644Z" fill="#A0C9F9"/>
<path opacity="0.3" d="M79.5996 47.9644L72.7899 54.7932H71.6448V51.0646L74.7363 47.9644H79.5996Z" fill="white"/>
<path d="M70.4658 47.9644H62.3016V54.7932H70.4658V47.9644Z" fill="#A0C9F9"/>
<path opacity="0.3" d="M70.2564 47.9644L63.4467 54.7932H62.3016V51.0646L65.3932 47.9644H70.2564Z" fill="white"/>
<path d="M61.1228 47.9644H52.9586V54.7932H61.1228V47.9644Z" fill="#A0C9F9"/>
<path opacity="0.3" d="M60.9134 47.9644L54.1037 54.7932H52.9586V51.0646L56.0502 47.9644H60.9134Z" fill="white"/>
<path d="M51.7798 47.9644H43.6156V54.7932H51.7798V47.9644Z" fill="#A0C9F9"/>
<path opacity="0.3" d="M51.5704 47.9644L44.7607 54.7932H43.6156V51.0646L46.7072 47.9644H51.5704Z" fill="white"/>
<path d="M42.4368 56.0215H34.2726V62.8503H42.4368V56.0215Z" fill="#A0C9F9"/>
<path opacity="0.3" d="M42.2274 56.0215L35.4177 62.8503H34.2726V59.1217L37.3641 56.0215H42.2274Z" fill="white"/>
<path d="M79.809 56.0215H71.6448V62.8503H79.809V56.0215Z" fill="#A0C9F9"/>
<path opacity="0.3" d="M79.5996 56.0215L72.7899 62.8503H71.6448V59.1217L74.7363 56.0215H79.5996Z" fill="white"/>
<path d="M70.4658 56.0215H62.3016V62.8503H70.4658V56.0215Z" fill="#A0C9F9"/>
<path opacity="0.3" d="M70.2564 56.0215L63.4467 62.8503H62.3016V59.1217L65.3932 56.0215H70.2564Z" fill="white"/>
<path d="M61.1228 56.0215H52.9586V62.8503H61.1228V56.0215Z" fill="#A0C9F9"/>
<path opacity="0.3" d="M60.9134 56.0215L54.1037 62.8503H52.9586V59.1217L56.0502 56.0215H60.9134Z" fill="white"/>
<path d="M51.7798 56.0215H43.6156V62.8503H51.7798V56.0215Z" fill="#A0C9F9"/>
<path opacity="0.3" d="M51.5704 56.0215L44.7607 62.8503H43.6156V59.1217L46.7072 56.0215H51.5704Z" fill="white"/>
<path d="M42.4368 64.0785H34.2726V70.9073H42.4368V64.0785Z" fill="#A0C9F9"/>
<path opacity="0.3" d="M42.2274 64.0785L35.4177 70.9073H34.2726V67.1787L37.3641 64.0785H42.2274Z" fill="white"/>
<path d="M44.7452 74.6362H34.2726V83.3958H44.7452V74.6362Z" fill="#A0C9F9"/>
<path opacity="0.3" d="M44.4766 74.6362L35.7414 83.3958H34.2726V78.613L38.2383 74.6362H44.4766Z" fill="white"/>
<path d="M79.8089 74.6362H69.3363V83.3958H79.8089V74.6362Z" fill="#A0C9F9"/>
<path opacity="0.3" d="M79.5403 74.6362L70.8051 83.3958H69.3363V78.613L73.302 74.6362H79.5403Z" fill="white"/>
<path d="M79.809 64.0785H71.6448V70.9073H79.809V64.0785Z" fill="#A0C9F9"/>
<path opacity="0.3" d="M79.5996 64.0785L72.7899 70.9073H71.6448V67.1787L74.7363 64.0785H79.5996Z" fill="white"/>
<path d="M70.4658 64.0785H62.3016V70.9073H70.4658V64.0785Z" fill="#A0C9F9"/>
<path opacity="0.3" d="M70.2564 64.0785L63.4467 70.9073H62.3016V67.1787L65.3932 64.0785H70.2564Z" fill="white"/>
<path d="M61.1228 64.0785H52.9586V70.9073H61.1228V64.0785Z" fill="#A0C9F9"/>
<path opacity="0.3" d="M60.9134 64.0785L54.1037 70.9073H52.9586V67.1787L56.0502 64.0785H60.9134Z" fill="white"/>
<path d="M51.7798 64.0785H43.6156V70.9073H51.7798V64.0785Z" fill="#A0C9F9"/>
<path opacity="0.3" d="M51.5704 64.0785L44.7607 70.9073H43.6156V67.1787L46.7072 64.0785H51.5704Z" fill="white"/>
<path d="M70.4657 31.8506H43.6158V38.6792H70.4657V31.8506Z" fill="#A0C9F9"/>
<path opacity="0.3" d="M53.2437 31.8506L46.4346 38.6792H43.6158V37.0011L48.7516 31.8506H53.2437Z" fill="white"/>
<path opacity="0.3" d="M69.1113 31.8506L62.3017 38.6792H53.113L59.9226 31.8506H63.2054H69.1113Z" fill="white"/>
<path d="M70.6673 34.976H43.4143V35.2648H70.6673V34.976Z" fill="#5E7CCB"/>
<path d="M42.4368 39.9075H34.2726V46.7363H42.4368V39.9075Z" fill="#A0C9F9"/>
<path opacity="0.3" d="M42.2274 39.9075L35.4177 46.7363H34.2726V43.0077L37.3641 39.9075H42.2274Z" fill="white"/>
<path d="M79.809 39.9075H71.6448V46.7363H79.809V39.9075Z" fill="#A0C9F9"/>
<path opacity="0.3" d="M79.5996 39.9075L72.7899 46.7363H71.6448V43.0077L74.7363 39.9075H79.5996Z" fill="white"/>
<path d="M70.4657 39.9075H43.6158V46.7361H70.4657V39.9075Z" fill="#A0C9F9"/>
<path opacity="0.3" d="M53.2437 39.9075L46.4346 46.7361H43.6158V45.058L48.7516 39.9075H53.2437Z" fill="white"/>
<path opacity="0.3" d="M69.1113 39.9075L62.3017 46.7361H53.113L59.9226 39.9075H63.2054H69.1113Z" fill="white"/>
<path d="M70.6673 43.033H43.4143V43.3218H70.6673V43.033Z" fill="#5E7CCB"/>
<path d="M44.7944 78.8146H34.2234V79.2176H44.7944V78.8146Z" fill="#5E7CCB"/>
<path d="M79.7238 78.8146H69.1528V79.2176H79.7238V78.8146Z" fill="#5E7CCB"/>
<path opacity="0.2" d="M84.0816 18.6786H30.6431V20.2985H84.0816V18.6786Z" fill="#012087"/>
<path d="M71.6548 7.49487H71.3284V14.615H71.6548V7.49487Z" fill="#5E7CCB"/>
<path d="M75.0417 9.11118V8.78381H67.9415V9.11118H75.0417Z" fill="#5E7CCB"/>
<path d="M74.0828 10.7378V10.4104H70.1246V10.7378H74.0828Z" fill="#5E7CCB"/>
<path d="M59.4974 4.74341H59.0187V15.1837H59.4974V4.74341Z" fill="#5E7CCB"/>
<path d="M64.4636 7.11355V6.63354L54.0525 6.63354V7.11355L64.4636 7.11355Z" fill="#5E7CCB"/>
<path d="M63.0575 9.49856V9.01855H57.2536V9.49856H63.0575Z" fill="#5E7CCB"/>
<path d="M63.0575 11.2949V10.8149H57.2536V11.2949H63.0575Z" fill="#5E7CCB"/>
</g>
<defs>
<clipPath id="clip0_4343_33281">
<rect width="87" height="91" fill="white"/>
</clipPath>
</defs>
</svg>
