<svg width="14" height="14" viewBox="0 0 14 14" fill="none" xmlns="http://www.w3.org/2000/svg">
<g clip-path="url(#clip0_2127_8472)">
<path d="M7.58561e-07 6.99612C0.00178511 3.1383 3.14528 -0.00184532 7.00359 8.13611e-07C10.8616 0.0018464 14.0018 3.1452 14 7.00345C13.9982 10.8609 10.8534 14.0025 6.99623 14C3.13887 13.9975 -0.00178195 10.8534 7.58561e-07 6.99612ZM6.37088 8.09134C6.30606 8.03034 6.27266 8.0005 6.24102 7.96889C5.78649 7.51484 5.33323 7.0595 4.87734 6.60682C4.68363 6.41448 4.44055 6.36658 4.21323 6.46716C3.83289 6.63545 3.74658 7.11745 4.04943 7.42322C4.65224 8.03183 5.25991 8.63563 5.86573 9.24125C6.18807 9.56349 6.50106 9.56261 6.82562 9.23812C8.04364 8.02036 9.2615 6.80244 10.4792 5.58438C10.5178 5.54575 10.5577 5.50761 10.5912 5.46478C10.8646 5.11588 10.6725 4.61231 10.2362 4.53291C10.014 4.49247 9.83863 4.57631 9.68381 4.73149C8.6121 5.80564 7.53838 6.87777 6.46662 7.95186C6.42876 7.9898 6.40459 8.04141 6.37088 8.09134Z" fill="#265CFF"/>
</g>
<defs>
<clipPath id="clip0_2127_8472">
<rect width="14" height="14" fill="white"/>
</clipPath>
</defs>
</svg>
