<svg width="27" height="21" viewBox="0 0 27 21" fill="none" xmlns="http://www.w3.org/2000/svg">
<g clip-path="url(#clip0_2257_24416)">
<path d="M0.416808 4.44025C1.53715 4.87102 2.6192 5.29083 3.70513 5.70052C3.86636 5.76135 3.87779 5.86411 3.87725 6.0029C3.87405 6.82785 3.87473 7.65282 3.87626 8.47778C3.87686 8.80067 3.91203 8.82406 4.23172 8.72684C4.6159 8.61001 4.99703 8.48183 5.38545 8.38128C5.48233 8.3562 5.62999 8.38431 5.70686 8.44608C6.16236 8.81207 6.60165 9.19783 7.05234 9.56985C7.12656 9.63111 7.23019 9.65729 7.32022 9.69969C7.35121 9.59952 7.40801 9.49962 7.40905 9.39915C7.4167 8.66153 7.41318 7.92379 7.41318 7.13934C8.44233 7.53552 9.44542 7.92166 10.4531 8.30958V19.8665C10.0287 19.7047 9.61711 19.5494 9.20672 19.3911C6.41344 18.3141 3.62035 17.2365 0.827346 16.1587C0.452551 16.0141 0.401877 15.9422 0.401809 15.5404C0.401204 11.9279 0.401361 8.31544 0.401991 4.70298C0.402002 4.62715 0.410307 4.55133 0.416808 4.44025Z" fill="#012087"/>
<path d="M21.3461 4.45197V10.1492C19.3064 10.2248 17.6611 11.0409 16.5098 12.7085C15.3568 14.3787 15.2071 16.1984 15.8654 18.1144C14.3526 18.6983 12.8487 19.2787 11.3152 19.8705C11.3097 19.7581 11.3016 19.6684 11.3016 19.5786C11.3009 15.9142 11.3032 12.2498 11.2954 8.58534C11.295 8.37664 11.3586 8.28934 11.5513 8.21543C14.7216 6.99937 17.8886 5.77492 21.0565 4.55287C21.1436 4.51925 21.233 4.49122 21.3461 4.45197Z" fill="#012087"/>
<path d="M26.4014 15.9885C26.4072 18.7451 24.1454 20.9957 21.365 21C18.5883 21.0043 16.323 18.7588 16.3197 15.9986C16.3164 13.232 18.5645 10.9986 21.3551 10.9962C24.1462 10.9938 26.3956 13.2192 26.4014 15.9885ZM20.278 16.6697C19.9345 16.2417 19.614 15.8409 19.2919 15.4416C19.1025 15.2069 18.8602 15.0856 18.5551 15.1477C18.0023 15.2602 17.7874 15.866 18.1455 16.3274C18.6043 16.9186 19.0801 17.497 19.5475 18.0817C19.9604 18.5982 20.3811 18.6268 20.8474 18.1648C21.9618 17.0608 23.0752 15.9557 24.1881 14.8503C24.2559 14.7829 24.3245 14.714 24.3793 14.6365C24.6513 14.2518 24.4926 13.727 24.0507 13.5573C23.7144 13.4282 23.4401 13.5412 23.1971 13.7834C22.302 14.6752 21.4038 15.5642 20.5064 16.4539C20.4396 16.5201 20.3697 16.5832 20.278 16.6697Z" fill="#012087"/>
<path d="M1.00018 3.76208C2.19802 3.29867 3.32765 2.86069 4.458 2.42455C6.49286 1.63941 8.529 0.857571 10.562 0.067691C10.7789 -0.0166075 10.9706 -0.0259982 11.1906 0.0612236C12.1637 0.447027 13.1424 0.819124 14.1188 1.1967C14.1747 1.21834 14.2289 1.24454 14.3297 1.28866C14.0705 1.3926 13.8516 1.48324 13.6306 1.56853C10.6687 2.71187 7.70581 3.85284 4.74565 5.00072C4.53621 5.08194 4.35933 5.07847 4.14957 4.9946C3.1939 4.61248 2.23104 4.24806 1.27097 3.87674C1.2009 3.84964 1.13251 3.81829 1.00018 3.76208Z" fill="#012087"/>
<path d="M20.706 3.79696C20.0664 4.04499 19.427 4.29393 18.787 4.54091C16.2386 5.52421 13.6892 6.505 11.143 7.49376C10.9567 7.56607 10.8037 7.56116 10.6203 7.48782C9.85081 7.18004 9.07489 6.88809 8.30161 6.58963C8.22315 6.55935 8.14658 6.52428 8.02489 6.47267C8.14032 6.42268 8.21441 6.38748 8.29074 6.358C11.4085 5.15394 14.5269 3.95162 17.6431 2.74355C17.818 2.67575 17.9665 2.67146 18.1421 2.74119C18.9924 3.07893 19.8476 3.40467 20.7011 3.73467L20.706 3.79696Z" fill="#012087"/>
</g>
<defs>
<clipPath id="clip0_2257_24416">
<rect width="26" height="21" fill="white" transform="translate(0.401428)"/>
</clipPath>
</defs>
</svg>
