<svg width="25" height="17" viewBox="0 0 25 17" fill="none" xmlns="http://www.w3.org/2000/svg">
<g clip-path="url(#clip0_4021_37670)">
<path d="M12.5195 0.000560571C16.0344 0.000551399 19.5492 -0.000448383 23.0641 0.00123474C23.9774 0.00167042 24.673 0.490178 24.9127 1.30831C24.9692 1.50122 24.9958 1.71002 24.996 1.91155C25.0006 6.30449 25.0009 10.6974 24.9986 15.0904C24.998 16.2044 24.2194 16.9968 23.1105 16.9974C16.04 17.0009 8.96963 17.0008 1.89922 16.9976C0.777583 16.9971 0.00160376 16.2049 0.00117522 15.0756C-0.000502495 10.699 -0.000201601 6.3224 0.00093815 1.94582C0.0012436 0.784435 0.772326 0.00254179 1.9261 0.0016108C5.45724 -0.00124637 8.98838 0.000569744 12.5195 0.000560571ZM4.48017 5.10507C3.96774 5.10507 3.45531 5.10267 2.94291 5.10583C2.53417 5.10836 2.33829 5.29828 2.33593 5.70249C2.33162 6.43847 2.33215 7.17452 2.33566 7.91051C2.33759 8.3156 2.52927 8.52057 2.93059 8.52325C3.96352 8.53017 4.99656 8.53022 6.02949 8.52327C6.42668 8.5206 6.62892 8.30886 6.63162 7.91023C6.63656 7.18243 6.63608 6.45455 6.63193 5.72674C6.62955 5.31112 6.42677 5.10849 6.01743 5.10582C5.50503 5.10247 4.99259 5.10501 4.48017 5.10507ZM7.29335 14.5529C8.69996 14.5529 10.1066 14.553 11.5132 14.5528C11.9993 14.5528 12.2573 14.3618 12.2508 14.008C12.2444 13.6615 11.9904 13.4757 11.5205 13.4757C8.69911 13.4755 5.87775 13.4753 3.05639 13.4768C2.94339 13.4769 2.82683 13.4798 2.71814 13.5067C2.46841 13.5685 2.32099 13.7947 2.33908 14.0619C2.35582 14.309 2.53573 14.5087 2.78141 14.5418C2.87753 14.5548 2.97607 14.5525 3.07351 14.5525C4.48012 14.5531 5.88673 14.5529 7.29335 14.5529ZM19.2036 4.23984C20.1627 4.23984 21.1219 4.24287 22.081 4.23835C22.4636 4.23654 22.6926 3.99259 22.6596 3.64275C22.6327 3.3585 22.4141 3.16275 22.082 3.162C20.1638 3.15773 18.2455 3.15983 16.3272 3.1612C16.2711 3.16125 16.2138 3.17212 16.1593 3.18642C15.9017 3.25399 15.749 3.46217 15.7587 3.72752C15.7703 4.04135 15.9897 4.23742 16.3505 4.23874C17.3015 4.24221 18.2526 4.23991 19.2036 4.23984ZM4.10219 12.1469C4.50033 12.1469 4.89855 12.1519 5.29658 12.1454C5.65221 12.1397 5.87075 11.9353 5.87599 11.6201C5.88133 11.2992 5.65397 11.0723 5.29244 11.0688C4.50436 11.0613 3.71612 11.0617 2.92803 11.0684C2.56107 11.0715 2.33648 11.2889 2.33714 11.6118C2.33781 11.9356 2.5608 12.1408 2.93217 12.146C3.32211 12.1514 3.71219 12.1472 4.10219 12.1469ZM13.743 12.1471C14.1412 12.1471 14.5396 12.1517 14.9378 12.1457C15.2899 12.1403 15.5171 11.9337 15.5261 11.6258C15.5355 11.3081 15.3048 11.073 14.9455 11.0692C14.149 11.0608 13.3524 11.0609 12.5559 11.0692C12.2138 11.0728 11.9786 11.305 11.9762 11.6062C11.9737 11.9187 12.2129 12.1405 12.5725 12.1458C12.9626 12.1515 13.3528 12.1471 13.743 12.1471ZM8.91938 12.1471C9.31754 12.1471 9.71578 12.1518 10.1138 12.1457C10.4704 12.1402 10.6914 11.9381 10.6989 11.6261C10.7067 11.3006 10.4855 11.0731 10.1224 11.0693C9.32612 11.0609 8.52967 11.0611 7.73343 11.0693C7.38583 11.0728 7.16167 11.2961 7.15909 11.6058C7.15641 11.9273 7.38381 12.1406 7.74928 12.1458C8.13924 12.1515 8.52934 12.1471 8.91938 12.1471ZM18.5568 12.1472C18.9551 12.1472 19.3534 12.1514 19.7517 12.1459C20.1132 12.1409 20.3523 11.9232 20.3532 11.6111C20.3541 11.3016 20.1119 11.0714 19.7539 11.0684C18.9655 11.0618 18.1769 11.0611 17.3885 11.0688C17.0323 11.0723 16.7936 11.3093 16.8007 11.6209C16.8076 11.926 17.0392 12.1397 17.3863 12.1455C17.7763 12.1519 18.1666 12.147 18.5568 12.1472Z" fill="#265CFF"/>
</g>
<defs>
<clipPath id="clip0_4021_37670">
<rect width="25" height="17" fill="white"/>
</clipPath>
</defs>
</svg>
