<svg width="18" height="18" viewBox="0 0 18 18" fill="none" xmlns="http://www.w3.org/2000/svg">
<g clip-path="url(#clip0_2059_956)">
<path d="M8.42763 11.9992C8.2436 12.648 8.36696 13.2121 8.87351 13.7248C8.90488 13.2045 8.9338 12.7337 8.96156 12.2628C9.00748 11.484 9.05079 10.7049 9.09905 9.92619C9.11843 9.61352 9.03593 9.50874 8.72833 9.47485C8.28864 9.42642 7.84911 9.37651 7.40956 9.32676C6.87351 9.26609 6.52026 8.78421 6.62915 8.246C6.90344 6.89016 7.17977 5.53472 7.46321 4.18083C7.58687 3.59017 8.07232 3.23835 8.65165 3.29715C9.18125 3.35091 9.58049 3.83186 9.59372 4.41557C9.59557 4.49737 9.63864 4.59454 9.69352 4.65625C10.2126 5.23995 10.8937 5.5496 11.6043 5.80993C11.9314 5.92974 12.2608 5.99423 12.6122 5.98151C13.0973 5.96395 13.5834 5.97471 14.069 5.97777C14.6669 5.98153 15.0181 6.34011 15.0217 6.94615C15.0228 7.13344 15.0263 7.321 15.0184 7.508C14.9988 7.97654 14.6359 8.34108 14.1747 8.35595C13.9798 8.36223 13.7844 8.35699 13.5663 8.35699C13.7054 9.42368 13.9388 10.4026 14.8381 11.0803C15.4049 11.5075 15.6168 12.1034 15.5053 12.814C15.4967 12.8685 15.4915 12.9236 15.4858 12.9694C15.7234 13.0028 15.9574 13.0157 16.1815 13.0705C17.1656 13.3109 17.879 14.1463 17.996 15.1683C18.0196 15.3741 17.9383 15.5027 17.7563 15.5711C18.0327 16.899 17.1818 17.7346 16.4031 17.9417C15.6048 18.1542 14.391 17.8159 14.0496 16.4292C14.0393 16.4313 14.0247 16.4297 14.0191 16.4362C13.7379 16.76 13.5227 16.7198 13.3669 16.3116C13.3293 16.2131 13.3005 16.1111 13.2764 16.0374C13.1097 16.0595 12.9508 16.0983 12.7917 16.0988C11.2426 16.1034 9.6935 16.1032 8.1444 16.0988C8.00407 16.0984 7.94756 16.1266 7.92454 16.2848C7.79152 17.1993 6.98602 17.8818 6.06255 17.8802C5.13724 17.8787 4.34275 17.1945 4.20254 16.279C4.19425 16.2249 4.18245 16.1714 4.18245 16.1714C3.92519 16.0761 3.68304 16.0283 3.48676 15.9052C3.03021 15.6188 2.87437 15.1525 2.94245 14.6412C3.0011 14.2009 3.10966 13.7586 3.26312 13.3426C3.42148 12.9134 3.65693 12.513 3.86894 12.1055C3.89781 12.05 3.98622 11.9934 4.04729 11.9931C5.47958 11.9869 6.9119 11.9884 8.34421 11.9889C8.36809 11.9889 8.39197 11.9946 8.42763 11.9992ZM9.16648 6.37692C9.09536 6.68784 9.02701 6.97234 8.96585 7.25843C8.91444 7.49892 8.97191 7.60098 9.2008 7.68894C9.61969 7.84993 10.0389 8.00996 10.4589 8.16794C10.9882 8.367 11.1929 8.67153 11.1368 9.24029C11.0151 10.4757 10.8804 11.7098 10.7518 12.9445C10.7154 13.2946 10.6816 13.645 10.6462 13.9992H11.7738C11.7785 13.9567 11.7848 13.926 11.7848 13.8953C11.7854 11.7976 11.7843 9.69983 11.7887 7.60211C11.789 7.46343 11.7256 7.43741 11.615 7.42311C10.9543 7.33773 10.3391 7.11392 9.76564 6.77376C9.56586 6.65526 9.37724 6.51733 9.16648 6.37692ZM16.4435 15.3194C15.8599 15.3067 15.3175 15.4593 14.8094 15.7484C14.6708 15.8273 14.6062 15.9364 14.618 16.0984C14.6568 16.6344 14.9 17.0398 15.3838 17.2628C15.8665 17.4852 16.3369 17.4229 16.7467 17.0806C17.1567 16.7382 17.2982 16.2851 17.1858 15.7569C17.1074 15.389 17.0453 15.3384 16.6826 15.32C16.6031 15.3159 16.5232 15.3194 16.4435 15.3194ZM4.79381 16.1125C4.80844 16.7703 5.43548 17.3115 6.13362 17.2795C6.7737 17.2502 7.36568 16.6759 7.3287 16.1125H4.79381Z" fill="#265CFF"/>
<path d="M2.96113 4.19558C3.61882 4.19558 4.27651 4.19485 4.9342 4.19579C5.53804 4.19666 5.90254 4.56307 5.90306 5.17064C5.90395 6.2195 5.90395 7.26836 5.90305 8.31722C5.90254 8.92477 5.53765 9.29155 4.93431 9.29181C3.61279 9.29237 2.29126 9.29235 0.969735 9.29181C0.366593 9.29156 0.00124893 8.92459 0.000705244 8.31742C-0.000233114 7.26856 -0.00023754 6.2197 0.000706719 5.17084C0.00125262 4.56397 0.366673 4.19664 0.969623 4.19579C1.63346 4.19486 2.2973 4.19558 2.96113 4.19558Z" fill="#265CFF"/>
<path d="M8.54754 11.39H7.52415C6.31939 11.39 5.11462 11.388 3.90987 11.393C3.78573 11.3935 3.7045 11.3546 3.63102 11.2572C3.39985 10.9508 3.26696 10.6084 3.24977 10.2228C3.23833 9.96627 3.34629 9.84909 3.59548 9.84885C5.13217 9.84735 6.66886 9.84748 8.20555 9.84888C8.41442 9.84908 8.53902 9.94455 8.54417 10.1364C8.55518 10.5466 8.54754 10.9573 8.54754 11.39Z" fill="#265CFF"/>
<path d="M9.44281 1.79545e-07C10.257 -0.000400693 10.9187 0.670525 10.9194 1.49707C10.92 2.32335 10.2587 2.99654 9.44551 2.99731C8.6327 2.99809 7.96905 2.32524 7.96857 1.49989C7.96808 0.6739 8.63006 0.000400303 9.44281 1.79545e-07Z" fill="#265CFF"/>
</g>
<defs>
<clipPath id="clip0_2059_956">
<rect width="18" height="18" fill="white"/>
</clipPath>
</defs>
</svg>
