<svg width="21" height="21" viewBox="0 0 21 21" fill="none" xmlns="http://www.w3.org/2000/svg">
<g clip-path="url(#clip0_4021_35925)">
<path d="M0.00483889 5.31958C0.474046 5.48839 0.920193 5.64799 1.36567 5.80932C4.1177 6.80598 6.86869 7.80534 9.62352 8.79472C9.80669 8.8605 9.84951 8.9436 9.84925 9.11973C9.84383 12.7544 9.84517 16.389 9.84517 20.0237V20.2807C9.38237 20.1144 8.94251 19.9574 8.50345 19.7983C5.75151 18.8013 3.00075 17.8012 0.245798 16.8121C0.0489313 16.7414 -0.000349202 16.6542 1.85806e-06 16.4609C0.00657972 12.8329 0.00483889 9.20487 0.00483889 5.57683V5.31958ZM5.2523 16.7591C5.2523 16.3451 5.24554 15.9569 5.25604 15.5692C5.25962 15.437 5.20347 15.3881 5.08684 15.3466C4.31946 15.0734 3.55452 14.7938 2.78837 14.5173C2.74137 14.5004 2.69093 14.4923 2.63 14.4771C2.63 14.8962 2.62484 15.2982 2.6361 15.6998C2.63762 15.754 2.71076 15.8323 2.76921 15.8549C3.16154 16.0062 3.55891 16.1453 3.95456 16.2886C4.38043 16.4429 4.80619 16.5974 5.2523 16.7591Z" fill="#265CFF"/>
<path d="M11.1556 20.273V20.0414C11.1556 16.3935 11.1567 12.7456 11.1519 9.09769C11.1516 8.9355 11.1962 8.85862 11.3603 8.80093C12.3087 8.46755 13.2521 8.12067 14.1973 7.77878C14.2666 7.75371 14.3372 7.73197 14.4276 7.7019V10.8511C14.4973 10.8338 14.548 10.8259 14.5951 10.8089C15.3617 10.5324 16.1266 10.2515 16.8952 9.98016C17.0283 9.93316 17.0632 9.86696 17.0623 9.73534C17.0561 8.79207 17.0598 7.84873 17.0579 6.90542C17.0577 6.80781 17.0625 6.73889 17.1836 6.69559C18.418 6.25436 19.6494 5.8055 20.8819 5.35935C20.9126 5.34826 20.9458 5.34383 20.9959 5.33203V5.53899C20.9959 9.2001 20.9948 12.8612 20.9999 16.5223C21.0001 16.6722 20.9554 16.7396 20.8105 16.7918C17.6542 17.9292 14.4998 19.0715 11.3449 20.2126C11.2889 20.2328 11.2313 20.249 11.1556 20.273Z" fill="#265CFF"/>
<path d="M20.9803 4.05781C19.8232 4.47706 18.7118 4.86 17.6186 5.28625C17.2215 5.44109 16.8992 5.43851 16.5086 5.25671C15.4521 4.76496 14.3711 4.32238 13.3022 3.85542C13.1803 3.80217 13.0793 3.80125 12.9561 3.85274C12.1553 4.18729 11.3512 4.51454 10.5005 4.86376C11.8185 5.38932 13.0955 5.89855 14.4274 6.42966C14.2369 6.49869 14.1002 6.54816 13.9635 6.59773C12.859 6.9984 11.7552 7.40108 10.6484 7.79589C10.5626 7.8265 10.445 7.82966 10.3601 7.79907C6.97364 6.57826 3.58923 5.35209 0.204679 4.12631C0.160409 4.11028 0.117666 4.09031 0.0380859 4.05711C0.112703 4.02198 0.160123 3.99483 0.210936 3.97642C3.59526 2.75003 6.97963 1.52374 10.3658 0.302214C10.4455 0.273468 10.5558 0.273678 10.6355 0.302443C14.0217 1.52395 17.406 2.75021 20.7904 3.97631C20.8388 3.99384 20.8851 4.01675 20.9803 4.05781Z" fill="#265CFF"/>
</g>
<defs>
<clipPath id="clip0_4021_35925">
<rect width="21" height="20" fill="white" transform="translate(0 0.280762)"/>
</clipPath>
</defs>
</svg>
