<svg width="235" height="147" viewBox="0 0 235 147" fill="none" xmlns="http://www.w3.org/2000/svg">
<g clip-path="url(#clip0_2250_24274)">
<path d="M149.666 42.6727L143.247 57.2486C143.242 57.2562 143.24 57.2637 143.237 57.2713L137.082 71.2454L136.579 72.3882L108.779 82.8202L103.542 84.7847C103.4 84.1324 103.266 83.4776 103.145 82.8202C103.013 82.1148 102.892 81.4068 102.783 80.6964C102.548 79.1794 102.366 77.6497 102.239 76.1024C102.085 74.2694 102.006 72.4161 102.006 70.5426C102.006 70.3858 102.006 70.2316 102.009 70.0748C102.146 49.9695 111.225 31.9879 125.46 19.8899L149.666 42.6727Z" fill="#C2DAFF"/>
<path d="M172.005 16.3576L180.59 5.18455C176.67 4.46518 172.631 4.08618 168.504 4.08618C154.851 4.08618 142.161 8.20078 131.603 15.2532L137.736 21.0256L172.005 16.3576Z" fill="#C2DAFF"/>
<path d="M135.612 80.8531V103.899L125.731 117.666L124.069 119.982C119.343 115.737 115.23 110.827 111.878 105.396C109.318 101.249 107.2 96.8019 105.591 92.117L120.284 86.6051L123.14 85.5332L130.371 82.8203L135.612 80.8531Z" fill="#C2DAFF"/>
<path d="M211.995 47.435L202.43 60.5916L195.533 77.6854L231.091 93.0361C233.619 86.0111 235 78.439 235 70.5439C235 56.3393 230.538 43.1776 222.943 32.3766L212.009 47.415C212.005 47.4217 212 47.4284 211.995 47.435Z" fill="#C2DAFF"/>
<path d="M174.576 23.6625L144.841 27.7129L156.821 38.9888C157.991 40.0897 158.34 41.8077 157.693 43.2776L152.553 54.9477H197.152L203.321 46.4625L187.931 38.1915C186.086 37.1994 185.394 34.8997 186.386 33.0551C187.379 31.2107 189.68 30.5191 191.526 31.5112L207.823 40.27L218.041 26.2149C210.204 17.4733 200.087 10.8187 188.622 7.18567L177.074 22.2146C176.464 23.0072 175.567 23.5276 174.576 23.6625Z" fill="#C2DAFF"/>
<path d="M144.114 74.108L178.67 99.196L193.463 62.5327H149.212L144.114 74.108Z" fill="#C2DAFF"/>
<path d="M203.842 126.844C193.603 133.276 181.488 137 168.503 137C167.814 137 167.126 136.99 166.443 136.967C166.137 136.957 165.831 136.947 165.528 136.932C164.521 136.889 163.521 136.82 162.53 136.732C150.473 135.662 139.341 131.374 129.999 124.732L142.491 107.33C142.954 106.685 143.202 105.912 143.202 105.118V82.8202L151.856 89.1031L157.743 93.376L159.008 94.2938L160.344 95.2646L162.112 96.549L163.458 97.5275L168.74 101.361L203.842 126.844Z" fill="#C2DAFF"/>
<path d="M185 103.791L210.346 122.192C217.752 116.192 223.841 108.633 228.116 100.014L192.693 84.7222L185 103.791Z" fill="#C2DAFF"/>
<path d="M195.534 77.6852H195.531L202.43 60.5911L211.995 47.4336C212 47.4285 212.005 47.4209 212.008 47.4134L222.942 32.3773V32.3748C221.429 30.2257 219.795 28.1702 218.041 26.2158L207.823 40.2682L191.526 31.5101C191.456 31.4721 191.382 31.4368 191.309 31.404C191.243 31.3736 191.175 31.3457 191.106 31.3179C191.041 31.2926 190.972 31.2674 190.904 31.2446C190.859 31.2294 190.81 31.2143 190.765 31.2042C190.745 31.1966 190.727 31.1915 190.709 31.1864C190.661 31.1739 190.613 31.1613 190.568 31.1536C190.56 31.1511 190.55 31.1485 190.542 31.1461C190.504 31.136 190.464 31.1283 190.426 31.1232C190.411 31.1208 190.398 31.1182 190.383 31.1157H190.38C190.33 31.1056 190.279 31.0981 190.229 31.0904H190.219C190.206 31.0879 190.193 31.0853 190.178 31.0853C190.168 31.0829 190.158 31.0829 190.145 31.0803C190.084 31.0727 190.021 31.0677 189.96 31.0651C189.885 31.06 189.809 31.0576 189.733 31.0576C189.055 31.0576 188.392 31.2395 187.81 31.5784C187.663 31.6643 187.524 31.7579 187.39 31.8641C187.256 31.9678 187.127 32.0815 187.008 32.2054C186.768 32.4532 186.558 32.7363 186.386 33.0549C186.32 33.1763 186.262 33.3002 186.214 33.4266C186.138 33.6086 186.077 33.7932 186.037 33.9803C186.004 34.1067 185.981 34.2356 185.966 34.3646C185.936 34.5922 185.925 34.8222 185.938 35.0498C185.941 35.0851 185.943 35.1181 185.946 35.1534C185.948 35.2014 185.953 35.2496 185.961 35.295C185.963 35.3304 185.968 35.3683 185.976 35.4038C185.984 35.4518 185.991 35.4973 185.999 35.5454C186.006 35.5807 186.014 35.6161 186.022 35.6515V35.654C186.034 35.7172 186.049 35.7804 186.067 35.8436C186.087 35.9196 186.11 35.9929 186.135 36.0662C186.161 36.142 186.189 36.2179 186.219 36.2937C186.247 36.3594 186.277 36.4252 186.307 36.4884C186.325 36.5288 186.345 36.5719 186.368 36.6122C186.373 36.6224 186.378 36.63 186.383 36.6401C186.391 36.6527 186.396 36.6653 186.406 36.678C186.429 36.7236 186.457 36.7716 186.484 36.8171C186.51 36.8576 186.535 36.898 186.56 36.9384C186.586 36.9764 186.611 37.0117 186.636 37.0497C186.694 37.1306 186.758 37.2115 186.823 37.2899C186.864 37.3379 186.907 37.3859 186.947 37.4315C186.993 37.4769 187.036 37.5225 187.082 37.568C187.329 37.8081 187.613 38.018 187.932 38.19L203.32 46.4626L197.15 54.9478H152.552L157.693 43.277C158.34 41.8081 157.991 40.0887 156.82 38.989L144.841 27.7126L174.577 23.6622C174.653 23.6521 174.728 23.6395 174.804 23.6217C174.812 23.6217 174.817 23.6217 174.825 23.6192C174.845 23.6166 174.868 23.6115 174.888 23.6065C174.893 23.604 174.898 23.604 174.903 23.6014C174.923 23.599 174.943 23.5939 174.964 23.5888C175.017 23.5762 175.07 23.5635 175.123 23.5483C175.242 23.513 175.358 23.4725 175.472 23.427C175.53 23.4043 175.586 23.379 175.642 23.3537C175.697 23.3284 175.753 23.3006 175.806 23.2728C175.862 23.245 175.915 23.2146 175.968 23.1843C176.019 23.1539 176.069 23.1237 176.117 23.0933C176.17 23.0605 176.224 23.0224 176.277 22.9845C176.327 22.9491 176.375 22.9112 176.423 22.8733C176.471 22.8354 176.52 22.7975 176.565 22.757C176.656 22.6761 176.747 22.5901 176.831 22.4991C176.917 22.4081 176.998 22.3121 177.074 22.2134L188.622 7.18501C186.009 6.35824 183.33 5.68825 180.59 5.18506L172.004 16.3578L137.735 21.0251L131.603 15.2529C129.465 16.6813 127.413 18.2313 125.46 19.8899L149.666 42.6727L143.247 57.2486C143.242 57.2562 143.24 57.2638 143.237 57.2713L137.082 71.2454L136.579 72.3882L108.779 82.8202L103.542 84.7847C103.598 85.035 103.653 85.2853 103.711 85.5331C104.228 87.7732 104.855 89.9703 105.591 92.1169L120.284 86.6051L123.14 85.5331L130.371 82.8202L135.612 80.8531V103.899L125.731 117.666L124.069 119.982C124.251 120.146 124.436 120.308 124.62 120.47C126.338 121.979 128.132 123.403 129.999 124.732L142.491 107.33C142.954 106.685 143.202 105.912 143.202 105.118V82.8202L151.856 89.1032L157.743 93.376L159.008 94.2938L160.344 95.2646L162.112 96.549L163.458 97.5275L168.74 101.361L203.842 126.844C206.106 125.423 208.274 123.868 210.343 122.194L210.346 122.191L184.999 103.79L192.693 84.7215L228.115 100.013C229.233 97.7577 230.23 95.4315 231.09 93.0371V93.0347L195.534 77.6852ZM172.024 94.3722L170.688 93.4013L169.676 92.6656H169.674L169.32 92.4077L167.306 90.9463L156.114 82.8202L144.115 74.1076H144.113L149.213 62.5328H193.462L178.67 99.1963L172.024 94.3722Z" fill="white"/>
<path d="M186.119 91.8626C186.028 91.8626 185.935 91.8461 185.846 91.8114C185.455 91.6604 185.26 91.2212 185.411 90.8305L197.499 59.5624H146.838C146.583 59.5624 146.345 59.4346 146.205 59.222C146.064 59.0095 146.04 58.7407 146.14 58.5063L153.155 42.0632L136.727 26.3937C136.424 26.1045 136.413 25.6244 136.702 25.3213C136.991 25.0183 137.472 25.0071 137.775 25.2963L154.584 41.3287C154.813 41.5469 154.882 41.8841 154.758 42.1749L147.986 58.0454H198.606C198.856 58.0454 199.09 58.1687 199.232 58.3749C199.373 58.5812 199.404 58.844 199.314 59.0772L186.827 91.3772C186.711 91.6781 186.423 91.8625 186.119 91.8626Z" fill="#012087"/>
<path d="M137.251 27.7772C138.319 27.7772 139.184 26.9121 139.184 25.845C139.184 24.7779 138.319 23.9128 137.251 23.9128C136.183 23.9128 135.318 24.7779 135.318 25.845C135.318 26.9121 136.183 27.7772 137.251 27.7772Z" fill="#012087"/>
<path d="M186.146 93.6335C187.544 93.6335 188.678 92.5009 188.678 91.1039C188.678 89.7068 187.544 88.5742 186.146 88.5742C184.749 88.5742 183.615 89.7068 183.615 91.1039C183.615 92.5009 184.749 93.6335 186.146 93.6335Z" fill="#012087"/>
<path d="M186.146 92.2657C186.789 92.2657 187.309 91.7455 187.309 91.1038C187.309 90.4621 186.789 89.9419 186.146 89.9419C185.504 89.9419 184.984 90.4621 184.984 91.1038C184.984 91.7455 185.504 92.2657 186.146 92.2657Z" fill="white"/>
<path d="M96.0809 19.6712H133.502L136.168 22.3357C136.306 22.4743 136.531 22.4743 136.67 22.3357L139.336 19.6712H143.078C144.78 19.6712 146.159 18.2925 146.159 16.5921V3.07911C146.159 1.37851 144.78 0 143.078 0H96.0809C94.3794 0 93 1.37851 93 3.07911V16.5921C93 18.2925 94.3794 19.6712 96.0809 19.6712Z" fill="#F09A4C"/>
<path d="M104.868 15.8421C108.196 15.8421 110.894 13.1457 110.894 9.81961C110.894 6.49348 108.196 3.79712 104.868 3.79712C101.54 3.79712 98.8416 6.49348 98.8416 9.81961C98.8416 13.1457 101.54 15.8421 104.868 15.8421Z" fill="#C6742E"/>
<path d="M129.568 8.26461H115.919C115.258 8.26461 114.723 7.72948 114.723 7.06938C114.723 6.40926 115.258 5.87415 115.919 5.87415H129.568C130.229 5.87415 130.764 6.40926 130.764 7.06938C130.764 7.72948 130.229 8.26461 129.568 8.26461Z" fill="white"/>
<path d="M139.797 13.7651H115.244C114.956 13.7651 114.723 13.532 114.723 13.2445C114.723 12.957 114.956 12.7239 115.244 12.7239H139.797C140.085 12.7239 140.318 12.957 140.318 13.2445C140.318 13.532 140.085 13.7651 139.797 13.7651Z" fill="#C6742E"/>
<path d="M226.669 98.4833H189.248L186.582 95.8189C186.443 95.6802 186.218 95.6802 186.08 95.8189L183.414 98.4833H179.671C177.97 98.4833 176.591 99.862 176.591 101.562V115.075C176.591 116.776 177.97 118.154 179.671 118.154H226.669C228.371 118.154 229.75 116.776 229.75 115.075V101.562C229.75 99.862 228.371 98.4833 226.669 98.4833Z" fill="#265CFF"/>
<path d="M188.458 114.423C191.786 114.423 194.484 111.727 194.484 108.401C194.484 105.075 191.786 102.378 188.458 102.378C185.13 102.378 182.432 105.075 182.432 108.401C182.432 111.727 185.13 114.423 188.458 114.423Z" fill="#5C85FF"/>
<path d="M213.159 106.846H199.509C198.849 106.846 198.313 106.311 198.313 105.651C198.313 104.991 198.849 104.455 199.509 104.455H213.159C213.819 104.455 214.355 104.991 214.355 105.651C214.355 106.311 213.819 106.846 213.159 106.846Z" fill="white"/>
<path d="M223.387 112.346H198.834C198.546 112.346 198.313 112.113 198.313 111.826C198.313 111.538 198.546 111.305 198.834 111.305H223.387C223.675 111.305 223.908 111.538 223.908 111.826C223.908 112.113 223.675 112.346 223.387 112.346Z" fill="#5C85FF"/>
</g>
<g clip-path="url(#clip1_2250_24274)">
<path d="M62.4627 40.1135L62.9268 44.1889L60.8513 41.7539L62.4627 40.1135Z" fill="#982228"/>
<path d="M60.1445 40.7093L62.4627 40.1135L60.3542 43.3939L60.1445 40.7093Z" fill="#B8242D"/>
<path d="M66.5434 36.8597C66.5434 36.8597 60.5782 33.5733 59.4136 31.4018C59.4136 31.4018 58.8876 30.789 58.7427 29.5638L58.4817 26.1024L56.118 28.183C56.118 28.183 53.8068 33.1738 50.8136 39.2401C50.8136 39.2401 62.7353 44.0124 59.8984 40.9211C59.8984 40.9211 60.4993 38.0093 62.9378 36.1291C62.9378 36.1291 65.0305 36.5778 66.5434 36.8597Z" fill="#F2905F"/>
<path opacity="0.4" d="M65.7178 36.7011C65.7635 36.622 65.8082 36.5426 65.8521 36.4641C64.2481 35.5278 60.3338 33.1171 59.4136 31.4017C59.4136 31.4017 59.2188 31.1709 59.0337 30.7177L55.6022 29.2877C55.3216 29.8861 54.9351 30.7071 54.4658 31.6946C55.8772 33.2431 58.9526 36.5385 61.0615 38.2196C61.5129 37.5058 62.12 36.7593 62.9378 36.129C62.9378 36.129 64.3671 36.4353 65.7178 36.7011Z" fill="#D45B44"/>
<path d="M54.1379 26.5839C53.4994 20.0107 57.2173 14.2712 62.4381 13.7651C66.8636 13.3321 73.3269 13.2689 73.5002 21.5727C73.5002 21.5727 73.3839 24.3507 73.0066 26.1024C73.0066 26.1024 73.1523 26.8743 74.1977 28.8629C74.1977 28.8629 73.945 29.7195 73.0251 29.8049C73.0251 29.8049 72.3558 35.4907 71.6087 36.6759C71.6087 36.6759 71.3629 37.1085 70.6011 37.1085C70.6011 37.1085 66.9926 37.3862 61.2003 35.5528C61.2003 35.5528 60.0746 35.1527 59.842 34.0145C59.6096 32.8711 58.6591 27.9432 58.6591 27.9432L54.1379 26.5839Z" fill="#F8B791"/>
<path d="M63.2197 20.0101C66.1396 21.2431 70.7879 21.7655 73.4797 21.975C73.4937 21.7255 73.5002 21.5726 73.5002 21.5726C73.4581 19.5456 73.0387 18.0193 72.3674 16.8732C68.337 16.398 64.5367 15.9359 64.5367 15.9359C64.5367 15.9359 58.914 18.1925 63.2197 20.0101Z" fill="#E8A07C"/>
<path d="M60.3437 30.4954C60.3437 30.4954 62.3728 35.8145 63.3233 36.5946L65.485 37.1085L65.7093 36.8146C65.7093 36.8146 63.0252 31.6212 62.4627 29.1964C62.4627 29.1964 62.1566 28.6337 61.7265 28.6337C61.2942 28.6337 59.5646 29.2867 60.3437 30.4954Z" fill="#011478"/>
<path d="M65.6277 19.3989C62.4015 22.5093 64.2471 27.6417 64.2471 27.6417C64.8221 29.254 65.283 32.1364 62.9212 32.8871C60.5578 33.6386 55.0005 30.9685 55.0005 30.9685C51.5742 28.5922 49.329 24.633 49.329 20.1461C49.329 12.8834 55.2086 7 62.4627 7C69.7147 7 75.5964 12.8834 75.5964 20.1461C75.5964 20.1461 68.0239 18.5332 66.7799 18.9334L65.6277 19.3989Z" fill="#265CFF"/>
<path d="M50.8801 22.111C50.8801 14.8489 56.7595 8.96492 64.0135 8.96492C67.7441 8.96492 71.1092 10.5252 73.5002 13.0256C71.1618 9.401 67.0928 7 62.4627 7C55.2086 7 49.329 12.8834 49.329 20.1461C49.329 23.6729 50.7204 26.8698 52.9781 29.2321C51.6533 27.1791 50.8801 24.7368 50.8801 22.111Z" fill="#5C85FF"/>
<path d="M62.9212 32.8871C65.283 32.1364 64.8221 29.254 64.2471 27.6417C64.2471 27.6417 62.4015 22.5093 65.6277 19.399L66.7799 18.9334C68.0239 18.5332 75.5964 20.1462 75.5964 20.1462C75.5964 19.5168 75.5493 18.9007 75.4637 18.292C72.2884 17.8884 67.4796 16.6147 65.4565 17.0877C62.5177 17.7817 61.5959 22.7385 62.7482 28.2173C63.8838 33.6183 53.7605 29.8336 53.4772 29.728C53.9543 30.1766 54.4602 30.5927 55.0005 30.9685C55.0005 30.9685 60.5578 33.6387 62.9212 32.8871Z" fill="#1139BD"/>
<path d="M67.6448 18.8759C67.6448 18.8759 74.5703 18.0922 75.3983 17.8805C75.3983 17.8805 78.2782 20.7477 78.0478 20.9236L77.5869 21.2094C77.5869 21.2094 71.9661 20.6642 67.6448 18.8759Z" fill="#011478"/>
<path d="M78.0478 20.9236C78.0936 20.8887 78.0135 20.7448 77.8609 20.5407C76.1481 20.294 72.5593 19.6997 69.3493 18.679C68.3565 18.7952 67.6448 18.8759 67.6448 18.8759C71.9661 20.6642 77.5869 21.2094 77.5869 21.2094L78.0478 20.9236Z" fill="#5F4E7C"/>
<path d="M70.5017 25.6819C70.5017 26.3034 70.7836 26.8083 71.131 26.8083C71.4783 26.8083 71.7601 26.3034 71.7601 25.6819C71.7601 25.0594 71.4783 24.5546 71.131 24.5546C70.7836 24.5546 70.5017 25.0594 70.5017 25.6819Z" fill="#1E1728"/>
<path d="M71.6659 23.1599C71.5454 23.109 71.3708 23.0675 71.2163 23.0513C71.0566 23.0343 70.8954 23.0399 70.7389 23.0705C70.4225 23.1242 70.1373 23.3086 69.9124 23.5637L69.9095 23.567C69.8616 23.6213 69.7787 23.6265 69.7244 23.5785C69.6751 23.5349 69.6662 23.4625 69.7009 23.4089C69.9104 23.0843 70.2332 22.7961 70.6267 22.6686C70.8204 22.6009 71.0248 22.5644 71.2289 22.5568C71.4379 22.5517 71.627 22.5627 71.8544 22.6197C72.0081 22.6582 72.1014 22.8142 72.0629 22.9681C72.0243 23.1219 71.8685 23.2154 71.7148 23.1768C71.7008 23.1733 71.6873 23.1689 71.6745 23.1634L71.6659 23.1599Z" fill="#1E1728"/>
<path d="M57.544 12.4257C57.7518 12.7908 58.5712 12.717 59.3743 12.2601C60.177 11.8023 60.6591 11.1351 60.4511 10.7691C60.2432 10.4033 59.4239 10.4777 58.6209 10.9354C57.8181 11.3925 57.3359 12.0596 57.544 12.4257Z" fill="#5C85FF"/>
<path d="M56.5304 12.6577C56.5304 12.6577 58.0535 13.2871 56.9938 14.3484C55.9345 15.4082 52.9545 19.9182 52.6237 21.2094C52.6237 21.2094 52.2929 22.1025 51.8952 22.1025C51.4982 22.1025 51.4982 21.0993 51.8952 20.0101C52.2929 18.921 54.544 13.1554 56.5304 12.6577Z" fill="#5C85FF"/>
<path d="M118.752 58.7729C118.752 61.8066 117.229 64.2658 115.35 64.2658C113.471 64.2658 111.948 61.8066 111.948 58.7729C111.948 55.7391 113.471 53.2799 115.35 53.2799C117.229 53.2799 118.752 55.7391 118.752 58.7729Z" fill="white"/>
<path d="M114.845 52.6372H114.547C113.888 52.6372 113.355 53.1713 113.355 53.8302V63.7163C113.355 64.3751 113.888 64.9092 114.547 64.9092H114.845C115.503 64.9092 116.037 64.3751 116.037 63.7163V53.8302C116.037 53.1713 115.503 52.6372 114.845 52.6372Z" fill="#CDCAE1"/>
<path d="M110.157 66.9187C110.157 66.9187 114.568 75.8375 120.203 88.3646C121.316 90.8403 119.592 92.8396 116.348 94.4462L103.355 66.9187H110.157Z" fill="#1139BD"/>
<path d="M128.641 110.249C118.504 110.249 110.283 118.48 110.283 128.629C110.283 138.773 118.504 147 128.641 147C138.781 147 147 138.773 147 128.629C147 118.48 138.781 110.249 128.641 110.249ZM128.641 140.092C122.313 140.092 117.184 134.961 117.184 128.629C117.184 122.292 122.313 117.157 128.641 117.157C134.97 117.157 140.101 122.292 140.101 128.629C140.101 134.961 134.97 140.092 128.641 140.092Z" fill="#48517E"/>
<path d="M128.641 111.416C119.148 111.416 111.452 119.124 111.452 128.629C111.452 138.129 119.148 145.832 128.641 145.832C138.135 145.832 145.832 138.129 145.832 128.629C145.832 119.124 138.135 111.416 128.641 111.416ZM128.641 140.092C122.313 140.092 117.184 134.961 117.184 128.629C117.184 122.292 122.313 117.157 128.641 117.157C134.97 117.157 140.101 122.292 140.101 128.629C140.101 134.961 134.97 140.092 128.641 140.092Z" fill="#011478"/>
<path d="M128.641 116.32C121.852 116.32 116.348 121.827 116.348 128.629C116.348 135.422 121.852 140.934 128.641 140.934C135.433 140.934 140.935 135.422 140.935 128.629C140.935 121.827 135.433 116.32 128.641 116.32ZM128.641 140.092C122.313 140.092 117.184 134.961 117.184 128.629C117.184 122.292 122.313 117.157 128.641 117.157C134.97 117.157 140.101 122.292 140.101 128.629C140.101 134.961 134.97 140.092 128.641 140.092Z" fill="#CDCAE1"/>
<path d="M135.875 128.629C135.875 132.621 132.637 135.863 128.641 135.863C124.648 135.863 121.41 132.621 121.41 128.629C121.41 124.628 124.648 121.386 128.641 121.386C132.637 121.386 135.875 124.628 135.875 128.629Z" fill="#9FA0B5"/>
<path d="M127.975 117.214V140.039C128.195 140.076 128.417 140.092 128.641 140.092C128.868 140.092 129.09 140.076 129.31 140.039V117.214C129.09 117.174 128.868 117.157 128.641 117.157C128.417 117.157 128.195 117.174 127.975 117.214Z" fill="#81829E"/>
<path d="M120.203 120.929L136.33 137.071C136.479 136.973 136.618 136.859 136.744 136.736C136.872 136.606 136.982 136.467 137.081 136.32L120.955 120.178C120.806 120.276 120.667 120.39 120.539 120.512C120.413 120.643 120.303 120.782 120.203 120.929Z" fill="#81829E"/>
<path d="M137.081 120.929L120.955 137.071C120.806 136.973 120.665 136.859 120.539 136.736C120.413 136.606 120.301 136.467 120.203 136.32L136.33 120.178C136.479 120.276 136.618 120.39 136.744 120.512C136.872 120.643 136.982 120.782 137.081 120.929Z" fill="#81829E"/>
<path d="M140.046 129.167H117.24C117.203 128.988 117.182 128.808 117.182 128.629C117.184 128.441 117.203 128.262 117.24 128.082H140.046C140.08 128.262 140.101 128.441 140.101 128.629C140.101 128.808 140.08 128.988 140.046 129.167Z" fill="#81829E"/>
<path d="M134.503 128.629C134.503 131.862 131.878 134.49 128.642 134.49C125.405 134.49 122.783 131.862 122.783 128.629C122.783 125.388 125.405 122.757 128.642 122.757C131.878 122.757 134.503 125.388 134.503 128.629Z" fill="#CDCAE1"/>
<path d="M131.191 128.629C131.191 130.033 130.051 131.176 128.641 131.176C127.234 131.176 126.092 130.033 126.092 128.629C126.092 127.216 127.234 126.073 128.641 126.073C130.051 126.073 131.191 127.216 131.191 128.629Z" fill="white"/>
<path d="M129.633 128.609C129.854 129.142 129.602 129.753 129.07 129.974C128.539 130.195 127.928 129.944 127.707 129.411L122.509 116.906C122.287 116.373 122.539 115.763 123.071 115.541C123.603 115.32 124.213 115.572 124.434 116.104L129.633 128.609Z" fill="#81829E"/>
<path d="M127.512 121.59L124.141 122.937L118.517 108.656L121.888 107.31L127.512 121.59Z" fill="#CDCAE1"/>
<path d="M141.647 112.97L144.133 111.662C133.666 91.6072 116.573 99.9391 116.573 99.9391C116.573 99.9391 101.98 108.383 110.892 121.944C110.892 121.944 117.719 99.9419 141.647 112.97Z" fill="#1139BD"/>
<path d="M115.566 102.573C115.566 102.573 131.707 94.7085 142.223 112.666L144.133 111.662C133.666 91.6072 116.573 99.9391 116.573 99.9391C116.573 99.9391 110.143 103.661 108.427 110.131C110.863 105.296 115.566 102.573 115.566 102.573Z" fill="#5C85FF"/>
<path d="M73.2941 122.345H89.2473C93.583 122.345 98.8368 119.233 100.922 115.428L105.62 106.858C107.706 103.052 108.874 96.4302 108.216 92.1403L104.712 77.4714C104.054 73.182 106.23 72.7834 107.359 72.3079C108.488 71.8334 111.017 74.6115 112.979 78.4814L117.71 87.811C119.672 91.681 119.887 98.1146 118.188 102.107L110.441 120.312C108.742 124.305 103.804 127.572 99.4678 127.572H79.5769C75.2413 127.572 67.0361 127.99 66.3771 126.553C65.7189 125.116 71.0967 122.345 73.2941 122.345Z" fill="#5C85FF"/>
<path d="M30.9535 93.9845C31.3017 94.4772 31.9838 94.5941 32.4763 94.2459C32.9688 93.8967 33.0858 93.2142 32.7374 92.7218L24.0932 80.4879C23.7448 79.995 23.063 79.8774 22.5704 80.2263C22.0778 80.5755 21.9609 81.2583 22.3093 81.7503L30.9535 93.9845Z" fill="#011478"/>
<path d="M25.9711 92.0658L24.9379 91.1348C23.6334 89.9587 21.6238 90.0643 20.4489 91.3705L16.2314 96.0585C15.0565 97.3636 15.1616 99.3754 16.466 100.551L17.4994 101.482L25.9711 92.0658Z" fill="white"/>
<path d="M16.1784 101.168L18.1632 102.957L27.5057 92.5719L25.5208 90.7837L16.1784 101.168Z" fill="#81829E"/>
<path d="M39.8188 110.249C29.679 110.249 21.4603 118.48 21.4603 128.629C21.4603 138.773 29.679 147 39.8188 147C49.9566 147 58.175 138.773 58.175 128.629C58.175 118.48 49.9566 110.249 39.8188 110.249ZM39.8188 140.092C33.4906 140.092 28.3594 134.961 28.3594 128.629C28.3594 122.292 33.4906 117.157 39.8188 117.157C46.1469 117.157 51.2759 122.292 51.2759 128.629C51.2759 134.961 46.1469 140.092 39.8188 140.092Z" fill="#48517E"/>
<path d="M39.8188 111.416C30.3233 111.416 22.6287 119.124 22.6287 128.629C22.6287 138.129 30.3233 145.832 39.8188 145.832C49.312 145.832 57.0086 138.129 57.0086 128.629C57.0086 119.124 49.312 111.416 39.8188 111.416ZM39.8188 140.092C33.4906 140.092 28.3594 134.961 28.3594 128.629C28.3594 122.292 33.4906 117.157 39.8188 117.157C46.1469 117.157 51.2759 122.292 51.2759 128.629C51.2759 134.961 46.1469 140.092 39.8188 140.092Z" fill="#011478"/>
<path d="M39.8188 116.32C33.0276 116.32 27.5234 121.827 27.5234 128.629C27.5234 135.422 33.0276 140.934 39.8188 140.934C46.6079 140.934 52.112 135.422 52.112 128.629C52.112 121.827 46.6079 116.32 39.8188 116.32ZM39.8188 140.092C33.4906 140.092 28.3594 134.961 28.3594 128.629C28.3594 122.292 33.4906 117.157 39.8188 117.157C46.1469 117.157 51.2759 122.292 51.2759 128.629C51.2759 134.961 46.1469 140.092 39.8188 140.092Z" fill="#CDCAE1"/>
<path d="M47.0502 128.629C47.0502 132.621 43.8139 135.863 39.8188 135.863C35.8237 135.863 32.585 132.621 32.585 128.629C32.585 124.628 35.8237 121.386 39.8188 121.386C43.8139 121.386 47.0502 124.628 47.0502 128.629Z" fill="#9FA0B5"/>
<path d="M39.1498 117.214V140.039C39.37 140.076 39.5922 140.092 39.8188 140.092C40.0433 140.092 40.2674 140.076 40.4856 140.039V117.214C40.2674 117.174 40.0433 117.157 39.8188 117.157C39.5922 117.157 39.37 117.174 39.1498 117.214Z" fill="#81829E"/>
<path d="M31.3798 120.929L47.5052 137.071C47.654 136.973 47.7928 136.859 47.9212 136.736C48.0478 136.606 48.1578 136.467 48.2555 136.32L32.1302 120.178C31.9814 120.276 31.8427 120.39 31.7145 120.512C31.5879 120.643 31.4778 120.782 31.3798 120.929Z" fill="#81829E"/>
<path d="M48.2555 120.929L32.1302 137.071C31.9814 136.973 31.8407 136.859 31.7145 136.736C31.5879 136.606 31.4778 136.467 31.3798 136.32L47.5052 120.178C47.654 120.276 47.7928 120.39 47.9212 120.512C48.0478 120.643 48.1577 120.782 48.2555 120.929Z" fill="#81829E"/>
<path d="M51.2209 129.167H28.4146C28.38 128.988 28.3594 128.808 28.3594 128.629C28.3594 128.441 28.38 128.262 28.4146 128.082H51.2209C51.2574 128.262 51.2759 128.441 51.2759 128.629C51.2759 128.808 51.2574 128.988 51.2209 129.167Z" fill="#81829E"/>
<path d="M45.6778 128.629C45.6778 131.862 43.0532 134.49 39.8188 134.49C36.5801 134.49 33.9577 131.862 33.9577 128.629C33.9577 125.388 36.5801 122.757 39.8188 122.757C43.0532 122.757 45.6778 125.388 45.6778 128.629Z" fill="#CDCAE1"/>
<path d="M9.89626 124.385C9.65873 124.831 9.52348 125.338 9.52348 125.879V126.506C9.52348 128.262 10.9462 129.687 12.7016 129.687H68.2008C69.9561 129.687 71.3792 128.262 71.3792 126.506V125.879C71.3792 125.338 71.2437 124.831 71.0062 124.385H9.89626Z" fill="#011478"/>
<path d="M11.6604 128.094V127.467C11.6604 126.927 11.7958 126.419 12.0331 125.973H71.3792V125.879C71.3792 125.338 71.2437 124.831 71.0062 124.385H9.89626C9.65873 124.831 9.52348 125.338 9.52348 125.879V126.506C9.52348 128.039 10.607 129.318 12.0496 129.619C11.8018 129.166 11.6604 128.647 11.6604 128.094Z" fill="#48517E"/>
<path d="M49.2243 37.5562C49.2243 37.5562 50.4669 35.1714 50.8136 34.9998C50.8136 34.9998 57.1741 35.7226 60.7472 39.9312C60.7472 39.9312 61.0181 43.0835 60.6858 43.4796C60.6858 43.4796 50.1911 39.8862 49.2243 37.5562Z" fill="#1139BD"/>
<path d="M89.5161 112.266L86.965 111.662C86.965 111.662 85.7475 110.037 85.3866 109.294L83.1189 110.307C83.1189 110.307 83.135 113.197 82.8231 114.233C82.8231 114.233 88.9331 113.858 89.5161 112.266Z" fill="white"/>
<path d="M87.3545 111.458C87.3545 111.458 89.8487 112.291 94.8735 113.226C94.8735 113.226 99.5704 112.45 98.6139 116.625L82.5945 116.952C82.5945 116.952 82.1195 114.757 82.7803 112.837C82.7803 112.837 88.523 112.837 87.3545 111.458Z" fill="#1139BD"/>
<path d="M98.7323 115.683C98.7323 115.683 99.45 115.924 99.2318 116.953H82.5945C82.5945 116.953 82.1256 116.12 82.4252 115.544C82.4252 115.544 92.6771 116.193 94.9512 116.054C97.227 115.916 98.7323 115.683 98.7323 115.683Z" fill="#C5BEBE"/>
<path d="M87.8807 111.613C87.8807 111.613 87.6523 112.47 86.5796 112.453C86.5796 112.453 85.9371 110.747 86.2614 110.323C86.2614 110.323 86.4532 109.694 87.8807 111.613Z" fill="#1139BD"/>
<path d="M74.8123 120.178C74.8123 120.178 75.2731 112.217 74.8123 110.249C74.3514 108.281 72.6751 102.456 67.2665 97.3399C67.2665 97.3399 72.4161 88.3071 71.6678 86.3478C70.9194 84.3886 27.5234 79.1341 31.3798 90.7043L62.5516 118.953L74.8123 120.178Z" fill="#011478"/>
<path d="M101.98 115.984L74.8123 116.32C74.8123 116.32 68.3597 108.347 63.7529 106.379C60.0236 104.786 65.9556 118.237 68.3513 123.42H96.6188L101.98 118.219V115.984Z" fill="#011478"/>
<path d="M71.6787 120.178H87.6319C91.9675 120.178 97.2214 117.064 99.307 113.259L104.005 104.689C106.09 100.884 107.258 94.2612 106.6 89.9718L103.097 75.3039C102.438 71.0139 104.615 70.615 105.744 70.1408C106.872 69.6653 109.402 72.4434 111.364 76.3134L116.094 85.6435C118.056 89.5129 118.272 95.9465 116.573 99.9391L108.825 118.144C107.126 122.137 102.188 125.404 97.8523 125.404H77.9613C73.6255 125.404 65.4206 125.822 64.7616 124.385C64.1031 122.948 69.4812 120.178 71.6787 120.178Z" fill="#265CFF"/>
<path d="M75.859 124.384L11.1277 124.385C11.1277 124.385 9.77713 98.4362 32.6073 90.2341H74.8793V96.3776C74.8793 96.3776 74.7318 99.3404 71.6678 99.4267C71.6678 99.4267 67.7098 99.0259 67.7763 100.74C67.9147 104.3 69.7023 112.725 75.859 116.32V124.384Z" fill="#265CFF"/>
<path d="M70.1992 119.503H16.6649C16.6649 119.503 16.1528 122.178 17.2783 124.385L70.1992 124.384V119.503Z" fill="#1139BD"/>
<path d="M19.8092 122.757C14.7768 122.757 17.2948 116.248 17.2948 116.248C25.7732 93.0234 43.7668 92.8459 43.7668 92.8459C70.9559 90.0778 71.8164 122.757 71.8164 122.757L19.8092 122.757Z" fill="#5C85FF"/>
<path d="M18.9054 122.673C19.1761 122.726 19.4749 122.757 19.8092 122.757H66.2711C65.2566 114.287 60.8921 94.3573 42.321 96.5436C42.321 96.5436 26.7626 96.7209 19.4313 119.946C19.4313 119.946 18.9996 121.239 18.9054 122.673Z" fill="#265CFF"/>
<path d="M114.497 52.2908C114.45 52.253 99.5904 51.8309 99.5904 59.0427C99.5904 59.0427 99.5904 61.7834 103.646 69.0849C103.646 69.0849 108.01 68.0621 111.472 67.4502L111.388 65.8758C111.388 65.8758 112.909 65.596 114.497 65.0752V52.2908Z" fill="#265CFF"/>
<path d="M101.026 60.2356C101.026 54.3973 110.763 53.5626 114.497 53.4762V52.2908C114.45 52.253 99.5904 51.8309 99.5904 59.0427C99.5904 59.0427 99.5904 61.7834 103.646 69.0849C103.646 69.0849 103.906 69.0246 104.348 68.9237C101.027 62.6351 101.026 60.2356 101.026 60.2356Z" fill="#5C85FF"/>
<path d="M103.097 56.8213C103.097 58.1116 102.05 59.1561 100.763 59.1561C99.4743 59.1561 98.4305 58.1116 98.4305 56.8213C98.4305 55.5349 99.4743 54.4863 100.763 54.4863C102.05 54.4863 103.097 55.5349 103.097 56.8213Z" fill="#CDCAE1"/>
<path d="M89.1677 110.405L88.9065 82.0669C87.8317 78.7161 85.2378 79.2223 85.2378 79.2223C85.2378 79.2223 74.8777 77.9236 81.4749 85.2767L82.3255 110.902C82.3255 110.902 84.2283 113.09 89.1677 110.405Z" fill="#3F3156"/>
<path d="M83.816 112.968L81.265 112.367C81.265 112.367 80.0476 110.747 79.6865 110L77.4164 111.009C77.4164 111.009 77.435 113.898 77.1228 114.94C77.1228 114.94 83.2332 114.569 83.816 112.968Z" fill="white"/>
<path d="M82.1806 112.323C82.1806 112.323 81.9522 113.172 80.8796 113.164C80.8796 113.164 80.237 111.458 80.5614 111.029C80.5614 111.029 80.753 110.396 82.1806 112.323Z" fill="#265CFF"/>
<path d="M46.6467 71.0037C46.6467 71.0037 43.9525 84.709 51.8857 86.0233C51.8857 86.0233 73.2991 87.236 78.5566 87.236C78.5566 87.236 84.0774 82.5703 82.1806 78.7647C82.1806 78.7647 64.1914 75.6209 62.5516 75.1885L62.9472 71.0037H46.6467Z" fill="#48517E"/>
<path opacity="0.4" d="M62.7823 75.1885L63.1758 71.0037H53.6316L46.4366 75.7113C46.404 78.8469 46.9137 82.7408 49.3159 84.7665C52.0632 83.3169 55.5279 79.737 57.2432 77.6626C59.4864 74.96 63.9568 75.4414 63.967 75.4414C63.3879 75.327 62.9739 75.2373 62.7823 75.1885Z" fill="#4B3B63"/>
<path d="M83.4675 111.114L85.4683 82.067C84.3954 78.7162 81.7645 78.7162 81.7645 78.7162C81.7645 78.7162 72.9077 79.655 78.0386 85.2767L76.6253 111.608C76.6253 111.608 78.5284 113.792 83.4675 111.114Z" fill="#48517E"/>
<path d="M81.6546 112.164C81.6546 112.164 84.8858 113.663 89.1736 113.931C89.1736 113.931 93.8703 113.155 92.914 117.333L76.8945 117.663C76.8945 117.663 76.4191 115.462 77.0803 113.548C77.0803 113.548 82.825 113.548 81.6546 112.164Z" fill="#265CFF"/>
<path d="M93.0322 116.39C93.0322 116.39 93.75 116.625 93.5297 117.663H76.8945C76.8945 117.663 76.4255 116.826 76.7252 116.251C76.7252 116.251 86.9772 116.9 89.2512 116.761C91.5271 116.622 93.0322 116.39 93.0322 116.39Z" fill="white"/>
<path d="M44.2172 53.5842C44.8651 44.3488 47.8564 36.7502 50.8136 37.1233C58.6693 38.1142 62.2559 40.3896 62.831 56.5557C62.831 56.5557 63.0371 59.1561 62.5516 62.2716C61.854 66.754 64.7887 74.3235 62.5924 74.7643C62.5924 74.7643 58.6606 73.4787 56.0338 75.2963C46.4352 81.9373 45.3925 81.7616 45.3925 81.7616C45.3925 81.7616 44.121 81.6183 44.2172 79.5309C44.3134 77.4435 44.2172 53.5842 44.2172 53.5842Z" fill="#265CFF"/>
<path d="M62.5516 62.2715C63.0371 59.1561 62.831 56.5557 62.831 56.5557C62.8308 56.5541 62.8308 56.5522 62.8308 56.55L52.4481 41.1145C52.4481 41.1145 49.8641 44.6907 50.8136 49.1708C51.6394 53.0676 60.8333 66.9834 63.1421 70.0873C62.8264 67.9942 62.2778 64.031 62.5516 62.2715Z" fill="#1139BD"/>
<path d="M54.0667 49.1708C54.0667 49.1708 61.432 61.2339 62.552 62.7299C62.552 62.7299 64.5367 65.6129 68.4256 65.0333C68.4256 65.0333 84.6268 64.3112 88.3406 63.5605C88.3406 63.5605 90.7959 63.9566 91.6136 62.2012C92.4314 60.4462 93.5448 58.9517 94.3138 58.8898C95.0806 58.8339 94.7891 61.0826 95.9146 61.2255C97.0405 61.3687 95.9146 57.7956 95.9146 57.7956C95.9146 57.7956 94.6911 56.1506 93.7916 56.2247C92.8923 56.2978 89.5885 58.8339 87.7857 60.6215C87.7857 60.6215 69.0412 60.2582 67.5484 59.9106L61.8893 47.9506L54.0667 49.1708Z" fill="#F3AD7B"/>
<path opacity="0.4" d="M61.09 60.5104L66.1373 56.9287L63.923 52.2489L57.9515 55.4902C59.0585 57.2791 60.2025 59.1149 61.09 60.5104Z" fill="#D45B44"/>
<path d="M55.4506 39.6305C55.4506 39.6305 51.7566 39.8584 51.5973 43.4796C51.4383 47.1092 57.3687 58.7729 57.3687 58.7729C57.3687 58.7729 61.4178 57.5179 65.7093 54.4864C65.7093 54.4864 60.2451 38.4507 55.4506 39.6305Z" fill="#5C85FF"/>
<path d="M100.763 57.3633C100.528 57.3633 100.312 57.2076 100.244 56.9705L99.0076 52.6597C98.8818 52.2208 98.3865 51.6586 97.9685 51.4786L91.9711 48.8988C91.6966 48.7812 91.5699 48.462 91.6877 48.1876C91.8057 47.9128 92.1244 47.7871 92.3983 47.9043L98.3955 50.4838C99.1077 50.7896 99.8334 51.6136 100.047 52.3603L101.283 56.672C101.366 56.9594 101.2 57.2595 100.913 57.3413C100.863 57.3561 100.813 57.3633 100.763 57.3633Z" fill="#CDCAE1"/>
<path d="M33.9577 80.7429L42.5883 91.7069H62.552" stroke="#48517E" stroke-width="12.2625" stroke-linecap="round" stroke-linejoin="round"/>
<path d="M12.5916 80.3266C12.5916 81.216 13.3119 81.9373 14.2005 81.9373H42.158C43.0464 81.9373 43.7668 81.216 43.7668 80.3266C43.7668 79.4368 43.0464 78.7162 42.158 78.7162H14.2005C13.3119 78.7162 12.5916 79.4368 12.5916 80.3266Z" fill="#011478"/>
<path d="M15.2968 53.3578H41.5881C41.8519 53.3578 42.0661 53.5722 42.0661 53.8363V78.2382C42.0661 78.502 41.8521 78.7162 41.5886 78.7162H15.2966C15.0328 78.7162 14.8187 78.5018 14.8187 78.2378V53.8364C14.8187 53.5722 15.0329 53.3578 15.2968 53.3578Z" fill="#C6742E"/>
<g style="mix-blend-mode:multiply" opacity="0.5">
<path d="M42.0661 59.3378V53.8358C42.0661 53.5716 41.8521 53.3578 41.5882 53.3578H15.2967C15.0326 53.3578 14.8187 53.5716 14.8187 53.8358V59.3378H42.0661Z" fill="#5B3F2C"/>
</g>
<path d="M29.3982 78.2376C29.3982 78.5017 29.1842 78.7162 28.9205 78.7162H2.62916C2.36509 78.7162 2.15113 78.5017 2.15113 78.2376V53.8358C2.15113 53.5716 2.36509 53.3578 2.62916 53.3578H28.9205C29.1842 53.3578 29.3982 53.5716 29.3982 53.8358V78.2376Z" fill="#F09A4C"/>
<g style="mix-blend-mode:multiply" opacity="0.5">
<path d="M29.3982 59.3378V53.8358C29.3982 53.5716 29.1842 53.3578 28.9205 53.3578H2.62916C2.36509 53.3578 2.15113 53.5716 2.15113 53.8358V59.3378H29.3982Z" fill="#5B3F2C"/>
</g>
<path d="M44.2172 55.8695C44.2172 56.1337 43.9802 56.3475 43.6875 56.3475H15.2967C15.0326 56.3475 14.8187 56.1337 14.8187 55.8695V50.8455C14.8187 50.5805 15.0326 50.3666 15.2967 50.3666H43.6875C43.9802 50.3666 44.2172 50.5805 44.2172 50.8455V55.8695Z" fill="#C6742E"/>
<path d="M29.3982 55.8695C29.3982 56.1337 29.1842 56.3475 28.9205 56.3475H0.529582C0.237031 56.3475 0 56.1337 0 55.8695V50.8455C0 50.5805 0.237031 50.3666 0.529582 50.3666H28.9205C29.1842 50.3666 29.3982 50.5805 29.3982 50.8455V55.8695Z" fill="#F09A4C"/>
<path d="M17.6867 50.3666H11.9504V78.7162H17.6867V50.3666Z" fill="#FCECE3"/>
<path d="M20.6366 74.4929C20.8109 74.4929 20.9515 74.6351 20.9515 74.8111V77.0185C20.9515 77.1946 20.8109 77.3368 20.6366 77.3368H18.4324C18.2582 77.3368 18.1154 77.1946 18.1154 77.0185V74.8111C18.1154 74.6351 18.2582 74.4929 18.4324 74.4929H20.6366ZM20.6366 74.3121H18.4324C18.157 74.3121 17.9338 74.5378 17.9338 74.8111V77.0185C17.9338 77.2918 18.157 77.5169 18.4324 77.5169H20.6366C20.9123 77.5169 21.1355 77.2918 21.1355 77.0185V74.8111C21.1355 74.5378 20.9123 74.3121 20.6366 74.3121Z" fill="#7E4E38"/>
<path d="M24.4813 74.4929C24.6555 74.4929 24.798 74.6351 24.798 74.8111V77.0185C24.798 77.1946 24.6555 77.3368 24.4813 77.3368H22.2768C22.1028 77.3368 21.9601 77.1946 21.9601 77.0185V74.8111C21.9601 74.6351 22.1028 74.4929 22.2768 74.4929H24.4813ZM24.4813 74.3121H22.2768C22.0013 74.3121 21.7783 74.5378 21.7783 74.8111V77.0185C21.7783 77.2918 22.0013 77.5169 22.2768 77.5169H24.4813C24.7567 77.5169 24.9798 77.2918 24.9798 77.0185V74.8111C24.9798 74.5378 24.7567 74.3121 24.4813 74.3121Z" fill="#7E4E38"/>
<path d="M27.1749 75.416L26.738 74.6766L26.3013 75.416H26.6239V76.6688H26.8522V75.416H27.1749Z" fill="#7E4E38"/>
<path d="M28.1457 75.416L27.709 74.6766L27.2722 75.416H27.5946V76.6688H27.8231V75.416H28.1457Z" fill="#7E4E38"/>
<path d="M28.0386 76.9058H26.408V77.1039H28.0386V76.9058Z" fill="#7E4E38"/>
<path d="M28.3255 74.4929C28.4997 74.4929 28.6423 74.6351 28.6423 74.8111V77.0185C28.6423 77.1946 28.4997 77.3368 28.3255 77.3368H26.1213C25.9471 77.3368 25.8045 77.1946 25.8045 77.0185V74.8111C25.8045 74.6351 25.9471 74.4929 26.1213 74.4929H28.3255ZM28.3255 74.3121H26.1213C25.8459 74.3121 25.6207 74.5378 25.6207 74.8111V77.0185C25.6207 77.2918 25.8459 77.5169 26.1213 77.5169H28.3255C28.6012 77.5169 28.8244 77.2918 28.8244 77.0185V74.8111C28.8244 74.5378 28.6012 74.3121 28.3255 74.3121Z" fill="#7E4E38"/>
<path d="M19.5947 75.7089C19.5437 75.7008 19.4951 75.6937 19.4482 75.6852V77.0564H19.606V75.7089H19.5947Z" fill="#7E4E38"/>
<path d="M19.8473 77.0564H19.2064V77.1421H19.8473V77.0564Z" fill="#7E4E38"/>
<path d="M19.5347 75.1829H19.3282L19.5029 74.718H18.7696C18.7696 75.1829 19.0568 75.5733 19.366 75.6824L19.5347 75.1829Z" fill="#7E4E38"/>
<path d="M19.6526 74.718L19.5274 75.0938L19.7744 75.0972L19.4466 75.7009C19.4744 75.709 19.5048 75.7156 19.5347 75.7156C19.9002 75.7156 20.2993 75.2659 20.2993 74.718H19.6526Z" fill="#7E4E38"/>
<path d="M23.3789 74.6954C23.3789 74.6954 22.2598 74.8828 22.1347 75.5802C22.1347 75.5802 22.3876 75.4765 22.5244 75.7387C22.5244 75.7387 22.753 75.4273 23.0398 75.7387C23.0398 75.7387 23.2609 75.5593 23.3789 75.7387C23.4972 75.5593 23.7164 75.7387 23.7164 75.7387C24.0052 75.4273 24.2336 75.7387 24.2336 75.7387C24.3706 75.4765 24.6233 75.5802 24.6233 75.5802C24.4963 74.8828 23.3789 74.6954 23.3789 74.6954Z" fill="#7E4E38"/>
<path d="M23.9488 76.7369C23.9488 76.8944 23.8215 77.0213 23.6639 77.0213C23.5064 77.0213 23.3788 76.8944 23.3788 76.7369V75.2963" stroke="#7E4E38" stroke-width="0.80007" stroke-miterlimit="10" stroke-linecap="round"/>
<path d="M93.6515 59.3579L106.046 60.8484C106.7 60.9271 107.167 61.5216 107.088 62.1762C107.01 62.8311 106.416 63.298 105.762 63.2194C105.73 63.2155 105.696 63.21 105.665 63.2038L93.4338 60.7044C93.0648 60.629 92.8266 60.2685 92.902 59.8991C92.9734 59.549 93.3034 59.3171 93.6515 59.3579Z" fill="#011478"/>
<path d="M95.5341 59.9133C95.5341 61.0776 94.5886 62.0261 93.4208 62.0261C92.2549 62.0261 91.3097 61.0776 91.3097 59.9133C91.3097 58.7435 92.2549 57.7949 93.4208 57.7949C94.5886 57.7949 95.5341 58.7435 95.5341 59.9133Z" fill="#011478"/>
<path d="M94.7433 59.9118C94.7433 60.6409 94.152 61.2339 93.4211 61.2339C92.6918 61.2339 92.1006 60.6409 92.1006 59.9118C92.1006 59.1802 92.6918 58.5872 93.4211 58.5872C94.152 58.5872 94.7433 59.1802 94.7433 59.9118Z" fill="#5F4E7C"/>
<path d="M57.3687 58.773C57.3687 58.773 61.4178 57.518 65.7093 54.4864C65.7093 54.4864 65.384 53.5329 64.8242 52.1101L56.4765 56.9594C57.0116 58.0698 57.3687 58.773 57.3687 58.773Z" fill="#FCECE3"/>
<path d="M90.9296 44.8933V51.9096C92.3889 51.411 93.4398 50.0308 93.4398 48.4019C93.4398 46.7729 92.3889 45.392 90.9296 44.8933Z" fill="#CDCAE1"/>
<path d="M90.4661 51.6789C90.4661 51.9172 90.6588 52.11 90.8966 52.11C91.1342 52.11 91.3269 51.9172 91.3269 51.6789V45.1233C91.3269 44.8858 91.1342 44.6929 90.8966 44.6929C90.6588 44.6929 90.4661 44.8858 90.4661 45.1233V51.6789Z" fill="#011478"/>
<path d="M48.5978 107.919H43.7818L46.9135 100.936H42.0191L38.9658 110.34H43.4783L40.0214 119L48.5978 107.919Z" fill="white"/>
<path d="M43.4725 119C43.2724 119 43.1102 118.839 43.1102 118.639C43.1102 118.44 43.2724 118.278 43.4725 118.278C48.2625 118.278 52.1595 114.396 52.1595 109.624C52.1595 106.745 50.7276 104.062 48.3292 102.448C48.1635 102.337 48.1198 102.112 48.2318 101.947C48.3438 101.782 48.5688 101.738 48.7349 101.85C51.333 103.599 52.8841 106.505 52.8841 109.624C52.8841 114.794 48.6621 119 43.4725 119Z" fill="white"/>
<path d="M38.5265 117.536C38.4585 117.536 38.3897 117.517 38.3286 117.477C35.6563 115.736 34.061 112.801 34.061 109.624C34.061 106.302 35.8528 103.196 38.7372 101.52C38.9099 101.42 39.1318 101.478 39.2327 101.65C39.3335 101.822 39.2751 102.043 39.1023 102.144C36.4397 103.691 34.7856 106.557 34.7856 109.624C34.7856 112.556 36.2583 115.266 38.7251 116.873C38.8926 116.982 38.9396 117.206 38.8301 117.372C38.7606 117.478 38.6447 117.536 38.5265 117.536Z" fill="white"/>
</g>
<defs>
<clipPath id="clip0_2250_24274">
<rect width="142" height="137" fill="white" transform="translate(93)"/>
</clipPath>
<clipPath id="clip1_2250_24274">
<rect width="147" height="140" fill="white" transform="translate(0 7)"/>
</clipPath>
</defs>
</svg>
