<svg width="23" height="23" viewBox="0 0 23 23" fill="none" xmlns="http://www.w3.org/2000/svg">
<g clip-path="url(#clip0_2257_24417)">
<path d="M17.9805 17.8473C17.9805 17.4889 17.9817 17.1561 17.9802 16.8233C17.9779 16.3186 18.1876 15.9366 18.6571 15.7396C19.127 15.5425 19.5467 15.6612 19.903 16.0177C20.6069 16.7221 21.3138 17.4236 22.0128 18.1329C22.5076 18.635 22.4996 19.2735 21.9992 19.7781C21.31 20.473 20.6142 21.1613 19.9265 21.8576C19.564 22.2247 19.1397 22.3554 18.6617 22.1588C18.1823 21.9616 17.9728 21.567 17.9797 21.0515C17.9839 20.7274 17.9804 20.4032 17.9804 20.0534C17.8441 20.0534 17.7349 20.0534 17.6257 20.0534C13.5683 20.0534 9.51074 20.0676 5.45339 20.0476C3.34699 20.0372 1.77098 19.0735 0.871902 17.162C-0.641999 13.9435 1.68005 10.2064 5.2314 10.1662C9.24544 10.1207 13.2604 10.1519 17.2749 10.1541C18.1129 10.1545 18.8538 9.91094 19.4231 9.28065C20.2107 8.40881 20.4039 7.3972 19.9419 6.31773C19.4838 5.24723 18.6216 4.71049 17.4623 4.65258C17.4024 4.64958 17.3422 4.6513 17.2822 4.6513C13.8852 4.65126 10.4883 4.65286 7.0914 4.6471C6.8971 4.64677 6.79583 4.69087 6.71072 4.88374C6.10066 6.26627 4.69783 7.02681 3.18882 6.8123C1.79803 6.61461 0.657312 5.45407 0.441058 4.01682C0.202013 2.42808 1.20769 0.853376 2.75832 0.388412C4.33307 -0.0837805 6.0345 0.685386 6.70019 2.18963C6.79498 2.40384 6.90745 2.4501 7.12109 2.44969C10.518 2.44328 13.9149 2.44504 17.3118 2.44528C18.7646 2.44538 20.0326 2.92537 21.0157 4.00527C22.4396 5.56955 22.7853 7.39379 21.9639 9.33297C21.1599 11.2308 19.6445 12.2419 17.5738 12.3354C16.6321 12.378 15.687 12.3457 14.7434 12.3458C11.6553 12.3463 8.56715 12.3431 5.47904 12.3473C3.92864 12.3494 2.77393 13.3711 2.62476 14.857C2.4716 16.3826 3.66791 17.77 5.19968 17.8421C5.311 17.8474 5.42265 17.8471 5.53414 17.8471C9.57443 17.8474 13.6147 17.8473 17.655 17.8473L17.9805 17.8473Z" fill="#012087"/>
</g>
<defs>
<clipPath id="clip0_2257_24417">
<rect width="22" height="22" fill="white" transform="translate(0.401428 22.25) rotate(-90)"/>
</clipPath>
</defs>
</svg>
