<svg width="15" height="15" viewBox="0 0 15 15" fill="none" xmlns="http://www.w3.org/2000/svg">
<g clip-path="url(#clip0_2159_12441)">
<path d="M9.70033 5.30305C10.2267 5.30305 10.734 5.30174 11.2413 5.30542C11.284 5.30573 11.3374 5.32876 11.3674 5.35932C12.7457 6.76574 13.9058 8.32179 14.6358 10.1679C14.8448 10.6965 14.9882 11.2442 14.9992 11.8169C15.0263 13.2211 14.3625 14.1635 13.0358 14.6206C12.4265 14.8305 11.7965 14.936 11.1566 14.9649C10.6508 14.9876 10.1432 14.9694 9.67199 14.9694C9.68027 14.5965 9.69541 14.2037 9.6965 13.8108C9.69981 12.6148 9.69812 11.4187 9.69755 10.2227C9.69715 9.37483 9.14206 8.8195 8.29493 8.81917C7.08401 8.8187 5.87309 8.81905 4.66217 8.81905H4.48012C4.53097 8.72527 4.57025 8.64884 4.61309 8.57445C5.28693 7.40431 6.1062 6.3468 7.06844 5.39928C7.14033 5.32849 7.21179 5.29984 7.31235 5.3008C7.80927 5.30559 8.30626 5.30298 8.81616 5.30298C8.83104 5.67588 8.75935 6.01959 8.62451 6.35213C8.49636 6.6682 8.30405 6.94058 8.07212 7.19009C7.82811 7.45257 7.94528 7.84681 8.28466 7.92639C8.45759 7.96695 8.60276 7.90711 8.71911 7.77869C8.81734 7.67026 8.91513 7.56071 9.00389 7.44461C9.09185 7.32957 9.16826 7.2057 9.24678 7.09005C9.43061 7.32042 9.60784 7.55018 9.79376 7.77269C9.90827 7.90975 10.0604 7.96954 10.2394 7.92428C10.5779 7.83871 10.688 7.44814 10.4403 7.18476C10.165 6.8919 9.95481 6.56275 9.82872 6.18134C9.73642 5.9021 9.68873 5.61577 9.70033 5.30305Z" fill="url(#paint0_linear_2159_12441)"/>
<path d="M4.41149 9.69729C5.70505 9.69729 6.9986 9.6972 8.29216 9.69735C8.65469 9.69739 8.81957 9.86174 8.81962 10.2236C8.81982 11.6389 8.8198 13.0543 8.81963 14.4696C8.81959 14.8344 8.65621 15.0001 8.29616 15.0001C5.70417 15.0003 3.11217 15.0003 0.520177 15.0001C0.167747 15.0001 0.000220834 14.8328 0.000164332 14.4809C-6.16789e-05 13.0607 -4.28447e-05 11.6405 0.000149264 10.2203C0.000198233 9.85984 0.165246 9.69738 0.530819 9.69734C1.82438 9.69722 3.11794 9.69729 4.41149 9.69729ZM5.74189 12.3349C5.74228 11.6129 5.15401 11.0206 4.43282 11.0169C3.70483 11.0131 3.10753 11.6061 3.10708 12.3331C3.10664 13.0542 3.69609 13.6476 4.41634 13.6513C5.14466 13.655 5.74151 13.0623 5.74189 12.3349ZM1.79171 11.8956C1.55386 11.8933 1.35146 12.092 1.34926 12.3299C1.34707 12.5678 1.54564 12.7701 1.78358 12.7725C2.02153 12.7748 2.22363 12.5764 2.22606 12.338C2.2285 12.1 2.0302 11.898 1.79171 11.8956ZM7.05705 11.8956C6.81894 11.898 6.62044 12.1004 6.6229 12.3382C6.62536 12.5764 6.82773 12.7749 7.06551 12.7725C7.30381 12.77 7.50204 12.5679 7.4997 12.3298C7.49736 12.0914 7.29533 11.8932 7.05705 11.8956Z" fill="url(#paint1_linear_2159_12441)"/>
<path d="M9.26034 0.634261C9.43924 0.504275 9.61681 0.359019 9.80973 0.23828C10.2943 -0.0650119 10.7915 -0.0771141 11.2925 0.205247C11.6687 0.417225 11.9749 0.708177 12.2381 1.04622C12.3534 1.19436 12.3665 1.35827 12.2827 1.52767C11.8182 2.46728 11.3544 3.40726 10.8855 4.34469C10.8659 4.38387 10.7982 4.42176 10.7528 4.42196C9.75675 4.42635 8.76065 4.42658 7.76458 4.42141C7.71698 4.42116 7.64729 4.37524 7.62553 4.33176C7.16071 3.4032 6.70159 2.4718 6.24052 1.54137C6.16025 1.37938 6.15256 1.21809 6.26338 1.0714C6.56745 0.668918 6.92926 0.332359 7.39552 0.122607C7.84214 -0.0783081 8.27381 -0.0236545 8.68197 0.223421C8.88485 0.346231 9.07024 0.497928 9.26034 0.634261Z" fill="url(#paint2_linear_2159_12441)"/>
<path d="M4.86387 12.3363C4.86245 12.5743 4.66355 12.7727 4.42572 12.7734C4.18242 12.7741 3.97989 12.5676 3.9851 12.3242C3.99019 12.0865 4.19255 11.8913 4.43049 11.8946C4.66853 11.8979 4.86529 12.0984 4.86387 12.3363Z" fill="url(#paint3_linear_2159_12441)"/>
</g>
<defs>
<linearGradient id="paint0_linear_2159_12441" x1="6.71895" y1="6.42487" x2="12.3416" y2="15.4143" gradientUnits="userSpaceOnUse">
<stop stop-color="#265CFF"/>
<stop offset="1" stop-color="#173799"/>
</linearGradient>
<linearGradient id="paint1_linear_2159_12441" x1="1.87701" y1="10.3134" x2="4.27825" y2="16.1859" gradientUnits="userSpaceOnUse">
<stop stop-color="#265CFF"/>
<stop offset="1" stop-color="#173799"/>
</linearGradient>
<linearGradient id="paint2_linear_2159_12441" x1="7.49039" y1="0.514123" x2="9.74717" y2="5.1309" gradientUnits="userSpaceOnUse">
<stop stop-color="#265CFF"/>
<stop offset="1" stop-color="#173799"/>
</linearGradient>
<linearGradient id="paint3_linear_2159_12441" x1="4.17204" y1="11.9966" x2="4.70025" y2="12.7734" gradientUnits="userSpaceOnUse">
<stop stop-color="#265CFF"/>
<stop offset="1" stop-color="#173799"/>
</linearGradient>
<clipPath id="clip0_2159_12441">
<rect width="15" height="15" fill="white"/>
</clipPath>
</defs>
</svg>
