<svg width="15" height="15" viewBox="0 0 15 15" fill="none" xmlns="http://www.w3.org/2000/svg">
<g clip-path="url(#clip0_2147_12314)">
<path d="M12.5203 0.440831C12.2437 0.164254 11.8031 0.164254 11.5266 0.440831L6.1875 5.77987C6.10313 5.85958 6.04688 5.96269 6.00938 6.07519L5.13751 8.98613C5.06249 9.23458 5.13282 9.50175 5.31563 9.68457C5.44687 9.82052 5.62969 9.89082 5.81251 9.89082C5.87811 9.89082 5.94844 9.88143 6.01407 9.86269L8.92499 8.99082C9.03751 8.95331 9.14062 8.89707 9.2203 8.8127L14.5594 3.47363C14.6906 3.34239 14.7656 3.16427 14.7656 2.97676C14.7656 2.78928 14.6906 2.61115 14.5594 2.47988L12.5203 0.440831Z" fill="#265CFF"/>
<path d="M14.0625 6.79688C13.6741 6.79688 13.3594 7.11182 13.3594 7.5V12.1875C13.3594 12.8339 12.8336 13.3594 12.1875 13.3594H2.8125C2.16637 13.3594 1.64062 12.8339 1.64062 12.1875V2.8125C1.64062 2.16614 2.16637 1.64062 2.8125 1.64062H7.5C7.88841 1.64062 8.20312 1.32568 8.20312 0.9375C8.20312 0.549319 7.88841 0.234375 7.5 0.234375H2.8125C1.39092 0.234375 0.234375 1.39114 0.234375 2.8125V12.1875C0.234375 13.6089 1.39092 14.7656 2.8125 14.7656H12.1875C13.6091 14.7656 14.7656 13.6089 14.7656 12.1875V7.5C14.7656 7.11182 14.4509 6.79688 14.0625 6.79688Z" fill="#265CFF"/>
</g>
<defs>
<clipPath id="clip0_2147_12314">
<rect width="15" height="15" fill="white"/>
</clipPath>
</defs>
</svg>
