<svg width="123" height="48" viewBox="0 0 123 48" fill="none" xmlns="http://www.w3.org/2000/svg">
<g clip-path="url(#clip0_4436_6284)">
<path d="M78.4831 34.8741C79.8929 34.8741 81.4633 37.1426 81.4633 40.397C81.4633 43.652 79.8929 45.9198 78.4831 45.9198C77.0733 45.9198 75.5029 43.652 75.5029 40.397C75.5029 37.1426 77.0733 34.8741 78.4831 34.8741Z" fill="#E6E6E6"/>
<path d="M78.4833 37.6862C79.1753 37.6862 79.9461 38.7996 79.9461 40.397C79.9461 41.9947 79.1753 43.1078 78.4833 43.1078C77.7913 43.1078 77.0205 41.9947 77.0205 40.397C77.0205 38.7996 77.7913 37.6862 78.4833 37.6862Z" fill="#265CFF"/>
<path d="M41.4946 33.842C43.0891 33.842 44.8657 36.4075 44.8657 40.089C44.8657 43.7698 43.0891 46.3353 41.4946 46.3353C39.9002 46.3353 38.1243 43.7698 38.1243 40.089C38.1243 36.4075 39.9002 33.842 41.4946 33.842Z" fill="#E6E6E6"/>
<path d="M41.495 36.9397C42.2988 36.9397 43.1943 38.233 43.1943 40.0889C43.1943 41.9445 42.2988 43.2378 41.495 43.2378C40.6912 43.2378 39.7959 41.9445 39.7959 40.0889C39.7959 38.233 40.6912 36.9397 41.495 36.9397Z" fill="#265CFF"/>
<path d="M82.9221 40.397C82.9221 41.6243 82.7216 42.7781 82.3688 43.7807C81.6125 45.9339 80.1558 47.3918 78.4833 47.3918C76.0316 47.3918 74.0444 44.2603 74.0444 40.397C74.0444 36.5343 76.0316 33.4028 78.4833 33.4028C80.9349 33.4028 82.9221 36.5343 82.9221 40.397ZM81.4634 40.397C81.4634 37.1426 79.8931 34.8741 78.4833 34.8741C77.0735 34.8741 75.5031 37.1426 75.5031 40.397C75.5031 43.652 77.0735 45.9198 78.4833 45.9198C79.8931 45.9198 81.4634 43.652 81.4634 40.397Z" fill="#333333"/>
<path d="M50.2665 47.7387H46.4076C45.6088 47.7387 44.829 47.3949 44.1355 46.8187C44.5428 46.4211 44.9115 45.9339 45.2306 45.3743H46.3194C46.3194 45.3743 46.4602 45.3775 46.7274 45.3813C47.6233 46.8353 48.8783 47.7387 50.2665 47.7387Z" fill="#1A1A1A"/>
<path d="M46.7273 45.3813C47.6892 45.398 50.2842 45.4332 53.7846 45.4172C52.89 46.8501 51.6445 47.7388 50.2671 47.7388H50.2664C48.8782 47.7388 47.6232 46.8354 46.7273 45.3813Z" fill="#333333"/>
<path d="M78.4832 33.4022V33.4029C76.0316 33.4029 74.0444 36.5343 74.0444 40.397C74.0444 44.2603 76.0316 47.3918 78.4832 47.3918H75.0139C73.6326 47.3918 72.3979 46.3975 71.5845 44.8378C72.6625 44.5791 73.4524 43.5989 73.4441 42.4445C73.4403 41.9016 73.4422 41.3926 73.4549 41.0885C73.4556 41.0712 73.4549 41.0545 73.4556 41.0373C73.5222 37.7092 74.6122 34.8261 76.2168 33.4022H78.4832Z" fill="#1A1A1A"/>
<path d="M38.4409 32.1774H41.4947C38.722 32.1774 36.4746 35.7199 36.4746 40.089C36.4746 44.4581 38.722 48 41.4947 48H37.5704C35.9633 48 34.5319 46.8098 33.6138 44.9581C34.766 44.6412 35.606 43.5784 35.606 42.3241V40.7126C35.606 37.0849 36.743 33.9112 38.4409 32.1774Z" fill="#1A1A1A"/>
<path d="M46.5153 40.089C46.5153 41.5526 46.2634 42.9234 45.8231 44.0996C45.653 44.5561 45.4538 44.9831 45.2305 45.3743C44.9113 45.9339 44.5427 46.4211 44.1354 46.8187C43.3683 47.5678 42.4635 48 41.4946 48C38.7219 48 36.4746 44.4581 36.4746 40.089C36.4746 35.7199 38.7219 32.1774 41.4946 32.1774C44.268 32.1774 46.5153 35.7199 46.5153 40.089ZM44.8657 40.089C44.8657 36.4075 43.0891 33.842 41.4946 33.842C39.9002 33.842 38.1243 36.4075 38.1243 40.089C38.1243 43.7698 39.9002 46.3353 41.4946 46.3353C43.0891 46.3353 44.8657 43.7698 44.8657 40.089Z" fill="#333333"/>
<path d="M15.4816 45.2649C14.5812 46.7867 13.297 47.7388 11.8714 47.7388C10.3569 47.7388 9.0016 46.6645 8.09619 44.9729C10.4527 45.1253 12.9678 45.2168 15.4816 45.2649Z" fill="#1A1A1A"/>
<path d="M11.8713 47.7388H8.0117C6.4312 47.7388 4.9224 46.3917 4.01953 44.5708C4.27332 44.6342 4.53283 44.6796 4.79614 44.7059C5.84684 44.8103 6.95275 44.8986 8.09609 44.9729C9.00149 46.6644 10.3567 47.7388 11.8713 47.7388Z" fill="#333333"/>
<path d="M83.526 40.1716C83.5451 40.4732 83.5546 40.7786 83.5546 41.0885C83.5546 41.9522 83.4804 42.7858 83.342 43.572C83.2557 43.5996 82.7425 43.7065 82.3687 43.7808C82.7215 42.7781 82.922 41.6244 82.922 40.397C82.922 36.5344 80.9348 33.4029 78.4832 33.4029V33.4022H76.2168C76.8995 32.7953 77.6748 32.4534 78.5047 32.4534C81.1125 32.4534 83.2589 35.8339 83.526 40.1716Z" fill="#12223D"/>
<path d="M47.2253 40.7127C47.2253 41.9023 47.1029 43.0426 46.8789 44.0996H45.8231C46.2635 42.9235 46.5153 41.5527 46.5153 40.0891C46.5153 35.72 44.268 32.1774 41.4947 32.1774H38.4409C39.3108 31.2888 40.3279 30.7778 41.4154 30.7778C44.624 30.7778 47.2253 35.2257 47.2253 40.7127Z" fill="#12223D"/>
<path d="M4.21812 30.3162C4.53282 30.7957 4.60008 31.386 4.42623 31.9155C4.37166 32.0845 4.29172 32.2472 4.18702 32.3983C3.92372 32.7805 3.642 33.1461 3.36283 33.4835C1.79186 33.116 1.47461 31.968 1.47461 31.968C2.19666 30.0012 3.05638 29.0433 3.05638 29.0433C3.48846 29.3097 3.90088 29.8328 4.21812 30.3162Z" fill="#E6E6E6"/>
<path d="M20.3919 31.9155C20.3468 31.2784 20.6133 30.6254 21.1704 30.2188C21.1704 30.2188 21.171 30.2188 21.1716 30.2182C21.2751 30.1765 27.3839 27.709 36.2933 28.2218C36.2933 28.2218 27.9244 35.0316 21.4495 33.5283C21.3474 33.4553 21.2446 33.3804 21.1431 33.3035C20.6755 32.9501 20.4287 32.4386 20.3919 31.9155Z" fill="#E6E6E6"/>
<path d="M64.2822 26.821C64.2968 27.1655 64.0316 27.4555 63.6902 27.4703L61.6117 27.5573C61.2703 27.5714 60.9823 27.3044 60.9683 26.96C60.9543 26.6155 61.2189 26.3248 61.5603 26.3108L63.6388 26.2237C63.9802 26.2096 64.2682 26.4766 64.2822 26.821Z" fill="#0313A6"/>
<path d="M52.425 21.4333C52.6883 21.7208 52.8476 22.1056 52.8476 22.5249C52.8476 23.3637 52.2093 24.0622 51.3806 24.1294L49.0825 24.3157C49.0413 24.3189 49.0013 24.3176 48.9626 24.3125C48.6949 24.2754 48.4849 24.0436 48.4849 23.7593V22.3194C48.4849 21.4391 49.2291 20.7457 50.099 20.8161L51.3806 20.9204C51.795 20.9544 52.1617 21.1452 52.425 21.4333Z" fill="#1B4EE9"/>
<path d="M48.9626 24.3124L45.6823 24.8003L45.4443 24.8355C45.2876 24.8586 45.1531 24.7241 45.1734 24.566L45.2673 23.8419C45.2762 23.774 45.3029 23.7125 45.3422 23.6619V23.6613C45.4063 23.5787 45.504 23.5243 45.6144 23.5179L48.4848 23.3649V23.7593C48.4848 24.0435 48.6948 24.2753 48.9626 24.3124Z" fill="#0313A6"/>
<path d="M65.2416 24.5884C64.9504 24.6038 64.6591 24.6192 64.3679 24.6333C63.8597 19.3287 63.1116 16.7319 62.8179 15.8707C63.1186 15.9021 63.4206 15.9392 63.722 15.9828C64.0278 16.8996 64.7461 19.4722 65.2416 24.5884Z" fill="#0313A6"/>
<path d="M69.6763 17.5852L70.9344 24.2446C71.3185 24.2187 71.7026 24.1932 72.0864 24.1662L70.8583 18.0963C70.4676 17.916 70.0736 17.745 69.6763 17.5852Z" fill="#A0C9F9"/>
<path d="M70.8584 18.0963L72.0865 24.1662C72.0879 24.1661 72.0894 24.166 72.0908 24.1659C72.1745 24.1599 72.2562 24.1502 72.3361 24.1375L71.1554 18.2357C71.0566 18.1886 70.9576 18.1421 70.8584 18.0963Z" fill="white" fill-opacity="0.3"/>
<path d="M71.1553 18.2357L72.336 24.1375C72.6236 24.0915 72.8859 24.0024 73.1207 23.8791L72.0335 18.6774C71.743 18.5247 71.4505 18.3765 71.1553 18.2357Z" fill="#A0C9F9"/>
<path d="M73.1747 19.3161C72.7994 19.092 72.4185 18.8798 72.0334 18.6774L73.1206 23.879C73.4927 23.6838 73.7951 23.4023 74.0205 23.0716L73.1747 19.3161Z" fill="white" fill-opacity="0.3"/>
<path d="M73.2373 19.3531C73.2165 19.3406 73.1956 19.3286 73.1748 19.3162L74.0206 23.0717C74.7968 21.933 74.6535 20.2051 73.2373 19.3531Z" fill="#A0C9F9"/>
<path d="M68.8936 17.2832L70.2588 24.2905C70.4842 24.2756 70.7092 24.2597 70.9345 24.2445L69.6763 17.5851C69.4165 17.4806 69.1558 17.3789 68.8936 17.2832Z" fill="white" fill-opacity="0.3"/>
<path d="M63.7219 15.9828C64.0277 16.8996 64.746 19.4722 65.2415 24.5885C66.9173 24.4999 68.5896 24.4004 70.2588 24.2906L68.8935 17.2833C67.1984 16.6646 65.4578 16.2301 63.7219 15.9828Z" fill="#A0C9F9"/>
<path d="M45.452 23.363C45.4013 23.461 45.3645 23.5609 45.3423 23.6614C45.4064 23.5788 45.5041 23.5244 45.6145 23.518L48.4849 23.3649V22.3194C48.4849 21.4391 49.2291 20.7457 50.099 20.8161L51.3807 20.9204C51.795 20.9544 52.1617 21.1452 52.425 21.4333C52.6883 21.7208 52.8476 22.1056 52.8476 22.5249C52.8476 23.3637 52.2093 24.0622 51.3807 24.1294L49.0826 24.3157C49.0413 24.3189 49.0013 24.3176 48.9626 24.3125L45.6824 24.8004C45.893 25.0059 46.1823 25.1359 46.5148 25.134C51.1594 25.1062 55.7797 24.9993 60.3756 24.8138L58.503 15.8016C52.8569 16.2331 47.855 18.7639 45.452 23.363Z" fill="#A0C9F9"/>
<path d="M61.2124 15.7555L63.0016 24.6988C63.1335 24.6927 63.2652 24.686 63.397 24.6798L61.4888 15.7685C61.3967 15.7639 61.3044 15.7591 61.2124 15.7555Z" fill="white" fill-opacity="0.3"/>
<path d="M62.8177 15.8707C62.3734 15.8237 61.9303 15.7905 61.4888 15.7684L63.397 24.6797C63.7207 24.6646 64.0444 24.6496 64.3678 24.6332C63.8596 19.3287 63.1115 16.7318 62.8177 15.8707Z" fill="#A0C9F9"/>
<path d="M59.1851 15.761L61.1233 24.7818C61.3533 24.7721 61.583 24.7613 61.813 24.7513L59.9197 15.7402C59.674 15.7437 59.4288 15.7497 59.1851 15.761Z" fill="#A0C9F9"/>
<path d="M59.9197 15.7403L61.813 24.7513C62.1162 24.7381 62.4193 24.7247 62.7223 24.7111L60.9636 15.7475C60.6142 15.7377 60.2661 15.7354 59.9197 15.7403Z" fill="white" fill-opacity="0.3"/>
<path d="M61.2124 15.7554C61.1294 15.7521 61.0465 15.7498 60.9636 15.7474L62.7223 24.711C62.8154 24.7069 62.9086 24.703 63.0016 24.6987L61.2124 15.7554Z" fill="#A0C9F9"/>
<path d="M58.5029 15.8016L60.3755 24.8138C60.6249 24.8037 60.8739 24.7924 61.1232 24.7819L59.185 15.7611C58.9568 15.7717 58.7292 15.7844 58.5029 15.8016Z" fill="white" fill-opacity="0.3"/>
<path d="M35.625 15.0473C32.625 15.6086 29.9495 16.45 27.6187 17.4001L38.6347 14.6434C37.5109 14.7523 36.4906 14.8854 35.625 15.0473Z" fill="#A0C9F9"/>
<path d="M43.7629 14.3711C42.41 14.4112 41.0774 14.4664 39.8147 14.5409C39.8115 14.5409 39.8077 14.5416 39.8045 14.5416C39.4042 14.5729 39.0137 14.6068 38.6349 14.6435L27.6188 17.4002C26.1226 18.01 24.7679 18.6646 23.5618 19.3189L43.7629 14.3711Z" fill="white" fill-opacity="0.3"/>
<path d="M43.7628 14.371L23.5617 19.3188C23.2577 19.4837 22.9628 19.6486 22.6777 19.8127L45.2509 14.3328C44.7536 14.3436 44.257 14.3564 43.7628 14.371Z" fill="#A0C9F9"/>
<path d="M45.251 14.3328L22.6778 19.8128C22.0448 20.1772 21.4591 20.5378 20.9207 20.887L46.9371 14.3029C46.3769 14.3107 45.8138 14.3206 45.251 14.3328Z" fill="white" fill-opacity="0.3"/>
<path d="M52.1418 14.2811C50.5159 14.2736 48.7425 14.2776 46.937 14.3029L20.9206 20.887C19.8905 21.555 19.0358 22.1801 18.3626 22.7075C18.1103 22.9051 17.8846 23.0884 17.6838 23.2556L52.9295 14.2859C52.6707 14.284 52.4091 14.2824 52.1418 14.2811Z" fill="#A0C9F9"/>
<path d="M53.2823 14.2885C53.1662 14.2875 53.0475 14.2867 52.9296 14.2859L17.6839 23.2556C17.5179 23.3937 17.3687 23.5211 17.2384 23.6349C17.02 23.8255 16.8518 23.9796 16.7354 24.0891C17.9705 23.9161 19.2072 23.7775 20.5206 23.6737L56.4981 14.3295C55.5663 14.3133 54.4767 14.2981 53.2823 14.2885Z" fill="white" fill-opacity="0.3"/>
<path d="M56.4981 14.3295L20.5205 23.6736C25.2878 23.2968 31.0675 23.3793 41.47 23.9475H41.4706C43.0289 23.5774 44.4216 22.658 45.3612 21.3237C48.5597 16.785 53.862 14.4461 59.7869 14.4058V14.4045C59.7869 14.4045 58.5109 14.3645 56.4981 14.3295Z" fill="#A0C9F9"/>
<path d="M39.8045 14.5415C38.2164 14.6657 36.7825 14.8309 35.6252 15.0473C24.5928 17.1115 17.9358 22.9609 16.7354 24.089C16.571 24.112 16.4061 24.1357 16.2411 24.1601C15.8591 24.2164 15.4835 24.2785 15.1143 24.3451C17.5266 22.2111 24.108 17.107 33.7059 15.2035C35.2629 14.8943 37.4081 14.6836 39.8045 14.5415Z" fill="#0313A6"/>
<path d="M19.6369 33.3362L21.4655 35.5111L19.6369 37.6861H5.02159L3.19238 35.5111L5.02159 33.3362H19.6369Z" fill="#003D99"/>
<path d="M20.5757 38.626H20.5764C20.4628 38.9826 20.4025 39.3597 20.4025 39.7464V41.6352H3.30512V39.0773C3.30512 38.9256 3.29624 38.7752 3.27783 38.626H20.5757Z" fill="#265CFF"/>
<path d="M24.79 35.3422L22.5154 36.4069C21.5744 36.8474 20.8809 37.6605 20.5764 38.626H3.27785C3.17253 37.7585 2.76645 36.9499 2.11674 36.3589C1.86232 36.1271 1.61931 35.8422 1.45117 35.5022C1.45117 35.5022 2.38894 34.6629 3.36287 33.4835C3.64204 33.1461 3.92375 32.7805 4.18706 32.3983C4.29176 32.2472 4.3717 32.0846 4.42626 31.9155H20.3918C20.4286 32.4386 20.6754 32.9502 21.143 33.3036C21.2445 33.3804 21.3473 33.4553 21.4494 33.5283C23.0927 34.6981 24.79 35.3422 24.79 35.3422ZM21.4653 35.5112L19.6367 33.3363H5.02141L3.1922 35.5112L5.02141 37.6862H19.6367L21.4653 35.5112Z" fill="#0313A6"/>
<path d="M3.30521 39.0774V41.6352H0.820565C0.101701 37.2476 0.711436 34.045 1.47472 31.968C1.47472 31.968 1.79196 33.116 3.36294 33.4835C2.38901 34.6629 1.45124 35.5022 1.45124 35.5022C1.61938 35.8422 1.86239 36.1271 2.11681 36.3589C2.76652 36.9498 3.1726 37.7585 3.27792 38.626C3.29632 38.7752 3.30521 38.9257 3.30521 39.0774Z" fill="#265CFF"/>
<path d="M85.4042 39.0531L85.231 41.1883C85.1657 41.997 84.7526 42.7083 84.1384 43.1642C84.2228 42.4951 84.2672 41.8004 84.2672 41.0885C84.2672 40.7485 84.2571 40.413 84.2374 40.082C84.2469 40.0807 84.2558 40.0794 84.2647 40.0781C84.8275 40.0039 85.2722 39.5884 85.4042 39.0531Z" fill="#2E4360"/>
<path d="M72.7417 41.0807C72.7443 35.6418 75.3235 31.2343 78.5047 31.2343C81.4887 31.2343 83.9429 35.1129 84.2373 40.0819C84.257 40.4129 84.2671 40.7484 84.2671 41.0884C84.2671 41.8004 84.2227 42.4951 84.1383 43.1641C83.9004 43.3421 83.632 43.4811 83.342 43.572C83.4804 42.7857 83.5546 41.9521 83.5546 41.0884C83.5546 40.7785 83.5451 40.4731 83.5261 40.1716C83.2589 35.8338 81.1125 32.4533 78.5047 32.4533C77.6748 32.4533 76.8995 32.7952 76.2168 33.4022C74.6122 34.8261 73.5222 37.7092 73.4555 41.0372C73.4549 41.0545 73.4555 41.0711 73.4549 41.0884C73.4422 41.3925 73.4403 41.9015 73.4441 42.4445C73.4524 43.5989 72.6624 44.5791 71.5844 44.8377C71.4506 44.8698 71.3123 44.8902 71.1701 44.8992C64.9192 45.2815 58.5223 45.3961 53.7847 45.4172C50.2842 45.4332 47.6892 45.398 46.7273 45.3813C46.4602 45.3775 46.3193 45.3743 46.3193 45.3743C47.0039 45.3743 47.5959 44.8864 47.7241 44.2077C47.8675 43.4503 47.9652 42.6583 48.0128 41.8407C58.844 41.7453 66.9197 41.4297 72.7417 41.0807Z" fill="#253659"/>
<path d="M48.0452 40.7126C48.0452 41.0936 48.0345 41.47 48.0129 41.8407C47.9653 42.6583 47.8676 43.4503 47.7242 44.2078C47.596 44.8864 47.0041 45.3743 46.3195 45.3743H45.2307C45.454 44.9831 45.6532 44.5561 45.8233 44.0996H46.8791C47.103 43.0425 47.2255 41.9022 47.2255 40.7126C47.2255 35.2256 44.6241 30.7778 41.4155 30.7778C40.328 30.7778 39.311 31.2887 38.4411 32.1774C36.7432 33.9112 35.6062 37.0849 35.6062 40.7126V42.3241C35.6062 43.5784 34.7662 44.6412 33.6139 44.9581C33.423 45.0106 33.2231 45.042 33.0169 45.051C29.4682 45.2021 22.4781 45.4006 15.4817 45.2648C12.9679 45.2168 10.4528 45.1252 8.0963 44.9729C6.95296 44.8986 5.84706 44.8102 4.79636 44.7059C4.53304 44.6796 4.27354 44.6342 4.01974 44.5708C2.73746 44.2494 1.60618 43.4644 0.849867 42.3491L0.622725 42.0142C0.513595 41.8535 0.627799 41.6352 0.82068 41.6352H20.4027V41.641C25.4456 41.746 30.1382 41.8113 34.499 41.8446C34.671 41.8459 34.8099 41.7024 34.8029 41.5283C34.7915 41.2587 34.7858 40.9866 34.7858 40.7126C34.7858 34.4516 37.7539 29.3756 41.4155 29.3756C45.0771 29.3756 48.0452 34.4516 48.0452 40.7126Z" fill="#2E4360"/>
<path d="M41.4699 23.9475C41.1247 24.0301 40.772 24.0852 40.4135 24.112C32.0535 24.7369 24.8204 28.177 21.3739 30.0888C21.3028 30.1285 21.235 30.1714 21.1715 30.2182C21.1709 30.2188 21.1702 30.2188 21.1702 30.2188C20.6132 30.6254 20.3467 31.2784 20.3917 31.9155H4.42624C4.60009 31.386 4.53283 30.7957 4.21813 30.3161C3.90089 29.8327 3.48848 29.3096 3.0564 29.0433C3.0564 29.0433 7.74332 25.6852 15.1141 24.3451C15.4834 24.2785 15.859 24.2164 16.2409 24.1601C16.4059 24.1357 16.5709 24.112 16.7352 24.089C22.4538 23.288 28.2016 23.2227 41.4699 23.9475Z" fill="#265CFF"/>
<path d="M85.4441 29.4999V38.7227C85.4441 38.8361 85.4301 38.9462 85.4041 39.0518V39.0531C85.2721 39.5884 84.8274 40.0039 84.2646 40.0782C84.2557 40.0794 84.2468 40.0807 84.2373 40.082C83.9429 35.113 81.4887 31.2343 78.5047 31.2343C75.3234 31.2343 72.7443 35.6418 72.7417 41.0808C66.9197 41.4297 58.844 41.7454 48.0128 41.8408C48.0343 41.4701 48.0451 41.0936 48.0451 40.7126C48.0451 34.4516 45.077 29.3756 41.4154 29.3756C37.7538 29.3756 34.7857 34.4516 34.7857 40.7126C34.7857 40.9867 34.7914 41.2588 34.8028 41.5283C34.8098 41.7025 34.6708 41.8459 34.4989 41.8446C30.1381 41.8113 25.4455 41.746 20.4026 41.641V39.7465C20.4026 39.3598 20.4629 38.9827 20.5764 38.6261C20.881 37.6606 21.5745 36.8474 22.5154 36.4069L24.79 35.3422C24.79 35.3422 23.0928 34.6981 21.4495 33.5283C27.9244 35.0317 36.2932 28.2219 36.2932 28.2219C27.3838 27.7091 21.275 30.1766 21.1716 30.2182C21.235 30.1715 21.3029 30.1286 21.374 30.0889C24.8205 28.1771 32.0536 24.737 40.4135 24.1121C40.772 24.0852 41.1248 24.0302 41.47 23.9476H41.4706C43.0289 23.5775 44.4216 22.6581 45.3612 21.3238C48.5597 16.785 53.862 14.4462 59.7869 14.4058C66.7839 14.3565 74.6483 17.5111 80.938 24.0257C81.1683 24.2651 81.4589 24.4367 81.778 24.5238L84.4143 25.2466C85.0221 25.4131 85.4441 25.9701 85.4441 26.6059V26.944H81.5312C81.1442 26.944 80.8301 27.2609 80.8301 27.6514C80.8301 28.1624 81.0351 28.624 81.3669 28.9588C81.6981 29.2931 82.1562 29.4999 82.6625 29.4999H85.4441ZM72.0907 24.1659C74.5989 23.9885 75.3964 20.6522 73.2373 19.3531C70.2742 17.57 66.9889 16.4483 63.7219 15.9828C63.4205 15.9393 63.1185 15.9021 62.8178 15.8707C55.5136 15.0986 48.4543 17.6167 45.452 23.363C45.4012 23.461 45.3644 23.5609 45.3422 23.6614V23.662C45.3029 23.7126 45.2762 23.7741 45.2673 23.8419L45.1734 24.566C45.1531 24.7242 45.2876 24.8586 45.4444 24.8356L45.6823 24.8004C45.8929 25.0059 46.1823 25.1359 46.5147 25.134C52.5062 25.0981 58.4576 24.9323 64.3678 24.6333C64.659 24.6192 64.9503 24.6038 65.2415 24.5885C67.5307 24.4675 69.8136 24.3266 72.0907 24.1659ZM63.6902 27.4702C64.0315 27.4555 64.2967 27.1655 64.2822 26.821C64.2682 26.4766 63.9801 26.2096 63.6388 26.2237L61.5602 26.3107C61.2189 26.3248 60.9543 26.6155 60.9683 26.96C60.9822 27.3044 61.2703 27.5714 61.6116 27.5573L63.6902 27.4702Z" fill="#1B4EE9"/>
<path d="M85.444 26.944V29.4999H82.6625C82.1561 29.4999 81.6981 29.2931 81.3668 28.9588C81.035 28.624 80.8301 28.1624 80.8301 27.6515C80.8301 27.2609 81.1441 26.944 81.5312 26.944H85.444Z" fill="#A0C9F9"/>
<g style="mix-blend-mode:soft-light">
<path d="M64.6763 40.3274C64.6638 40.3274 64.6511 40.3259 64.6384 40.3227C64.5534 40.3017 64.5013 40.215 64.5222 40.1292C66.4149 32.3444 64.7676 25.7428 64.7507 25.6771C64.7288 25.5915 64.7797 25.5041 64.8645 25.482C64.9494 25.4597 65.0358 25.5113 65.0578 25.5968C65.0621 25.6135 65.4879 27.2945 65.6705 29.9215C65.8388 32.3442 65.8297 36.095 64.8303 40.2054C64.8125 40.2785 64.7477 40.3274 64.6763 40.3274Z" fill="#4D4D4D"/>
<path d="M48.8577 40.7219C48.8474 40.7219 48.837 40.7209 48.8266 40.7188C48.7406 40.7015 48.6849 40.6172 48.702 40.5306C50.2328 32.7758 48.2265 26.3185 48.2061 26.2541C48.1794 26.17 48.2253 26.0799 48.3087 26.0528C48.3921 26.0256 48.4814 26.0721 48.5081 26.1563C48.5134 26.1726 49.0309 27.8173 49.3488 30.4052C49.642 32.7918 49.8217 36.4966 49.0131 40.5931C48.9981 40.6692 48.9318 40.7219 48.8577 40.7219Z" fill="#4D4D4D"/>
</g>
<path d="M78.0504 29.8679C78.9088 29.8679 79.6047 29.1656 79.6047 28.2994C79.6047 27.4332 78.9088 26.731 78.0504 26.731C77.192 26.731 76.4961 27.4332 76.4961 28.2994C76.4961 29.1656 77.192 29.8679 78.0504 29.8679Z" fill="#F2C744"/>
<path d="M113.213 17.6774C113.935 17.6774 114.52 18.2676 114.52 18.9957C114.52 19.7232 113.935 20.3134 113.213 20.3134C112.492 20.3134 111.907 19.7232 111.907 18.9957C111.907 18.2676 112.492 17.6774 113.213 17.6774Z" fill="#F2C744"/>
<path d="M116.451 19.1516V40.7454H109.976V19.1516C109.976 17.3477 111.426 15.8848 113.213 15.8848C115.002 15.8848 116.451 17.3477 116.451 19.1516ZM114.52 18.9958C114.52 18.2676 113.935 17.6774 113.213 17.6774C112.492 17.6774 111.907 18.2676 111.907 18.9958C111.907 19.7232 112.492 20.3134 113.213 20.3134C113.935 20.3134 114.52 19.7232 114.52 18.9958Z" fill="#012087"/>
<path d="M103.06 8.5282H94.3538V10.3808H103.06V8.5282Z" fill="url(#paint0_linear_4436_6284)"/>
<path d="M103.06 11.2435H94.3538V18.4614H103.06V11.2435Z" fill="#1B4EE9"/>
<path d="M115.7 3.6366C116.115 3.6366 116.451 3.97567 116.451 4.39469C116.451 4.81305 116.115 5.15212 115.7 5.15212H110.727C110.313 5.15212 109.976 4.81305 109.976 4.39469C109.976 3.97567 110.313 3.6366 110.727 3.6366H115.7Z" fill="#012087"/>
<path d="M115.7 6.45447C116.115 6.45447 116.451 6.79354 116.451 7.2119C116.451 7.63092 116.115 7.96999 115.7 7.96999H110.727C110.313 7.96999 109.976 7.63092 109.976 7.2119C109.976 6.79354 110.313 6.45447 110.727 6.45447H115.7Z" fill="#012087"/>
<path d="M115.7 9.27234C116.115 9.27234 116.451 9.61142 116.451 10.0298C116.451 10.4481 116.115 10.7879 115.7 10.7879H110.727C110.313 10.7879 109.976 10.4481 109.976 10.0298C109.976 9.61142 110.313 9.27234 110.727 9.27234H115.7Z" fill="#012087"/>
<path d="M115.7 12.0896C116.115 12.0896 116.451 12.4293 116.451 12.8477C116.451 13.266 116.115 13.6058 115.7 13.6058H110.727C110.313 13.6058 109.976 13.266 109.976 12.8477C109.976 12.4293 110.313 12.0896 110.727 12.0896H115.7Z" fill="#012087"/>
<path d="M103.391 3.6366C103.807 3.6366 104.143 3.97567 104.143 4.39469C104.143 4.81305 103.807 5.15212 103.391 5.15212H94.0223C93.6078 5.15212 93.2717 4.81305 93.2717 4.39469C93.2717 3.97567 93.6078 3.6366 94.0223 3.6366H103.391Z" fill="#012087"/>
<path d="M104.143 8.26581V18.7246C104.143 19.3135 103.67 19.7905 103.086 19.7905H94.328C93.7444 19.7905 93.2717 19.3135 93.2717 18.7246V8.26581C93.2717 7.67693 93.7444 7.19995 94.328 7.19995H103.086C103.67 7.19995 104.143 7.67693 104.143 8.26581ZM103.06 18.4615V11.2436H94.3537V18.4615H103.06ZM103.06 10.3809V8.52828H94.3537V10.3809H103.06Z" fill="#012087"/>
<path d="M101.004 28.3793L97.5859 35.3314L98.1602 30.1173H96.4102L97.203 23.7441H100.867L98.9802 28.3793H101.004Z" fill="url(#paint1_linear_4436_6284)"/>
<path d="M120.896 40.7454V44.0948H108.848V40.7454H109.976H116.451H118.519H120.896Z" fill="#808080"/>
<path d="M108.848 40.7454V44.0948H86.6826V40.7454H89.5068H107.907H108.848Z" fill="#999999"/>
<path d="M122.5 44.0422V47.3917H109.976V44.0422H111.148H117.879H120.03H122.5Z" fill="#666666"/>
<path d="M109.976 44.0422V47.3917H84.8416V44.0422H88.044H108.909H109.976Z" fill="#777777"/>
<path d="M118.519 1.9985V40.7453H116.45V19.1516C116.45 17.3476 115.001 15.8847 113.213 15.8847C111.425 15.8847 109.976 17.3476 109.976 19.1516V40.7453H107.907V1.9985C107.907 0.919971 107.061 0.0412993 106.001 0.00199736V0H116.539C117.633 0 118.519 0.894658 118.519 1.9985ZM116.45 4.39469C116.45 3.97567 116.114 3.63659 115.7 3.63659H110.727C110.312 3.63659 109.976 3.97567 109.976 4.39469C109.976 4.81304 110.312 5.15212 110.727 5.15212H115.7C116.114 5.15212 116.45 4.81304 116.45 4.39469ZM116.45 7.2119C116.45 6.79355 116.114 6.45447 115.7 6.45447H110.727C110.312 6.45447 109.976 6.79355 109.976 7.2119C109.976 7.63092 110.312 7.97 110.727 7.97H115.7C116.114 7.97 116.45 7.63092 116.45 7.2119ZM116.45 10.0298C116.45 9.61143 116.114 9.27235 115.7 9.27235H110.727C110.312 9.27235 109.976 9.61143 109.976 10.0298C109.976 10.4481 110.312 10.7879 110.727 10.7879H115.7C116.114 10.7879 116.45 10.4481 116.45 10.0298ZM116.45 12.8477C116.45 12.4293 116.114 12.0896 115.7 12.0896H110.727C110.312 12.0896 109.976 12.4293 109.976 12.8477C109.976 13.266 110.312 13.6058 110.727 13.6058H115.7C116.114 13.6058 116.45 13.266 116.45 12.8477Z" fill="#E6E6E6"/>
<path d="M107.907 1.9985V40.7453H89.5068V1.9985C89.5068 0.894658 90.3934 0 91.4873 0H105.927C105.952 0 105.977 0.000665785 106.002 0.00199736C107.061 0.0412993 107.907 0.919971 107.907 1.9985ZM104.143 18.7246V8.26577C104.143 7.67689 103.67 7.19991 103.086 7.19991H94.328C93.7444 7.19991 93.2717 7.67689 93.2717 8.26577V18.7246C93.2717 19.3135 93.7444 19.7904 94.328 19.7904H103.086C103.67 19.7904 104.143 19.3135 104.143 18.7246ZM104.143 4.39469C104.143 3.97567 103.807 3.63659 103.391 3.63659H94.0223C93.6078 3.63659 93.2717 3.97567 93.2717 4.39469C93.2717 4.81304 93.6078 5.15212 94.0223 5.15212H103.391C103.807 5.15212 104.143 4.81304 104.143 4.39469ZM97.5859 35.3314L101.004 28.3793H98.9801L100.867 23.7441H97.203L96.4101 30.1173H98.1602L97.5859 35.3314Z" fill="white"/>
<path d="M99.8003 12.809H99.2866V12.138C99.2866 12.046 99.2127 11.9714 99.1215 11.9714H98.1511C98.0599 11.9714 97.9861 12.046 97.9861 12.138V12.809H97.4723C97.2357 12.809 97.0432 13.0032 97.0432 13.242V17.2507C97.0432 17.4895 97.2357 17.6837 97.4723 17.6837H99.8003C100.037 17.6837 100.229 17.4895 100.229 17.2507V13.242C100.229 13.0032 100.037 12.809 99.8003 12.809ZM98.3161 12.3045H98.9565V12.809H98.3161V12.3045ZM99.8994 17.2507C99.8994 17.3058 99.8549 17.3507 99.8003 17.3507H97.4723C97.4177 17.3507 97.3733 17.3058 97.3733 17.2507V16.6318H99.8994V17.2507ZM99.8994 16.2987H97.3733V15.4129H99.8994V16.2987ZM99.8994 15.0798H97.3733V14.194H99.8994V15.0798ZM99.8994 13.8609H97.3733V13.242C97.3733 13.1869 97.4177 13.1421 97.4723 13.1421H99.8003C99.8549 13.1421 99.8994 13.1869 99.8994 13.242V13.8609Z" fill="#34CDE2"/>
<path d="M115.531 18.3292H113.378C113.027 18.3292 112.72 18.597 112.697 18.951C112.672 19.339 112.977 19.6616 113.356 19.6616H115.531C116.26 19.6616 116.851 20.2581 116.851 20.9939V40.5426C116.851 41.2785 116.26 41.875 115.531 41.875H89.9377C89.2085 41.875 88.6174 41.2785 88.6174 40.5426V30.2754C88.6174 28.8038 87.4351 27.6108 85.9768 27.6108H78.0503C77.6857 27.6108 77.3901 27.909 77.3901 28.2769C77.3901 28.6448 77.6857 28.9431 78.0503 28.9431H85.9768C86.7059 28.9431 87.2971 29.5396 87.2971 30.2754V40.5426C87.2971 42.0143 88.4793 43.2073 89.9377 43.2073H115.531C116.989 43.2073 118.172 42.0143 118.172 40.5426V20.9939C118.172 19.5222 116.989 18.3292 115.531 18.3292Z" fill="#253659"/>
<path d="M10.5015 33.7731L11.4792 33.7002L11.6236 33.7731L11.0458 35.1927L11.5211 35.1198L11.6655 35.1927L10.6187 37.322L10.4743 37.2492L10.7946 35.725H10.2587L10.1143 35.6521L10.5015 33.7731Z" fill="#DDAD36"/>
<path d="M10.3571 33.7002H11.4792L10.9014 35.1198H11.5211L10.4743 37.2492L10.6502 35.6521H10.1143L10.3571 33.7002Z" fill="#F2C744"/>
</g>
<defs>
<linearGradient id="paint0_linear_4436_6284" x1="96.2066" y1="8.74343" x2="96.546" y2="11.0889" gradientUnits="userSpaceOnUse">
<stop stop-color="#265CFF"/>
<stop offset="1" stop-color="#173799"/>
</linearGradient>
<linearGradient id="paint1_linear_4436_6284" x1="97.3877" y1="25.0903" x2="103.904" y2="28.8888" gradientUnits="userSpaceOnUse">
<stop stop-color="#265CFF"/>
<stop offset="1" stop-color="#173799"/>
</linearGradient>
<clipPath id="clip0_4436_6284">
<rect width="122" height="48" fill="white" transform="translate(0.5)"/>
</clipPath>
</defs>
</svg>
