<svg width="19" height="12" viewBox="0 0 19 12" fill="none" xmlns="http://www.w3.org/2000/svg">
<g clip-path="url(#clip0_2320_27889)">
<path d="M6.09064 6.00003L0.736206 9.52299V2.47707L6.09064 6.00003ZM12.9093 6.00003L18.2637 9.52299V2.47707L12.9093 6.00003ZM12.1269 6.51627L9.73294 8.09091C9.66241 8.13627 9.58118 8.16003 9.49996 8.16003C9.41873 8.16003 9.33751 8.13627 9.26697 8.09091L6.87297 6.51627L1.09103 10.32L0.755444 10.5404C0.860181 11.1495 1.38601 11.616 2.01871 11.616H16.9812C17.6139 11.616 18.1397 11.1516 18.2445 10.5404L17.9067 10.32L12.1269 6.51627ZM9.49996 7.21179L17.9067 1.68003L18.2445 1.45971C18.1397 0.848433 17.6139 0.384033 16.9812 0.384033H2.01871C1.38601 0.384033 0.860181 0.850593 0.755444 1.45971L1.09103 1.68003L9.49996 7.21179Z" fill="#012087"/>
</g>
<defs>
<clipPath id="clip0_2320_27889">
<rect width="19" height="12" fill="white"/>
</clipPath>
</defs>
</svg>
