<svg width="14" height="17" viewBox="0 0 14 17" fill="none" xmlns="http://www.w3.org/2000/svg">
<path d="M7.23752 0.760864C5.5624 0.762746 3.95644 1.42903 2.77195 2.61355C1.58746 3.79807 0.921193 5.40408 0.919312 7.07924C0.919312 9.65002 2.78555 11.7848 4.76236 14.0445C5.38786 14.76 6.03548 15.5 6.61202 16.2488C6.68579 16.3445 6.78055 16.422 6.889 16.4753C6.99744 16.5286 7.11667 16.5564 7.23752 16.5564C7.35836 16.5564 7.4776 16.5286 7.58604 16.4753C7.69448 16.422 7.78924 16.3445 7.86302 16.2488C8.43956 15.5 9.08717 14.76 9.71268 14.0445C11.6895 11.7848 13.5557 9.65002 13.5557 7.07924C13.5538 5.40408 12.8876 3.79807 11.7031 2.61355C10.5186 1.42903 8.91263 0.762746 7.23752 0.760864ZM7.23752 9.44862C6.76891 9.44862 6.31082 9.30966 5.92119 9.04931C5.53156 8.78896 5.22787 8.41891 5.04854 7.98596C4.86922 7.55301 4.8223 7.07661 4.91372 6.61699C5.00514 6.15737 5.23079 5.73519 5.56215 5.40382C5.89351 5.07246 6.31568 4.8468 6.77529 4.75537C7.23489 4.66395 7.71128 4.71087 8.14422 4.89021C8.57716 5.06954 8.9472 5.37323 9.20754 5.76287C9.46789 6.15252 9.60685 6.61061 9.60685 7.07924C9.60685 7.70764 9.35722 8.3103 8.91289 8.75465C8.46855 9.19899 7.8659 9.44862 7.23752 9.44862Z" fill="url(#paint0_linear_4510_2830)"/>
<defs>
<linearGradient id="paint0_linear_4510_2830" x1="3.60858" y1="2.59597" x2="13.6837" y2="14.4481" gradientUnits="userSpaceOnUse">
<stop stop-color="#265CFF"/>
<stop offset="1" stop-color="#173799"/>
</linearGradient>
</defs>
</svg>
