<svg width="17" height="16" viewBox="0 0 17 16" fill="none" xmlns="http://www.w3.org/2000/svg">
<path d="M0.249267 4.01636C1.10511 4.34154 1.93171 4.65845 2.76127 4.96772C2.88444 5.01364 2.89316 5.09121 2.89275 5.19599C2.89031 5.81873 2.89083 6.44149 2.892 7.06424C2.89246 7.30798 2.91933 7.32564 3.16354 7.25225C3.45702 7.16406 3.74817 7.06729 4.0449 6.99139C4.1189 6.97246 4.2317 6.99368 4.29043 7.04031C4.63838 7.31659 4.97397 7.6078 5.31826 7.88863C5.37495 7.93488 5.45412 7.95464 5.5229 7.98664C5.54656 7.91103 5.58996 7.83562 5.59076 7.75977C5.59659 7.20295 5.59391 6.64604 5.59391 6.05387C6.3801 6.35294 7.14637 6.64443 7.91617 6.93727V15.6614C7.59192 15.5393 7.27753 15.4221 6.96402 15.3026C4.83019 14.4895 2.6965 13.6761 0.562884 12.8625C0.276572 12.7533 0.237861 12.699 0.237809 12.3957C0.237347 9.66869 0.237467 6.94169 0.237949 4.21469C0.237957 4.15745 0.244301 4.10021 0.249267 4.01636Z" fill="url(#paint0_linear_2199_29190)"/>
<path d="M16.2375 8.32589V4.02515C16.1511 4.05478 16.0828 4.07594 16.0163 4.10132C13.5962 5.02383 11.1769 5.94815 8.75511 6.86614C8.63701 6.9109 8.55933 7.02227 8.5596 7.14643C8.56553 9.91231 8.56382 12.6782 8.56431 15.4441C8.56432 15.5118 8.57055 15.5796 8.57472 15.6644C9.58594 15.2788 14.5611 13.3654 15.9033 12.8492C16.1063 12.7711 16.2375 12.58 16.2375 12.3662V8.32589Z" fill="url(#paint1_linear_2199_29190)"/>
<path d="M0.694916 3.50438C1.60997 3.15455 2.47291 2.82393 3.3364 2.49469C4.89086 1.902 6.4463 1.3118 7.99932 0.715528C8.16507 0.651892 8.31149 0.644803 8.47955 0.710646C9.22292 1.00188 9.97051 1.28277 10.7164 1.5678C10.7592 1.58414 10.8005 1.60392 10.8775 1.63722C10.6795 1.71568 10.5123 1.78411 10.3435 1.84849C8.08085 2.71159 5.81745 3.57289 3.55614 4.43941C3.39614 4.50072 3.26102 4.4981 3.10079 4.43479C2.37073 4.14634 1.63518 3.87124 0.901771 3.59093C0.848245 3.57048 0.796002 3.54681 0.694916 3.50438Z" fill="url(#paint2_linear_2199_29190)"/>
<path d="M15.7485 3.53073C15.2599 3.71797 14.7715 3.90589 14.2825 4.09233C12.3358 4.83461 10.3883 5.575 8.44315 6.3214C8.30088 6.37599 8.18396 6.37228 8.04387 6.31691C7.45605 6.08457 6.86332 5.86418 6.2726 5.63888C6.21266 5.61602 6.15416 5.58955 6.0612 5.55059C6.14939 5.51286 6.20598 5.48628 6.26429 5.46403C8.646 4.5551 11.0282 3.64749 13.4087 2.73553C13.5423 2.68434 13.6558 2.6811 13.7899 2.73374C14.4395 2.9887 15.0928 3.2346 15.7448 3.48371L15.7485 3.53073Z" fill="url(#paint3_linear_2199_29190)"/>
<defs>
<linearGradient id="paint0_linear_2199_29190" x1="1.87168" y1="5.36927" x2="9.39409" y2="12.6631" gradientUnits="userSpaceOnUse">
<stop stop-color="#265CFF"/>
<stop offset="1" stop-color="#173799"/>
</linearGradient>
<linearGradient id="paint1_linear_2199_29190" x1="10.1936" y1="5.37738" x2="17.7124" y2="12.6706" gradientUnits="userSpaceOnUse">
<stop stop-color="#265CFF"/>
<stop offset="1" stop-color="#173799"/>
</linearGradient>
<linearGradient id="paint2_linear_2199_29190" x1="2.86197" y1="1.10817" x2="4.04435" y2="5.74343" gradientUnits="userSpaceOnUse">
<stop stop-color="#265CFF"/>
<stop offset="1" stop-color="#173799"/>
</linearGradient>
<linearGradient id="paint3_linear_2199_29190" x1="8.12285" y1="3.12145" x2="9.26586" y2="7.56433" gradientUnits="userSpaceOnUse">
<stop stop-color="#265CFF"/>
<stop offset="1" stop-color="#173799"/>
</linearGradient>
</defs>
</svg>
