<svg width="21" height="15" viewBox="0 0 21 15" fill="none" xmlns="http://www.w3.org/2000/svg">
<g clip-path="url(#clip0_4003_27120)">
<path d="M10.5014 0.000108614C13.1665 0.000108614 15.8316 -0.000204635 18.4967 0.000232819C19.9593 0.000472638 20.9993 0.991243 20.9995 2.38578C21.0001 5.79598 21.0002 9.20617 20.9995 12.6164C20.9992 14.0093 19.9582 14.9995 18.4937 14.9996C13.1636 15.0001 7.83342 15.0001 2.50327 14.9996C1.04046 14.9995 0.000605167 14.0077 0.000396005 12.6136C-0.000115005 9.20342 -0.000156017 5.79322 0.000417331 2.38303C0.0006511 0.990314 1.04207 0.000430455 2.50622 0.000217977C5.17129 -0.00016792 7.83636 0.000108614 10.5014 0.000108614ZM6.55371 11.6686C6.60155 11.6686 6.64939 11.6686 6.69723 11.6686C7.72238 11.6685 8.74754 11.6708 9.77268 11.6675C10.2361 11.666 10.4959 11.4132 10.4992 10.9749C10.5 10.8707 10.4997 10.7666 10.4992 10.6625C10.4937 9.35363 9.45409 8.34632 8.079 8.33295C7.06763 8.32312 6.05601 8.32482 5.0446 8.3331C4.30073 8.33918 3.67698 8.61321 3.19206 9.15408C2.73618 9.66255 2.59982 10.2641 2.62282 10.9185C2.64091 11.4331 2.87305 11.668 3.41675 11.6684C4.46241 11.669 5.50806 11.6686 6.55371 11.6686ZM4.38128 5.41196C4.37798 6.556 5.34896 7.49142 6.54731 7.49869C7.75583 7.50601 8.74089 6.5747 8.74411 5.42174C8.74734 4.27021 7.76048 3.32747 6.55761 3.33298C5.3567 3.33849 4.38457 4.26712 4.38128 5.41196ZM15.3025 4.99958C16.0815 4.99958 16.8606 5.00036 17.6396 4.99927C18.0743 4.99866 18.373 4.74262 18.3728 4.37461C18.3725 4.00681 18.0735 3.75146 17.6383 3.75126C16.0871 3.75057 14.5359 3.7505 12.9847 3.75131C12.5449 3.75154 12.2556 4.00109 12.2558 4.37532C12.256 4.7474 12.5483 4.99866 12.986 4.99928C13.7581 5.00036 14.5303 4.99958 15.3025 4.99958ZM15.3091 8.32871C16.1017 8.32871 16.8943 8.33144 17.6869 8.32756C18.0801 8.32563 18.3658 8.06678 18.373 7.72053C18.3803 7.36593 18.0948 7.085 17.6931 7.08362C16.1079 7.0782 14.5226 7.08068 12.9374 7.08194C12.7056 7.08212 12.5085 7.16269 12.3732 7.34808C12.2288 7.54585 12.2089 7.76335 12.3188 7.9772C12.4362 8.20562 12.6383 8.32786 12.9108 8.32815C13.7102 8.32901 14.5097 8.32845 15.3091 8.32871ZM15.3083 10.4215V10.4206C14.5431 10.4206 13.7778 10.4193 13.0125 10.4221C12.9046 10.4225 12.7911 10.4265 12.6899 10.4575C12.3823 10.5518 12.2127 10.8381 12.2633 11.1516C12.311 11.4465 12.5836 11.6656 12.9381 11.6665C14.5233 11.6705 16.1085 11.67 17.6937 11.6642C17.8114 11.6638 17.9397 11.6286 18.0443 11.5758C18.3022 11.4458 18.4253 11.1529 18.3533 10.8935C18.2762 10.6153 18.0357 10.4251 17.7272 10.4232C16.9209 10.4181 16.1146 10.4215 15.3083 10.4215Z" fill="#012087"/>
</g>
<defs>
<clipPath id="clip0_4003_27120">
<rect width="21" height="15" fill="white"/>
</clipPath>
</defs>
</svg>
