<svg width="17" height="18" viewBox="0 0 17 18" fill="none" xmlns="http://www.w3.org/2000/svg">
<g clip-path="url(#clip0_4033_45202)">
<path d="M16.1938 8.70389C13.8984 7.16235 11.113 7.67636 9.49975 9.1757C8.51655 10.0895 7.92684 11.2068 7.77041 12.5433C7.61436 13.8764 7.92424 15.1012 8.66957 16.2232C6.20562 16.4744 2.92069 15.335 1.12619 12.2692C-0.702669 9.14465 -0.266567 5.21813 2.16162 2.64451C4.65485 0.00196338 8.5236 -0.712919 11.7022 0.876383C15.0071 2.52882 16.4454 5.89403 16.1938 8.70389ZM7.34234 7.38268C7.25983 7.38268 7.1951 7.38268 7.13036 7.38268C6.30955 7.38271 5.48874 7.38109 4.66793 7.3835C4.28982 7.38461 3.99077 7.60934 3.89931 7.95117C3.76062 8.46952 4.13495 8.92633 4.70874 8.92809C5.80717 8.93146 6.90562 8.92969 8.00406 8.92887C8.58014 8.92844 8.88838 8.62106 8.88912 8.04624C8.89018 7.21974 8.88942 6.39323 8.88941 5.56672C8.8894 4.77642 8.89095 3.98611 8.88865 3.1958C8.88748 2.79282 8.67945 2.49259 8.34005 2.39087C7.83114 2.23836 7.34489 2.60586 7.34351 3.15348C7.34015 4.48673 7.34237 5.82001 7.34235 7.15327C7.34235 7.22397 7.34234 7.29466 7.34234 7.38268Z" fill="#F21A1A"/>
<path d="M13.2412 17.0372C11.1426 17.0806 9.36654 15.4773 9.27468 13.3066C9.18524 11.1931 10.8514 9.39623 13.015 9.31732C15.1479 9.23953 16.9321 10.9021 16.9981 13.0613C17.0619 15.1478 15.4497 16.9566 13.2412 17.0372ZM13.9053 12.2214C13.9053 11.8957 13.9104 11.5698 13.9041 11.2441C13.8955 10.8032 13.5601 10.4702 13.1358 10.4713C12.7109 10.4723 12.3748 10.8052 12.3705 11.2466C12.3642 11.8861 12.3648 12.5257 12.3702 13.1651C12.374 13.6131 12.6988 13.939 13.1292 13.9422C13.569 13.9456 13.8968 13.6193 13.9045 13.1626C13.9097 12.849 13.9055 12.5352 13.9053 12.2214ZM13.9044 15.1039C13.9016 14.6754 13.5599 14.3344 13.1343 14.3352C12.7103 14.3359 12.3692 14.6813 12.3702 15.1089C12.3712 15.5356 12.7136 15.878 13.1401 15.8786C13.5627 15.8793 13.9073 15.53 13.9044 15.1039Z" fill="#F21A1A"/>
</g>
<defs>
<clipPath id="clip0_4033_45202">
<rect width="17" height="17" fill="white" transform="translate(0 0.0380859)"/>
</clipPath>
</defs>
</svg>
