<svg width="13" height="17" viewBox="0 0 13 17" fill="none" xmlns="http://www.w3.org/2000/svg">
<path d="M6.68179 0.667725C5.00668 0.669606 3.40071 1.33589 2.21622 2.52041C1.03174 3.70493 0.365468 5.31094 0.363586 6.9861C0.363586 9.55688 2.22983 11.6917 4.20664 13.9513C4.83214 14.6669 5.47975 15.4069 6.05629 16.1556C6.13007 16.2513 6.22483 16.3288 6.33327 16.3822C6.44171 16.4355 6.56095 16.4632 6.68179 16.4632C6.80264 16.4632 6.92187 16.4355 7.03032 16.3822C7.13876 16.3288 7.23352 16.2513 7.3073 16.1556C7.88383 15.4069 8.53145 14.6669 9.15695 13.9513C11.1338 11.6917 13 9.55688 13 6.9861C12.9981 5.31094 12.3318 3.70493 11.1474 2.52041C9.96288 1.33589 8.35691 0.669606 6.68179 0.667725ZM6.68179 9.35548C6.21318 9.35548 5.7551 9.21652 5.36547 8.95617C4.97583 8.69582 4.67215 8.32577 4.49282 7.89282C4.31349 7.45987 4.26657 6.98347 4.35799 6.52385C4.44941 6.06423 4.67507 5.64205 5.00643 5.31068C5.33778 4.97932 5.75996 4.75366 6.21956 4.66223C6.67916 4.57081 7.15556 4.61773 7.5885 4.79707C8.02143 4.9764 8.39147 5.28009 8.65182 5.66973C8.91216 6.05938 9.05112 6.51748 9.05112 6.9861C9.05112 7.6145 8.8015 8.21716 8.35716 8.66151C7.91283 9.10585 7.31018 9.35548 6.68179 9.35548Z" fill="url(#paint0_linear_2004_130)"/>
<defs>
<linearGradient id="paint0_linear_2004_130" x1="3.05286" y1="2.50283" x2="13.128" y2="14.355" gradientUnits="userSpaceOnUse">
<stop stop-color="#265CFF"/>
<stop offset="1" stop-color="#173799"/>
</linearGradient>
</defs>
</svg>
