<svg width="19" height="24" viewBox="0 0 19 24" fill="none" xmlns="http://www.w3.org/2000/svg">
<path d="M9.49992 0.348267C7.04676 0.351042 4.69486 1.33403 2.96021 3.08157C1.22556 4.82912 0.249825 7.1985 0.24707 9.6699C0.24707 13.4626 2.98013 16.6122 5.87511 19.9458C6.79115 21.0015 7.73956 22.0933 8.58389 23.1979C8.69193 23.3391 8.8307 23.4535 8.98952 23.5321C9.14833 23.6108 9.32294 23.6517 9.49992 23.6517C9.67689 23.6517 9.85151 23.6108 10.0103 23.5321C10.1691 23.4535 10.3079 23.3391 10.4159 23.1979C11.2603 22.0933 12.2087 21.0015 13.1247 19.9458C16.0197 16.6122 18.7528 13.4626 18.7528 9.6699C18.75 7.1985 17.7743 4.82912 16.0396 3.08157C14.305 1.33403 11.9531 0.351042 9.49992 0.348267ZM9.49992 13.1655C8.81365 13.1655 8.1428 12.9605 7.57219 12.5764C7.00158 12.1923 6.55685 11.6463 6.29422 11.0076C6.0316 10.3689 5.96289 9.66602 6.09677 8.98794C6.23065 8.30985 6.56112 7.687 7.04639 7.19813C7.53165 6.70926 8.14991 6.37633 8.82299 6.24145C9.49607 6.10657 10.1937 6.1758 10.8278 6.44037C11.4618 6.70495 12.0037 7.15299 12.385 7.72784C12.7662 8.30269 12.9697 8.97853 12.9697 9.6699C12.9697 10.597 12.6042 11.4861 11.9534 12.1417C11.3027 12.7972 10.4202 13.1655 9.49992 13.1655Z" fill="#012087"/>
</svg>
