<svg width="15" height="20" viewBox="0 0 15 20" fill="none" xmlns="http://www.w3.org/2000/svg">
<path d="M2.49993 7.5013C2.49993 7.32661 2.49844 7.17191 2.50018 7.01724C2.50969 6.17164 2.46316 5.32077 2.54113 4.48148C2.74103 2.32957 4.31314 0.595264 6.42124 0.121218C9.31575 -0.529669 12.1765 1.51497 12.4578 4.47294C12.5376 5.31192 12.4897 6.16307 12.4996 7.00866C12.5015 7.164 12.4999 7.31938 12.4999 7.5013C12.6774 7.5013 12.8439 7.50116 13.0104 7.50133C14.2009 7.50246 14.9989 8.29465 14.9993 9.47915C15.0002 12.3297 15.0003 15.1803 14.9992 18.0309C14.9988 19.2024 14.1971 19.9994 13.0205 19.9996C9.34308 20.0002 5.66561 20.0001 1.98815 19.9996C0.80101 19.9995 0.000738979 19.2026 0.000468141 18.0201C-0.000187573 15.176 -0.000111548 12.3319 0.000430129 9.48783C0.000658203 8.30111 0.797437 7.5028 1.98084 7.50134C2.14337 7.50114 2.3059 7.5013 2.49993 7.5013ZM10.8286 7.49133C10.8286 7.41202 10.8286 7.3424 10.8286 7.27278C10.8285 6.55081 10.8323 5.8288 10.8263 5.10687C10.8245 4.88012 10.8125 4.65114 10.7781 4.42732C10.5138 2.70602 8.77974 1.43389 7.06614 1.69794C5.34448 1.96324 4.17822 3.31625 4.17183 5.05904C4.16909 5.80703 4.17106 6.55503 4.17179 7.30303C4.17185 7.3652 4.17878 7.42737 4.18262 7.49133H10.8286ZM8.32889 14.9805C8.32889 14.6879 8.33409 14.3951 8.32633 14.1027C8.32323 13.9855 8.36369 13.9169 8.45922 13.8483C8.91704 13.5196 9.15969 13.067 9.16451 12.5038C9.17122 11.7199 8.61829 11.0421 7.85422 10.8727C7.09582 10.7046 6.31051 11.0992 5.98446 11.8123C5.6575 12.5275 5.87106 13.3594 6.5167 13.8284C6.63903 13.9173 6.67567 14.0075 6.67381 14.1497C6.66676 14.6893 6.66923 15.229 6.67159 15.7687C6.67388 16.2926 7.01446 16.6623 7.49411 16.667C7.97797 16.6718 8.32515 16.2955 8.3285 15.7607C8.33013 15.5007 8.32879 15.2406 8.32889 14.9805Z" fill="#012087"/>
</svg>
