<svg width="88" height="31" viewBox="0 0 88 31" fill="none" xmlns="http://www.w3.org/2000/svg">
<mask id="mask0_2004_85" style="mask-type:luminance" maskUnits="userSpaceOnUse" x="58" y="0" width="30" height="31">
<path d="M71.9777 30.6733C71.486 30.4504 71.0198 30.1434 70.5833 29.7534C70.1758 29.3899 69.7997 28.9561 69.462 28.464C65.8011 27.3538 62.8097 24.6722 61.2621 21.201C61.0784 21.1358 60.898 21.0604 60.7219 20.9747C59.9477 20.5992 59.3087 20.0437 58.8527 19.3664C60.345 25.4832 65.5909 30.1297 71.9777 30.6733ZM87.0783 18.4765C86.7175 18.8863 86.2862 19.2652 85.7987 19.6064C84.6969 23.2954 82.0357 26.3096 78.5909 27.869C78.5271 28.0534 78.4522 28.2351 78.3671 28.4126C77.9936 29.1936 77.4415 29.8374 76.7685 30.2978C82.8405 28.7941 87.4526 23.5071 87.9912 17.0697C87.77 17.5652 87.4654 18.0367 87.0783 18.4765ZM75.8871 1.85442C76.2946 2.21877 76.6707 2.65257 77.0084 3.14466C80.6693 4.25485 83.6607 6.93647 85.2074 10.4077C85.3903 10.472 85.5715 10.5474 85.7485 10.6331C86.5227 11.0095 87.1608 11.565 87.6177 12.2423C86.1254 6.12547 80.8803 1.47979 74.4935 0.936264C74.9853 1.1583 75.4515 1.46521 75.8871 1.85442Z" fill="white"/>
</mask>
<g mask="url(#mask0_2004_85)">
<path d="M87.9912 0.936264H58.8527V30.6733H87.9912V0.936264Z" fill="url(#paint0_linear_2004_85)"/>
</g>
<mask id="mask1_2004_85" style="mask-type:luminance" maskUnits="userSpaceOnUse" x="58" y="1" width="12" height="14">
<path d="M58.4801 14.5373C58.7004 14.0418 59.005 13.5711 59.3921 13.1313C59.7528 12.7215 60.1833 12.3426 60.6717 12.0023C61.7734 8.31331 64.4347 5.2982 67.8804 3.73964C67.9442 3.55532 68.019 3.37358 68.1041 3.19526C68.4768 2.41598 69.0281 1.77215 69.6993 1.31178C63.629 2.81633 59.0186 8.10156 58.4801 14.5373Z" fill="white"/>
</mask>
<g mask="url(#mask1_2004_85)">
<path d="M69.6993 1.31183H58.4801V14.5373H69.6993V1.31183Z" fill="url(#paint1_linear_2004_85)"/>
</g>
<mask id="mask2_2004_85" style="mask-type:luminance" maskUnits="userSpaceOnUse" x="70" y="10" width="18" height="12">
<path d="M78.982 19.0733C78.3539 19.0203 77.7563 18.9002 77.1967 18.7345C77.4369 18.6017 77.6667 18.4436 77.8818 18.2588C78.8187 17.4538 79.3815 16.4555 79.9242 15.4891C80.5671 14.3475 81.1215 13.362 82.205 12.8086C82.9638 12.422 83.9249 12.4189 84.7122 12.8001C85.1 12.9891 85.7799 13.4437 85.9706 14.3719C86.1644 15.3203 85.9431 16.1411 85.2919 16.8814C84.0343 18.3113 81.4524 19.0952 79.5199 19.0952C79.334 19.0952 79.1542 19.088 78.982 19.0733ZM81.3185 11.0457C79.7072 11.8678 78.9156 13.2737 78.218 14.5143C77.7373 15.368 77.2831 16.1752 76.6086 16.7539C76.2618 17.0513 75.8497 17.217 75.3829 17.2446C75.0984 17.6206 74.7716 17.9656 74.4122 18.2651L73.6808 18.8726L73.0494 18.161C72.7449 17.8148 72.668 17.2106 73.1243 16.7731C73.1665 16.7328 73.2224 16.6775 73.2908 16.6074C73.2518 16.583 73.2129 16.5564 73.1739 16.5298C72.8525 16.2622 72.6047 16.0275 72.4382 15.8608C72.3687 15.7929 72.3139 15.7355 72.2738 15.693C71.8395 15.2332 71.2399 15.3107 70.8963 15.6176L70.1903 16.2537L70.7931 16.9897C71.0892 17.3529 71.4317 17.681 71.8059 17.9688C71.8755 18.023 71.9471 18.0761 72.0198 18.1271C73.3878 19.2433 75.7875 20.7873 78.8176 21.0433C79.5533 21.1059 80.3922 21.0666 81.2586 20.9223C83.281 20.5866 85.4478 19.6839 86.76 18.1919C87.8202 16.9875 88.2112 15.5283 87.8919 13.9715C87.6274 12.6855 86.779 11.6097 85.5638 11.0192C84.9 10.6971 84.1775 10.5361 83.4583 10.5361C82.7192 10.5361 81.9836 10.7061 81.3185 11.0457Z" fill="white"/>
</mask>
<g mask="url(#mask2_2004_85)">
<path d="M77.3213 12.4189H77.1967V19.2401H77.3213V12.4189Z" fill="#1744D0"/>
<path d="M77.4695 12.4189H77.3213V19.2401H77.4695V12.4189Z" fill="#1744CF"/>
<path d="M77.6178 12.4189H77.4695V19.2401H77.6178V12.4189Z" fill="#1743CE"/>
<path d="M77.7662 12.4189H77.6179V19.2401H77.7662V12.4189Z" fill="#1643CD"/>
<path d="M77.9145 12.4189H77.7662V19.2401H77.9145V12.4189Z" fill="#1642CC"/>
<path d="M78.0628 12.4189H77.9145V19.2401H78.0628V12.4189Z" fill="#1642CB"/>
<path d="M78.2112 12.4189H78.0629V19.2401H78.2112V12.4189Z" fill="#1641CA"/>
<path d="M78.3595 12.4189H78.2112V19.2401H78.3595V12.4189Z" fill="#1541C9"/>
<path d="M78.5078 12.4189H78.3595V19.2401H78.5078V12.4189Z" fill="#1540C8"/>
<path d="M78.656 12.4189H78.5078V19.2401H78.656V12.4189Z" fill="#1540C7"/>
<path d="M78.8044 12.4189H78.6561V19.2401H78.8044V12.4189Z" fill="#143FC6"/>
<path d="M78.9527 12.4189H78.8044V19.2401H78.9527V12.4189Z" fill="#143FC5"/>
<path d="M79.101 12.4189H78.9527V19.2401H79.101V12.4189Z" fill="#143EC4"/>
<path d="M79.2494 12.4189H79.1011V19.2401H79.2494V12.4189Z" fill="#133EC2"/>
<path d="M79.3977 12.4189H79.2494V19.2401H79.3977V12.4189Z" fill="#133DC1"/>
<path d="M79.5459 12.4189H79.3977V19.2401H79.5459V12.4189Z" fill="#133DC0"/>
<path d="M79.6943 12.4189H79.5461V19.2401H79.6943V12.4189Z" fill="#123CBF"/>
<path d="M79.8426 12.4189H79.6944V19.2401H79.8426V12.4189Z" fill="#123CBE"/>
<path d="M79.9909 12.4189H79.8426V19.2401H79.9909V12.4189Z" fill="#123BBD"/>
<path d="M80.1392 12.4189H79.9909V19.2401H80.1392V12.4189Z" fill="#113BBC"/>
<path d="M80.2876 12.4189H80.1393V19.2401H80.2876V12.4189Z" fill="#113ABB"/>
<path d="M80.4359 12.4189H80.2876V19.2401H80.4359V12.4189Z" fill="#113ABA"/>
<path d="M80.5842 12.4189H80.4359V19.2401H80.5842V12.4189Z" fill="#1139B9"/>
<path d="M80.7325 12.4189H80.5843V19.2401H80.7325V12.4189Z" fill="#1039B8"/>
<path d="M80.8808 12.4189H80.7325V19.2401H80.8808V12.4189Z" fill="#1038B7"/>
<path d="M81.0291 12.4189H80.8808V19.2401H81.0291V12.4189Z" fill="#1038B6"/>
<path d="M81.1775 12.4189H81.0292V19.2401H81.1775V12.4189Z" fill="#0F37B5"/>
<path d="M81.3258 12.4189H81.1775V19.2401H81.3258V12.4189Z" fill="#0F37B4"/>
<path d="M81.4741 12.4189H81.3258V19.2401H81.4741V12.4189Z" fill="#0F36B3"/>
<path d="M81.6224 12.4189H81.4741V19.2401H81.6224V12.4189Z" fill="#0E36B2"/>
<path d="M81.7707 12.4189H81.6225V19.2401H81.7707V12.4189Z" fill="#0E35B1"/>
<path d="M81.919 12.4189H81.7708V19.2401H81.919V12.4189Z" fill="#0E35B0"/>
<path d="M82.0674 12.4189H81.9191V19.2401H82.0674V12.4189Z" fill="#0D34AF"/>
<path d="M82.2157 12.4189H82.0674V19.2401H82.2157V12.4189Z" fill="#0D34AE"/>
<path d="M82.364 12.4189H82.2157V19.2401H82.364V12.4189Z" fill="#0D33AD"/>
<path d="M82.5123 12.4189H82.364V19.2401H82.5123V12.4189Z" fill="#0D33AC"/>
<path d="M82.6607 12.4189H82.5124V19.2401H82.6607V12.4189Z" fill="#0C32AB"/>
<path d="M82.809 12.4189H82.6607V19.2401H82.809V12.4189Z" fill="#0C32AA"/>
<path d="M82.9573 12.4189H82.809V19.2401H82.9573V12.4189Z" fill="#0C31A9"/>
<path d="M83.1055 12.4189H82.9572V19.2401H83.1055V12.4189Z" fill="#0B31A8"/>
<path d="M83.2539 12.4189H83.1056V19.2401H83.2539V12.4189Z" fill="#0B30A7"/>
<path d="M83.4022 12.4189H83.2539V19.2401H83.4022V12.4189Z" fill="#0B30A6"/>
<path d="M83.5505 12.4189H83.4022V19.2401H83.5505V12.4189Z" fill="#0A2FA5"/>
<path d="M83.6989 12.4189H83.5506V19.2401H83.6989V12.4189Z" fill="#0A2FA4"/>
<path d="M83.8472 12.4189H83.6989V19.2401H83.8472V12.4189Z" fill="#0A2EA3"/>
<path d="M83.9955 12.4189H83.8472V19.2401H83.9955V12.4189Z" fill="#092EA2"/>
<path d="M84.1438 12.4189H83.9956V19.2401H84.1438V12.4189Z" fill="#092DA1"/>
<path d="M84.2921 12.4189H84.1438V19.2401H84.2921V12.4189Z" fill="#092DA0"/>
<path d="M84.4404 12.4189H84.2921V19.2401H84.4404V12.4189Z" fill="#082C9F"/>
<path d="M84.5887 12.4189H84.4404V19.2401H84.5887V12.4189Z" fill="#082C9E"/>
<path d="M84.7371 12.4189H84.5888V19.2401H84.7371V12.4189Z" fill="#082B9D"/>
<path d="M84.8854 12.4189H84.7371V19.2401H84.8854V12.4189Z" fill="#082B9C"/>
<path d="M85.0337 12.4189H84.8854V19.2401H85.0337V12.4189Z" fill="#072A9B"/>
<path d="M85.1821 12.4189H85.0338V19.2401H85.1821V12.4189Z" fill="#072A9A"/>
<path d="M85.3303 12.4189H85.1821V19.2401H85.3303V12.4189Z" fill="#072999"/>
<path d="M85.4786 12.4189H85.3304V19.2401H85.4786V12.4189Z" fill="#062998"/>
<path d="M85.6269 12.4189H85.4786V19.2401H85.6269V12.4189Z" fill="#062897"/>
<path d="M85.7753 12.4189H85.627V19.2401H85.7753V12.4189Z" fill="#062896"/>
<path d="M85.9236 12.4189H85.7753V19.2401H85.9236V12.4189Z" fill="#052795"/>
<path d="M86.0719 12.4189H85.9236V19.2401H86.0719V12.4189Z" fill="#052794"/>
<path d="M86.1644 12.4189H86.0719V19.2401H86.1644V12.4189Z" fill="#052693"/>
<path d="M70.202 10.3663H70.1903V21.1061H70.202V10.3663Z" fill="#265CFF"/>
<path d="M70.3504 10.3661H70.2021V21.106H70.3504V10.3661Z" fill="#265CFF"/>
<path d="M70.4987 10.3661H70.3504V21.106H70.4987V10.3661Z" fill="#265BFE"/>
<path d="M70.6469 10.3661H70.4986V21.106H70.6469V10.3661Z" fill="#255BFD"/>
<path d="M70.7953 10.3661H70.647V21.106H70.7953V10.3661Z" fill="#255AFC"/>
<path d="M70.9436 10.3661H70.7953V21.106H70.9436V10.3661Z" fill="#255AFB"/>
<path d="M71.0919 10.3661H70.9436V21.106H71.0919V10.3661Z" fill="#2459FA"/>
<path d="M71.2403 10.3661H71.092V21.106H71.2403V10.3661Z" fill="#2459F9"/>
<path d="M71.3886 10.3661H71.2403V21.106H71.3886V10.3661Z" fill="#2458F8"/>
<path d="M71.5369 10.3661H71.3886V21.106H71.5369V10.3661Z" fill="#2458F7"/>
<path d="M71.6852 10.3661H71.5369V21.106H71.6852V10.3661Z" fill="#2357F6"/>
<path d="M71.8335 10.3661H71.6853V21.106H71.8335V10.3661Z" fill="#2357F5"/>
<path d="M71.9818 10.3661H71.8335V21.106H71.9818V10.3661Z" fill="#2356F4"/>
<path d="M72.1301 10.3661H71.9818V21.106H72.1301V10.3661Z" fill="#2256F3"/>
<path d="M72.2785 10.3661H72.1302V21.106H72.2785V10.3661Z" fill="#2255F2"/>
<path d="M72.4268 10.3661H72.2785V21.106H72.4268V10.3661Z" fill="#2255F1"/>
<path d="M72.5751 10.3661H72.4268V21.106H72.5751V10.3661Z" fill="#2154F0"/>
<path d="M72.7235 10.3661H72.5752V21.106H72.7235V10.3661Z" fill="#2154EF"/>
<path d="M72.8717 10.3661H72.7234V21.106H72.8717V10.3661Z" fill="#2153EE"/>
<path d="M73.02 10.3661H72.8717V21.106H73.02V10.3661Z" fill="#2053ED"/>
<path d="M73.1683 10.3661H73.02V21.106H73.1683V10.3661Z" fill="#2052EC"/>
<path d="M73.3167 10.3661H73.1684V21.106H73.3167V10.3661Z" fill="#2052EB"/>
<path d="M73.465 10.3661H73.3167V21.106H73.465V10.3661Z" fill="#1F51EA"/>
<path d="M73.6133 10.3661H73.465V21.106H73.6133V10.3661Z" fill="#1F51E9"/>
<path d="M73.7617 10.3661H73.6134V21.106H73.7617V10.3661Z" fill="#1F50E8"/>
<path d="M73.9099 10.3661H73.7617V21.106H73.9099V10.3661Z" fill="#1F50E7"/>
<path d="M74.0582 10.3661H73.91V21.106H74.0582V10.3661Z" fill="#1E4FE6"/>
<path d="M74.2066 10.3661H74.0583V21.106H74.2066V10.3661Z" fill="#1E4FE5"/>
<path d="M74.3549 10.3661H74.2066V21.106H74.3549V10.3661Z" fill="#1E4EE4"/>
<path d="M74.5032 10.3661H74.3549V21.106H74.5032V10.3661Z" fill="#1D4EE3"/>
<path d="M74.6515 10.3661H74.5032V21.106H74.6515V10.3661Z" fill="#1D4DE2"/>
<path d="M74.7999 10.3661H74.6516V21.106H74.7999V10.3661Z" fill="#1D4DE1"/>
<path d="M74.9482 10.3661H74.7999V21.106H74.9482V10.3661Z" fill="#1C4CE0"/>
<path d="M75.0964 10.3661H74.9482V21.106H75.0964V10.3661Z" fill="#1C4CDF"/>
<path d="M75.2448 10.3661H75.0965V21.106H75.2448V10.3661Z" fill="#1C4BDE"/>
<path d="M75.3931 10.3661H75.2448V21.106H75.3931V10.3661Z" fill="#1B4BDD"/>
<path d="M75.5414 10.3661H75.3931V21.106H75.5414V10.3661Z" fill="#1B4ADC"/>
<path d="M75.6898 10.3661H75.5415V21.106H75.6898V10.3661Z" fill="#1B4ADB"/>
<path d="M75.8381 10.3661H75.6898V21.106H75.8381V10.3661Z" fill="#1A49DA"/>
<path d="M75.9864 10.3661H75.8381V21.106H75.9864V10.3661Z" fill="#1A49D9"/>
<path d="M76.1347 10.3661H75.9864V21.106H76.1347V10.3661Z" fill="#1A48D8"/>
<path d="M76.2831 10.3661H76.1348V21.106H76.2831V10.3661Z" fill="#1A48D7"/>
<path d="M76.4313 10.3661H76.283V21.106H76.4313V10.3661Z" fill="#1947D6"/>
<path d="M76.5796 10.3661H76.4313V21.106H76.5796V10.3661Z" fill="#1947D5"/>
<path d="M76.728 10.3661H76.5797V21.106H76.728V10.3661Z" fill="#1946D4"/>
<path d="M76.8763 10.3661H76.728V21.106H76.8763V10.3661Z" fill="#1846D3"/>
<path d="M77.0246 10.3661H76.8763V21.106H77.0246V10.3661Z" fill="#1845D2"/>
<path d="M77.173 10.3661H77.0247V21.106H77.173V10.3661Z" fill="#1845D1"/>
<path d="M77.3212 10.3661H77.1729V21.106H77.3212V10.3661Z" fill="#1744D0"/>
<path d="M77.4695 10.3661H77.3213V21.106H77.4695V10.3661Z" fill="#1744CF"/>
<path d="M77.6178 10.3661H77.4695V21.106H77.6178V10.3661Z" fill="#1743CE"/>
<path d="M77.7662 10.3661H77.6179V21.106H77.7662V10.3661Z" fill="#1643CD"/>
<path d="M77.9145 10.3661H77.7662V21.106H77.9145V10.3661Z" fill="#1642CC"/>
<path d="M78.0628 10.3661H77.9145V21.106H78.0628V10.3661Z" fill="#1642CB"/>
<path d="M78.2112 10.3661H78.0629V21.106H78.2112V10.3661Z" fill="#1641CA"/>
<path d="M78.3595 10.3661H78.2112V21.106H78.3595V10.3661Z" fill="#1541C9"/>
<path d="M78.5078 10.3661H78.3595V21.106H78.5078V10.3661Z" fill="#1540C8"/>
<path d="M78.656 10.3661H78.5078V21.106H78.656V10.3661Z" fill="#1540C7"/>
<path d="M78.8044 10.3661H78.6561V21.106H78.8044V10.3661Z" fill="#143FC6"/>
<path d="M78.9527 10.3661H78.8044V21.106H78.9527V10.3661Z" fill="#143FC5"/>
<path d="M79.101 10.3661H78.9527V21.106H79.101V10.3661Z" fill="#143EC4"/>
<path d="M79.2494 10.3661H79.1011V21.106H79.2494V10.3661Z" fill="#133EC2"/>
<path d="M79.3977 10.3661H79.2494V21.106H79.3977V10.3661Z" fill="#133DC1"/>
<path d="M79.5459 10.3661H79.3977V21.106H79.5459V10.3661Z" fill="#133DC0"/>
<path d="M79.6943 10.3661H79.5461V21.106H79.6943V10.3661Z" fill="#123CBF"/>
<path d="M79.8426 10.3661H79.6944V21.106H79.8426V10.3661Z" fill="#123CBE"/>
<path d="M79.9909 10.3661H79.8426V21.106H79.9909V10.3661Z" fill="#123BBD"/>
<path d="M80.1392 10.3661H79.9909V21.106H80.1392V10.3661Z" fill="#113BBC"/>
<path d="M80.2876 10.3661H80.1393V21.106H80.2876V10.3661Z" fill="#113ABB"/>
<path d="M80.4359 10.3661H80.2876V21.106H80.4359V10.3661Z" fill="#113ABA"/>
<path d="M80.5842 10.3661H80.4359V21.106H80.5842V10.3661Z" fill="#1139B9"/>
<path d="M80.7325 10.3661H80.5843V21.106H80.7325V10.3661Z" fill="#1039B8"/>
<path d="M80.8808 10.3661H80.7325V21.106H80.8808V10.3661Z" fill="#1038B7"/>
<path d="M81.0291 10.3661H80.8808V21.106H81.0291V10.3661Z" fill="#1038B6"/>
<path d="M81.1775 10.3661H81.0292V21.106H81.1775V10.3661Z" fill="#0F37B5"/>
<path d="M81.3258 10.3661H81.1775V21.106H81.3258V10.3661Z" fill="#0F37B4"/>
<path d="M81.4741 10.3661H81.3258V21.106H81.4741V10.3661Z" fill="#0F36B3"/>
<path d="M81.6224 10.3661H81.4741V21.106H81.6224V10.3661Z" fill="#0E36B2"/>
<path d="M81.7707 10.3661H81.6225V21.106H81.7707V10.3661Z" fill="#0E35B1"/>
<path d="M81.919 10.3661H81.7708V21.106H81.919V10.3661Z" fill="#0E35B0"/>
<path d="M82.0674 10.3661H81.9191V21.106H82.0674V10.3661Z" fill="#0D34AF"/>
<path d="M82.2157 10.3661H82.0674V21.106H82.2157V10.3661Z" fill="#0D34AE"/>
<path d="M82.364 10.3661H82.2157V21.106H82.364V10.3661Z" fill="#0D33AD"/>
<path d="M82.5123 10.3661H82.364V21.106H82.5123V10.3661Z" fill="#0D33AC"/>
<path d="M82.6607 10.3661H82.5124V21.106H82.6607V10.3661Z" fill="#0C32AB"/>
<path d="M82.809 10.3661H82.6607V21.106H82.809V10.3661Z" fill="#0C32AA"/>
<path d="M82.9573 10.3661H82.809V21.106H82.9573V10.3661Z" fill="#0C31A9"/>
<path d="M83.1055 10.3661H82.9572V21.106H83.1055V10.3661Z" fill="#0B31A8"/>
<path d="M83.2539 10.3661H83.1056V21.106H83.2539V10.3661Z" fill="#0B30A7"/>
<path d="M83.4022 10.3661H83.2539V21.106H83.4022V10.3661Z" fill="#0B30A6"/>
<path d="M83.5505 10.3661H83.4022V21.106H83.5505V10.3661Z" fill="#0A2FA5"/>
<path d="M83.6989 10.3661H83.5506V21.106H83.6989V10.3661Z" fill="#0A2FA4"/>
<path d="M83.8472 10.3661H83.6989V21.106H83.8472V10.3661Z" fill="#0A2EA3"/>
<path d="M83.9955 10.3661H83.8472V21.106H83.9955V10.3661Z" fill="#092EA2"/>
<path d="M84.1438 10.3661H83.9956V21.106H84.1438V10.3661Z" fill="#092DA1"/>
<path d="M84.2921 10.3661H84.1438V21.106H84.2921V10.3661Z" fill="#092DA0"/>
<path d="M84.4404 10.3661H84.2921V21.106H84.4404V10.3661Z" fill="#082C9F"/>
<path d="M84.5887 10.3661H84.4404V21.106H84.5887V10.3661Z" fill="#082C9E"/>
<path d="M84.7371 10.3661H84.5888V21.106H84.7371V10.3661Z" fill="#082B9D"/>
<path d="M84.8854 10.3661H84.7371V21.106H84.8854V10.3661Z" fill="#082B9C"/>
<path d="M85.0337 10.3661H84.8854V21.106H85.0337V10.3661Z" fill="#072A9B"/>
<path d="M85.1821 10.3661H85.0338V21.106H85.1821V10.3661Z" fill="#072A9A"/>
<path d="M85.3303 10.3661H85.1821V21.106H85.3303V10.3661Z" fill="#072999"/>
<path d="M85.4786 10.3661H85.3304V21.106H85.4786V10.3661Z" fill="#062998"/>
<path d="M85.6269 10.3661H85.4786V21.106H85.6269V10.3661Z" fill="#062897"/>
<path d="M85.7753 10.3661H85.627V21.106H85.7753V10.3661Z" fill="#062896"/>
<path d="M85.9236 10.3661H85.7753V21.106H85.9236V10.3661Z" fill="#052795"/>
<path d="M86.0719 10.3661H85.9236V21.106H86.0719V10.3661Z" fill="#052794"/>
<path d="M86.2203 10.3661H86.072V21.106H86.2203V10.3661Z" fill="#052693"/>
<path d="M86.3686 10.3661H86.2203V21.106H86.3686V10.3661Z" fill="#042692"/>
<path d="M86.5169 10.3661H86.3686V21.106H86.5169V10.3661Z" fill="#042591"/>
<path d="M86.6652 10.3661H86.5169V21.106H86.6652V10.3661Z" fill="#042590"/>
<path d="M86.8135 10.3661H86.6652V21.106H86.8135V10.3661Z" fill="#03248F"/>
<path d="M86.9618 10.3661H86.8135V21.106H86.9618V10.3661Z" fill="#03248E"/>
<path d="M87.1101 10.3661H86.9618V21.106H87.1101V10.3661Z" fill="#03238D"/>
<path d="M87.2585 10.3661H87.1102V21.106H87.2585V10.3661Z" fill="#03238C"/>
<path d="M87.4068 10.3661H87.2585V21.106H87.4068V10.3661Z" fill="#02228B"/>
<path d="M87.555 10.3661H87.4068V21.106H87.555V10.3661Z" fill="#02228A"/>
<path d="M87.7034 10.3661H87.5551V21.106H87.7034V10.3661Z" fill="#022189"/>
<path d="M87.8517 10.3661H87.7034V21.106H87.8517V10.3661Z" fill="#012188"/>
<path d="M88 10.3661H87.8517V21.106H88V10.3661Z" fill="#012087"/>
</g>
<mask id="mask3_2004_85" style="mask-type:luminance" maskUnits="userSpaceOnUse" x="58" y="10" width="19" height="12">
<path d="M61.7578 18.8079C61.37 18.6199 60.6912 18.1653 60.5005 17.2361C60.3055 16.2878 60.5269 15.4679 61.1781 14.7276C62.5578 13.1591 65.5277 12.369 67.488 12.5346C68.1171 12.5878 68.7137 12.7089 69.2744 12.8734C69.033 13.0062 68.8044 13.1655 68.5893 13.3492C67.6513 14.1552 67.0895 15.1536 66.5457 16.1189C65.9039 17.2604 65.3485 18.2471 64.2661 18.7994C63.8834 18.9947 63.4494 19.0923 63.0124 19.0924C62.5819 19.0924 62.1485 18.9976 61.7578 18.8079ZM65.2115 10.6858C63.189 11.0223 61.0222 11.9251 59.7101 13.4162C58.6498 14.6204 58.2588 16.0807 58.5791 17.6376C58.8427 18.9236 59.6911 19.9994 60.9062 20.5888C62.2531 21.2419 63.8393 21.2324 65.1525 20.5633C66.7629 19.7403 67.5544 18.3342 68.2531 17.0938C68.7337 16.2399 69.1869 15.4339 69.8614 14.854C70.2092 14.5556 70.6191 14.3921 71.0871 14.3645C71.3717 13.9885 71.6984 13.6423 72.0588 13.3429L72.7892 12.7365L73.4205 13.448C73.725 13.7942 73.802 14.3984 73.3457 14.836C73.3035 14.8763 73.2477 14.9316 73.1791 15.0016C73.2192 15.0261 73.2571 15.0526 73.2961 15.0792C73.6176 15.3469 73.8663 15.5815 74.0318 15.7482C74.1013 15.8162 74.1561 15.8736 74.1962 15.916C74.6304 16.3759 75.2301 16.2973 75.5736 15.9914L76.2798 15.3554L75.6769 14.6183C75.3808 14.2561 75.0372 13.9258 74.6641 13.6391C74.5945 13.5839 74.5228 13.5319 74.4513 13.4809C73.0822 12.3648 70.6824 10.8217 67.6524 10.5647C67.429 10.5456 67.1958 10.5361 66.9552 10.5361C66.4044 10.5361 65.8144 10.586 65.2115 10.6858Z" fill="white"/>
</mask>
<g mask="url(#mask3_2004_85)">
<path d="M60.4103 12.369H60.3055V19.1901H60.4103V12.369Z" fill="#2256F3"/>
<path d="M60.5586 12.369H60.4103V19.1901H60.5586V12.369Z" fill="#2255F2"/>
<path d="M60.707 12.369H60.5587V19.1901H60.707V12.369Z" fill="#2255F1"/>
<path d="M60.8553 12.369H60.707V19.1901H60.8553V12.369Z" fill="#2154F0"/>
<path d="M61.0035 12.369H60.8553V19.1901H61.0035V12.369Z" fill="#2154EF"/>
<path d="M61.1518 12.369H61.0036V19.1901H61.1518V12.369Z" fill="#2153EE"/>
<path d="M61.3001 12.369H61.1519V19.1901H61.3001V12.369Z" fill="#2053ED"/>
<path d="M61.4485 12.369H61.3002V19.1901H61.4485V12.369Z" fill="#2052EC"/>
<path d="M61.5968 12.369H61.4485V19.1901H61.5968V12.369Z" fill="#2052EB"/>
<path d="M61.7451 12.369H61.5968V19.1901H61.7451V12.369Z" fill="#1F51EA"/>
<path d="M61.8935 12.369H61.7452V19.1901H61.8935V12.369Z" fill="#1F51E9"/>
<path d="M62.0418 12.369H61.8935V19.1901H62.0418V12.369Z" fill="#1F50E8"/>
<path d="M62.1901 12.369H62.0418V19.1901H62.1901V12.369Z" fill="#1F50E7"/>
<path d="M62.3383 12.369H62.19V19.1901H62.3383V12.369Z" fill="#1E4FE6"/>
<path d="M62.4867 12.369H62.3384V19.1901H62.4867V12.369Z" fill="#1E4FE5"/>
<path d="M62.635 12.369H62.4867V19.1901H62.635V12.369Z" fill="#1E4EE4"/>
<path d="M62.7833 12.369H62.635V19.1901H62.7833V12.369Z" fill="#1D4EE3"/>
<path d="M62.9316 12.369H62.7833V19.1901H62.9316V12.369Z" fill="#1D4DE2"/>
<path d="M63.08 12.369H62.9317V19.1901H63.08V12.369Z" fill="#1D4DE1"/>
<path d="M63.2283 12.369H63.08V19.1901H63.2283V12.369Z" fill="#1C4CE0"/>
<path d="M63.3765 12.369H63.2283V19.1901H63.3765V12.369Z" fill="#1C4CDF"/>
<path d="M63.5249 12.369H63.3766V19.1901H63.5249V12.369Z" fill="#1C4BDE"/>
<path d="M63.6732 12.369H63.5249V19.1901H63.6732V12.369Z" fill="#1B4BDD"/>
<path d="M63.8215 12.369H63.6732V19.1901H63.8215V12.369Z" fill="#1B4ADC"/>
<path d="M63.9698 12.369H63.8215V19.1901H63.9698V12.369Z" fill="#1B4ADB"/>
<path d="M64.1181 12.369H63.9698V19.1901H64.1181V12.369Z" fill="#1A49DA"/>
<path d="M64.2665 12.369H64.1182V19.1901H64.2665V12.369Z" fill="#1A49D9"/>
<path d="M64.4148 12.369H64.2665V19.1901H64.4148V12.369Z" fill="#1A48D8"/>
<path d="M64.563 12.369H64.4147V19.1901H64.563V12.369Z" fill="#1A48D7"/>
<path d="M64.7114 12.369H64.5631V19.1901H64.7114V12.369Z" fill="#1947D6"/>
<path d="M64.8597 12.369H64.7114V19.1901H64.8597V12.369Z" fill="#1947D5"/>
<path d="M65.008 12.369H64.8597V19.1901H65.008V12.369Z" fill="#1946D4"/>
<path d="M65.1563 12.369H65.008V19.1901H65.1563V12.369Z" fill="#1846D3"/>
<path d="M65.3046 12.369H65.1563V19.1901H65.3046V12.369Z" fill="#1845D2"/>
<path d="M65.453 12.369H65.3047V19.1901H65.453V12.369Z" fill="#1845D1"/>
<path d="M65.6013 12.369H65.453V19.1901H65.6013V12.369Z" fill="#1744D0"/>
<path d="M65.7496 12.369H65.6013V19.1901H65.7496V12.369Z" fill="#1744CF"/>
<path d="M65.8978 12.369H65.7496V19.1901H65.8978V12.369Z" fill="#1743CE"/>
<path d="M66.0462 12.369H65.8979V19.1901H66.0462V12.369Z" fill="#1643CD"/>
<path d="M66.1945 12.369H66.0462V19.1901H66.1945V12.369Z" fill="#1642CC"/>
<path d="M66.3428 12.369H66.1945V19.1901H66.3428V12.369Z" fill="#1642CB"/>
<path d="M66.4911 12.369H66.3428V19.1901H66.4911V12.369Z" fill="#1641CA"/>
<path d="M66.6395 12.369H66.4912V19.1901H66.6395V12.369Z" fill="#1541C9"/>
<path d="M66.7878 12.369H66.6395V19.1901H66.7878V12.369Z" fill="#1540C8"/>
<path d="M66.9361 12.369H66.7878V19.1901H66.9361V12.369Z" fill="#1540C7"/>
<path d="M67.0843 12.369H66.9361V19.1901H67.0843V12.369Z" fill="#143FC6"/>
<path d="M67.2327 12.369H67.0844V19.1901H67.2327V12.369Z" fill="#143FC5"/>
<path d="M67.381 12.369H67.2327V19.1901H67.381V12.369Z" fill="#143EC4"/>
<path d="M67.5293 12.369H67.381V19.1901H67.5293V12.369Z" fill="#133EC2"/>
<path d="M67.6776 12.369H67.5293V19.1901H67.6776V12.369Z" fill="#133DC1"/>
<path d="M67.826 12.369H67.6777V19.1901H67.826V12.369Z" fill="#133DC0"/>
<path d="M67.9743 12.369H67.826V19.1901H67.9743V12.369Z" fill="#123CBF"/>
<path d="M68.1226 12.369H67.9743V19.1901H68.1226V12.369Z" fill="#123CBE"/>
<path d="M68.2709 12.369H68.1226V19.1901H68.2709V12.369Z" fill="#123BBD"/>
<path d="M68.4192 12.369H68.2709V19.1901H68.4192V12.369Z" fill="#113BBC"/>
<path d="M68.5675 12.369H68.4192V19.1901H68.5675V12.369Z" fill="#113ABB"/>
<path d="M68.7158 12.369H68.5675V19.1901H68.7158V12.369Z" fill="#113ABA"/>
<path d="M68.8641 12.369H68.7158V19.1901H68.8641V12.369Z" fill="#1139B9"/>
<path d="M69.0125 12.369H68.8642V19.1901H69.0125V12.369Z" fill="#1039B8"/>
<path d="M69.1608 12.369H69.0125V19.1901H69.1608V12.369Z" fill="#1038B7"/>
<path d="M69.2743 12.369H69.1608V19.1901H69.2743V12.369Z" fill="#1038B6"/>
<path d="M58.4823 10.502H58.2588V21.2419H58.4823V10.502Z" fill="#265CFF"/>
<path d="M58.6305 10.502H58.4823V21.2419H58.6305V10.502Z" fill="#265CFF"/>
<path d="M58.7788 10.502H58.6305V21.2419H58.7788V10.502Z" fill="#265BFE"/>
<path d="M58.9272 10.502H58.7789V21.2419H58.9272V10.502Z" fill="#255BFD"/>
<path d="M59.0755 10.502H58.9272V21.2419H59.0755V10.502Z" fill="#255AFC"/>
<path d="M59.2238 10.502H59.0755V21.2419H59.2238V10.502Z" fill="#255AFB"/>
<path d="M59.3721 10.502H59.2238V21.2419H59.3721V10.502Z" fill="#2459FA"/>
<path d="M59.5204 10.502H59.3721V21.2419H59.5204V10.502Z" fill="#2459F9"/>
<path d="M59.6688 10.502H59.5205V21.2419H59.6688V10.502Z" fill="#2458F8"/>
<path d="M59.817 10.502H59.6687V21.2419H59.817V10.502Z" fill="#2458F7"/>
<path d="M59.9654 10.502H59.8171V21.2419H59.9654V10.502Z" fill="#2357F6"/>
<path d="M60.1137 10.502H59.9654V21.2419H60.1137V10.502Z" fill="#2357F5"/>
<path d="M60.262 10.502H60.1137V21.2419H60.262V10.502Z" fill="#2356F4"/>
<path d="M60.4103 10.502H60.262V21.2419H60.4103V10.502Z" fill="#2256F3"/>
<path d="M60.5586 10.502H60.4103V21.2419H60.5586V10.502Z" fill="#2255F2"/>
<path d="M60.707 10.502H60.5587V21.2419H60.707V10.502Z" fill="#2255F1"/>
<path d="M60.8553 10.502H60.707V21.2419H60.8553V10.502Z" fill="#2154F0"/>
<path d="M61.0035 10.502H60.8553V21.2419H61.0035V10.502Z" fill="#2154EF"/>
<path d="M61.1518 10.502H61.0036V21.2419H61.1518V10.502Z" fill="#2153EE"/>
<path d="M61.3001 10.502H61.1519V21.2419H61.3001V10.502Z" fill="#2053ED"/>
<path d="M61.4485 10.502H61.3002V21.2419H61.4485V10.502Z" fill="#2052EC"/>
<path d="M61.5968 10.502H61.4485V21.2419H61.5968V10.502Z" fill="#2052EB"/>
<path d="M61.7451 10.502H61.5968V21.2419H61.7451V10.502Z" fill="#1F51EA"/>
<path d="M61.8935 10.502H61.7452V21.2419H61.8935V10.502Z" fill="#1F51E9"/>
<path d="M62.0418 10.502H61.8935V21.2419H62.0418V10.502Z" fill="#1F50E8"/>
<path d="M62.1901 10.502H62.0418V21.2419H62.1901V10.502Z" fill="#1F50E7"/>
<path d="M62.3383 10.502H62.19V21.2419H62.3383V10.502Z" fill="#1E4FE6"/>
<path d="M62.4867 10.502H62.3384V21.2419H62.4867V10.502Z" fill="#1E4FE5"/>
<path d="M62.635 10.502H62.4867V21.2419H62.635V10.502Z" fill="#1E4EE4"/>
<path d="M62.7833 10.502H62.635V21.2419H62.7833V10.502Z" fill="#1D4EE3"/>
<path d="M62.9316 10.502H62.7833V21.2419H62.9316V10.502Z" fill="#1D4DE2"/>
<path d="M63.08 10.502H62.9317V21.2419H63.08V10.502Z" fill="#1D4DE1"/>
<path d="M63.2283 10.502H63.08V21.2419H63.2283V10.502Z" fill="#1C4CE0"/>
<path d="M63.3765 10.502H63.2283V21.2419H63.3765V10.502Z" fill="#1C4CDF"/>
<path d="M63.5249 10.502H63.3766V21.2419H63.5249V10.502Z" fill="#1C4BDE"/>
<path d="M63.6732 10.502H63.5249V21.2419H63.6732V10.502Z" fill="#1B4BDD"/>
<path d="M63.8215 10.502H63.6732V21.2419H63.8215V10.502Z" fill="#1B4ADC"/>
<path d="M63.9698 10.502H63.8215V21.2419H63.9698V10.502Z" fill="#1B4ADB"/>
<path d="M64.1181 10.502H63.9698V21.2419H64.1181V10.502Z" fill="#1A49DA"/>
<path d="M64.2665 10.502H64.1182V21.2419H64.2665V10.502Z" fill="#1A49D9"/>
<path d="M64.4148 10.502H64.2665V21.2419H64.4148V10.502Z" fill="#1A48D8"/>
<path d="M64.563 10.502H64.4147V21.2419H64.563V10.502Z" fill="#1A48D7"/>
<path d="M64.7114 10.502H64.5631V21.2419H64.7114V10.502Z" fill="#1947D6"/>
<path d="M64.8597 10.502H64.7114V21.2419H64.8597V10.502Z" fill="#1947D5"/>
<path d="M65.008 10.502H64.8597V21.2419H65.008V10.502Z" fill="#1946D4"/>
<path d="M65.1563 10.502H65.008V21.2419H65.1563V10.502Z" fill="#1846D3"/>
<path d="M65.3046 10.502H65.1563V21.2419H65.3046V10.502Z" fill="#1845D2"/>
<path d="M65.453 10.502H65.3047V21.2419H65.453V10.502Z" fill="#1845D1"/>
<path d="M65.6013 10.502H65.453V21.2419H65.6013V10.502Z" fill="#1744D0"/>
<path d="M65.7496 10.502H65.6013V21.2419H65.7496V10.502Z" fill="#1744CF"/>
<path d="M65.8978 10.502H65.7496V21.2419H65.8978V10.502Z" fill="#1743CE"/>
<path d="M66.0462 10.502H65.8979V21.2419H66.0462V10.502Z" fill="#1643CD"/>
<path d="M66.1945 10.502H66.0462V21.2419H66.1945V10.502Z" fill="#1642CC"/>
<path d="M66.3428 10.502H66.1945V21.2419H66.3428V10.502Z" fill="#1642CB"/>
<path d="M66.4911 10.502H66.3428V21.2419H66.4911V10.502Z" fill="#1641CA"/>
<path d="M66.6395 10.502H66.4912V21.2419H66.6395V10.502Z" fill="#1541C9"/>
<path d="M66.7878 10.502H66.6395V21.2419H66.7878V10.502Z" fill="#1540C8"/>
<path d="M66.9361 10.502H66.7878V21.2419H66.9361V10.502Z" fill="#1540C7"/>
<path d="M67.0843 10.502H66.9361V21.2419H67.0843V10.502Z" fill="#143FC6"/>
<path d="M67.2327 10.502H67.0844V21.2419H67.2327V10.502Z" fill="#143FC5"/>
<path d="M67.381 10.502H67.2327V21.2419H67.381V10.502Z" fill="#143EC4"/>
<path d="M67.5293 10.502H67.381V21.2419H67.5293V10.502Z" fill="#133EC2"/>
<path d="M67.6776 10.502H67.5293V21.2419H67.6776V10.502Z" fill="#133DC1"/>
<path d="M67.826 10.502H67.6777V21.2419H67.826V10.502Z" fill="#133DC0"/>
<path d="M67.9743 10.502H67.826V21.2419H67.9743V10.502Z" fill="#123CBF"/>
<path d="M68.1226 10.502H67.9743V21.2419H68.1226V10.502Z" fill="#123CBE"/>
<path d="M68.2709 10.502H68.1226V21.2419H68.2709V10.502Z" fill="#123BBD"/>
<path d="M68.4192 10.502H68.2709V21.2419H68.4192V10.502Z" fill="#113BBC"/>
<path d="M68.5675 10.502H68.4192V21.2419H68.5675V10.502Z" fill="#113ABB"/>
<path d="M68.7158 10.502H68.5675V21.2419H68.7158V10.502Z" fill="#113ABA"/>
<path d="M68.8641 10.502H68.7158V21.2419H68.8641V10.502Z" fill="#1139B9"/>
<path d="M69.0125 10.502H68.8642V21.2419H69.0125V10.502Z" fill="#1039B8"/>
<path d="M69.1608 10.502H69.0125V21.2419H69.1608V10.502Z" fill="#1038B7"/>
<path d="M69.3091 10.502H69.1608V21.2419H69.3091V10.502Z" fill="#1038B6"/>
<path d="M69.4574 10.502H69.3091V21.2419H69.4574V10.502Z" fill="#0F37B5"/>
<path d="M69.6057 10.502H69.4575V21.2419H69.6057V10.502Z" fill="#0F37B4"/>
<path d="M69.754 10.502H69.6057V21.2419H69.754V10.502Z" fill="#0F36B3"/>
<path d="M69.9023 10.502H69.754V21.2419H69.9023V10.502Z" fill="#0E36B2"/>
<path d="M70.0506 10.502H69.9023V21.2419H70.0506V10.502Z" fill="#0E35B1"/>
<path d="M70.199 10.502H70.0507V21.2419H70.199V10.502Z" fill="#0E35B0"/>
<path d="M70.3473 10.502H70.199V21.2419H70.3473V10.502Z" fill="#0D34AF"/>
<path d="M70.4956 10.502H70.3473V21.2419H70.4956V10.502Z" fill="#0D34AE"/>
<path d="M70.6438 10.502H70.4956V21.2419H70.6438V10.502Z" fill="#0D33AD"/>
<path d="M70.7922 10.502H70.644V21.2419H70.7922V10.502Z" fill="#0D33AC"/>
<path d="M70.9405 10.502H70.7922V21.2419H70.9405V10.502Z" fill="#0C32AB"/>
<path d="M71.0888 10.502H70.9405V21.2419H71.0888V10.502Z" fill="#0C32AA"/>
<path d="M71.2371 10.502H71.0888V21.2419H71.2371V10.502Z" fill="#0C31A9"/>
<path d="M71.3855 10.502H71.2372V21.2419H71.3855V10.502Z" fill="#0B31A8"/>
<path d="M71.5338 10.502H71.3855V21.2419H71.5338V10.502Z" fill="#0B30A7"/>
<path d="M71.6821 10.502H71.5338V21.2419H71.6821V10.502Z" fill="#0B30A6"/>
<path d="M71.8303 10.502H71.6821V21.2419H71.8303V10.502Z" fill="#0A2FA5"/>
<path d="M71.9787 10.502H71.8304V21.2419H71.9787V10.502Z" fill="#0A2FA4"/>
<path d="M72.127 10.502H71.9787V21.2419H72.127V10.502Z" fill="#0A2EA3"/>
<path d="M72.2753 10.502H72.127V21.2419H72.2753V10.502Z" fill="#092EA2"/>
<path d="M72.4236 10.502H72.2753V21.2419H72.4236V10.502Z" fill="#092DA1"/>
<path d="M72.572 10.502H72.4237V21.2419H72.572V10.502Z" fill="#092DA0"/>
<path d="M72.7203 10.502H72.572V21.2419H72.7203V10.502Z" fill="#082C9F"/>
<path d="M72.8686 10.502H72.7203V21.2419H72.8686V10.502Z" fill="#082C9E"/>
<path d="M73.0169 10.502H72.8686V21.2419H73.0169V10.502Z" fill="#082B9D"/>
<path d="M73.1652 10.502H73.0169V21.2419H73.1652V10.502Z" fill="#082B9C"/>
<path d="M73.3135 10.502H73.1652V21.2419H73.3135V10.502Z" fill="#072A9B"/>
<path d="M73.4618 10.502H73.3135V21.2419H73.4618V10.502Z" fill="#072A9A"/>
<path d="M73.6101 10.502H73.4618V21.2419H73.6101V10.502Z" fill="#072999"/>
<path d="M73.7585 10.502H73.6102V21.2419H73.7585V10.502Z" fill="#062998"/>
<path d="M73.9068 10.502H73.7585V21.2419H73.9068V10.502Z" fill="#062897"/>
<path d="M74.0551 10.502H73.9068V21.2419H74.0551V10.502Z" fill="#062896"/>
<path d="M74.2034 10.502H74.0551V21.2419H74.2034V10.502Z" fill="#052795"/>
<path d="M74.3518 10.502H74.2035V21.2419H74.3518V10.502Z" fill="#052794"/>
<path d="M74.5 10.502H74.3517V21.2419H74.5V10.502Z" fill="#052693"/>
<path d="M74.6483 10.502H74.5V21.2419H74.6483V10.502Z" fill="#042692"/>
<path d="M74.7966 10.502H74.6483V21.2419H74.7966V10.502Z" fill="#042591"/>
<path d="M74.945 10.502H74.7967V21.2419H74.945V10.502Z" fill="#042590"/>
<path d="M75.0933 10.502H74.945V21.2419H75.0933V10.502Z" fill="#03248F"/>
<path d="M75.2416 10.502H75.0933V21.2419H75.2416V10.502Z" fill="#03248E"/>
<path d="M75.3899 10.502H75.2416V21.2419H75.3899V10.502Z" fill="#03238D"/>
<path d="M75.5382 10.502H75.39V21.2419H75.5382V10.502Z" fill="#03238C"/>
<path d="M75.6865 10.502H75.5382V21.2419H75.6865V10.502Z" fill="#02228B"/>
<path d="M75.8348 10.502H75.6865V21.2419H75.8348V10.502Z" fill="#02228A"/>
<path d="M75.9831 10.502H75.8348V21.2419H75.9831V10.502Z" fill="#022189"/>
<path d="M76.1315 10.502H75.9832V21.2419H76.1315V10.502Z" fill="#012188"/>
<path d="M76.2798 10.502H76.1315V21.2419H76.2798V10.502Z" fill="#012087"/>
</g>
<mask id="mask4_2004_85" style="mask-type:luminance" maskUnits="userSpaceOnUse" x="68" y="12" width="11" height="19">
<path d="M72.1663 27.9537C70.6107 26.5636 69.8256 23.5709 69.99 21.5956C70.0437 20.9616 70.1628 20.3605 70.3273 19.7955C70.4579 20.0387 70.6161 20.2691 70.7994 20.4858C71.5983 21.431 72.589 21.997 73.548 22.545C74.681 23.1918 75.659 23.7514 76.2071 24.842C76.5917 25.6078 76.5949 26.5764 76.2165 27.3686C76.0289 27.7604 75.5778 28.4443 74.6567 28.6365C74.4372 28.6824 74.2245 28.7054 74.0181 28.7054C73.3398 28.7054 72.7296 28.4569 72.1663 27.9537ZM72.0588 13.3429C71.6984 13.6423 71.3717 13.9885 71.0871 14.3645C71.0323 14.4346 70.9807 14.5068 70.9301 14.579C69.8224 15.9586 68.29 18.3768 68.0349 21.4299C67.9739 22.1701 68.0128 23.0165 68.1562 23.8895C68.4892 25.9275 69.385 28.1109 70.8658 29.433C72.0609 30.5014 73.509 30.8954 75.0541 30.5725C76.3304 30.306 77.398 29.4511 77.984 28.2266C78.6321 26.8705 78.6227 25.2711 77.9576 23.949C77.1419 22.3262 75.7465 21.5287 74.5155 20.8246C73.6681 20.3403 72.8671 19.8837 72.2929 19.204C71.9977 18.8536 71.8343 18.4404 71.806 17.9689C71.4317 17.6811 71.0892 17.353 70.7931 16.9897L70.1903 16.2537L70.8963 15.6176C71.2399 15.3107 71.8396 15.2332 72.2738 15.6931C72.3139 15.7355 72.3687 15.793 72.4383 15.8608C72.4625 15.8205 72.4889 15.7822 72.5152 15.743C72.7818 15.4181 73.0147 15.1684 73.1791 15.0017C73.2477 14.9316 73.3035 14.8763 73.3457 14.836C73.8021 14.3985 73.7251 13.7943 73.4205 13.448L72.7892 12.7365L72.0588 13.3429Z" fill="white"/>
</mask>
<g mask="url(#mask4_2004_85)">
<path d="M69.8426 19.7955H69.8255V28.833H69.8426V19.7955Z" fill="#2052EB"/>
<path d="M69.9307 19.7955H69.8427V28.833H69.9307V19.7955Z" fill="#1F51EA"/>
<path d="M70.0177 19.7955H69.9297V28.833H70.0177V19.7955Z" fill="#1F51E9"/>
<path d="M70.1049 19.7955H70.0168V28.833H70.1049V19.7955Z" fill="#1F50E8"/>
<path d="M70.1919 19.7955H70.1038V28.833H70.1919V19.7955Z" fill="#1F50E7"/>
<path d="M70.279 19.7955H70.191V28.833H70.279V19.7955Z" fill="#1E4FE6"/>
<path d="M70.366 19.7955H70.278V28.833H70.366V19.7955Z" fill="#1E4FE5"/>
<path d="M70.4532 19.7955H70.3651V28.833H70.4532V19.7955Z" fill="#1E4EE4"/>
<path d="M70.5402 19.7955H70.4522V28.833H70.5402V19.7955Z" fill="#1D4EE3"/>
<path d="M70.6273 19.7955H70.5393V28.833H70.6273V19.7955Z" fill="#1D4DE2"/>
<path d="M70.7144 19.7955H70.6263V28.833H70.7144V19.7955Z" fill="#1D4DE1"/>
<path d="M70.8014 19.7955H70.7134V28.833H70.8014V19.7955Z" fill="#1C4CE0"/>
<path d="M70.8885 19.7955H70.8005V28.833H70.8885V19.7955Z" fill="#1C4CDF"/>
<path d="M70.9756 19.7955H70.8876V28.833H70.9756V19.7955Z" fill="#1C4BDE"/>
<path d="M71.0627 19.7955H70.9746V28.833H71.0627V19.7955Z" fill="#1B4BDD"/>
<path d="M71.1498 19.7955H71.0617V28.833H71.1498V19.7955Z" fill="#1B4ADC"/>
<path d="M71.2368 19.7955H71.1488V28.833H71.2368V19.7955Z" fill="#1B4ADB"/>
<path d="M71.3239 19.7955H71.2359V28.833H71.3239V19.7955Z" fill="#1A49DA"/>
<path d="M71.411 19.7955H71.3229V28.833H71.411V19.7955Z" fill="#1A49D9"/>
<path d="M71.4981 19.7955H71.4101V28.833H71.4981V19.7955Z" fill="#1A48D8"/>
<path d="M71.5851 19.7955H71.4971V28.833H71.5851V19.7955Z" fill="#1A48D7"/>
<path d="M71.6722 19.7955H71.5842V28.833H71.6722V19.7955Z" fill="#1947D6"/>
<path d="M71.7593 19.7955H71.6712V28.833H71.7593V19.7955Z" fill="#1947D5"/>
<path d="M71.8464 19.7955H71.7584V28.833H71.8464V19.7955Z" fill="#1946D4"/>
<path d="M71.9334 19.7955H71.8454V28.833H71.9334V19.7955Z" fill="#1846D3"/>
<path d="M72.0206 19.7955H71.9325V28.833H72.0206V19.7955Z" fill="#1845D2"/>
<path d="M72.1076 19.7955H72.0196V28.833H72.1076V19.7955Z" fill="#1845D1"/>
<path d="M72.1947 19.7955H72.1067V28.833H72.1947V19.7955Z" fill="#1744D0"/>
<path d="M72.2817 19.7955H72.1937V28.833H72.2817V19.7955Z" fill="#1744CF"/>
<path d="M72.3689 19.7955H72.2808V28.833H72.3689V19.7955Z" fill="#1743CE"/>
<path d="M72.4559 19.7955H72.3679V28.833H72.4559V19.7955Z" fill="#1643CD"/>
<path d="M72.543 19.7955H72.455V28.833H72.543V19.7955Z" fill="#1642CC"/>
<path d="M72.63 19.7955H72.542V28.833H72.63V19.7955Z" fill="#1642CB"/>
<path d="M72.7172 19.7955H72.6291V28.833H72.7172V19.7955Z" fill="#1641CA"/>
<path d="M72.8043 19.7955H72.7163V28.833H72.8043V19.7955Z" fill="#1541C9"/>
<path d="M72.8913 19.7955H72.8033V28.833H72.8913V19.7955Z" fill="#1540C8"/>
<path d="M72.9785 19.7955H72.8904V28.833H72.9785V19.7955Z" fill="#1540C7"/>
<path d="M73.0655 19.7955H72.9775V28.833H73.0655V19.7955Z" fill="#143FC6"/>
<path d="M73.1526 19.7955H73.0646V28.833H73.1526V19.7955Z" fill="#143FC5"/>
<path d="M73.2396 19.7955H73.1516V28.833H73.2396V19.7955Z" fill="#143EC4"/>
<path d="M73.3268 19.7955H73.2387V28.833H73.3268V19.7955Z" fill="#133EC2"/>
<path d="M73.4138 19.7955H73.3258V28.833H73.4138V19.7955Z" fill="#133DC1"/>
<path d="M73.5009 19.7955H73.4129V28.833H73.5009V19.7955Z" fill="#133DC0"/>
<path d="M73.5879 19.7955H73.4999V28.833H73.5879V19.7955Z" fill="#123CBF"/>
<path d="M73.6751 19.7955H73.5871V28.833H73.6751V19.7955Z" fill="#123CBE"/>
<path d="M73.7621 19.7955H73.6741V28.833H73.7621V19.7955Z" fill="#123BBD"/>
<path d="M73.8492 19.7955H73.7612V28.833H73.8492V19.7955Z" fill="#113BBC"/>
<path d="M73.9363 19.7955H73.8482V28.833H73.9363V19.7955Z" fill="#113ABB"/>
<path d="M74.0234 19.7955H73.9354V28.833H74.0234V19.7955Z" fill="#113ABA"/>
<path d="M74.1104 19.7955H74.0224V28.833H74.1104V19.7955Z" fill="#1139B9"/>
<path d="M74.1974 19.7955H74.1094V28.833H74.1974V19.7955Z" fill="#1039B8"/>
<path d="M74.2846 19.7955H74.1965V28.833H74.2846V19.7955Z" fill="#1038B7"/>
<path d="M74.3717 19.7955H74.2837V28.833H74.3717V19.7955Z" fill="#1038B6"/>
<path d="M74.4587 19.7955H74.3707V28.833H74.4587V19.7955Z" fill="#0F37B5"/>
<path d="M74.5458 19.7955H74.4578V28.833H74.5458V19.7955Z" fill="#0F37B4"/>
<path d="M74.6329 19.7955H74.5448V28.833H74.6329V19.7955Z" fill="#0F36B3"/>
<path d="M74.72 19.7955H74.632V28.833H74.72V19.7955Z" fill="#0E36B2"/>
<path d="M74.807 19.7955H74.719V28.833H74.807V19.7955Z" fill="#0E35B1"/>
<path d="M74.8942 19.7955H74.8061V28.833H74.8942V19.7955Z" fill="#0E35B0"/>
<path d="M74.9812 19.7955H74.8932V28.833H74.9812V19.7955Z" fill="#0D34AF"/>
<path d="M75.0683 19.7955H74.9803V28.833H75.0683V19.7955Z" fill="#0D34AE"/>
<path d="M75.1553 19.7955H75.0673V28.833H75.1553V19.7955Z" fill="#0D33AD"/>
<path d="M75.2425 19.7955H75.1544V28.833H75.2425V19.7955Z" fill="#0D33AC"/>
<path d="M75.3295 19.7955H75.2415V28.833H75.3295V19.7955Z" fill="#0C32AB"/>
<path d="M75.4166 19.7955H75.3286V28.833H75.4166V19.7955Z" fill="#0C32AA"/>
<path d="M75.5036 19.7955H75.4156V28.833H75.5036V19.7955Z" fill="#0C31A9"/>
<path d="M75.5908 19.7955H75.5027V28.833H75.5908V19.7955Z" fill="#0B31A8"/>
<path d="M75.6778 19.7955H75.5898V28.833H75.6778V19.7955Z" fill="#0B30A7"/>
<path d="M75.7649 19.7955H75.6769V28.833H75.7649V19.7955Z" fill="#0B30A6"/>
<path d="M75.8519 19.7955H75.7638V28.833H75.8519V19.7955Z" fill="#0A2FA5"/>
<path d="M75.9391 19.7955H75.8511V28.833H75.9391V19.7955Z" fill="#0A2FA4"/>
<path d="M76.0261 19.7955H75.9381V28.833H76.0261V19.7955Z" fill="#0A2EA3"/>
<path d="M76.1132 19.7955H76.0252V28.833H76.1132V19.7955Z" fill="#092EA2"/>
<path d="M76.2003 19.7955H76.1122V28.833H76.2003V19.7955Z" fill="#092DA1"/>
<path d="M76.2874 19.7955H76.1994V28.833H76.2874V19.7955Z" fill="#092DA0"/>
<path d="M76.3744 19.7955H76.2864V28.833H76.3744V19.7955Z" fill="#082C9F"/>
<path d="M76.4615 19.7955H76.3735V28.833H76.4615V19.7955Z" fill="#082C9E"/>
<path d="M76.5486 19.7955H76.4606V28.833H76.5486V19.7955Z" fill="#082B9D"/>
<path d="M76.5948 19.7955H76.5476V28.833H76.5948V19.7955Z" fill="#082B9C"/>
<path d="M68.0139 12.7364H67.9738V30.8954H68.0139V12.7364Z" fill="#265CFF"/>
<path d="M68.102 12.7364H68.014V30.8954H68.102V12.7364Z" fill="#265CFF"/>
<path d="M68.1891 12.7364H68.1011V30.8954H68.1891V12.7364Z" fill="#265BFE"/>
<path d="M68.2762 12.7364H68.1882V30.8954H68.2762V12.7364Z" fill="#255BFD"/>
<path d="M68.3633 12.7364H68.2753V30.8954H68.3633V12.7364Z" fill="#255AFC"/>
<path d="M68.4503 12.7364H68.3623V30.8954H68.4503V12.7364Z" fill="#255AFB"/>
<path d="M68.5374 12.7364H68.4494V30.8954H68.5374V12.7364Z" fill="#2459FA"/>
<path d="M68.6245 12.7364H68.5365V30.8954H68.6245V12.7364Z" fill="#2459F9"/>
<path d="M68.7116 12.7364H68.6236V30.8954H68.7116V12.7364Z" fill="#2458F8"/>
<path d="M68.7986 12.7364H68.7106V30.8954H68.7986V12.7364Z" fill="#2458F7"/>
<path d="M68.8858 12.7364H68.7977V30.8954H68.8858V12.7364Z" fill="#2357F6"/>
<path d="M68.9728 12.7364H68.8848V30.8954H68.9728V12.7364Z" fill="#2357F5"/>
<path d="M69.0599 12.7364H68.9719V30.8954H69.0599V12.7364Z" fill="#2356F4"/>
<path d="M69.147 12.7364H69.0589V30.8954H69.147V12.7364Z" fill="#2256F3"/>
<path d="M69.2341 12.7364H69.1461V30.8954H69.2341V12.7364Z" fill="#2255F2"/>
<path d="M69.3211 12.7364H69.2331V30.8954H69.3211V12.7364Z" fill="#2255F1"/>
<path d="M69.4082 12.7364H69.3202V30.8954H69.4082V12.7364Z" fill="#2154F0"/>
<path d="M69.4953 12.7364H69.4072V30.8954H69.4953V12.7364Z" fill="#2154EF"/>
<path d="M69.5824 12.7364H69.4943V30.8954H69.5824V12.7364Z" fill="#2153EE"/>
<path d="M69.6694 12.7364H69.5814V30.8954H69.6694V12.7364Z" fill="#2053ED"/>
<path d="M69.7565 12.7364H69.6685V30.8954H69.7565V12.7364Z" fill="#2052EC"/>
<path d="M69.8436 12.7364H69.7556V30.8954H69.8436V12.7364Z" fill="#2052EB"/>
<path d="M69.9307 12.7364H69.8427V30.8954H69.9307V12.7364Z" fill="#1F51EA"/>
<path d="M70.0177 12.7364H69.9297V30.8954H70.0177V12.7364Z" fill="#1F51E9"/>
<path d="M70.1049 12.7364H70.0168V30.8954H70.1049V12.7364Z" fill="#1F50E8"/>
<path d="M70.1919 12.7364H70.1038V30.8954H70.1919V12.7364Z" fill="#1F50E7"/>
<path d="M70.279 12.7364H70.191V30.8954H70.279V12.7364Z" fill="#1E4FE6"/>
<path d="M70.366 12.7364H70.278V30.8954H70.366V12.7364Z" fill="#1E4FE5"/>
<path d="M70.4532 12.7364H70.3651V30.8954H70.4532V12.7364Z" fill="#1E4EE4"/>
<path d="M70.5402 12.7364H70.4522V30.8954H70.5402V12.7364Z" fill="#1D4EE3"/>
<path d="M70.6273 12.7364H70.5393V30.8954H70.6273V12.7364Z" fill="#1D4DE2"/>
<path d="M70.7144 12.7364H70.6263V30.8954H70.7144V12.7364Z" fill="#1D4DE1"/>
<path d="M70.8014 12.7364H70.7134V30.8954H70.8014V12.7364Z" fill="#1C4CE0"/>
<path d="M70.8885 12.7364H70.8005V30.8954H70.8885V12.7364Z" fill="#1C4CDF"/>
<path d="M70.9756 12.7364H70.8876V30.8954H70.9756V12.7364Z" fill="#1C4BDE"/>
<path d="M71.0627 12.7364H70.9746V30.8954H71.0627V12.7364Z" fill="#1B4BDD"/>
<path d="M71.1498 12.7364H71.0617V30.8954H71.1498V12.7364Z" fill="#1B4ADC"/>
<path d="M71.2368 12.7364H71.1488V30.8954H71.2368V12.7364Z" fill="#1B4ADB"/>
<path d="M71.3239 12.7364H71.2359V30.8954H71.3239V12.7364Z" fill="#1A49DA"/>
<path d="M71.411 12.7364H71.3229V30.8954H71.411V12.7364Z" fill="#1A49D9"/>
<path d="M71.4981 12.7364H71.4101V30.8954H71.4981V12.7364Z" fill="#1A48D8"/>
<path d="M71.5851 12.7364H71.4971V30.8954H71.5851V12.7364Z" fill="#1A48D7"/>
<path d="M71.6722 12.7364H71.5842V30.8954H71.6722V12.7364Z" fill="#1947D6"/>
<path d="M71.7593 12.7364H71.6712V30.8954H71.7593V12.7364Z" fill="#1947D5"/>
<path d="M71.8464 12.7364H71.7584V30.8954H71.8464V12.7364Z" fill="#1946D4"/>
<path d="M71.9334 12.7364H71.8454V30.8954H71.9334V12.7364Z" fill="#1846D3"/>
<path d="M72.0206 12.7364H71.9325V30.8954H72.0206V12.7364Z" fill="#1845D2"/>
<path d="M72.1076 12.7364H72.0196V30.8954H72.1076V12.7364Z" fill="#1845D1"/>
<path d="M72.1947 12.7364H72.1067V30.8954H72.1947V12.7364Z" fill="#1744D0"/>
<path d="M72.2817 12.7364H72.1937V30.8954H72.2817V12.7364Z" fill="#1744CF"/>
<path d="M72.3689 12.7364H72.2808V30.8954H72.3689V12.7364Z" fill="#1743CE"/>
<path d="M72.4559 12.7364H72.3679V30.8954H72.4559V12.7364Z" fill="#1643CD"/>
<path d="M72.543 12.7364H72.455V30.8954H72.543V12.7364Z" fill="#1642CC"/>
<path d="M72.63 12.7364H72.542V30.8954H72.63V12.7364Z" fill="#1642CB"/>
<path d="M72.7172 12.7364H72.6291V30.8954H72.7172V12.7364Z" fill="#1641CA"/>
<path d="M72.8043 12.7364H72.7163V30.8954H72.8043V12.7364Z" fill="#1541C9"/>
<path d="M72.8913 12.7364H72.8033V30.8954H72.8913V12.7364Z" fill="#1540C8"/>
<path d="M72.9785 12.7364H72.8904V30.8954H72.9785V12.7364Z" fill="#1540C7"/>
<path d="M73.0655 12.7364H72.9775V30.8954H73.0655V12.7364Z" fill="#143FC6"/>
<path d="M73.1526 12.7364H73.0646V30.8954H73.1526V12.7364Z" fill="#143FC5"/>
<path d="M73.2396 12.7364H73.1516V30.8954H73.2396V12.7364Z" fill="#143EC4"/>
<path d="M73.3268 12.7364H73.2387V30.8954H73.3268V12.7364Z" fill="#133EC2"/>
<path d="M73.4138 12.7364H73.3258V30.8954H73.4138V12.7364Z" fill="#133DC1"/>
<path d="M73.5009 12.7364H73.4129V30.8954H73.5009V12.7364Z" fill="#133DC0"/>
<path d="M73.5879 12.7364H73.4999V30.8954H73.5879V12.7364Z" fill="#123CBF"/>
<path d="M73.6751 12.7364H73.5871V30.8954H73.6751V12.7364Z" fill="#123CBE"/>
<path d="M73.7621 12.7364H73.6741V30.8954H73.7621V12.7364Z" fill="#123BBD"/>
<path d="M73.8492 12.7364H73.7612V30.8954H73.8492V12.7364Z" fill="#113BBC"/>
<path d="M73.9363 12.7364H73.8482V30.8954H73.9363V12.7364Z" fill="#113ABB"/>
<path d="M74.0234 12.7364H73.9354V30.8954H74.0234V12.7364Z" fill="#113ABA"/>
<path d="M74.1104 12.7364H74.0224V30.8954H74.1104V12.7364Z" fill="#1139B9"/>
<path d="M74.1974 12.7364H74.1094V30.8954H74.1974V12.7364Z" fill="#1039B8"/>
<path d="M74.2846 12.7364H74.1965V30.8954H74.2846V12.7364Z" fill="#1038B7"/>
<path d="M74.3717 12.7364H74.2837V30.8954H74.3717V12.7364Z" fill="#1038B6"/>
<path d="M74.4587 12.7364H74.3707V30.8954H74.4587V12.7364Z" fill="#0F37B5"/>
<path d="M74.5458 12.7364H74.4578V30.8954H74.5458V12.7364Z" fill="#0F37B4"/>
<path d="M74.6329 12.7364H74.5448V30.8954H74.6329V12.7364Z" fill="#0F36B3"/>
<path d="M74.72 12.7364H74.632V30.8954H74.72V12.7364Z" fill="#0E36B2"/>
<path d="M74.807 12.7364H74.719V30.8954H74.807V12.7364Z" fill="#0E35B1"/>
<path d="M74.8942 12.7364H74.8061V30.8954H74.8942V12.7364Z" fill="#0E35B0"/>
<path d="M74.9812 12.7364H74.8932V30.8954H74.9812V12.7364Z" fill="#0D34AF"/>
<path d="M75.0683 12.7364H74.9803V30.8954H75.0683V12.7364Z" fill="#0D34AE"/>
<path d="M75.1553 12.7364H75.0673V30.8954H75.1553V12.7364Z" fill="#0D33AD"/>
<path d="M75.2425 12.7364H75.1544V30.8954H75.2425V12.7364Z" fill="#0D33AC"/>
<path d="M75.3295 12.7364H75.2415V30.8954H75.3295V12.7364Z" fill="#0C32AB"/>
<path d="M75.4166 12.7364H75.3286V30.8954H75.4166V12.7364Z" fill="#0C32AA"/>
<path d="M75.5036 12.7364H75.4156V30.8954H75.5036V12.7364Z" fill="#0C31A9"/>
<path d="M75.5908 12.7364H75.5027V30.8954H75.5908V12.7364Z" fill="#0B31A8"/>
<path d="M75.6778 12.7364H75.5898V30.8954H75.6778V12.7364Z" fill="#0B30A7"/>
<path d="M75.7649 12.7364H75.6769V30.8954H75.7649V12.7364Z" fill="#0B30A6"/>
<path d="M75.8519 12.7364H75.7638V30.8954H75.8519V12.7364Z" fill="#0A2FA5"/>
<path d="M75.9391 12.7364H75.8511V30.8954H75.9391V12.7364Z" fill="#0A2FA4"/>
<path d="M76.0261 12.7364H75.9381V30.8954H76.0261V12.7364Z" fill="#0A2EA3"/>
<path d="M76.1132 12.7364H76.0252V30.8954H76.1132V12.7364Z" fill="#092EA2"/>
<path d="M76.2003 12.7364H76.1122V30.8954H76.2003V12.7364Z" fill="#092DA1"/>
<path d="M76.2874 12.7364H76.1994V30.8954H76.2874V12.7364Z" fill="#092DA0"/>
<path d="M76.3744 12.7364H76.2864V30.8954H76.3744V12.7364Z" fill="#082C9F"/>
<path d="M76.4615 12.7364H76.3735V30.8954H76.4615V12.7364Z" fill="#082C9E"/>
<path d="M76.5486 12.7364H76.4606V30.8954H76.5486V12.7364Z" fill="#082B9D"/>
<path d="M76.6357 12.7364H76.5477V30.8954H76.6357V12.7364Z" fill="#082B9C"/>
<path d="M76.7227 12.7364H76.6347V30.8954H76.7227V12.7364Z" fill="#072A9B"/>
<path d="M76.8099 12.7364H76.7218V30.8954H76.8099V12.7364Z" fill="#072A9A"/>
<path d="M76.8969 12.7364H76.8089V30.8954H76.8969V12.7364Z" fill="#072999"/>
<path d="M76.984 12.7364H76.896V30.8954H76.984V12.7364Z" fill="#062998"/>
<path d="M77.071 12.7364H76.983V30.8954H77.071V12.7364Z" fill="#062897"/>
<path d="M77.1582 12.7364H77.0701V30.8954H77.1582V12.7364Z" fill="#062896"/>
<path d="M77.2452 12.7364H77.1572V30.8954H77.2452V12.7364Z" fill="#052795"/>
<path d="M77.3323 12.7364H77.2443V30.8954H77.3323V12.7364Z" fill="#052794"/>
<path d="M77.4194 12.7364H77.3313V30.8954H77.4194V12.7364Z" fill="#052693"/>
<path d="M77.5065 12.7364H77.4184V30.8954H77.5065V12.7364Z" fill="#042692"/>
<path d="M77.5935 12.7364H77.5055V30.8954H77.5935V12.7364Z" fill="#042591"/>
<path d="M77.6806 12.7364H77.5926V30.8954H77.6806V12.7364Z" fill="#042590"/>
<path d="M77.7677 12.7364H77.6796V30.8954H77.7677V12.7364Z" fill="#03248F"/>
<path d="M77.8548 12.7364H77.7668V30.8954H77.8548V12.7364Z" fill="#03248E"/>
<path d="M77.9418 12.7364H77.8538V30.8954H77.9418V12.7364Z" fill="#03238D"/>
<path d="M78.0289 12.7364H77.9409V30.8954H78.0289V12.7364Z" fill="#03238C"/>
<path d="M78.116 12.7364H78.028V30.8954H78.116V12.7364Z" fill="#02228B"/>
<path d="M78.2031 12.7364H78.1151V30.8954H78.2031V12.7364Z" fill="#02228A"/>
<path d="M78.2901 12.7364H78.2021V30.8954H78.2901V12.7364Z" fill="#022189"/>
<path d="M78.3773 12.7364H78.2892V30.8954H78.3773V12.7364Z" fill="#012188"/>
<path d="M78.4643 12.7364H78.3763V30.8954H78.4643V12.7364Z" fill="#012087"/>
<path d="M78.6321 12.7364H78.4633V30.8954H78.6321V12.7364Z" fill="#012087"/>
</g>
<mask id="mask5_2004_85" style="mask-type:luminance" maskUnits="userSpaceOnUse" x="68" y="0" width="11" height="19">
<path d="M75.6707 11.1222C74.8718 10.1771 73.881 9.61107 72.9231 9.06411C71.7901 8.41625 70.811 7.85764 70.263 6.76596C69.8783 6.00022 69.8751 5.03277 70.2546 4.23952C70.4411 3.84867 70.8922 3.1637 71.8133 2.97149C72.7544 2.775 73.5691 2.9991 74.3037 3.65433C75.8593 5.04443 76.6445 8.03716 76.48 10.0135C76.4273 10.6465 76.3072 11.2486 76.1439 11.8125C76.0121 11.5704 75.8541 11.3389 75.6707 11.1222ZM71.416 1.03546C70.1397 1.30208 69.0721 2.15698 68.4872 3.38145C67.8379 4.7376 67.8485 6.33688 68.5124 7.65918C69.3282 9.28289 70.7235 10.0804 71.9555 10.7834C72.8029 11.2677 73.6028 11.7254 74.1783 12.4051C74.4744 12.7545 74.6368 13.1688 74.6642 13.6392C75.0373 13.9258 75.3809 14.2561 75.677 14.6183L76.2798 15.3554L75.5737 15.9914C75.2301 16.2973 74.6304 16.3759 74.1963 15.916C74.1562 15.8736 74.1014 15.8162 74.0318 15.7482C74.0076 15.7875 73.9813 15.8269 73.9549 15.8661C73.6882 16.19 73.4553 16.4407 73.2909 16.6075C73.2224 16.6775 73.1666 16.7328 73.1244 16.7731C72.6681 17.2106 72.745 17.8149 73.0495 18.161L73.6808 18.8726L74.4123 18.2651C74.7716 17.9657 75.0984 17.6206 75.3829 17.2446C75.4377 17.1734 75.4905 17.1023 75.5411 17.029C76.6476 15.6505 78.18 13.2324 78.4351 10.1792C78.4973 9.43789 78.4572 8.5926 78.3149 7.71962C77.9808 5.68063 77.085 3.49821 75.6053 2.17498C74.6807 1.34923 73.6038 0.926582 72.4483 0.926498C72.1103 0.926498 71.7657 0.962675 71.416 1.03546Z" fill="white"/>
</mask>
<g mask="url(#mask5_2004_85)">
<path d="M69.9297 2.77501H69.8751V11.8125H69.9297V2.77501Z" fill="#1F51EA"/>
<path d="M70.0179 2.77501H69.9299V11.8125H70.0179V2.77501Z" fill="#1F51E9"/>
<path d="M70.1049 2.77501H70.0169V11.8125H70.1049V2.77501Z" fill="#1F50E8"/>
<path d="M70.192 2.77501H70.104V11.8125H70.192V2.77501Z" fill="#1F50E7"/>
<path d="M70.2791 2.77501H70.1911V11.8125H70.2791V2.77501Z" fill="#1E4FE6"/>
<path d="M70.3662 2.77501H70.2782V11.8125H70.3662V2.77501Z" fill="#1E4FE5"/>
<path d="M70.4533 2.77501H70.3652V11.8125H70.4533V2.77501Z" fill="#1E4EE4"/>
<path d="M70.5404 2.77501H70.4523V11.8125H70.5404V2.77501Z" fill="#1D4EE3"/>
<path d="M70.6274 2.77501H70.5394V11.8125H70.6274V2.77501Z" fill="#1D4DE2"/>
<path d="M70.7145 2.77501H70.6265V11.8125H70.7145V2.77501Z" fill="#1D4DE1"/>
<path d="M70.8016 2.77501H70.7135V11.8125H70.8016V2.77501Z" fill="#1C4CE0"/>
<path d="M70.8887 2.77501H70.8007V11.8125H70.8887V2.77501Z" fill="#1C4CDF"/>
<path d="M70.9757 2.77501H70.8877V11.8125H70.9757V2.77501Z" fill="#1C4BDE"/>
<path d="M71.0628 2.77501H70.9748V11.8125H71.0628V2.77501Z" fill="#1B4BDD"/>
<path d="M71.1499 2.77501H71.0618V11.8125H71.1499V2.77501Z" fill="#1B4ADC"/>
<path d="M71.237 2.77501H71.149V11.8125H71.237V2.77501Z" fill="#1B4ADB"/>
<path d="M71.324 2.77501H71.236V11.8125H71.324V2.77501Z" fill="#1A49DA"/>
<path d="M71.4111 2.77501H71.3231V11.8125H71.4111V2.77501Z" fill="#1A49D9"/>
<path d="M71.4982 2.77501H71.4102V11.8125H71.4982V2.77501Z" fill="#1A48D8"/>
<path d="M71.5853 2.77501H71.4973V11.8125H71.5853V2.77501Z" fill="#1A48D7"/>
<path d="M71.6724 2.77501H71.5843V11.8125H71.6724V2.77501Z" fill="#1947D6"/>
<path d="M71.7595 2.77501H71.6714V11.8125H71.7595V2.77501Z" fill="#1947D5"/>
<path d="M71.8465 2.77501H71.7585V11.8125H71.8465V2.77501Z" fill="#1946D4"/>
<path d="M71.9336 2.77501H71.8456V11.8125H71.9336V2.77501Z" fill="#1846D3"/>
<path d="M72.0206 2.77501H71.9326V11.8125H72.0206V2.77501Z" fill="#1845D2"/>
<path d="M72.1078 2.77501H72.0197V11.8125H72.1078V2.77501Z" fill="#1845D1"/>
<path d="M72.1948 2.77501H72.1068V11.8125H72.1948V2.77501Z" fill="#1744D0"/>
<path d="M72.2819 2.77501H72.1939V11.8125H72.2819V2.77501Z" fill="#1744CF"/>
<path d="M72.369 2.77501H72.2809V11.8125H72.369V2.77501Z" fill="#1743CE"/>
<path d="M72.4561 2.77501H72.368V11.8125H72.4561V2.77501Z" fill="#1643CD"/>
<path d="M72.5431 2.77501H72.4551V11.8125H72.5431V2.77501Z" fill="#1642CC"/>
<path d="M72.6302 2.77501H72.5422V11.8125H72.6302V2.77501Z" fill="#1642CB"/>
<path d="M72.7173 2.77501H72.6292V11.8125H72.7173V2.77501Z" fill="#1641CA"/>
<path d="M72.8044 2.77501H72.7164V11.8125H72.8044V2.77501Z" fill="#1541C9"/>
<path d="M72.8914 2.77501H72.8034V11.8125H72.8914V2.77501Z" fill="#1540C8"/>
<path d="M72.9785 2.77501H72.8905V11.8125H72.9785V2.77501Z" fill="#1540C7"/>
<path d="M73.0656 2.77501H72.9776V11.8125H73.0656V2.77501Z" fill="#143FC6"/>
<path d="M73.1527 2.77501H73.0647V11.8125H73.1527V2.77501Z" fill="#143FC5"/>
<path d="M73.2397 2.77501H73.1517V11.8125H73.2397V2.77501Z" fill="#143EC4"/>
<path d="M73.3269 2.77501H73.2388V11.8125H73.3269V2.77501Z" fill="#133EC2"/>
<path d="M73.4139 2.77501H73.3259V11.8125H73.4139V2.77501Z" fill="#133DC1"/>
<path d="M73.501 2.77501H73.413V11.8125H73.501V2.77501Z" fill="#133DC0"/>
<path d="M73.588 2.77501H73.5V11.8125H73.588V2.77501Z" fill="#123CBF"/>
<path d="M73.6752 2.77501H73.5871V11.8125H73.6752V2.77501Z" fill="#123CBE"/>
<path d="M73.7622 2.77501H73.6742V11.8125H73.7622V2.77501Z" fill="#123BBD"/>
<path d="M73.8493 2.77501H73.7613V11.8125H73.8493V2.77501Z" fill="#113BBC"/>
<path d="M73.9364 2.77501H73.8483V11.8125H73.9364V2.77501Z" fill="#113ABB"/>
<path d="M74.0235 2.77501H73.9355V11.8125H74.0235V2.77501Z" fill="#113ABA"/>
<path d="M74.1105 2.77501H74.0225V11.8125H74.1105V2.77501Z" fill="#1139B9"/>
<path d="M74.1976 2.77501H74.1096V11.8125H74.1976V2.77501Z" fill="#1039B8"/>
<path d="M74.2847 2.77501H74.1967V11.8125H74.2847V2.77501Z" fill="#1038B7"/>
<path d="M74.3718 2.77501H74.2838V11.8125H74.3718V2.77501Z" fill="#1038B6"/>
<path d="M74.4588 2.77501H74.3708V11.8125H74.4588V2.77501Z" fill="#0F37B5"/>
<path d="M74.5459 2.77501H74.4579V11.8125H74.5459V2.77501Z" fill="#0F37B4"/>
<path d="M74.633 2.77501H74.545V11.8125H74.633V2.77501Z" fill="#0F36B3"/>
<path d="M74.7201 2.77501H74.6321V11.8125H74.7201V2.77501Z" fill="#0E36B2"/>
<path d="M74.8071 2.77501H74.7191V11.8125H74.8071V2.77501Z" fill="#0E35B1"/>
<path d="M74.8943 2.77501H74.8062V11.8125H74.8943V2.77501Z" fill="#0E35B0"/>
<path d="M74.9813 2.77501H74.8932V11.8125H74.9813V2.77501Z" fill="#0D34AF"/>
<path d="M75.0684 2.77501H74.9804V11.8125H75.0684V2.77501Z" fill="#0D34AE"/>
<path d="M75.1555 2.77501H75.0674V11.8125H75.1555V2.77501Z" fill="#0D33AD"/>
<path d="M75.2426 2.77501H75.1546V11.8125H75.2426V2.77501Z" fill="#0D33AC"/>
<path d="M75.3296 2.77501H75.2416V11.8125H75.3296V2.77501Z" fill="#0C32AB"/>
<path d="M75.4167 2.77501H75.3287V11.8125H75.4167V2.77501Z" fill="#0C32AA"/>
<path d="M75.5038 2.77501H75.4157V11.8125H75.5038V2.77501Z" fill="#0C31A9"/>
<path d="M75.5909 2.77501H75.5028V11.8125H75.5909V2.77501Z" fill="#0B31A8"/>
<path d="M75.6779 2.77501H75.5899V11.8125H75.6779V2.77501Z" fill="#0B30A7"/>
<path d="M75.765 2.77501H75.677V11.8125H75.765V2.77501Z" fill="#0B30A6"/>
<path d="M75.852 2.77501H75.764V11.8125H75.852V2.77501Z" fill="#0A2FA5"/>
<path d="M75.9392 2.77501H75.8512V11.8125H75.9392V2.77501Z" fill="#0A2FA4"/>
<path d="M76.0262 2.77501H75.9382V11.8125H76.0262V2.77501Z" fill="#0A2EA3"/>
<path d="M76.1134 2.77501H76.0253V11.8125H76.1134V2.77501Z" fill="#092EA2"/>
<path d="M76.2004 2.77501H76.1123V11.8125H76.2004V2.77501Z" fill="#092DA1"/>
<path d="M76.2875 2.77501H76.1995V11.8125H76.2875V2.77501Z" fill="#092DA0"/>
<path d="M76.3745 2.77501H76.2865V11.8125H76.3745V2.77501Z" fill="#082C9F"/>
<path d="M76.4616 2.77501H76.3736V11.8125H76.4616V2.77501Z" fill="#082C9E"/>
<path d="M76.5487 2.77501H76.4607V11.8125H76.5487V2.77501Z" fill="#082B9D"/>
<path d="M76.6358 2.77501H76.5478V11.8125H76.6358V2.77501Z" fill="#082B9C"/>
<path d="M76.6444 2.77501H76.6348V11.8125H76.6444V2.77501Z" fill="#072A9B"/>
<path d="M68.0141 0.713638H67.8379V18.8726H68.0141V0.713638Z" fill="#265CFF"/>
<path d="M68.1022 0.713638H68.0142V18.8726H68.1022V0.713638Z" fill="#265CFF"/>
<path d="M68.1892 0.713638H68.1012V18.8726H68.1892V0.713638Z" fill="#265BFE"/>
<path d="M68.2764 0.713638H68.1883V18.8726H68.2764V0.713638Z" fill="#255BFD"/>
<path d="M68.3634 0.713638H68.2754V18.8726H68.3634V0.713638Z" fill="#255AFC"/>
<path d="M68.4505 0.713638H68.3625V18.8726H68.4505V0.713638Z" fill="#255AFB"/>
<path d="M68.5375 0.713638H68.4495V18.8726H68.5375V0.713638Z" fill="#2459FA"/>
<path d="M68.6247 0.713638H68.5367V18.8726H68.6247V0.713638Z" fill="#2459F9"/>
<path d="M68.7117 0.713638H68.6237V18.8726H68.7117V0.713638Z" fill="#2458F8"/>
<path d="M68.7988 0.713638H68.7108V18.8726H68.7988V0.713638Z" fill="#2458F7"/>
<path d="M68.8859 0.713638H68.7978V18.8726H68.8859V0.713638Z" fill="#2357F6"/>
<path d="M68.973 0.713638H68.885V18.8726H68.973V0.713638Z" fill="#2357F5"/>
<path d="M69.06 0.713638H68.972V18.8726H69.06V0.713638Z" fill="#2356F4"/>
<path d="M69.1471 0.713638H69.0591V18.8726H69.1471V0.713638Z" fill="#2256F3"/>
<path d="M69.2342 0.713638H69.1461V18.8726H69.2342V0.713638Z" fill="#2255F2"/>
<path d="M69.3213 0.713638H69.2332V18.8726H69.3213V0.713638Z" fill="#2255F1"/>
<path d="M69.4083 0.713638H69.3203V18.8726H69.4083V0.713638Z" fill="#2154F0"/>
<path d="M69.4954 0.713638H69.4074V18.8726H69.4954V0.713638Z" fill="#2154EF"/>
<path d="M69.5825 0.713638H69.4945V18.8726H69.5825V0.713638Z" fill="#2153EE"/>
<path d="M69.6696 0.713638H69.5816V18.8726H69.6696V0.713638Z" fill="#2053ED"/>
<path d="M69.7566 0.713638H69.6686V18.8726H69.7566V0.713638Z" fill="#2052EC"/>
<path d="M69.8438 0.713638H69.7557V18.8726H69.8438V0.713638Z" fill="#2052EB"/>
<path d="M69.9308 0.713638H69.8428V18.8726H69.9308V0.713638Z" fill="#1F51EA"/>
<path d="M70.0179 0.713638H69.9299V18.8726H70.0179V0.713638Z" fill="#1F51E9"/>
<path d="M70.1049 0.713638H70.0169V18.8726H70.1049V0.713638Z" fill="#1F50E8"/>
<path d="M70.192 0.713638H70.104V18.8726H70.192V0.713638Z" fill="#1F50E7"/>
<path d="M70.2791 0.713638H70.1911V18.8726H70.2791V0.713638Z" fill="#1E4FE6"/>
<path d="M70.3662 0.713638H70.2782V18.8726H70.3662V0.713638Z" fill="#1E4FE5"/>
<path d="M70.4533 0.713638H70.3652V18.8726H70.4533V0.713638Z" fill="#1E4EE4"/>
<path d="M70.5404 0.713638H70.4523V18.8726H70.5404V0.713638Z" fill="#1D4EE3"/>
<path d="M70.6274 0.713638H70.5394V18.8726H70.6274V0.713638Z" fill="#1D4DE2"/>
<path d="M70.7145 0.713638H70.6265V18.8726H70.7145V0.713638Z" fill="#1D4DE1"/>
<path d="M70.8016 0.713638H70.7135V18.8726H70.8016V0.713638Z" fill="#1C4CE0"/>
<path d="M70.8887 0.713638H70.8007V18.8726H70.8887V0.713638Z" fill="#1C4CDF"/>
<path d="M70.9757 0.713638H70.8877V18.8726H70.9757V0.713638Z" fill="#1C4BDE"/>
<path d="M71.0628 0.713638H70.9748V18.8726H71.0628V0.713638Z" fill="#1B4BDD"/>
<path d="M71.1499 0.713638H71.0618V18.8726H71.1499V0.713638Z" fill="#1B4ADC"/>
<path d="M71.237 0.713638H71.149V18.8726H71.237V0.713638Z" fill="#1B4ADB"/>
<path d="M71.324 0.713638H71.236V18.8726H71.324V0.713638Z" fill="#1A49DA"/>
<path d="M71.4111 0.713638H71.3231V18.8726H71.4111V0.713638Z" fill="#1A49D9"/>
<path d="M71.4982 0.713638H71.4102V18.8726H71.4982V0.713638Z" fill="#1A48D8"/>
<path d="M71.5853 0.713638H71.4973V18.8726H71.5853V0.713638Z" fill="#1A48D7"/>
<path d="M71.6724 0.713638H71.5843V18.8726H71.6724V0.713638Z" fill="#1947D6"/>
<path d="M71.7595 0.713638H71.6714V18.8726H71.7595V0.713638Z" fill="#1947D5"/>
<path d="M71.8465 0.713638H71.7585V18.8726H71.8465V0.713638Z" fill="#1946D4"/>
<path d="M71.9336 0.713638H71.8456V18.8726H71.9336V0.713638Z" fill="#1846D3"/>
<path d="M72.0206 0.713638H71.9326V18.8726H72.0206V0.713638Z" fill="#1845D2"/>
<path d="M72.1078 0.713638H72.0197V18.8726H72.1078V0.713638Z" fill="#1845D1"/>
<path d="M72.1948 0.713638H72.1068V18.8726H72.1948V0.713638Z" fill="#1744D0"/>
<path d="M72.2819 0.713638H72.1939V18.8726H72.2819V0.713638Z" fill="#1744CF"/>
<path d="M72.369 0.713638H72.2809V18.8726H72.369V0.713638Z" fill="#1743CE"/>
<path d="M72.4561 0.713638H72.368V18.8726H72.4561V0.713638Z" fill="#1643CD"/>
<path d="M72.5431 0.713638H72.4551V18.8726H72.5431V0.713638Z" fill="#1642CC"/>
<path d="M72.6302 0.713638H72.5422V18.8726H72.6302V0.713638Z" fill="#1642CB"/>
<path d="M72.7173 0.713638H72.6292V18.8726H72.7173V0.713638Z" fill="#1641CA"/>
<path d="M72.8044 0.713638H72.7164V18.8726H72.8044V0.713638Z" fill="#1541C9"/>
<path d="M72.8914 0.713638H72.8034V18.8726H72.8914V0.713638Z" fill="#1540C8"/>
<path d="M72.9785 0.713638H72.8905V18.8726H72.9785V0.713638Z" fill="#1540C7"/>
<path d="M73.0656 0.713638H72.9776V18.8726H73.0656V0.713638Z" fill="#143FC6"/>
<path d="M73.1527 0.713638H73.0647V18.8726H73.1527V0.713638Z" fill="#143FC5"/>
<path d="M73.2397 0.713638H73.1517V18.8726H73.2397V0.713638Z" fill="#143EC4"/>
<path d="M73.3269 0.713638H73.2388V18.8726H73.3269V0.713638Z" fill="#133EC2"/>
<path d="M73.4139 0.713638H73.3259V18.8726H73.4139V0.713638Z" fill="#133DC1"/>
<path d="M73.501 0.713638H73.413V18.8726H73.501V0.713638Z" fill="#133DC0"/>
<path d="M73.588 0.713638H73.5V18.8726H73.588V0.713638Z" fill="#123CBF"/>
<path d="M73.6752 0.713638H73.5871V18.8726H73.6752V0.713638Z" fill="#123CBE"/>
<path d="M73.7622 0.713638H73.6742V18.8726H73.7622V0.713638Z" fill="#123BBD"/>
<path d="M73.8493 0.713638H73.7613V18.8726H73.8493V0.713638Z" fill="#113BBC"/>
<path d="M73.9364 0.713638H73.8483V18.8726H73.9364V0.713638Z" fill="#113ABB"/>
<path d="M74.0235 0.713638H73.9355V18.8726H74.0235V0.713638Z" fill="#113ABA"/>
<path d="M74.1105 0.713638H74.0225V18.8726H74.1105V0.713638Z" fill="#1139B9"/>
<path d="M74.1976 0.713638H74.1096V18.8726H74.1976V0.713638Z" fill="#1039B8"/>
<path d="M74.2847 0.713638H74.1967V18.8726H74.2847V0.713638Z" fill="#1038B7"/>
<path d="M74.3718 0.713638H74.2838V18.8726H74.3718V0.713638Z" fill="#1038B6"/>
<path d="M74.4588 0.713638H74.3708V18.8726H74.4588V0.713638Z" fill="#0F37B5"/>
<path d="M74.5459 0.713638H74.4579V18.8726H74.5459V0.713638Z" fill="#0F37B4"/>
<path d="M74.633 0.713638H74.545V18.8726H74.633V0.713638Z" fill="#0F36B3"/>
<path d="M74.7201 0.713638H74.6321V18.8726H74.7201V0.713638Z" fill="#0E36B2"/>
<path d="M74.8071 0.713638H74.7191V18.8726H74.8071V0.713638Z" fill="#0E35B1"/>
<path d="M74.8943 0.713638H74.8062V18.8726H74.8943V0.713638Z" fill="#0E35B0"/>
<path d="M74.9813 0.713638H74.8932V18.8726H74.9813V0.713638Z" fill="#0D34AF"/>
<path d="M75.0684 0.713638H74.9804V18.8726H75.0684V0.713638Z" fill="#0D34AE"/>
<path d="M75.1555 0.713638H75.0674V18.8726H75.1555V0.713638Z" fill="#0D33AD"/>
<path d="M75.2426 0.713638H75.1546V18.8726H75.2426V0.713638Z" fill="#0D33AC"/>
<path d="M75.3296 0.713638H75.2416V18.8726H75.3296V0.713638Z" fill="#0C32AB"/>
<path d="M75.4167 0.713638H75.3287V18.8726H75.4167V0.713638Z" fill="#0C32AA"/>
<path d="M75.5038 0.713638H75.4157V18.8726H75.5038V0.713638Z" fill="#0C31A9"/>
<path d="M75.5909 0.713638H75.5028V18.8726H75.5909V0.713638Z" fill="#0B31A8"/>
<path d="M75.6779 0.713638H75.5899V18.8726H75.6779V0.713638Z" fill="#0B30A7"/>
<path d="M75.765 0.713638H75.677V18.8726H75.765V0.713638Z" fill="#0B30A6"/>
<path d="M75.852 0.713638H75.764V18.8726H75.852V0.713638Z" fill="#0A2FA5"/>
<path d="M75.9392 0.713638H75.8512V18.8726H75.9392V0.713638Z" fill="#0A2FA4"/>
<path d="M76.0262 0.713638H75.9382V18.8726H76.0262V0.713638Z" fill="#0A2EA3"/>
<path d="M76.1134 0.713638H76.0253V18.8726H76.1134V0.713638Z" fill="#092EA2"/>
<path d="M76.2004 0.713638H76.1123V18.8726H76.2004V0.713638Z" fill="#092DA1"/>
<path d="M76.2875 0.713638H76.1995V18.8726H76.2875V0.713638Z" fill="#092DA0"/>
<path d="M76.3745 0.713638H76.2865V18.8726H76.3745V0.713638Z" fill="#082C9F"/>
<path d="M76.4616 0.713638H76.3736V18.8726H76.4616V0.713638Z" fill="#082C9E"/>
<path d="M76.5487 0.713638H76.4607V18.8726H76.5487V0.713638Z" fill="#082B9D"/>
<path d="M76.6358 0.713638H76.5478V18.8726H76.6358V0.713638Z" fill="#082B9C"/>
<path d="M76.7229 0.713638H76.6348V18.8726H76.7229V0.713638Z" fill="#072A9B"/>
<path d="M76.8099 0.713638H76.7219V18.8726H76.8099V0.713638Z" fill="#072A9A"/>
<path d="M76.897 0.713638H76.809V18.8726H76.897V0.713638Z" fill="#072999"/>
<path d="M76.9841 0.713638H76.8961V18.8726H76.9841V0.713638Z" fill="#062998"/>
<path d="M77.0711 0.713638H76.9831V18.8726H77.0711V0.713638Z" fill="#062897"/>
<path d="M77.1583 0.713638H77.0702V18.8726H77.1583V0.713638Z" fill="#062896"/>
<path d="M77.2453 0.713638H77.1573V18.8726H77.2453V0.713638Z" fill="#052795"/>
<path d="M77.3324 0.713638H77.2444V18.8726H77.3324V0.713638Z" fill="#052794"/>
<path d="M77.4195 0.713638H77.3314V18.8726H77.4195V0.713638Z" fill="#052693"/>
<path d="M77.5066 0.713638H77.4186V18.8726H77.5066V0.713638Z" fill="#042692"/>
<path d="M77.5936 0.713638H77.5056V18.8726H77.5936V0.713638Z" fill="#042591"/>
<path d="M77.6807 0.713638H77.5927V18.8726H77.6807V0.713638Z" fill="#042590"/>
<path d="M77.7678 0.713638H77.6797V18.8726H77.7678V0.713638Z" fill="#03248F"/>
<path d="M77.8549 0.713638H77.7669V18.8726H77.8549V0.713638Z" fill="#03248E"/>
<path d="M77.9419 0.713638H77.8539V18.8726H77.9419V0.713638Z" fill="#03238D"/>
<path d="M78.029 0.713638H77.941V18.8726H78.029V0.713638Z" fill="#03238C"/>
<path d="M78.1161 0.713638H78.0281V18.8726H78.1161V0.713638Z" fill="#02228B"/>
<path d="M78.2032 0.713638H78.1152V18.8726H78.2032V0.713638Z" fill="#02228A"/>
<path d="M78.2902 0.713638H78.2022V18.8726H78.2902V0.713638Z" fill="#022189"/>
<path d="M78.3774 0.713638H78.2893V18.8726H78.3774V0.713638Z" fill="#012188"/>
<path d="M78.4644 0.713638H78.3764V18.8726H78.4644V0.713638Z" fill="#012087"/>
<path d="M78.4971 0.71373H78.4634V18.8727H78.4971V0.71373Z" fill="#012087"/>
</g>
<path d="M45.7196 19.5364C44.0685 19.5364 42.4173 19.5403 40.7662 19.5331C40.444 19.5317 40.1189 19.5075 39.8006 19.458C39.2261 19.3686 38.7777 19.0798 38.4892 18.5487C38.3263 18.2488 38.2494 18.2464 38.0646 18.5229C37.6883 19.0859 37.1254 19.3493 36.5016 19.4004C35.4604 19.4855 34.4129 19.5157 33.3679 19.5191C32.727 19.5212 32.1781 19.2313 31.7461 18.7423C31.588 18.5633 31.44 18.3745 31.295 18.1841C31.1614 18.0088 31.0398 18.0312 30.9464 18.2081C30.478 19.096 29.689 19.4585 28.7587 19.4957C27.5303 19.5449 26.2992 19.5237 25.0692 19.5332C24.8815 19.5346 24.7922 19.4406 24.7927 19.2514C24.7936 18.945 24.8036 18.638 24.7882 18.3324C24.7737 18.043 24.8973 17.9514 25.172 17.9538C26.2511 17.9632 27.3305 17.9676 28.4094 17.9502C28.7621 17.9446 29.1241 17.9065 29.4636 17.8142C30.1373 17.6311 30.389 17.1502 30.0931 16.506C29.8219 15.9156 29.4569 15.3667 29.1065 14.8169C28.6089 14.0363 28.0923 13.2678 27.5719 12.5025C27.4123 12.2679 27.4277 12.1227 27.685 11.9846C27.9513 11.8415 28.1997 11.6643 28.4564 11.5027C28.8044 11.2838 28.8431 11.292 29.0579 11.6533C29.7544 12.8245 30.4376 14.004 31.1491 15.1656C31.6034 15.9072 32.0806 16.6362 32.5823 17.3455C32.9117 17.8111 33.3924 18.0052 33.97 17.9633C34.5075 17.9243 35.0492 17.9411 35.5858 17.8944C36.4321 17.8208 36.8048 17.4167 36.8181 16.5511C36.8353 15.4351 36.8232 14.3188 36.8251 13.2026C36.8259 12.7757 36.8424 12.7604 37.2633 12.7587C37.5115 12.7577 37.7603 12.77 38.0077 12.756C38.2933 12.7398 38.3842 12.8691 38.3805 13.1471C38.3694 13.9676 38.3694 14.7886 38.38 15.6092C38.3851 16.0022 38.3981 16.3987 38.4534 16.7869C38.5439 17.4225 38.8976 17.7886 39.4675 17.9194C39.7372 17.9814 39.8931 17.9146 40.0289 17.6405C40.4782 16.7336 40.8985 15.8012 41.4501 14.9596C42.408 13.4981 43.6836 12.3833 45.3442 11.7872C46.4297 11.3975 47.5438 11.3259 48.6577 11.6229C50.2179 12.0388 51.0987 13.117 51.4115 14.6905C51.4941 15.1057 51.5331 15.5353 51.5406 15.9593C51.5595 17.0204 51.5407 18.0822 51.5551 19.1435C51.5592 19.4469 51.451 19.5416 51.1587 19.5401C49.3457 19.5306 47.5326 19.5353 45.7196 19.5353V19.5364ZM45.8207 17.9583V17.9565C47.0825 17.9565 48.3443 17.9544 49.606 17.9583C49.8431 17.959 50.0102 17.9048 50.0048 17.6182C49.9935 17.017 50.0241 16.4125 49.973 15.815C49.8135 13.9494 48.7607 13.0097 46.9146 13.0405C45.7629 13.0597 44.8135 13.5792 43.9661 14.3061C43.0201 15.1175 42.3398 16.1355 41.8521 17.2885C41.5694 17.9567 41.569 17.959 42.2942 17.9585C43.4697 17.9576 44.6452 17.9583 45.8207 17.9583Z" fill="#012087" stroke="#012087" stroke-width="0.5"/>
<path d="M22.6454 15.6361C22.6454 16.7744 22.6457 17.9127 22.6452 19.0511C22.6449 19.5202 22.6298 19.5369 22.1768 19.5372C20.3418 19.5384 18.5068 19.5378 16.6718 19.5391C16.2084 19.5394 16.1945 19.5587 16.11 20.0201C15.7144 22.1819 14.3995 23.5152 12.3516 24.0315C10.0113 24.6215 7.65772 24.6018 5.39253 23.6385C3.9369 23.0195 3.03603 21.8852 2.8783 20.2823C2.76089 19.0892 2.805 17.8798 2.77572 16.6777C2.7706 16.4675 2.87255 16.3823 3.07291 16.3849C3.37509 16.3889 3.67782 16.3951 3.97947 16.3813C4.2464 16.369 4.3406 16.4828 4.34066 16.7488C4.34086 17.6023 4.33712 18.4566 4.37265 19.309C4.43704 20.8538 5.24064 21.8795 6.65805 22.3602C7.31419 22.5827 8.0231 22.6871 8.71627 22.7461C9.84794 22.8423 10.9833 22.8023 12.0913 22.4992C12.7885 22.3085 13.424 21.9998 13.9375 21.463C14.3379 21.0444 14.5585 20.5489 14.6111 19.9728C14.644 19.6129 14.5848 19.5423 14.2295 19.54C13.4847 19.5351 12.7379 19.5695 11.9958 19.5241C11.4842 19.4928 10.9581 19.4175 10.4752 19.2519C9.29637 18.8478 8.65982 17.9598 8.51789 16.7186C8.32367 15.0201 8.75402 13.5256 10.1034 12.4339C12.3274 10.6348 15.3995 11.7606 15.9786 14.597C16.165 15.5098 16.1691 16.463 16.2287 17.3995C16.262 17.9233 16.2651 17.9557 16.7858 17.9562C18.0595 17.9574 19.3333 17.9576 20.607 17.9567C21.0579 17.9564 21.0995 17.9135 21.0998 17.4421C21.1012 15.6798 21.1071 13.9176 21.0957 12.1554C21.0936 11.8337 21.182 11.6881 21.517 11.7171C21.7741 11.7393 22.0352 11.7315 22.2936 11.7181C22.5641 11.704 22.6521 11.8264 22.6504 12.0897C22.6427 13.2718 22.647 14.4539 22.647 15.6361L22.6454 15.6361ZM13.1676 18.0191C13.1701 17.9983 13.1726 17.9775 13.175 17.9567C13.5093 17.9567 13.8436 17.9578 14.1779 17.9564C14.5879 17.9546 14.6316 17.9148 14.6345 17.5139C14.6374 17.1094 14.6729 16.6993 14.6212 16.3014C14.5388 15.667 14.447 15.0251 14.266 14.4148C14.0406 13.6543 13.4703 13.2486 12.6914 13.1468C11.8465 13.0363 11.1293 13.2659 10.5973 13.9634C10.1197 14.5896 9.96445 15.3134 10.0032 16.0934C10.0453 16.9435 10.4735 17.5799 11.2856 17.779C11.8964 17.9286 12.5391 17.944 13.1676 18.0191Z" fill="#012087" stroke="#012087" stroke-width="0.5"/>
<path d="M22.4073 23.7327C21.8436 23.7402 21.3852 23.2935 21.38 22.7318C21.3747 22.1691 21.8175 21.7155 22.382 21.7054C22.9479 21.6953 23.4024 22.1402 23.4033 22.7049C23.4041 23.2851 22.9777 23.7252 22.4073 23.7327Z" fill="#012087" stroke="#012087" stroke-width="0.5"/>
<path d="M10.2753 8.19304C10.2736 7.61956 10.7086 7.1822 11.2815 7.18135C11.8558 7.18051 12.2898 7.61215 12.2927 8.18698C12.2956 8.75276 11.8516 9.20216 11.286 9.20586C10.728 9.20952 10.2769 8.7575 10.2753 8.19304Z" fill="#012087" stroke="#012087" stroke-width="0.5"/>
<path d="M18.7529 22.7111C18.7573 22.1245 19.1789 21.7028 19.7591 21.7045C20.3218 21.7062 20.762 22.1574 20.7574 22.7279C20.7528 23.298 20.3129 23.7341 19.7417 23.7348C19.1696 23.7355 18.7485 23.2996 18.7529 22.7111Z" fill="#012087" stroke="#012087" stroke-width="0.5"/>
<path d="M14.932 8.20024C14.9274 8.76506 14.4775 9.2126 13.9199 9.20696C13.3596 9.20128 12.923 8.7495 12.9268 8.17954C12.9307 7.60196 13.3624 7.17662 13.94 7.18119C14.5166 7.18575 14.9366 7.61724 14.932 8.20024Z" fill="#012087" stroke="#012087" stroke-width="0.5"/>
<defs>
<linearGradient id="paint0_linear_2004_85" x1="58.8528" y1="15.8046" x2="87.9913" y2="15.8046" gradientUnits="userSpaceOnUse">
<stop stop-color="#265CFF"/>
<stop offset="0.00066" stop-color="#265CFF"/>
<stop offset="1" stop-color="#012087"/>
</linearGradient>
<linearGradient id="paint1_linear_2004_85" x1="58.4802" y1="7.92469" x2="69.6995" y2="7.92469" gradientUnits="userSpaceOnUse">
<stop stop-color="#265CFF"/>
<stop offset="0.00066" stop-color="#265CFF"/>
<stop offset="1" stop-color="#012087"/>
</linearGradient>
</defs>
</svg>
