<svg width="85" height="34" viewBox="0 0 85 34" fill="none" xmlns="http://www.w3.org/2000/svg">
<path d="M78.0109 20.5959C79.4208 20.5959 80.9911 22.8644 80.9911 26.1188C80.9911 29.3738 79.4208 31.6416 78.0109 31.6416C76.6011 31.6416 75.0308 29.3738 75.0308 26.1188C75.0308 22.8644 76.6011 20.5959 78.0109 20.5959Z" fill="#E6E6E6"/>
<path d="M78.0111 23.408C78.7031 23.408 79.4739 24.5214 79.4739 26.1188C79.4739 27.7165 78.7031 28.8296 78.0111 28.8296C77.3191 28.8296 76.5483 27.7165 76.5483 26.1188C76.5483 24.5214 77.3191 23.408 78.0111 23.408Z" fill="#265CFF"/>
<path d="M41.0227 19.5638C42.6172 19.5638 44.3937 22.1293 44.3937 25.8108C44.3937 29.4916 42.6172 32.0571 41.0227 32.0571C39.4283 32.0571 37.6523 29.4916 37.6523 25.8108C37.6523 22.1293 39.4283 19.5638 41.0227 19.5638Z" fill="#E6E6E6"/>
<path d="M41.0228 22.6615C41.8266 22.6615 42.7222 23.9548 42.7222 25.8107C42.7222 27.6663 41.8266 28.9596 41.0228 28.9596C40.219 28.9596 39.3237 27.6663 39.3237 25.8107C39.3237 23.9548 40.219 22.6615 41.0228 22.6615Z" fill="#265CFF"/>
<path d="M82.4499 26.1188C82.4499 27.3461 82.2495 28.4999 81.8967 29.5025C81.1404 31.6557 79.6836 33.1136 78.0111 33.1136C75.5595 33.1136 73.5723 29.9821 73.5723 26.1188C73.5723 22.2561 75.5595 19.1246 78.0111 19.1246C80.4628 19.1246 82.4499 22.2561 82.4499 26.1188ZM80.9913 26.1188C80.9913 22.8644 79.4209 20.5959 78.0111 20.5959C76.6013 20.5959 75.0309 22.8644 75.0309 26.1188C75.0309 29.3738 76.6013 31.6416 78.0111 31.6416C79.4209 31.6416 80.9913 29.3738 80.9913 26.1188Z" fill="#333333"/>
<path d="M49.7941 33.4605H45.9352C45.1364 33.4605 44.3566 33.1167 43.6631 32.5405C44.0704 32.1429 44.4391 31.6557 44.7582 31.0961H45.847C45.847 31.0961 45.9878 31.0993 46.255 31.1031C47.1508 32.5571 48.4058 33.4605 49.7941 33.4605Z" fill="#1A1A1A"/>
<path d="M46.2554 31.1031C47.2172 31.1198 49.8123 31.155 53.3127 31.139C52.4181 32.5719 51.1726 33.4606 49.7952 33.4606H49.7945C48.4063 33.4606 47.1513 32.5572 46.2554 31.1031Z" fill="#333333"/>
<path d="M78.011 19.124V19.1247C75.5594 19.1247 73.5722 22.2561 73.5722 26.1188C73.5722 29.9821 75.5594 33.1136 78.011 33.1136H74.5417C73.1604 33.1136 71.9257 32.1193 71.1123 30.5596C72.1903 30.301 72.9802 29.3207 72.972 28.1663C72.9682 27.6234 72.9701 27.1144 72.9828 26.8103C72.9834 26.793 72.9828 26.7763 72.9834 26.7591C73.05 23.431 74.1401 20.5479 75.7447 19.124H78.011Z" fill="#1A1A1A"/>
<path d="M37.9687 17.8992H41.0225C38.2498 17.8992 36.0025 21.4417 36.0025 25.8108C36.0025 30.1799 38.2498 33.7218 41.0225 33.7218H37.0982C35.4911 33.7218 34.0597 32.5316 33.1416 30.6799C34.2938 30.363 35.1339 29.3002 35.1339 28.0459V26.4344C35.1339 22.8067 36.2709 19.633 37.9687 17.8992Z" fill="#1A1A1A"/>
<path d="M46.0431 25.8108C46.0431 27.2744 45.7912 28.6452 45.3509 29.8214C45.1809 30.2779 44.9816 30.7049 44.7583 31.0961C44.4392 31.6557 44.0705 32.1429 43.6632 32.5405C42.8961 33.2896 41.9913 33.7218 41.0225 33.7218C38.2498 33.7218 36.0024 30.1799 36.0024 25.8108C36.0024 21.4417 38.2498 17.8992 41.0225 17.8992C43.7958 17.8992 46.0431 21.4417 46.0431 25.8108ZM44.3935 25.8108C44.3935 22.1293 42.6169 19.5638 41.0225 19.5638C39.428 19.5638 37.6521 22.1293 37.6521 25.8108C37.6521 29.4916 39.428 32.0571 41.0225 32.0571C42.6169 32.0571 44.3935 29.4916 44.3935 25.8108Z" fill="#333333"/>
<path d="M15.0094 30.9867C14.1091 32.5085 12.8249 33.4606 11.3992 33.4606C9.88468 33.4606 8.52943 32.3863 7.62402 30.6947C9.9805 30.8471 12.4956 30.9386 15.0094 30.9867Z" fill="#1A1A1A"/>
<path d="M11.3991 33.4606H7.53953C5.95903 33.4606 4.45023 32.1135 3.54736 30.2926C3.80116 30.356 4.06066 30.4014 4.32398 30.4277C5.37468 30.5321 6.48058 30.6204 7.62392 30.6947C8.52932 32.3862 9.88458 33.4606 11.3991 33.4606Z" fill="#333333"/>
<path d="M83.0539 25.8934C83.0729 26.195 83.0824 26.5004 83.0824 26.8103C83.0824 27.674 83.0082 28.5076 82.8699 29.2938C82.7836 29.3214 82.2703 29.4283 81.8966 29.5026C82.2493 28.4999 82.4498 27.3462 82.4498 26.1188C82.4498 22.2562 80.4626 19.1247 78.011 19.1247V19.124H75.7446C76.4273 18.5171 77.2027 18.1752 78.0326 18.1752C80.6403 18.1752 82.7868 21.5557 83.0539 25.8934Z" fill="#12223D"/>
<path d="M46.7532 26.4344C46.7532 27.6239 46.6307 28.7642 46.4067 29.8213H45.351C45.7913 28.6452 46.0432 27.2744 46.0432 25.8107C46.0432 21.4416 43.7958 17.8991 41.0225 17.8991H37.9688C38.8386 17.0104 39.8557 16.4995 40.9432 16.4995C44.1518 16.4995 46.7532 20.9474 46.7532 26.4344Z" fill="#12223D"/>
<path d="M3.74595 16.038C4.06065 16.5175 4.12791 17.1078 3.95406 17.6373C3.89949 17.8063 3.81955 17.969 3.71486 18.1201C3.45155 18.5023 3.16983 18.8679 2.89066 19.2053C1.31969 18.8378 1.00244 17.6898 1.00244 17.6898C1.72449 15.723 2.58421 14.7651 2.58421 14.7651C3.0163 15.0315 3.42871 15.5546 3.74595 16.038Z" fill="#E6E6E6"/>
<path d="M19.9194 17.6373C19.8744 17.0002 20.1409 16.3472 20.698 15.9406C20.698 15.9406 20.6986 15.9406 20.6992 15.94C20.8026 15.8983 26.9114 13.4308 35.8209 13.9436C35.8209 13.9436 27.452 20.7534 20.9771 19.2501C20.875 19.1771 20.7722 19.1022 20.6707 19.0253C20.2031 18.6719 19.9562 18.1604 19.9194 17.6373Z" fill="#E6E6E6"/>
<path d="M63.81 12.5428C63.8246 12.8873 63.5594 13.1773 63.2181 13.1921L61.1395 13.2791C60.7981 13.2932 60.5101 13.0262 60.4961 12.6818C60.4822 12.3373 60.7468 12.0466 61.0881 12.0326L63.1667 11.9455C63.508 11.9314 63.7961 12.1984 63.81 12.5428Z" fill="#0313A6"/>
<path d="M51.9528 7.15509C52.2161 7.44257 52.3754 7.82736 52.3754 8.24672C52.3754 9.08546 51.7371 9.78398 50.9085 9.8512L48.6104 10.0375C48.5691 10.0407 48.5292 10.0394 48.4905 10.0343C48.2227 9.99718 48.0127 9.76541 48.0127 9.48114V8.0412C48.0127 7.16086 48.7569 6.46746 49.6268 6.53789L50.9085 6.64224C51.3228 6.67618 51.6895 6.86698 51.9528 7.15509Z" fill="#1B4EE9"/>
<path d="M48.4904 10.0342L45.2101 10.5221L44.9722 10.5573C44.8155 10.5804 44.681 10.4459 44.7013 10.2878L44.7952 9.56366C44.804 9.49579 44.8307 9.43433 44.87 9.38375V9.38311C44.9341 9.30052 45.0318 9.24609 45.1422 9.23969L48.0126 9.08667V9.48107C48.0126 9.76534 48.2226 9.99711 48.4904 10.0342Z" fill="#0313A6"/>
<path d="M64.7694 10.3102C64.4782 10.3256 64.187 10.341 63.8957 10.3551C63.3875 5.05054 62.6395 2.45367 62.3457 1.59253C62.6464 1.6239 62.9485 1.66104 63.2498 1.70457C63.5557 2.62141 64.2739 5.19396 64.7694 10.3102Z" fill="#0313A6"/>
<path d="M69.2041 3.30701L70.4622 9.96636C70.8463 9.94049 71.2305 9.91504 71.6142 9.88797L70.3861 3.81812C69.9954 3.63783 69.6014 3.46679 69.2041 3.30701Z" fill="#A0C9F9"/>
<path d="M70.3862 3.81812L71.6143 9.88796C71.6158 9.88787 71.6172 9.88777 71.6187 9.88767C71.7024 9.88175 71.784 9.87205 71.8639 9.85929L70.6832 3.95748C70.5844 3.91038 70.4855 3.8639 70.3862 3.81812Z" fill="white" fill-opacity="0.3"/>
<path d="M70.6831 3.95752L71.8638 9.85933C72.1515 9.81335 72.4137 9.72415 72.6485 9.6009L71.5614 4.39923C71.2708 4.24647 70.9784 4.09833 70.6831 3.95752Z" fill="#A0C9F9"/>
<path d="M72.7028 5.03794C72.3274 4.81383 71.9465 4.60161 71.5615 4.39917L72.6487 9.60084C73.0208 9.40555 73.3231 9.12414 73.5486 8.79344L72.7028 5.03794Z" fill="white" fill-opacity="0.3"/>
<path d="M72.7651 5.07488C72.7444 5.06239 72.7234 5.05037 72.7026 5.03796L73.5485 8.79347C74.3247 7.65484 74.1813 5.92694 72.7651 5.07488Z" fill="#A0C9F9"/>
<path d="M68.4214 3.005L69.7867 10.0123C70.012 9.99744 70.2371 9.98147 70.4623 9.96629L69.2042 3.30694C68.9443 3.20243 68.6836 3.10071 68.4214 3.005Z" fill="white" fill-opacity="0.3"/>
<path d="M63.25 1.70459C63.5558 2.62143 64.274 5.19398 64.7696 10.3103C66.4454 10.2217 68.1177 10.1222 69.7869 10.0124L68.4216 3.00509C66.7264 2.38644 64.9859 1.95191 63.25 1.70459Z" fill="#A0C9F9"/>
<path d="M44.9799 9.08482C44.9291 9.18278 44.8923 9.28267 44.8701 9.38318C44.9342 9.30059 45.0319 9.24617 45.1423 9.23977L48.0127 9.08675V8.04121C48.0127 7.16086 48.757 6.46746 49.6268 6.53789L50.9085 6.64225C51.3228 6.67618 51.6895 6.86698 51.9528 7.1551C52.2162 7.44257 52.3754 7.82736 52.3754 8.24673C52.3754 9.08547 51.7371 9.78398 50.9085 9.85121L48.6104 10.0375C48.5692 10.0407 48.5292 10.0394 48.4905 10.0343L45.2102 10.5222C45.4208 10.7277 45.7102 10.8577 46.0426 10.8558C50.6872 10.828 55.3075 10.7211 59.9034 10.5356L58.0308 1.52344C52.3847 1.95492 47.3829 4.48571 44.9799 9.08482Z" fill="#A0C9F9"/>
<path d="M60.7402 1.47729L62.5294 10.4206C62.6613 10.4145 62.793 10.4078 62.9249 10.4016L61.0167 1.4903C60.9245 1.48569 60.8323 1.4809 60.7402 1.47729Z" fill="white" fill-opacity="0.3"/>
<path d="M62.3456 1.59248C61.9013 1.54552 61.4581 1.51235 61.0166 1.49023L62.9248 10.4016C63.2485 10.3864 63.5723 10.3714 63.8956 10.355C63.3874 5.05051 62.6393 2.45363 62.3456 1.59248Z" fill="#A0C9F9"/>
<path d="M58.7129 1.48281L60.6511 10.5036C60.8812 10.4939 61.1109 10.4831 61.3408 10.4731L59.4475 1.46204C59.2018 1.46553 58.9567 1.47153 58.7129 1.48281Z" fill="#A0C9F9"/>
<path d="M59.4473 1.46211L61.3406 10.4731C61.6437 10.4599 61.9468 10.4465 62.2499 10.4329L60.4912 1.46931C60.1418 1.45945 59.7937 1.45718 59.4473 1.46211Z" fill="white" fill-opacity="0.3"/>
<path d="M60.74 1.47721C60.657 1.47395 60.5741 1.47157 60.4912 1.46924L62.2499 10.4328C62.343 10.4287 62.4361 10.4248 62.5292 10.4205L60.74 1.47721Z" fill="#A0C9F9"/>
<path d="M58.0308 1.52345L59.9034 10.5356C60.1528 10.5255 60.4018 10.5142 60.651 10.5037L58.7129 1.48291C58.4846 1.49348 58.257 1.50616 58.0308 1.52345Z" fill="white" fill-opacity="0.3"/>
<path d="M35.1529 0.769105C32.1528 1.33042 29.4774 2.17184 27.1465 3.1219L38.1626 0.365234C37.0388 0.474066 36.0184 0.60725 35.1529 0.769105Z" fill="#A0C9F9"/>
<path d="M43.2905 0.0928955C41.9376 0.133021 40.605 0.188158 39.3423 0.262747C39.3391 0.262747 39.3353 0.263385 39.3321 0.263385C38.9318 0.294697 38.5413 0.328632 38.1625 0.365319L27.1464 3.12199C25.6501 3.73185 24.2955 4.38635 23.0894 5.04068L43.2905 0.0928955Z" fill="white" fill-opacity="0.3"/>
<path d="M43.2906 0.0928233L23.0895 5.04061C22.7856 5.20551 22.4906 5.37037 22.2056 5.53449L44.7787 0.0545654C44.2815 0.065369 43.7848 0.0781623 43.2906 0.0928233Z" fill="#A0C9F9"/>
<path d="M44.7786 0.0546254L22.2054 5.53455C21.5724 5.899 20.9867 6.25963 20.4482 6.60877L46.4647 0.0246582C45.9045 0.0325035 45.3413 0.0423873 44.7786 0.0546254Z" fill="white" fill-opacity="0.3"/>
<path d="M51.6693 0.00293992C50.0435 -0.00462395 48.27 -0.00063567 46.4646 0.0246573L20.4482 6.60877C19.418 7.27675 18.5634 7.90187 17.8902 8.42928C17.6379 8.62694 17.4122 8.81018 17.2114 8.97736L52.4571 0.00767594C52.1983 0.00584331 51.9367 0.00418913 51.6693 0.00293992Z" fill="#A0C9F9"/>
<path d="M52.8101 0.0102574C52.6941 0.00931709 52.5754 0.00852095 52.4574 0.00769043L17.2117 8.97737C17.0458 9.11555 16.8966 9.24294 16.7662 9.3567C16.5479 9.5473 16.3796 9.70144 16.2632 9.81087C17.4983 9.63788 18.735 9.49927 20.0484 9.39546L56.026 0.0513441C55.0941 0.0351113 54.0045 0.0199285 52.8101 0.0102574Z" fill="white" fill-opacity="0.3"/>
<path d="M56.0259 0.0512695L20.0483 9.39539C24.8157 9.01856 30.5953 9.10108 40.9978 9.6693H40.9984C42.5567 9.29923 43.9494 8.37983 44.8891 7.04554C48.0875 2.50677 53.3899 0.167912 59.3147 0.127581V0.126297C59.3147 0.126297 58.0388 0.0863297 56.0259 0.0512695Z" fill="#A0C9F9"/>
<path d="M39.3324 0.263306C37.7442 0.387519 36.3103 0.552703 35.153 0.76911C24.1206 2.83329 17.4636 8.68266 16.2632 9.81079C16.0989 9.83384 15.9339 9.85753 15.7689 9.88186C15.387 9.9382 15.0114 10.0003 14.6421 10.0669C17.0544 7.93293 23.6359 2.82881 33.2337 0.92533C34.7907 0.61609 36.9359 0.405447 39.3324 0.263306Z" fill="#0313A6"/>
<path d="M19.1647 19.058L20.9933 21.2329L19.1647 23.4079H4.54942L2.72021 21.2329L4.54942 19.058H19.1647Z" fill="#003D99"/>
<path d="M20.1036 24.3478H20.1042C19.9906 24.7044 19.9304 25.0815 19.9304 25.4682V27.357H2.83295V24.7992C2.83295 24.6474 2.82407 24.497 2.80566 24.3478H20.1036Z" fill="#265CFF"/>
<path d="M24.3178 21.064L22.0432 22.1287C21.1023 22.5692 20.4088 23.3823 20.1042 24.3478H2.80568C2.70036 23.4803 2.29428 22.6717 1.64458 22.0807C1.39015 21.8489 1.14714 21.564 0.979004 21.224C0.979004 21.224 1.91677 20.3847 2.8907 19.2053C3.16987 18.8679 3.45158 18.5023 3.71489 18.1201C3.81959 17.969 3.89953 17.8064 3.95409 17.6373H19.9196C19.9564 18.1604 20.2032 18.672 20.6708 19.0254C20.7723 19.1022 20.8751 19.1771 20.9773 19.2501C22.6206 20.4199 24.3178 21.064 24.3178 21.064ZM20.9931 21.233L19.1646 19.0581H4.54924L2.72003 21.233L4.54924 23.408H19.1646L20.9931 21.233Z" fill="#0313A6"/>
<path d="M2.83304 24.7992V27.357H0.348397C-0.370467 22.9694 0.239268 19.7668 1.00255 17.6898C1.00255 17.6898 1.31979 18.8378 2.89077 19.2053C1.91684 20.3847 0.979075 21.224 0.979075 21.224C1.14721 21.564 1.39022 21.8489 1.64465 22.0807C2.29436 22.6716 2.70043 23.4803 2.80575 24.3478C2.82415 24.497 2.83304 24.6475 2.83304 24.7992Z" fill="#265CFF"/>
<path d="M84.9318 24.7749L84.7586 26.9101C84.6932 27.7188 84.2802 28.4301 83.666 28.886C83.7504 28.2169 83.7948 27.5222 83.7948 26.8103C83.7948 26.4703 83.7847 26.1348 83.765 25.8038C83.7745 25.8025 83.7834 25.8012 83.7923 25.8C84.3551 25.7257 84.7998 25.3102 84.9318 24.7749Z" fill="#2E4360"/>
<path d="M72.2696 26.8025C72.2721 21.3636 74.8513 16.9561 78.0326 16.9561C81.0166 16.9561 83.4707 20.8347 83.7651 25.8037C83.7848 26.1347 83.795 26.4702 83.795 26.8102C83.795 27.5222 83.7505 28.2169 83.6662 28.8859C83.4282 29.0639 83.1598 29.2029 82.8699 29.2938C83.0082 28.5075 83.0824 27.6739 83.0824 26.8102C83.0824 26.5003 83.0729 26.1949 83.0539 25.8934C82.7868 21.5557 80.6403 18.1751 78.0326 18.1751C77.2027 18.1751 76.4273 18.517 75.7446 19.124C74.14 20.5479 73.05 23.431 72.9834 26.759C72.9827 26.7763 72.9834 26.7929 72.9827 26.8102C72.97 27.1143 72.9681 27.6233 72.9719 28.1663C72.9802 29.3207 72.1903 30.3009 71.1123 30.5596C70.9784 30.5916 70.8401 30.6121 70.698 30.621C64.447 31.0033 58.0502 31.1179 53.3125 31.139C49.8121 31.155 47.217 31.1198 46.2551 31.1031C45.988 31.0993 45.8472 31.0961 45.8472 31.0961C46.5318 31.0961 47.1238 30.6082 47.2519 29.9295C47.3953 29.1721 47.493 28.3801 47.5406 27.5625C58.3719 27.4671 66.4476 27.1515 72.2696 26.8025Z" fill="#253659"/>
<path d="M47.5728 26.4344C47.5728 26.8154 47.562 27.1918 47.5405 27.5625C47.4929 28.3801 47.3952 29.1721 47.2518 29.9296C47.1236 30.6082 46.5316 31.0961 45.847 31.0961H44.7583C44.9816 30.7049 45.1808 30.2779 45.3509 29.8214H46.4067C46.6306 28.7643 46.7531 27.624 46.7531 26.4344C46.7531 20.9474 44.1517 16.4996 40.9431 16.4996C39.8556 16.4996 38.8385 17.0105 37.9687 17.8992C36.2708 19.633 35.1338 22.8067 35.1338 26.4344V28.0459C35.1338 29.3002 34.2937 30.363 33.1415 30.6799C32.9505 30.7324 32.7507 30.7638 32.5445 30.7728C28.9958 30.9239 22.0057 31.1224 15.0093 30.9866C12.4954 30.9386 9.98036 30.847 7.62389 30.6947C6.48055 30.6204 5.37464 30.532 4.32394 30.4277C4.06063 30.4014 3.80112 30.356 3.54733 30.2926C2.26505 29.9712 1.13376 29.1862 0.377455 28.0709L0.150313 27.736C0.0411833 27.5753 0.155387 27.357 0.348268 27.357H19.9303V27.3628C24.9732 27.4678 29.6658 27.5331 34.0266 27.5664C34.1986 27.5677 34.3375 27.4242 34.3305 27.2501C34.3191 26.9805 34.3134 26.7084 34.3134 26.4344C34.3134 20.1734 37.2815 15.0974 40.9431 15.0974C44.6047 15.0974 47.5728 20.1734 47.5728 26.4344Z" fill="#2E4360"/>
<path d="M40.998 9.66931C40.6528 9.7519 40.3 9.80697 39.9415 9.83385C31.5816 10.4587 24.3485 13.8988 20.902 15.8106C20.8309 15.8503 20.763 15.8932 20.6996 15.94C20.699 15.9406 20.6983 15.9406 20.6983 15.9406C20.1412 16.3472 19.8748 17.0002 19.9198 17.6373H3.95432C4.12817 17.1078 4.06091 16.5175 3.74621 16.0379C3.42897 15.5545 3.01656 15.0314 2.58447 14.7651C2.58447 14.7651 7.27139 11.407 14.6422 10.0669C15.0114 10.0003 15.3871 9.93821 15.769 9.88187C15.934 9.85754 16.099 9.83385 16.2633 9.8108C21.9819 9.00985 27.7297 8.94454 40.998 9.66931Z" fill="#265CFF"/>
<path d="M84.9721 15.2217V24.4445C84.9721 24.5579 84.9582 24.668 84.9322 24.7736V24.7749C84.8002 25.3102 84.3554 25.7257 83.7926 25.8C83.7838 25.8012 83.7749 25.8025 83.7654 25.8038C83.471 20.8348 81.0168 16.9561 78.0328 16.9561C74.8515 16.9561 72.2723 21.3636 72.2698 26.8026C66.4478 27.1515 58.3721 27.4672 47.5408 27.5626C47.5624 27.1919 47.5732 26.8154 47.5732 26.4344C47.5732 20.1734 44.6051 15.0974 40.9435 15.0974C37.2819 15.0974 34.3138 20.1734 34.3138 26.4344C34.3138 26.7085 34.3195 26.9806 34.3309 27.2501C34.3379 27.4243 34.1989 27.5677 34.027 27.5664C29.6662 27.5331 24.9735 27.4678 19.9307 27.3628V25.4683C19.9307 25.0816 19.9909 24.7045 20.1045 24.3479C20.4091 23.3824 21.1026 22.5692 22.0435 22.1287L24.3181 21.064C24.3181 21.064 22.6209 20.4199 20.9776 19.2501C27.4525 20.7535 35.8213 13.9437 35.8213 13.9437C26.9119 13.4309 20.8031 15.8984 20.6997 15.94C20.7631 15.8933 20.831 15.8504 20.9021 15.8107C24.3486 13.8989 31.5817 10.4588 39.9416 9.83391C40.3001 9.80702 40.6529 9.75196 40.998 9.66936H40.9987C42.557 9.2993 43.9497 8.3799 44.8893 7.0456C48.0878 2.50683 53.3901 0.167982 59.3149 0.127644C66.312 0.0783417 74.1764 3.23288 80.4661 9.74748C80.6964 9.98693 80.987 10.1585 81.3061 10.2456L83.9424 10.9684C84.5502 11.1349 84.9721 11.6919 84.9721 12.3277V12.6658H81.0593C80.6723 12.6658 80.3582 12.9827 80.3582 13.3732C80.3582 13.8842 80.5631 14.3458 80.895 14.6806C81.2262 15.0149 81.6843 15.2217 82.1906 15.2217H84.9721ZM71.6188 9.88769C74.1269 9.71034 74.9245 6.37397 72.7653 5.0749C69.8023 3.29179 66.5169 2.17006 63.25 1.70459C62.9486 1.66106 62.6466 1.62392 62.3459 1.59255C55.0417 0.820397 47.9824 3.33852 44.9801 9.08481C44.9293 9.18277 44.8925 9.28265 44.8703 9.38317V9.38381C44.8309 9.43439 44.8043 9.49585 44.7954 9.56372L44.7015 10.2878C44.6812 10.446 44.8157 10.5804 44.9724 10.5574L45.2104 10.5222C45.421 10.7277 45.7103 10.8577 46.0428 10.8558C52.0342 10.8199 57.9857 10.6541 63.8959 10.3551C64.1871 10.341 64.4783 10.3256 64.7696 10.3103C67.0588 10.1893 69.3417 10.0484 71.6188 9.88769ZM63.2183 13.192C63.5596 13.1773 63.8248 12.8873 63.8102 12.5428C63.7963 12.1984 63.5082 11.9314 63.1669 11.9455L61.0883 12.0325C60.747 12.0466 60.4824 12.3373 60.4963 12.6818C60.5103 13.0262 60.7983 13.2932 61.1397 13.2791L63.2183 13.192Z" fill="#1B4EE9"/>
<path d="M84.9719 12.6658V15.2217H82.1903C81.684 15.2217 81.2259 15.0149 80.8947 14.6806C80.5628 14.3458 80.3579 13.8842 80.3579 13.3733C80.3579 12.9827 80.672 12.6658 81.059 12.6658H84.9719Z" fill="#A0C9F9"/>
<g style="mix-blend-mode:soft-light">
<path d="M64.2044 26.0492C64.1919 26.0492 64.1792 26.0477 64.1665 26.0445C64.0814 26.0235 64.0294 25.9368 64.0503 25.851C65.943 18.0662 64.2956 11.4646 64.2788 11.3989C64.2568 11.3133 64.3078 11.2259 64.3926 11.2038C64.4775 11.1815 64.5639 11.2331 64.5859 11.3186C64.5901 11.3353 65.0159 13.0163 65.1985 15.6433C65.3669 18.066 65.3578 21.8168 64.3583 25.9272C64.3406 26.0003 64.2757 26.0492 64.2044 26.0492Z" fill="#4D4D4D"/>
<path d="M48.3858 26.4437C48.3755 26.4437 48.3651 26.4427 48.3546 26.4406C48.2687 26.4233 48.2129 26.339 48.23 26.2524C49.7609 18.4976 47.7546 12.0403 47.7342 11.9759C47.7075 11.8918 47.7534 11.8017 47.8368 11.7746C47.9202 11.7474 48.0095 11.7939 48.0362 11.8781C48.0414 11.8944 48.5589 13.5391 48.8768 16.127C49.1701 18.5136 49.3498 22.2184 48.5412 26.3149C48.5262 26.391 48.4599 26.4437 48.3858 26.4437Z" fill="#4D4D4D"/>
</g>
<path d="M10.0293 19.4949L11.007 19.422L11.1514 19.4949L10.5736 20.9145L11.0489 20.8416L11.1933 20.9145L10.1466 23.0438L10.0022 22.971L10.3224 21.4468H9.78651L9.64209 21.3739L10.0293 19.4949Z" fill="#DDAD36"/>
<path d="M9.88493 19.422H11.007L10.4292 20.8416H11.0489L10.0022 22.971L10.178 21.3739H9.64209L9.88493 19.422Z" fill="#F2C744"/>
</svg>
