<svg width="15" height="20" viewBox="0 0 15 20" fill="none" xmlns="http://www.w3.org/2000/svg">
<path d="M7.794 19.0339C8.8215 19.0339 9.66218 18.1932 9.66218 17.1657H5.92581C5.92581 18.1932 6.75715 19.0339 7.794 19.0339ZM13.3986 13.4294V8.75889C13.3986 5.89122 11.8666 3.4906 9.19514 2.85542V2.22023C9.19514 1.44493 8.5693 0.819092 7.794 0.819092C7.0187 0.819092 6.39286 1.44493 6.39286 2.22023V2.85542C3.71201 3.4906 2.18944 5.88188 2.18944 8.75889V13.4294L0.984457 14.6343C0.395978 15.2228 0.806979 16.2316 1.63832 16.2316H13.9403C14.7717 16.2316 15.192 15.2228 14.6035 14.6343L13.3986 13.4294Z" fill="url(#paint0_linear_4266_9158)"/>
<defs>
<linearGradient id="paint0_linear_4266_9158" x1="3.72331" y1="2.93527" x2="15.3895" y2="16.2813" gradientUnits="userSpaceOnUse">
<stop stop-color="#265CFF"/>
<stop offset="1" stop-color="#173799"/>
</linearGradient>
</defs>
</svg>
