<svg width="17" height="18" viewBox="0 0 17 18" fill="none" xmlns="http://www.w3.org/2000/svg">
<path d="M12.6498 11.0101L11.2969 11.7722C11.1346 11.8637 10.9467 11.8994 10.7621 11.8741C10.5775 11.8487 10.4063 11.7636 10.2746 11.6318L5.75901 7.11624C5.62731 6.98447 5.54231 6.81325 5.51696 6.62869C5.49161 6.44412 5.5273 6.25633 5.6186 6.09394L6.3808 4.741C6.518 4.4975 6.57171 4.21578 6.53374 3.93888C6.49577 3.66198 6.3682 3.40512 6.17051 3.20754L4.14273 1.17976C4.02388 1.06085 3.88277 0.966524 3.72745 0.902168C3.57213 0.837812 3.40566 0.804688 3.23754 0.804688C3.06942 0.804688 2.90294 0.837812 2.74763 0.902168C2.59231 0.966524 2.4512 1.06085 2.33235 1.17976L1.41163 2.09983C0.873217 2.63823 0.530261 3.34118 0.437291 4.0969C0.344321 4.85262 0.506673 5.61773 0.898534 6.27057L1.36051 7.04054C3.71973 10.9725 7.04969 14.2323 11.031 16.5072L11.1222 16.5596C12.4823 17.3367 14.1626 17.1102 15.2515 16.0219L16.213 15.0604C16.3319 14.9416 16.4263 14.8005 16.4906 14.6452C16.555 14.4898 16.5881 14.3234 16.5881 14.1553C16.5881 13.9871 16.555 13.8207 16.4906 13.6653C16.4263 13.51 16.3319 13.3689 16.213 13.2501L14.184 11.221C13.9864 11.023 13.7295 10.8953 13.4524 10.8572C13.1754 10.8191 12.8935 10.8728 12.6498 11.0101Z" fill="#012087"/>
</svg>
