<svg width="20" height="23" viewBox="0 0 20 23" fill="none" xmlns="http://www.w3.org/2000/svg">
<g clip-path="url(#clip0_4021_37663)">
<path d="M0.0408664 7.93039C0.0408664 6.93797 0.0392951 5.94555 0.0412832 4.95313C0.0435126 3.84016 0.715998 3.08584 1.76254 2.96064C4.34378 2.65182 6.74845 1.77881 8.96757 0.342551C9.65616 -0.103114 10.3347 -0.119263 11.0196 0.325509C13.1025 1.67818 15.3559 2.5243 17.7686 2.89916C18.0289 2.9396 18.2926 2.96013 18.5503 3.01385C19.352 3.18094 19.9603 3.92643 19.9649 4.79487C19.9757 6.85595 20.0479 8.92171 19.9471 10.9774C19.7417 15.1637 17.9114 18.3808 14.5416 20.5687C13.3521 21.3411 12.1096 22.0216 10.8882 22.738C10.3324 23.0641 9.75062 23.0971 9.19337 22.7731C7.84353 21.9884 6.46784 21.2434 5.17208 20.3663C2.27238 18.4037 0.57002 15.5731 0.146818 11.9438C-0.00751239 10.6204 0.0429627 9.26991 0 7.93177L0.0408664 7.93039ZM9.43363 11.5771C9.36121 11.5125 9.30013 11.4606 9.24171 11.4055C8.79983 10.9889 8.36166 10.5678 7.9161 10.1557C7.4361 9.71173 6.80976 9.74212 6.42261 10.2188C6.04257 10.6868 6.1021 11.341 6.56724 11.7815C7.28836 12.4644 8.00969 13.147 8.73294 13.8273C9.26753 14.3302 9.82371 14.3058 10.3139 13.7561C10.7972 13.2142 11.2753 12.6673 11.7559 12.1227C12.4985 11.2811 13.2394 10.4378 13.985 9.59918C14.2205 9.33431 14.3765 9.03774 14.3399 8.6647C14.2953 8.211 14.0702 7.88708 13.662 7.73593C13.2334 7.57724 12.8598 7.69941 12.5526 8.04653C11.7432 8.96117 10.9367 9.87869 10.1285 10.7946C9.90035 11.0532 9.67064 11.3103 9.43363 11.5771Z" fill="#265CFF"/>
</g>
<defs>
<clipPath id="clip0_4021_37663">
<rect width="20" height="23" fill="white"/>
</clipPath>
</defs>
</svg>
