<svg width="36" height="36" viewBox="0 0 36 36" fill="none" xmlns="http://www.w3.org/2000/svg">
<g clip-path="url(#clip0_2131_13128)">
<rect width="36" height="36.0184" rx="10" fill="#A1CDEF"/>
<path d="M30.375 31.3071C26.4375 34.3125 22.8889 36.2812 18 36.2812C13.1097 36.2812 7.7586 34.0312 5.625 31.3191C6.19882 30.6248 6.92188 30.0373 7.7586 29.6364L12.4298 27.4027C13.2966 26.9878 14.0088 26.3355 14.5017 25.5434C14.9961 24.7499 15.2728 23.8168 15.2728 22.8403L14.095 21.6404C13.2953 20.8246 12.8461 19.7182 12.8461 18.5643V13.9112C12.8461 13.3342 12.9584 12.7699 13.1706 12.2474C13.3829 11.7249 13.6952 11.2444 14.095 10.8365C14.8948 10.0207 15.9794 9.5625 17.1092 9.5625H18.8895C19.4537 9.5625 20.0083 9.67704 20.5205 9.89358C21.0326 10.1101 21.5037 10.4286 21.9036 10.8365C22.7034 11.6523 23.1525 12.7573 23.1525 13.9112V18.5643C23.1525 19.7182 22.7034 20.8246 21.9036 21.6404L20.7259 22.8403C20.7259 24.7947 21.8337 26.573 23.5689 27.4027L28.24 29.6364C29.0781 30.0373 29.8012 30.6115 30.375 31.3071Z" fill="white"/>
</g>
<defs>
<clipPath id="clip0_2131_13128">
<rect width="36" height="36" rx="18" fill="white"/>
</clipPath>
</defs>
</svg>
