<svg width="17" height="13" viewBox="0 0 17 13" fill="none" xmlns="http://www.w3.org/2000/svg">
<g clip-path="url(#clip0_2114_2605)">
<path d="M12.9938 1.68556C12.5055 2.23382 12.039 2.75765 11.5781 3.27506C9.76153 1.88662 7.84495 1.64943 5.86311 2.87244C4.30598 3.83335 3.75561 5.4949 3.88154 6.77924C4.13254 6.77924 4.38604 6.77921 4.63954 6.77926C4.71244 6.77928 4.78536 6.78066 4.85824 6.77943C5.03188 6.77651 5.16216 6.84754 5.2353 6.99779C5.31193 7.1552 5.2732 7.2984 5.15614 7.42707C4.6561 7.97674 4.15695 8.52716 3.65742 9.07726C3.39108 9.37056 3.12464 9.66377 2.85142 9.96452C2.42556 9.49593 2.00814 9.03683 1.59096 8.57753C1.24877 8.20079 0.908171 7.82271 0.564139 7.44753C0.444612 7.31718 0.384621 7.17709 0.461725 7.00892C0.54078 6.83651 0.687779 6.7748 0.87801 6.77819C1.13708 6.78281 1.3963 6.77934 1.63536 6.77934C1.74889 3.53033 3.31163 1.31338 6.54334 0.251002C8.94794 -0.351104 11.0885 0.131183 12.9938 1.68556Z" fill="white"/>
<path d="M12.9919 6.79346C12.6542 6.79346 12.3476 6.78926 12.0413 6.79501C11.852 6.79856 11.7009 6.74444 11.6187 6.57346C11.5361 6.40173 11.5962 6.25764 11.7202 6.12173C12.4576 5.31324 13.1921 4.5023 13.9272 3.69186C13.9507 3.66591 13.9701 3.63645 13.9973 3.60095C14.4406 4.08874 14.8683 4.55917 15.2958 5.02983C15.6243 5.39149 15.9505 5.75509 16.2817 6.11443C16.4097 6.25332 16.4751 6.40113 16.3865 6.5788C16.3016 6.74893 16.1484 6.79962 15.9601 6.795C15.7061 6.78878 15.4518 6.79346 15.2117 6.79346C14.8699 9.7218 13.3391 11.7731 10.4011 12.6801C8.1721 13.3681 6.0884 12.9237 4.19785 11.563C4.68344 11.0176 5.15452 10.4885 5.61976 9.9659C7.24964 11.0369 8.94344 11.2147 10.6744 10.2933C12.0783 9.5459 12.8167 8.34525 12.9919 6.79346Z" fill="white"/>
</g>
<defs>
<clipPath id="clip0_2114_2605">
<rect width="16" height="13" fill="white" transform="translate(0.427231)"/>
</clipPath>
</defs>
</svg>
