<svg width="26" height="18" viewBox="0 0 26 18" fill="none" xmlns="http://www.w3.org/2000/svg">
<g clip-path="url(#clip0_2025_192)">
<path d="M6.78823 8.52284C6.38198 8.12156 5.99577 7.69624 5.56095 7.32661C5.28952 7.09588 5.21684 6.85722 5.22225 6.51862C5.2429 5.22444 5.22408 3.9297 5.2326 2.63525C5.24098 1.36237 6.09497 0.312051 7.31913 0.0629583C7.53127 0.0197908 7.75353 0.0103097 7.97114 0.0101781C12.738 0.00730459 17.5049 0.0206234 22.2717 2.80298e-05C23.6602 -0.00597071 24.6919 0.951886 24.9282 1.90802C24.9774 2.1071 25.0099 2.31583 25.0103 2.52018C25.0156 5.23 25.0182 7.93985 25.0121 10.6497C25.0087 12.1366 23.9258 13.2402 22.4296 13.2469C19.1847 13.2614 15.9397 13.2519 12.6947 13.2516C12.6445 13.2516 12.5943 13.2447 12.5406 13.2407C12.5172 12.8663 12.51 12.5052 12.4697 12.1478C12.2156 9.89567 10.1925 8.11564 7.9011 8.13134C7.70531 8.13269 7.50263 8.18324 7.31659 8.24832C7.13863 8.31058 6.97819 8.42162 6.78823 8.52284ZM21.8828 8.228C21.879 6.80585 20.423 5.79034 19.1073 6.31507C18.8503 6.41756 18.6697 6.41223 18.4161 6.31146C17.1198 5.7965 15.6942 6.76775 15.6562 8.18631C15.636 8.94228 15.971 9.5487 16.6149 9.94806C17.2539 10.3444 17.9367 10.4092 18.6321 10.0507C18.7002 10.0156 18.8176 10.0117 18.8849 10.0457C20.2507 10.7361 21.8869 9.74674 21.8828 8.228ZM11.9801 7.18999C12.6708 7.18999 13.3616 7.19744 14.0521 7.18721C14.4703 7.18102 14.6849 6.89037 14.5702 6.51409C14.4954 6.26895 14.2963 6.18117 14.0656 6.18027C12.6843 6.17486 11.303 6.17795 9.9217 6.17928C9.87847 6.17932 9.83522 6.19113 9.79201 6.19763C9.58474 6.22881 9.46929 6.35824 9.42392 6.54962C9.33612 6.92001 9.55071 7.18307 9.96044 7.18807C10.6336 7.19628 11.3068 7.1903 11.9801 7.18999ZM13.5727 9.26092C13.5727 9.26257 13.5727 9.26421 13.5727 9.26585C13.3721 9.26585 13.1698 9.24945 12.9713 9.26983C12.6979 9.29792 12.5309 9.49378 12.5236 9.75489C12.5165 10.0089 12.6801 10.2324 12.9507 10.2514C13.3492 10.2793 13.7524 10.2843 14.1507 10.2572C14.4498 10.2369 14.6123 10.0202 14.6016 9.75158C14.5906 9.47722 14.4187 9.2919 14.1221 9.26407C13.9405 9.24703 13.7559 9.26092 13.5727 9.26092ZM9.41203 3.0926C9.41203 3.09306 9.41203 3.09352 9.41203 3.09398C9.22852 3.09398 9.04423 3.08331 8.86168 3.09638C8.55783 3.11815 8.38625 3.29041 8.37027 3.5675C8.35322 3.86319 8.50499 4.07321 8.81733 4.09655C9.19905 4.12508 9.58596 4.12586 9.96787 4.09963C10.2805 4.07816 10.4354 3.86875 10.4216 3.57385C10.4081 3.28754 10.2261 3.11202 9.91007 3.09424C9.74457 3.08492 9.57808 3.0926 9.41203 3.0926ZM15.657 3.09411C15.4734 3.09411 15.2891 3.08321 15.1066 3.09657C14.8033 3.11876 14.6322 3.29203 14.6171 3.56958C14.6011 3.86537 14.753 4.07394 15.0664 4.09706C15.4482 4.12522 15.8351 4.12586 16.217 4.09916C16.529 4.07734 16.6832 3.86706 16.6684 3.57177C16.6546 3.29567 16.4795 3.11749 16.1811 3.09615C16.0073 3.08372 15.8317 3.09389 15.657 3.09411ZM12.5411 3.09508C12.5411 3.09667 12.5411 3.09827 12.5411 3.09987C12.3403 3.09987 12.138 3.08407 11.9392 3.10372C11.6688 3.13047 11.4969 3.32852 11.4861 3.58753C11.4756 3.84046 11.6397 4.06868 11.9106 4.08819C12.3092 4.1169 12.7128 4.12044 13.1114 4.09397C13.4024 4.07464 13.5659 3.84806 13.5499 3.57891C13.5334 3.30069 13.3602 3.12071 13.0649 3.09756C12.8913 3.08395 12.7158 3.09508 12.5411 3.09508ZM18.7678 4.13153C18.7681 4.12546 18.7684 4.11939 18.7688 4.11331C18.9434 4.11331 19.1181 4.11441 19.2927 4.11237C19.3269 4.11197 19.3612 4.10025 19.3952 4.09234C19.6463 4.03386 19.7914 3.86367 19.7987 3.61949C19.8064 3.36388 19.6606 3.13596 19.4038 3.11836C18.9791 3.08924 18.5494 3.09315 18.1244 3.12066C17.8859 3.13609 17.7371 3.35761 17.733 3.59849C17.729 3.83485 17.8786 4.04245 18.1176 4.08209C18.3311 4.1175 18.5508 4.11648 18.7678 4.13153Z" fill="white"/>
<path d="M7.14994 16.6277C7.31707 16.7788 7.48911 16.9249 7.65021 17.082C7.92348 17.3485 7.96004 17.6142 7.76431 17.8336C7.59905 18.0188 7.11468 18.0693 6.9164 17.8823C6.37959 17.3761 5.85209 16.8592 5.34239 16.3265C5.13407 16.1088 5.17095 15.794 5.38492 15.5784C5.87426 15.0855 6.36716 14.5958 6.86421 14.1104C7.09804 13.882 7.40106 13.8724 7.61453 14.07C7.83497 14.2741 7.8455 14.5592 7.61485 14.8076C7.43969 14.9963 7.23707 15.1601 7.02209 15.3576C9.0093 15.7332 10.4738 14.4502 10.4289 12.7622C10.3916 11.3593 9.21942 10.2976 7.93508 10.2785C7.75558 10.2759 7.51229 10.1857 7.41833 10.0533C7.32557 9.92259 7.32323 9.65791 7.39655 9.50629C7.45627 9.38278 7.68529 9.27356 7.84103 9.27116C8.95059 9.25411 9.87437 9.69903 10.5773 10.5218C11.4768 11.5746 11.848 12.7764 11.3653 14.1317C10.8527 15.5708 9.52353 16.5067 7.97072 16.547C7.71137 16.5538 7.45169 16.548 7.19215 16.548C7.17808 16.5746 7.16401 16.6011 7.14994 16.6277Z" fill="white"/>
<path d="M4.48861 9.16005C4.29806 8.99572 4.09538 8.84298 3.91993 8.66423C3.68391 8.42378 3.67864 8.12228 3.88092 7.92818C4.10678 7.71148 4.3906 7.71668 4.64635 7.9636C5.13372 8.43414 5.61693 8.9091 6.09263 9.39111C6.35406 9.65601 6.34367 9.99842 6.08026 10.2607C5.63721 10.7018 5.19111 11.14 4.74315 11.5763C4.56948 11.7454 4.05183 11.7637 3.89062 11.6139C3.66928 11.4082 3.6842 11.1014 3.94565 10.8381C4.11037 10.6722 4.29497 10.5256 4.44997 10.3414C3.44714 10.2111 2.51491 10.2982 1.79498 11.0671C1.05091 11.8617 0.854908 12.7923 1.25887 13.7988C1.66877 14.8201 2.47799 15.3378 3.5804 15.4144C3.97945 15.4421 4.17146 15.598 4.177 15.9213C4.18287 16.2635 3.95622 16.4604 3.54676 16.4399C2.5594 16.3905 1.70475 16.0202 1.03866 15.3035C0.0768779 14.2687 -0.241485 13.059 0.232327 11.7127C0.705122 10.3694 1.68952 9.57016 3.10078 9.3129C3.53287 9.23414 3.98363 9.25508 4.42583 9.23036C4.44676 9.20692 4.46769 9.18348 4.48861 9.16005Z" fill="white"/>
<path d="M18.767 8.25758C18.7618 7.6968 19.2444 7.20032 19.8 7.19484C20.4008 7.18892 20.8451 7.62107 20.8537 8.21968C20.8622 8.81325 20.423 9.23824 19.8129 9.25598C19.2519 9.27229 18.7584 8.67855 18.767 8.25758Z" fill="white"/>
<path d="M17.8938 9.35976C17.4022 9.37925 17.0008 9.24941 16.7437 8.84181C16.5099 8.47129 16.5157 8.07667 16.7604 7.71833C17.0327 7.31964 17.4619 7.28283 17.982 7.30196C17.5844 7.98929 17.7932 8.66432 17.8938 9.35976Z" fill="white"/>
</g>
<defs>
<clipPath id="clip0_2025_192">
<rect width="25" height="18" fill="white" transform="translate(0.015625)"/>
</clipPath>
</defs>
</svg>
