<svg width="99" height="93" viewBox="0 0 99 93" fill="none" xmlns="http://www.w3.org/2000/svg">
<g clip-path="url(#clip0_4295_25568)">
<path d="M43.7027 69.7048C35.1026 72.2435 25.6867 68.7741 16.9941 70.9622C14.6126 71.562 12.274 72.5864 9.82245 72.4936C14.5159 63.8859 20.5109 55.2934 22.8545 45.7032C25.1497 36.3111 25.8195 26.6092 27.8682 17.167C28.9631 12.1211 31.1068 8.39158 35.3912 5.3831C39.2847 2.64946 44.1745 1.18796 48.9068 1.53772L48.8286 1.54874C55.9337 1.54874 63.0274 5.32794 66.8642 11.4451C71.1631 18.2985 70.4539 26.9433 71.5611 34.7448C72.7372 43.0349 74.5968 51.2955 78.0682 58.9274C80.1107 63.4172 82.6827 67.6352 85.3225 71.7899C80.1973 71.7293 75.0693 71.8828 69.9562 72.2491" fill="#7FBAF1"/>
<path d="M19.1084 66.2358C22.1114 60.604 24.3866 54.5852 25.8559 48.3551C26.0485 47.5379 24.8111 47.1895 24.618 48.0076C23.1735 54.133 20.9524 60.0396 18 65.5767C17.6061 66.3157 18.7138 66.9757 19.1084 66.2358Z" fill="#5D6AB0"/>
<path d="M26.1618 63.4995C28.7854 55.6129 30.5809 47.4668 31.5493 39.2001C31.6469 38.3673 30.3625 38.3743 30.2656 39.2001C29.3114 47.3468 27.509 55.3818 24.924 63.1525C24.6586 63.9504 25.8981 64.2927 26.1618 63.4995Z" fill="#5D6AB0"/>
<path d="M32.9014 61.4414C34.6982 55.5761 35.904 49.5426 36.5248 43.4319C36.6097 42.5969 35.3254 42.6028 35.2412 43.4319C34.6323 49.425 33.4256 55.3426 31.6636 61.0939C31.4172 61.8982 32.6559 62.2424 32.9014 61.4414Z" fill="#5D6AB0"/>
<path d="M59.2083 44.0059C59.191 49.0829 59.2022 54.2161 60.4552 59.1659C60.6612 59.9794 61.8997 59.6346 61.6931 58.8189C60.4684 53.9817 60.4749 48.9672 60.492 44.0059C60.495 43.1653 59.2113 43.1644 59.2083 44.0059Z" fill="#5D6AB0"/>
<path d="M63.8497 38.6141C63.2822 45.6343 63.9157 52.729 65.7021 59.5341C65.9151 60.3453 67.1536 60.0011 66.9399 59.1867C65.1808 52.4863 64.5747 45.5259 65.1334 38.6141C65.2012 37.7767 63.9173 37.7813 63.8497 38.6141Z" fill="#5D6AB0"/>
<path d="M69.0501 42.8566C68.9444 49.8295 70.145 56.7973 72.5889 63.3129C72.8804 64.0905 74.1219 63.7532 73.8267 62.9659C71.4201 56.5496 70.2295 49.7233 70.3338 42.8566C70.3465 42.0156 69.0628 42.0156 69.0501 42.8566Z" fill="#5D6AB0"/>
<path d="M17.7095 63.2976C24.3592 59.7878 30.7221 55.7346 36.7297 51.1811C37.3846 50.6847 36.7453 49.5504 36.0817 50.0533C30.0744 54.6068 23.7114 58.66 17.0615 62.1698C16.3279 62.5568 16.9764 63.6846 17.7095 63.2976Z" fill="#5D6AB0"/>
<path d="M21.5024 54.8845C27.1828 52.0993 32.2595 48.0954 36.3258 43.1916C36.8554 42.5532 35.9518 41.6249 35.4181 42.2683C31.4133 47.0977 26.4493 51.0138 20.8545 53.7566C20.1105 54.1215 20.7607 55.248 21.5024 54.8845Z" fill="#5D6AB0"/>
<path d="M76.7163 58.41C71.1018 56.6939 65.8408 53.9441 61.1855 50.3199C60.5299 49.8092 59.8898 50.9431 60.5378 51.4472C65.2778 55.1377 70.6594 57.9224 76.375 59.6693C77.1679 59.9114 77.5067 58.6513 76.7163 58.41Z" fill="#5D6AB0"/>
<path d="M72.9236 49.4719C68.4001 48.6355 64.1536 46.7153 60.5083 43.865C59.8538 43.3534 59.2137 44.4872 59.8606 44.9927C63.5804 47.9015 67.9665 49.8777 72.5823 50.7312C73.3899 50.8806 73.7363 49.6222 72.9236 49.4719Z" fill="#5D6AB0"/>
<path d="M103.279 124.991C99.3386 108.862 97.6493 92.1865 91.9778 76.5444C90.8059 73.3126 89.2891 69.2862 86.4123 67.2088C84.789 66.0364 82.5716 65.2372 80.7626 64.3989C79.988 64.04 70.5923 59.7019 70.2876 60.6629C68.3505 67.0103 74.7968 77.0242 74.568 83.6873C74.4932 85.8681 74.121 88.0167 73.729 90.157C72.2018 98.4958 71.7176 106.928 71.728 115.379C71.7332 119.635 71.8637 123.89 72.0496 128.141C72.1836 131.211 72.0212 134.292 72.2687 137.357C72.4853 140.04 72.3744 142.989 74.1712 145.15C75.1678 146.348 76.4531 147.255 77.7268 148.141C90.9423 157.333 104.627 165.826 118.707 173.575C121.006 174.839 123.322 176.088 125.768 177.025C127.791 177.8 130.558 171.536 131.504 169.967C132.947 167.576 134.335 165.15 135.669 162.693C136.356 161.426 136.692 159.887 136.853 158.461C126.068 150.618 116.53 141.516 106.831 132.377C106.16 131.745 105.481 131.104 104.991 130.319C104.412 129.394 104.124 128.318 103.85 127.258C103.654 126.504 103.464 125.747 103.279 124.991Z" fill="#CDE6FD"/>
<path d="M28.2832 109.041C28.3304 105.745 28.2918 102.448 28.1673 99.1543C27.8742 91.4029 27.1237 83.5485 27.0081 75.7732C27.0081 73.4348 27.8214 71.136 28.0424 68.8435C28.4363 64.7587 33.2617 62.2278 34.0756 58.2289C28.6807 59.3135 23.5046 63.2642 18.6589 65.9858C16.6862 67.0939 14.7123 68.2057 12.8091 69.4346C8.9892 71.9017 5.43696 73.985 4.4202 78.6585C3.24852 84.0431 2.02875 89.4166 0.765406 94.7795C-1.31777 103.615 -2.99128 112.975 -5.82355 121.647V162.361C-4.27293 161.415 -2.7268 160.462 -1.19131 159.49C3.87774 156.284 8.85711 152.928 13.6829 149.354C16.0326 147.613 18.2598 145.691 20.6183 143.969C22.982 142.243 22.7753 141.562 23.0371 138.575C23.4065 134.362 23.699 129.759 25.8136 126.006C29.1242 120.13 28.1877 115.695 28.2832 109.041Z" fill="#CDE6FD"/>
<path d="M11.84 133.94C10.9513 152.644 9.24418 171.289 7.82275 189.957H86.2321C86.1329 188.255 86.0341 186.554 85.9347 184.851C85.2766 173.593 84.6297 162.335 84.2503 151.065C83.9938 143.109 83.8711 135.142 83.9827 127.187C84.1277 117.835 84.5851 108.484 85.5331 99.1777C86.3249 91.5173 88.5335 83.6294 87.5967 75.9009C87.5409 75.4243 87.4627 74.9363 87.3512 74.4711C86.2247 69.6818 82.3878 66.4812 78.6065 64.1323C75.6954 62.3275 72.7062 60.6481 69.6277 59.1614C68.1331 58.4347 66.3374 57.3115 64.6978 57.0165C63.3371 56.7664 62.5674 57.198 61.9985 55.4617C61.7309 54.6445 61.3517 53.6569 60.5152 53.5773C60.2252 53.5434 59.9463 53.6459 59.6674 53.7364C57.8159 54.3495 55.9198 54.9166 53.9791 55.0871C52.3058 55.2346 50.6441 55.0416 49.0713 54.4285C47.2756 53.7364 45.1452 54.2699 43.4275 54.8715C41.3863 55.5862 39.1557 55.7452 37.0474 55.3142C35.8764 55.0756 34.5492 54.701 33.6011 55.4387C32.6977 56.1423 32.6754 57.3906 32.0062 58.2647C31.2586 59.2294 29.5522 59.638 28.4815 60.2281C25.4699 61.8964 22.5924 63.8032 19.8373 65.8686C10.3565 72.9844 11.6837 83.7999 12.13 94.2523C12.71 107.474 12.4758 120.718 11.84 133.94Z" fill="#CDE6FD"/>
<path d="M59.1092 53.24C59.0902 53.1641 59.072 53.0879 59.0548 53.0106C58.5299 50.6401 58.3158 48.1987 58.4235 45.7717C58.4658 44.8226 58.5559 43.8607 58.3649 42.9305C57.8395 40.3725 56.0764 40.6583 54.0287 40.9878C51.6289 41.3734 49.2607 41.9452 46.8525 42.2811C45.2346 42.5072 43.4938 42.7154 41.8632 42.5021C40.0836 42.2696 38.4422 43.09 38.2231 45.0129C37.8175 48.5715 37.4961 52.188 36.2673 55.5453C35.8802 56.6032 35.4299 57.5325 36.0771 58.5092C36.6505 59.3741 37.7944 60.0318 38.6917 60.4771C40.6656 61.4561 42.9174 61.7916 45.0936 61.843C48.1087 61.9143 51.1336 61.5406 54.0443 60.7368C55.7182 60.2744 57.4689 59.6076 58.7284 58.3465C60.4873 56.5853 59.6555 55.3996 59.1092 53.24Z" fill="#F3B499"/>
<path d="M84.8921 151.065C84.2546 142.098 83.4935 133.136 83.108 124.153C82.9347 120.121 82.867 116.125 83.3142 112.107C83.9978 105.963 85.505 99.9536 86.833 93.9316C88.3199 87.189 89.6012 80.3319 89.3631 73.3898C89.3344 72.552 88.0507 72.5478 88.0796 73.3898C88.5074 85.8695 84.0007 97.7066 82.3053 109.923C81.0844 118.721 81.9404 127.664 82.5483 136.481C82.8837 141.344 83.2629 146.203 83.6086 151.065C83.6678 151.899 84.952 151.905 84.8921 151.065Z" fill="#838ECA"/>
<path d="M28.8655 41.5086C27.8609 40.1146 27.1505 38.3144 26.7925 37.1572C25.9616 34.4727 25.53 30.0556 28.9615 29.091C32.8602 27.9948 34.1086 32.587 35.2577 35.9829C36.0154 38.222 35.5667 42.0063 33.2439 43.2017C31.4721 44.1135 29.9859 43.0638 28.8655 41.5086Z" fill="#F3B499"/>
<path d="M65.3316 41.3141C66.3497 39.9303 67.0773 38.137 67.4468 36.9839C68.3039 34.3077 68.7784 29.8952 65.3564 28.8956C61.4685 27.7604 60.1756 32.3398 58.9935 35.7237C58.2139 37.9555 58.6259 41.7443 60.9366 42.9631C62.6996 43.8924 64.196 42.8579 65.3316 41.3141Z" fill="#F3B499"/>
<path d="M34.4658 47.6164C38.835 55.3702 48.2578 60.2018 55.8733 53.6968C61.1896 49.1556 62.9293 42.0122 63.2831 35.2384C63.5306 30.4995 63.3262 25.3292 61.1855 21.01C58.4663 15.5243 54.3522 15.0978 48.9494 14.5638C44.4287 14.1171 40.5299 13.4814 36.6389 16.6301C31.9048 20.4612 31.1302 26.0962 31.636 31.8296C32.0233 36.22 31.5721 40.4947 33.1277 44.7261C33.4938 45.7216 33.9437 46.6899 34.4658 47.6164Z" fill="#F3B499"/>
<path d="M47.3637 44.9923C47.8918 46.5696 48.5485 50.3667 46.831 51.467C46.3409 51.7809 45.6753 51.7013 45.1859 51.3861C43.1224 50.0583 43.0802 45.8636 43.2496 43.7022C43.2577 43.5965 43.2683 43.4866 43.3212 43.3947C43.3914 43.2729 43.5235 43.2044 43.6484 43.1419C43.8978 43.0183 44.1471 42.8943 44.3964 42.7706C44.6896 42.6249 45.0028 42.4751 45.3273 42.51C45.5647 42.5357 45.7817 42.659 45.973 42.8041C46.6605 43.3272 47.0758 44.142 47.3637 44.9923Z" fill="#F3B499"/>
<path d="M50.9434 50.4637C51.0843 50.6338 51.2415 50.7799 51.4154 50.8921C52.3325 51.4849 53.4868 50.7367 53.9312 49.8175C54.3279 48.9972 54.3294 48.0417 54.2759 47.1289C54.2136 46.0669 54.0875 40.407 52.0767 41.2232C51.0746 41.6304 50.8325 42.9572 50.4878 43.8627C50.01 45.1173 49.7825 46.4818 49.9495 47.8436C50.0479 48.647 50.3584 49.7592 50.9434 50.4637Z" fill="#F3B499"/>
<path d="M63.6748 31.4193C64.537 31.8844 64.8836 32.9148 64.9605 33.8542C65.0662 35.1451 64.8204 36.4393 64.2407 37.5929C63.8654 38.3397 64.9724 39.0016 65.3491 38.252C66.0581 36.8415 66.404 35.2242 66.2234 33.6414C66.0723 32.3187 65.5372 30.9468 64.3225 30.2915C63.5932 29.898 62.9437 31.025 63.6748 31.4193Z" fill="#2E436B"/>
<path d="M29.8126 30.6223C28.1127 31.3719 27.9865 33.3233 28.1732 34.9571C28.3609 36.5993 28.8826 38.1991 30.0319 39.4082C30.6074 40.0135 31.5143 39.0893 30.9396 38.4845C30.0558 37.5548 29.6276 36.2945 29.4651 35.0302C29.3117 33.8394 29.1812 32.314 30.4603 31.7501C30.7785 31.6099 30.8506 31.1352 30.6907 30.8567C30.4985 30.5226 30.132 30.4817 29.8126 30.6223Z" fill="#2E436B"/>
<path d="M11.4119 151.255C11.7012 142.961 11.9973 134.668 12.3568 126.377C12.5461 122.014 12.7511 117.652 12.9982 113.292C13.2415 108.997 13.7277 104.698 13.4239 100.395C12.9804 94.1131 11.5291 87.9311 11.5522 81.6118C11.5553 80.7712 10.2716 80.7698 10.2685 81.6118C10.2479 87.2257 11.3857 92.7357 11.9569 98.2985C12.2365 101.023 12.351 103.752 12.1498 106.486C12.0194 108.255 11.9063 110.025 11.8012 111.796C11.2807 120.574 10.9304 129.363 10.5993 138.151C10.4347 142.519 10.2806 146.887 10.1284 151.255C10.0991 152.096 11.3828 152.095 11.4119 151.255Z" fill="#838ECA"/>
<path d="M32.2274 61.4009C33.7218 63.1703 36.0222 64.0169 38.126 64.7706C40.449 65.6029 42.8554 66.1899 45.3082 66.4385C49.686 66.8815 54.1721 66.0478 57.9961 63.7908C59.9821 62.6188 61.7387 61.065 63.0254 59.1214C63.4883 58.4223 62.3767 57.7678 61.9172 58.4619C59.7972 61.6642 56.2225 63.6699 52.6151 64.6226C48.3054 65.761 43.7782 65.2385 39.5761 63.8882C37.338 63.169 34.7151 62.3481 33.1351 60.4772C32.5958 59.8388 31.6915 60.7662 32.2274 61.4009Z" fill="#838ECA"/>
<path d="M46.6165 159.866C46.4074 169.898 46.1361 179.928 45.825 189.957H47.1118C47.8465 166.281 48.3311 142.596 48.4072 118.907C48.4641 101.238 48.2916 83.5692 47.8406 65.9062C47.8194 65.067 46.5357 65.0638 46.5571 65.9062C47.3566 97.2198 47.2692 128.55 46.6165 159.866Z" fill="#838ECA"/>
<path d="M75.7242 53.0383C76.3069 54.2695 76.8561 55.4975 76.9679 56.97C75.5 56.0049 74.4351 54.5315 73.4712 53.0484C70.4765 48.4405 68.1275 43.4007 66.4992 38.1315C65.6852 35.4972 65.0507 32.8044 64.6066 30.08C64.1974 27.5679 64.7544 25.0319 63.3955 22.6921C61.9455 20.2177 58.945 19.0945 56.112 18.992C53.2901 18.9014 50.5016 19.6506 47.7021 20.0592C44.5566 20.5127 41.3444 20.5358 38.1878 20.1157C36.9276 19.9456 35.6003 19.7186 34.4515 20.2747C32.0182 21.4521 31.9699 25.178 31.443 27.4737C30.6578 30.8935 29.6509 34.2609 28.4345 37.5478C26.0501 43.9899 22.859 50.1241 18.9481 55.7421C20.3801 53.6845 20.9734 50.0064 21.7327 47.6041C22.6408 44.7312 23.4622 41.8276 24.1036 38.8802C25.9205 30.5304 26.3449 21.9995 28.263 13.6754C28.6873 11.8335 29.1232 9.96151 30.0518 8.32217C31.6905 5.42997 34.6773 3.59301 37.7235 2.3535C43.6435 -0.0552259 50.2699 -0.64166 56.5041 0.717348C59.941 1.46648 63.3887 2.88939 65.6864 5.59545C68.1488 8.49497 68.3349 11.7645 69.1323 15.2923C70.0329 19.2755 71.6683 22.8001 71.8395 26.981C72.0378 31.8288 72.2841 36.6448 72.8648 41.4654C73.2029 44.2712 73.7456 47.714 74.5972 50.381C74.8983 51.324 75.3192 52.1821 75.7242 53.0383Z" fill="#B0D1F7"/>
<path d="M25.5461 31.3228C26.2327 32.3784 27.1275 33.2723 28.1824 33.9447C28.4672 34.1262 28.9019 34.0155 29.0605 33.7103C29.2271 33.3891 29.1343 33.0104 28.8301 32.8169C28.7163 32.7443 28.6038 32.6693 28.4936 32.5908C28.4328 32.548 28.373 32.5039 28.3136 32.4593L28.233 32.3977C28.2826 32.4308 28.326 32.4717 28.2513 32.412C28.0349 32.2383 27.8276 32.053 27.6304 31.8573C27.438 31.6665 27.2551 31.4652 27.0828 31.2552C27.0396 31.2028 26.9976 31.1495 26.9556 31.0962C26.8653 30.9822 27.0432 31.2161 26.9572 31.0989L26.8966 31.0167C26.8129 30.9013 26.7323 30.7832 26.6543 30.6632C26.4694 30.3792 26.0789 30.2308 25.7763 30.4293C25.4974 30.6122 25.3478 31.018 25.5461 31.3228Z" fill="#6A85CA"/>
<path d="M26.8858 23.199C27.6471 24.7795 28.8278 26.1229 30.259 27.1055C30.5379 27.2967 30.9824 27.1694 31.137 26.8711C31.3085 26.5412 31.2046 26.1822 30.9069 25.9777C30.8263 25.9226 30.7461 25.8665 30.6673 25.8086L30.5494 25.7208C30.5142 25.6941 30.4448 25.6408 30.5169 25.6973C30.3631 25.5765 30.2138 25.4497 30.0684 25.3182C29.7701 25.0493 29.4888 24.7607 29.2271 24.4551C29.1632 24.3802 29.1006 24.3048 29.039 24.2281L28.9477 24.1127C28.8746 24.0199 28.9649 24.1389 28.9231 24.0805C28.8086 23.9201 28.6937 23.7611 28.5864 23.5961C28.3664 23.2574 28.1697 22.9044 27.9942 22.54C27.8461 22.2325 27.3928 22.1245 27.1162 22.3056C26.8065 22.5087 26.7275 22.8704 26.8858 23.199Z" fill="#6A85CA"/>
<path d="M28.8026 12.3909C29.4531 14.6323 30.6586 16.6844 32.2973 18.3228C32.887 18.9124 33.7953 17.9896 33.205 17.3995C31.7212 15.916 30.6297 14.0744 30.0402 12.0434C29.8069 11.2392 28.5677 11.5816 28.8026 12.3909Z" fill="#6A85CA"/>
<path d="M34.504 4.60687C35.2947 9.34845 37.0131 13.9034 39.5339 17.9712C39.9734 18.6804 41.0845 18.0259 40.6424 17.3122C38.1744 13.3294 36.5158 8.90126 35.7418 4.25941C35.6038 3.43263 34.3666 3.78329 34.504 4.60687Z" fill="#6A85CA"/>
<path d="M45.7474 1.5208C45.0274 7.39389 44.3854 13.6599 47.2691 19.0761C47.6625 19.8156 48.7712 19.157 48.3773 18.4171C45.6166 13.2316 46.3432 7.13053 47.0311 1.5208C47.1329 0.688943 45.8486 0.696285 45.7474 1.5208Z" fill="#6A85CA"/>
<path d="M55.0023 2.26932C56.4284 7.43369 56.0124 12.8684 54.8814 18.047C54.7025 18.866 55.9399 19.2157 56.1192 18.394C57.2995 12.9892 57.7286 7.31238 56.2398 1.92233C56.0167 1.11437 54.778 1.45769 55.0023 2.26932Z" fill="#6A85CA"/>
<path d="M63.13 5.67079C63.2956 10.1481 62.3868 14.6125 60.4518 18.6409C60.0905 19.3932 61.1971 20.0559 61.56 19.2999C63.5937 15.0666 64.5876 10.3821 64.4137 5.67079C64.3828 4.833 63.0991 4.82886 63.13 5.67079Z" fill="#6A85CA"/>
<path d="M67.5966 15.8865C67.5601 18.7038 65.906 21.0964 64.3793 23.3157C63.9045 24.0056 65.0168 24.6591 65.4877 23.9748C67.1565 21.5491 68.8403 18.9565 68.8801 15.8865C68.8912 15.0459 67.6075 15.0454 67.5966 15.8865Z" fill="#6A85CA"/>
<path d="M69.1611 25.4152C68.5517 27.6029 67.5802 29.6536 66.2906 31.5099C66.0903 31.798 66.2398 32.236 66.5208 32.4033C66.8421 32.5945 67.1983 32.458 67.3988 32.1689C68.7482 30.2267 69.7614 28.051 70.3987 25.7627C70.6245 24.9524 69.3862 24.6069 69.1611 25.4152Z" fill="#6A85CA"/>
<path d="M70.8585 33.712C70.552 35.3307 69.9398 36.7991 69.0089 38.1494C68.8097 38.438 68.9574 38.8751 69.239 39.0428C69.5595 39.2335 69.9174 39.098 70.1171 38.8084C71.0941 37.392 71.7746 35.7586 72.0961 34.059C72.1619 33.7134 72.0006 33.3545 71.6481 33.2562C71.3337 33.1679 70.9245 33.3642 70.8585 33.712Z" fill="#6A85CA"/>
<path d="M72.2719 37.7313C71.0856 36.2463 70.0941 34.6024 69.3014 32.8674C69.1553 32.548 68.7025 32.4671 68.4233 32.6335C68.1011 32.8251 68.0464 33.2057 68.193 33.5269C69.0345 35.3681 70.1061 37.08 71.3643 38.655C71.5829 38.9289 72.0445 38.8862 72.2719 38.655C72.538 38.3839 72.4912 38.0061 72.2719 37.7313Z" fill="#6A85CA"/>
<path d="M72.3152 29.5661C68.753 25.57 66.119 20.7833 64.6228 15.6084C64.3902 14.8041 63.151 15.1465 63.385 15.9558C64.9444 21.3491 67.6958 26.326 71.4078 30.4894C71.9639 31.1135 72.8695 30.1875 72.3152 29.5661Z" fill="#6A85CA"/>
<path d="M69.0523 15.9739C67.9032 14.6438 66.7541 13.3142 65.605 11.9842C64.5964 10.8168 63.6373 9.52357 62.4697 8.5138C61.2888 7.49214 59.8206 6.94938 58.409 6.34595C56.9094 5.70436 55.3934 5.09128 53.8253 4.64457C48.2082 3.0447 42.2861 4.14868 37.1661 6.83036C35.7286 7.58316 34.3536 8.46006 33.0568 9.44266C31.7456 10.4354 30.4712 11.5053 29.6378 12.9612C29.2214 13.6892 30.3303 14.3474 30.7463 13.6208C31.4319 12.4226 32.4746 11.5154 33.5501 10.6882C34.6325 9.85535 35.7726 9.09841 36.9576 8.42556C39.3296 7.07762 41.8929 6.07803 44.5647 5.55729C47.2307 5.03748 50.0002 5.04393 52.6458 5.68276C54.1587 6.04814 55.6242 6.58954 57.0635 7.18237C58.4291 7.74538 59.9267 8.26061 61.1476 9.11497C62.4758 10.0447 63.4932 11.5145 64.5477 12.7347C65.7467 14.1222 66.9456 15.5097 68.1446 16.8972C68.6912 17.5296 69.5961 16.603 69.0523 15.9739Z" fill="#6A85CA"/>
<path d="M62.654 14.482C59.6921 11.9387 55.8503 10.9446 52.0381 10.8504C49.8361 10.7957 47.6385 11.0222 45.4568 11.304C43.4041 11.5687 41.3244 11.81 39.3281 12.3845C37.0717 13.0343 35.1686 14.249 33.2733 15.6181C32.6052 16.1007 33.2457 17.234 33.9212 16.7459C35.4796 15.6204 37.0496 14.5225 38.8749 13.8942C40.7101 13.2627 42.6394 12.9874 44.553 12.7296C48.4876 12.1997 52.5702 11.7268 56.4693 12.7448C58.3899 13.2462 60.2242 14.0983 61.7464 15.4058C62.374 15.9444 63.2864 15.0253 62.654 14.482Z" fill="#6A85CA"/>
<path d="M26.0852 36.2375C27.4642 35.1166 28.5758 33.6427 29.282 31.9964C29.4159 31.6843 29.3825 31.2808 29.0516 31.103C28.7741 30.9536 28.317 31.0033 28.1736 31.3374C27.8353 32.126 27.4079 32.8747 26.8937 33.5581C26.9339 33.5048 26.8849 33.5696 26.8714 33.5871C26.8366 33.6312 26.8018 33.6753 26.7666 33.7194C26.7031 33.798 26.6387 33.8761 26.573 33.9529C26.4346 34.1156 26.2914 34.2737 26.1434 34.4276C25.8397 34.7434 25.5165 35.0384 25.1775 35.3137C24.914 35.5279 24.9415 36.0169 25.1775 36.2375C25.4571 36.4985 25.804 36.4659 26.0852 36.2375Z" fill="#6A85CA"/>
<path d="M26.8028 28.1777C27.6613 26.5627 28.6728 25.0277 29.6293 23.4719C30.6056 21.8831 31.5821 20.2948 32.5584 18.7065C32.9977 17.9918 31.8877 17.3351 31.45 18.047C30.4737 19.6358 29.4974 21.2241 28.5208 22.8129C27.5646 24.3686 26.5531 25.9036 25.6944 27.5182C25.3014 28.2577 26.4092 28.9181 26.8028 28.1777Z" fill="#6A85CA"/>
<path d="M48.8616 22.8754C51.1153 22.6084 53.3215 22.022 55.568 21.6984C62.0533 20.7641 62.0794 26.8173 63.559 31.7289C65.3614 37.7128 67.4311 43.6424 70.311 49.1873C71.9081 52.2624 73.9121 55.3605 77.0011 56.8491C76.5743 53.2799 74.1862 50.3363 72.3806 47.2451C69.0173 41.4878 67.5778 34.884 65.98 28.4612C65.386 26.0741 64.9614 21.1722 63.26 19.3595C61.5295 17.5157 57.4296 18.2336 55.2753 18.4997C53.3477 18.7373 51.4204 18.9753 49.4928 19.2134C47.6969 19.4349 45.8502 19.6537 44.0997 19.189C41.0393 18.377 37.1573 16.2343 34.0262 17.8204C31.0302 19.3384 31.1061 25.7175 30.3012 28.7306C29.0671 33.3513 27.5186 37.8846 25.6707 42.288C24.151 45.9104 22.4122 51.4641 19.685 54.3177C24.9629 48.7957 28.5066 41.8729 31.2402 34.7553C32.6314 31.1333 33.7399 27.4263 34.9639 23.7463C36.2203 19.969 38.7825 21.0949 42.061 22.0527C44.356 22.7233 46.4532 23.1608 48.8616 22.8754Z" fill="#CDE6FD"/>
<path d="M25.4532 16.1627C25.436 16.4696 25.4261 16.8024 25.5372 17.0612C25.7077 17.4582 26.0738 17.5042 26.387 17.5083C41.3105 17.7096 56.2337 17.9109 71.1572 18.1122C71.1513 16.2697 70.981 14.4282 70.6522 12.6537C70.5673 12.1945 70.4643 11.7212 70.2418 11.3825C69.8938 10.853 69.3507 10.7868 68.857 10.7524C56.0196 9.85068 43.1527 8.94941 30.3248 10.1264C29.1893 10.2308 26.9419 10.1687 26.0975 11.5645C25.4705 12.6013 25.5273 14.8363 25.4532 16.1627Z" fill="#012087"/>
</g>
<defs>
<clipPath id="clip0_4295_25568">
<rect width="99" height="93" fill="white"/>
</clipPath>
</defs>
</svg>
