<svg width="37" height="56" viewBox="0 0 37 56" fill="none" xmlns="http://www.w3.org/2000/svg">
<path d="M5.88584 42.4912C5.7925 42.4912 5.74584 42.4446 5.74584 42.3512V41.1472C5.74584 41.0539 5.7925 41.0072 5.88584 41.0072H7.06184C7.15517 41.0072 7.20184 41.0539 7.20184 41.1472V42.3512C7.20184 42.4446 7.15517 42.4912 7.06184 42.4912H5.88584ZM4.06584 42.4912C3.9725 42.4912 3.92584 42.4446 3.92584 42.3512V41.1472C3.92584 41.0539 3.9725 41.0072 4.06584 41.0072H5.24184C5.33517 41.0072 5.38184 41.0539 5.38184 41.1472V42.3512C5.38184 42.4446 5.33517 42.4912 5.24184 42.4912H4.06584ZM7.20184 38.5992C7.76184 38.5992 8.1445 38.5292 8.34984 38.3892C8.55517 38.2492 8.65784 38.0719 8.65784 37.8572C8.65784 37.6799 8.60184 37.5259 8.48984 37.3952C8.38717 37.2739 8.21917 37.1572 7.98584 37.0452C7.76184 36.9239 7.4725 36.8026 7.11784 36.6812C6.7725 36.5506 6.36184 36.3966 5.88584 36.2192C5.80184 36.1912 5.77384 36.1352 5.80184 36.0512L6.17984 34.9452C6.20784 34.8519 6.26384 34.8192 6.34784 34.8472C6.6465 34.9592 6.93117 35.0759 7.20184 35.1972C7.4725 35.3092 7.7385 35.4119 7.99984 35.5052C8.26117 35.5892 8.51784 35.6639 8.76984 35.7292C9.02184 35.7852 9.28317 35.8132 9.55384 35.8132H10.9538C11.1405 35.8132 11.2805 35.8599 11.3738 35.9532C11.4672 36.0466 11.5138 36.2146 11.5138 36.4572C11.5138 36.7279 11.4672 36.9192 11.3738 37.0312C11.2898 37.1432 11.1498 37.1992 10.9538 37.1992H9.98784C10.0345 37.2739 10.0858 37.3906 10.1418 37.5492C10.2072 37.7172 10.2398 37.8946 10.2398 38.0812C10.2398 38.3426 10.1885 38.5899 10.0858 38.8232C9.98317 39.0566 9.81984 39.2619 9.59584 39.4392C9.38117 39.6166 9.0965 39.7566 8.74184 39.8592C8.3965 39.9712 7.97184 40.0272 7.46784 40.0272H4.27584C3.0625 40.0272 2.15717 39.7472 1.55984 39.1872C0.971836 38.6272 0.677836 37.8666 0.677836 36.9052C0.677836 36.6439 0.701169 36.3826 0.747836 36.1212C0.803836 35.8506 0.873836 35.5939 0.957836 35.3512C1.04184 35.0992 1.13517 34.8659 1.23784 34.6512C1.34984 34.4272 1.4665 34.2312 1.58784 34.0632C1.6345 33.9886 1.69984 33.9792 1.78384 34.0352L2.88984 34.6092C2.9645 34.6559 2.9785 34.7166 2.93184 34.7912C2.77317 35.0526 2.62384 35.3559 2.48384 35.7012C2.35317 36.0466 2.28784 36.4012 2.28784 36.7652C2.28784 37.1199 2.3485 37.4139 2.46984 37.6472C2.6005 37.8806 2.7685 38.0672 2.97384 38.2072C3.17917 38.3472 3.4125 38.4452 3.67384 38.5012C3.93517 38.5666 4.20117 38.5992 4.47184 38.5992H7.20184ZM12.192 39.8592C12.0986 39.8592 12.052 39.8126 12.052 39.7192V38.5152C12.052 38.4219 12.0986 38.3752 12.192 38.3752H13.536C13.6293 38.3752 13.676 38.4219 13.676 38.5152V39.7192C13.676 39.8126 13.6293 39.8592 13.536 39.8592H12.192ZM10.96 37.1992C10.7733 37.1992 10.6333 37.1666 10.54 37.1012C10.4466 37.0359 10.4 36.9052 10.4 36.7092C10.4 36.4759 10.4466 36.2706 10.54 36.0932C10.624 35.9066 10.764 35.8132 10.96 35.8132H11.646C11.8793 35.8132 12.0473 35.7619 12.15 35.6592C12.262 35.5472 12.318 35.3512 12.318 35.0712V31.5292C12.318 31.4359 12.3646 31.3892 12.458 31.3892H13.76C13.8533 31.3892 13.9 31.4359 13.9 31.5292V35.4352C13.9 36.0419 13.774 36.4899 13.522 36.7792C13.27 37.0592 12.85 37.1992 12.262 37.1992H10.96ZM15.7254 27.8192C15.7254 27.7259 15.7721 27.6792 15.8654 27.6792H17.1674C17.2608 27.6792 17.3074 27.7259 17.3074 27.8192V35.0712C17.3074 35.3512 17.3588 35.5472 17.4614 35.6592C17.5734 35.7619 17.7461 35.8132 17.9794 35.8132H18.4694C18.6561 35.8132 18.7961 35.8692 18.8894 35.9812C18.9828 36.0839 19.0294 36.2659 19.0294 36.5272C19.0294 36.8166 18.9828 37.0032 18.8894 37.0872C18.8054 37.1619 18.6654 37.1992 18.4694 37.1992H17.3634C16.7754 37.1992 16.3554 37.0592 16.1034 36.7792C15.8514 36.4899 15.7254 36.0419 15.7254 35.4352V27.8192ZM21.8258 34.9452C21.8258 35.2439 21.9005 35.4632 22.0498 35.6032C22.2085 35.7432 22.4558 35.8132 22.7918 35.8132C23.0252 35.8132 23.2072 35.7992 23.3378 35.7712C23.4778 35.7339 23.5805 35.6639 23.6458 35.5612C23.7112 35.4586 23.7485 35.3186 23.7578 35.1412C23.7765 34.9639 23.7858 34.7259 23.7858 34.4272V32.6352C23.7858 32.5419 23.8325 32.4952 23.9258 32.4952H25.2278C25.3212 32.4952 25.3678 32.5419 25.3678 32.6352V34.9732C25.3678 35.2626 25.4565 35.4772 25.6338 35.6172C25.8112 35.7479 26.0445 35.8132 26.3338 35.8132C26.5485 35.8132 26.7212 35.7992 26.8518 35.7712C26.9825 35.7339 27.0805 35.6686 27.1458 35.5752C27.2205 35.4726 27.2672 35.3326 27.2858 35.1552C27.3045 34.9686 27.3138 34.7306 27.3138 34.4412V31.5292C27.3138 31.4359 27.3605 31.3892 27.4538 31.3892H28.7558C28.8492 31.3892 28.8958 31.4359 28.8958 31.5292V34.9452C28.8958 35.2252 28.9985 35.4399 29.2038 35.5892C29.4185 35.7386 29.7032 35.8132 30.0578 35.8132H30.2958C30.4825 35.8132 30.6225 35.8646 30.7158 35.9672C30.8092 36.0699 30.8558 36.2426 30.8558 36.4852C30.8558 36.7559 30.8092 36.9426 30.7158 37.0452C30.6225 37.1479 30.4825 37.1992 30.2958 37.1992C29.9318 37.1992 29.6145 37.1572 29.3438 37.0732C29.0825 36.9799 28.8725 36.7839 28.7138 36.4852C28.5832 36.7466 28.3918 36.9332 28.1398 37.0452C27.8972 37.1479 27.5658 37.1992 27.1458 37.1992H26.5438C26.2172 37.1992 25.9372 37.1386 25.7038 37.0172C25.4798 36.8866 25.3072 36.7046 25.1858 36.4712C25.0552 36.7419 24.8638 36.9332 24.6118 37.0452C24.3692 37.1479 24.0378 37.1992 23.6178 37.1992H23.0018C22.3392 37.1992 21.8865 36.9519 21.6438 36.4572C21.5132 36.7279 21.3218 36.9192 21.0698 37.0312C20.8272 37.1432 20.4958 37.1992 20.0758 37.1992H18.5638C18.4612 37.1992 18.3678 37.1946 18.2838 37.1852C18.1998 37.1759 18.1298 37.1526 18.0738 37.1152C18.0178 37.0686 17.9758 37.0032 17.9478 36.9192C17.9198 36.8352 17.9058 36.7186 17.9058 36.5692C17.9058 36.2892 17.9525 36.0932 18.0458 35.9812C18.1298 35.8692 18.2698 35.8132 18.4658 35.8132H19.5858C19.7538 35.8132 19.8798 35.7899 19.9638 35.7432C20.0572 35.6872 20.1225 35.6032 20.1598 35.4912C20.2065 35.3792 20.2298 35.2392 20.2298 35.0712C20.2392 34.8939 20.2438 34.6792 20.2438 34.4272V32.6352C20.2438 32.5419 20.2905 32.4952 20.3838 32.4952H21.6858C21.7792 32.4952 21.8258 32.5419 21.8258 32.6352V34.9452ZM30.292 37.1992C30.1053 37.1992 29.9653 37.1479 29.872 37.0452C29.7787 36.9332 29.732 36.7512 29.732 36.4992C29.732 36.2286 29.7787 36.0466 29.872 35.9532C29.956 35.8599 30.096 35.8132 30.292 35.8132H34.016C34.2587 35.8132 34.4547 35.7946 34.604 35.7572C34.7533 35.7199 34.87 35.6546 34.954 35.5612C35.038 35.4679 35.094 35.3466 35.122 35.1972C35.15 35.0386 35.164 34.8472 35.164 34.6232C35.164 34.3246 35.136 34.0492 35.08 33.7972C35.024 33.5359 34.9307 33.3119 34.8 33.1252C34.6693 32.9386 34.4967 32.7939 34.282 32.6912C34.0767 32.5886 33.8153 32.5372 33.498 32.5372C33.19 32.5372 32.91 32.5979 32.658 32.7192C32.406 32.8406 32.182 33.0039 31.986 33.2092C31.9207 33.2746 31.8553 33.2792 31.79 33.2232L31.062 32.4672C30.9873 32.3926 30.978 32.3272 31.034 32.2712C31.3233 31.9446 31.6687 31.6739 32.07 31.4592C32.4713 31.2446 32.9613 31.1372 33.54 31.1372C34.1653 31.1372 34.688 31.2352 35.108 31.4312C35.528 31.6179 35.864 31.8746 36.116 32.2012C36.368 32.5186 36.5453 32.8919 36.648 33.3212C36.76 33.7412 36.816 34.1892 36.816 34.6652C36.816 35.1692 36.7693 35.5846 36.676 35.9112C36.5827 36.2379 36.4427 36.4992 36.256 36.6952C36.0787 36.8819 35.85 37.0126 35.57 37.0872C35.2993 37.1619 34.982 37.1992 34.618 37.1992H30.292Z" fill="#265CFF"/>
<path d="M22.5439 4.21726C22.5439 6.26594 20.8831 7.92672 18.8345 7.92672C16.7858 7.92672 15.125 6.26594 15.125 4.21726C15.125 2.16859 16.7858 0.507812 18.8345 0.507812C20.8831 0.507812 22.5439 2.16859 22.5439 4.21726Z" fill="#265CFF" stroke="#265CFF"/>
<path d="M26.0219 13.2769L26.0241 13.279C27.4005 14.6434 28.354 16.3759 28.7704 18.2686C28.8264 18.5425 28.8212 18.8255 28.7552 19.0972C28.6889 19.3699 28.563 19.6246 28.3866 19.8428L28.3851 19.8447C28.2005 20.0753 27.9663 20.2615 27.6999 20.3893C27.4336 20.5172 27.1419 20.5834 26.8464 20.5833H26.8461H10.8221V20.5832L10.8158 20.5833C10.5212 20.587 10.2296 20.5246 9.96229 20.4007C9.69552 20.2769 9.45985 20.0951 9.27256 19.8684C9.09347 19.6478 8.96613 19.3899 8.89993 19.1136C8.83367 18.837 8.83036 18.5491 8.89025 18.2711C9.30627 16.3777 10.2598 14.6446 11.6364 13.2798C13.5552 11.3945 16.1416 10.3443 18.8316 10.3581L18.8316 10.3581L18.8384 10.358C21.0369 10.3391 23.1807 11.0435 24.9395 12.3628L24.9394 12.3629L24.9503 12.3706C25.3326 12.6417 25.6911 12.9449 26.0219 13.2769Z" fill="#265CFF" stroke="#265CFF"/>
<line x1="10.166" y1="54.9116" x2="27.4903" y2="54.9116" stroke="#265CFF" stroke-width="2"/>
</svg>
