<svg width="39" height="57" viewBox="0 0 39 57" fill="none" xmlns="http://www.w3.org/2000/svg">
<g clip-path="url(#clip0_37_2790)">
<path d="M9.4251 18.8444H7.84012C7.84012 18.7511 7.84012 18.6677 7.84012 18.5842C7.84012 17.4984 7.86562 16.412 7.83431 15.327C7.78401 13.584 8.04062 11.888 8.60466 10.2289C8.75867 9.77586 8.88277 9.31399 9.02997 8.85886C9.4107 7.6817 10.5818 6.85752 11.8869 6.85574C14.527 6.85213 17.1673 6.84038 19.8072 6.86094C21.0499 6.87061 22.184 7.25545 23.1561 7.98161C24.2631 8.80854 25.3342 9.6777 26.4268 10.5218C26.5574 10.6227 26.7163 10.7046 26.8765 10.7564C27.8035 11.0565 28.7352 11.3437 29.6646 11.6374C30.9739 12.0511 31.8261 13.1645 31.8274 14.464C31.8288 15.8388 31.8277 17.2136 31.8277 18.5884V18.8376H31.0361C30.9892 17.6454 30.4945 16.649 29.4887 15.9021C28.7221 15.3328 27.837 15.0754 26.8602 15.1079C25.0053 15.1695 23.0987 16.5595 23.0099 18.843H17.4469C17.3902 17.5719 16.8421 16.5297 15.7238 15.7828C14.9494 15.2655 14.0745 15.0486 13.1285 15.1158C11.2688 15.248 9.51459 16.6411 9.4251 18.8444ZM19.5392 16.0517C19.5587 16.0559 19.5782 16.0601 19.5977 16.0643C20.5653 14.7554 21.5328 13.4465 22.53 12.0976H20.1178V9.65298C20.1019 9.6505 20.086 9.64803 20.0701 9.64555C19.1026 10.9543 18.1352 12.263 17.1379 13.6121H19.5392L19.5392 16.0517Z" fill="#265CFF"/>
<path d="M25.4259 6.0725C24.4572 6.0725 23.5171 6.14698 22.596 6.05454C21.3067 5.92516 20.4578 5.18825 20.0156 4.05117C19.9565 3.89918 19.8898 3.85179 19.7191 3.85255C18.1869 3.85941 16.6546 3.8557 15.1223 3.85701C14.5642 3.85749 14.2411 4.16224 14.238 4.68548C14.2367 4.89622 14.2378 5.10697 14.2378 5.33703H12.6716C12.3358 3.45 13.6473 2.32917 15.1644 2.35056C16.6714 2.3718 18.1789 2.35219 19.6862 2.35912C19.8692 2.35996 19.958 2.32446 20.0225 2.14566C20.467 0.913096 21.6486 0.117201 23.0329 0.106727C23.8223 0.100753 24.6118 0.105646 25.4202 0.105646V0.843005H27.013V2.34726H25.4513V3.85075H27.0173V5.34673H25.4259V6.0725Z" fill="#265CFF"/>
<path d="M13.4321 21.1038C12.1121 21.1015 11.0367 20.0879 11.0391 18.8485C11.0415 17.6099 12.1214 16.6019 13.4434 16.6043C14.7644 16.6066 15.8386 17.619 15.8362 18.8593C15.8338 20.0984 14.7544 21.1061 13.4321 21.1038Z" fill="#265CFF"/>
<path d="M29.428 18.8558C29.4272 20.0952 28.3494 21.1046 27.0276 21.1038C25.7074 21.103 24.63 20.0908 24.6309 18.852C24.6318 17.6127 25.7097 16.6034 27.0315 16.6042C28.3528 16.6051 29.4288 17.616 29.428 18.8558Z" fill="#265CFF"/>
</g>
<path d="M5.99716 42.6834C5.90383 42.6834 5.85716 42.6367 5.85716 42.5434V41.3394C5.85716 41.246 5.90383 41.1994 5.99716 41.1994H7.17316C7.2665 41.1994 7.31316 41.246 7.31316 41.3394V42.5434C7.31316 42.6367 7.2665 42.6834 7.17316 42.6834H5.99716ZM4.17716 42.6834C4.08383 42.6834 4.03716 42.6367 4.03716 42.5434V41.3394C4.03716 41.246 4.08383 41.1994 4.17716 41.1994H5.35316C5.4465 41.1994 5.49316 41.246 5.49316 41.3394V42.5434C5.49316 42.6367 5.4465 42.6834 5.35316 42.6834H4.17716ZM7.31316 38.7914C7.87316 38.7914 8.25583 38.7214 8.46116 38.5814C8.6665 38.4414 8.76916 38.264 8.76916 38.0494C8.76916 37.872 8.71316 37.718 8.60116 37.5874C8.4985 37.466 8.3305 37.3494 8.09716 37.2374C7.87316 37.116 7.58383 36.9947 7.22916 36.8734C6.88383 36.7427 6.47316 36.5887 5.99716 36.4114C5.91316 36.3834 5.88516 36.3274 5.91316 36.2434L6.29116 35.1374C6.31916 35.044 6.37516 35.0114 6.45916 35.0394C6.75783 35.1514 7.0425 35.268 7.31316 35.3894C7.58383 35.5014 7.84983 35.604 8.11116 35.6974C8.3725 35.7814 8.62916 35.856 8.88116 35.9214C9.13316 35.9774 9.3945 36.0054 9.66516 36.0054H11.0652C11.2518 36.0054 11.3918 36.052 11.4852 36.1454C11.5785 36.2387 11.6252 36.4067 11.6252 36.6494C11.6252 36.92 11.5785 37.1114 11.4852 37.2234C11.4012 37.3354 11.2612 37.3914 11.0652 37.3914H10.0992C10.1458 37.466 10.1972 37.5827 10.2532 37.7414C10.3185 37.9094 10.3512 38.0867 10.3512 38.2734C10.3512 38.5347 10.2998 38.782 10.1972 39.0154C10.0945 39.2487 9.93116 39.454 9.70716 39.6314C9.4925 39.8087 9.20783 39.9487 8.85316 40.0514C8.50783 40.1634 8.08316 40.2194 7.57916 40.2194H4.38716C3.17383 40.2194 2.2685 39.9394 1.67116 39.3794C1.08316 38.8194 0.789164 38.0587 0.789164 37.0974C0.789164 36.836 0.812497 36.5747 0.859164 36.3134C0.915164 36.0427 0.985164 35.786 1.06916 35.5434C1.15316 35.2914 1.2465 35.058 1.34916 34.8434C1.46116 34.6194 1.57783 34.4234 1.69916 34.2554C1.74583 34.1807 1.81116 34.1714 1.89516 34.2274L3.00116 34.8014C3.07583 34.848 3.08983 34.9087 3.04316 34.9834C2.8845 35.2447 2.73516 35.548 2.59516 35.8934C2.4645 36.2387 2.39916 36.5934 2.39916 36.9574C2.39916 37.312 2.45983 37.606 2.58116 37.8394C2.71183 38.0727 2.87983 38.2594 3.08516 38.3994C3.2905 38.5394 3.52383 38.6374 3.78516 38.6934C4.0465 38.7587 4.3125 38.7914 4.58316 38.7914H7.31316ZM13.8433 30.1814C13.75 30.1814 13.7033 30.1347 13.7033 30.0414V28.8374C13.7033 28.744 13.75 28.6974 13.8433 28.6974H15.0193C15.1126 28.6974 15.1593 28.744 15.1593 28.8374V30.0414C15.1593 30.1347 15.1126 30.1814 15.0193 30.1814H13.8433ZM12.0233 30.1814C11.93 30.1814 11.8833 30.1347 11.8833 30.0414V28.8374C11.8833 28.744 11.93 28.6974 12.0233 28.6974H13.1993C13.2926 28.6974 13.3393 28.744 13.3393 28.8374V30.0414C13.3393 30.1347 13.2926 30.1814 13.1993 30.1814H12.0233ZM14.1093 36.6774C13.9786 36.948 13.778 37.1347 13.5073 37.2374C13.246 37.34 12.8913 37.3914 12.4433 37.3914H11.1413C10.9546 37.3914 10.8146 37.3494 10.7213 37.2654C10.628 37.172 10.5813 36.9947 10.5813 36.7334C10.5813 36.4627 10.628 36.276 10.7213 36.1734C10.8053 36.0614 10.9453 36.0054 11.1413 36.0054H12.0513C12.2193 36.0054 12.3453 35.982 12.4293 35.9354C12.5226 35.8794 12.588 35.8 12.6253 35.6974C12.672 35.5854 12.7 35.4454 12.7093 35.2774C12.7186 35.1 12.7233 34.8854 12.7233 34.6334V31.7214C12.7233 31.6654 12.7466 31.628 12.7933 31.6094C12.8493 31.5907 12.9053 31.5814 12.9613 31.5814H14.1653C14.2586 31.5814 14.3053 31.628 14.3053 31.7214V35.1374C14.3053 35.4174 14.408 35.632 14.6133 35.7814C14.828 35.9307 15.1126 36.0054 15.4673 36.0054H15.7053C15.892 36.0054 16.032 36.0567 16.1253 36.1594C16.2186 36.262 16.2653 36.4347 16.2653 36.6774C16.2653 36.948 16.2186 37.1347 16.1253 37.2374C16.0413 37.34 15.9013 37.3914 15.7053 37.3914C15.3413 37.3914 15.024 37.3494 14.7533 37.2654C14.4826 37.172 14.268 36.976 14.1093 36.6774ZM17.2601 40.0514C17.1667 40.0514 17.1201 40.0047 17.1201 39.9114V38.7074C17.1201 38.614 17.1667 38.5674 17.2601 38.5674H18.6041C18.6974 38.5674 18.7441 38.614 18.7441 38.7074V39.9114C18.7441 40.0047 18.6974 40.0514 18.6041 40.0514H17.2601ZM18.7161 35.1374C18.7161 35.4174 18.8187 35.632 19.0241 35.7814C19.2387 35.9307 19.5234 36.0054 19.8781 36.0054H20.1161C20.3027 36.0054 20.4427 36.0567 20.5361 36.1594C20.6294 36.262 20.6761 36.4347 20.6761 36.6774C20.6761 36.948 20.6294 37.1347 20.5361 37.2374C20.4521 37.34 20.3121 37.3914 20.1161 37.3914C19.7521 37.3914 19.4347 37.3494 19.1641 37.2654C18.8934 37.172 18.6787 36.976 18.5201 36.6774C18.3894 36.948 18.1934 37.1347 17.9321 37.2374C17.6801 37.34 17.3301 37.3914 16.8821 37.3914H15.7761C15.5894 37.3914 15.4494 37.3634 15.3561 37.3074C15.2627 37.242 15.2161 37.1067 15.2161 36.9014C15.2161 36.668 15.2627 36.4627 15.3561 36.2854C15.4401 36.0987 15.5847 36.0054 15.7901 36.0054H16.4621C16.6207 36.0054 16.7467 35.982 16.8401 35.9354C16.9334 35.8887 16.9987 35.814 17.0361 35.7114C17.0827 35.6087 17.1107 35.4734 17.1201 35.3054C17.1294 35.1374 17.1341 34.932 17.1341 34.6894V31.7214C17.1341 31.628 17.1807 31.5814 17.2741 31.5814H18.5761C18.6694 31.5814 18.7161 31.628 18.7161 31.7214V35.1374ZM22.91 31.5254C23.4047 31.5347 23.8574 31.572 24.268 31.6374C24.6787 31.6934 25.0287 31.8147 25.318 32.0014C25.6074 32.1787 25.8314 32.44 25.99 32.7854C26.1487 33.1307 26.228 33.588 26.228 34.1574V34.9974C26.228 35.464 26.186 35.8514 26.102 36.1594C26.018 36.458 25.892 36.7007 25.724 36.8874C25.556 37.074 25.3414 37.2047 25.08 37.2794C24.8187 37.354 24.5107 37.3914 24.156 37.3914H20.04C19.8534 37.3914 19.7134 37.34 19.62 37.2374C19.5267 37.1254 19.48 36.934 19.48 36.6634C19.48 36.3927 19.5267 36.2154 19.62 36.1314C19.704 36.0474 19.844 36.0054 20.04 36.0054H23.512C23.764 36.0054 23.9647 35.9867 24.114 35.9494C24.2634 35.912 24.3754 35.8514 24.45 35.7674C24.534 35.6834 24.5854 35.5714 24.604 35.4314C24.632 35.2914 24.646 35.114 24.646 34.8994V34.1434C24.646 33.7234 24.5294 33.4154 24.296 33.2194C24.072 33.014 23.7127 32.9114 23.218 32.9114H20.964C20.8707 32.9114 20.824 32.8647 20.824 32.7714V31.8054C20.824 31.74 20.852 31.6794 20.908 31.6234C20.964 31.5674 21.0107 31.516 21.048 31.4694L24.072 27.9134C24.128 27.848 24.1887 27.834 24.254 27.8714L25.164 28.6274C25.2387 28.6834 25.2574 28.7487 25.22 28.8234L22.91 31.5254ZM28.526 31.7214C28.526 31.628 28.5727 31.5814 28.666 31.5814H29.968C30.0613 31.5814 30.108 31.628 30.108 31.7214V35.1374C30.108 35.4174 30.2107 35.632 30.416 35.7814C30.6307 35.9307 30.9153 36.0054 31.27 36.0054H31.508C31.6947 36.0054 31.8347 36.0567 31.928 36.1594C32.0213 36.262 32.068 36.4347 32.068 36.6774C32.068 36.948 32.0213 37.1347 31.928 37.2374C31.844 37.34 31.704 37.3914 31.508 37.3914C31.1907 37.3914 30.9153 37.3634 30.682 37.3074C30.458 37.2514 30.2667 37.1254 30.108 36.9294V37.1954C30.108 37.6994 30.066 38.138 29.982 38.5114C29.898 38.894 29.758 39.2114 29.562 39.4634C29.3753 39.7154 29.1233 39.902 28.806 40.0234C28.4887 40.154 28.0967 40.2194 27.63 40.2194H27.112C27.0187 40.2194 26.972 40.1727 26.972 40.0794V38.9594C26.972 38.866 27.0187 38.8194 27.112 38.8194H27.42C27.6907 38.8194 27.9007 38.7727 28.05 38.6794C28.1993 38.586 28.3067 38.446 28.372 38.2594C28.4467 38.082 28.4887 37.8627 28.498 37.6014C28.5167 37.3494 28.526 37.0554 28.526 36.7194V31.7214ZM35.7947 37.4894C35.3281 37.4894 34.9081 37.4287 34.5347 37.3074C34.1614 37.1767 33.8487 36.9667 33.5967 36.6774C33.5034 36.8267 33.3914 36.948 33.2607 37.0414C33.1301 37.1347 32.9947 37.2094 32.8547 37.2654C32.7147 37.312 32.5701 37.3447 32.4207 37.3634C32.2714 37.382 32.1314 37.3914 32.0007 37.3914H31.5107C31.3241 37.3914 31.1841 37.34 31.0907 37.2374C30.9974 37.1254 30.9507 36.9434 30.9507 36.6914C30.9507 36.4207 30.9974 36.2387 31.0907 36.1454C31.1747 36.052 31.3147 36.0054 31.5107 36.0054H32.0567C32.1594 36.0054 32.2621 35.9867 32.3647 35.9494C32.4674 35.9027 32.5607 35.8327 32.6447 35.7394C32.7287 35.6367 32.7987 35.506 32.8547 35.3474C32.9107 35.1794 32.9387 34.974 32.9387 34.7314C32.9294 34.6567 32.9247 34.5867 32.9247 34.5214C32.9247 34.456 32.9247 34.386 32.9247 34.3114C32.9341 33.77 33.0087 33.3127 33.1487 32.9394C33.2981 32.5567 33.4987 32.2487 33.7507 32.0154C34.0121 31.7727 34.3154 31.6 34.6607 31.4974C35.0061 31.3854 35.3841 31.3294 35.7947 31.3294C36.2054 31.3294 36.5881 31.3854 36.9427 31.4974C37.2974 31.6094 37.6007 31.7867 37.8527 32.0294C38.1141 32.272 38.3147 32.594 38.4547 32.9954C38.6041 33.3967 38.6787 33.882 38.6787 34.4514C38.6787 35.002 38.6087 35.4687 38.4687 35.8514C38.3287 36.234 38.1327 36.5467 37.8807 36.7894C37.6287 37.032 37.3254 37.2094 36.9707 37.3214C36.6161 37.4334 36.2241 37.4894 35.7947 37.4894ZM35.7947 32.7294C35.3467 32.7294 35.0154 32.874 34.8007 33.1634C34.5861 33.4527 34.4787 33.8727 34.4787 34.4234C34.4787 35.0207 34.5861 35.45 34.8007 35.7114C35.0154 35.9727 35.3467 36.1034 35.7947 36.1034C36.2521 36.1034 36.5881 35.9727 36.8027 35.7114C37.0174 35.4407 37.1247 35.0114 37.1247 34.4234C37.1247 33.294 36.6814 32.7294 35.7947 32.7294Z" fill="#265CFF"/>
<line x1="11.166" y1="55.1038" x2="28.4903" y2="55.1038" stroke="#265CFF" stroke-width="2"/>
<defs>
<clipPath id="clip0_37_2790">
<rect width="24" height="21" fill="white" transform="translate(7.82812 0.10376)"/>
</clipPath>
</defs>
</svg>
