<svg width="22" height="22" viewBox="0 0 22 22" fill="none" xmlns="http://www.w3.org/2000/svg">
<g clip-path="url(#clip0_4021_37668)">
<path d="M17.1789 19.638C17.0368 19.5771 16.8863 19.5304 16.7539 19.4529C16.2046 19.1313 15.6587 18.8037 15.1166 18.47C15.0059 18.4018 14.922 18.3995 14.8041 18.4534C14.4405 18.6195 14.0716 18.7745 13.7001 18.9219C13.5817 18.9689 13.5193 19.0297 13.4889 19.1576C13.3106 19.9086 13.1238 20.6576 12.9374 21.4067C12.8337 21.8233 12.6149 21.9972 12.1904 21.9983C11.3957 22.0005 10.601 22.0006 9.80632 21.9983C9.38339 21.9971 9.16618 21.8225 9.06177 21.4037C8.87675 20.6616 8.69091 19.9197 8.51394 19.1757C8.48248 19.0435 8.42666 18.9705 8.29674 18.9206C7.94368 18.7849 7.59448 18.6379 7.25013 18.4814C7.1206 18.4226 7.02371 18.419 6.89793 18.497C6.37525 18.8212 5.84519 19.1335 5.31719 19.4491C4.90065 19.698 4.64094 19.6674 4.3007 19.3281C3.7583 18.7871 3.21654 18.2455 2.67567 17.703C2.34315 17.3695 2.30887 17.1054 2.54775 16.7052C2.87032 16.1647 3.19343 15.6245 3.52178 15.0876C3.58386 14.986 3.58875 14.9063 3.53819 14.7946C3.37333 14.4305 3.23167 14.0558 3.0648 13.6927C3.02726 13.611 2.93344 13.5223 2.84896 13.5002C2.10214 13.3053 1.35126 13.1259 0.602244 12.9393C0.171731 12.8321 0.0021602 12.6171 0.00125585 12.1783C-0.000362168 11.3908 -0.000498364 10.6033 0.00132667 9.81578C0.00231819 9.38794 0.174117 9.16709 0.586962 9.06381C1.33581 8.87649 2.08489 8.69004 2.8354 8.50953C2.95868 8.47988 3.02853 8.42742 3.07411 8.30311C3.18958 7.98818 3.33231 7.68318 3.44564 7.36757C3.47592 7.28326 3.47244 7.15613 3.42886 7.08084C3.07412 6.4681 2.7057 5.86328 2.34243 5.25546C2.08925 4.83183 2.12129 4.57169 2.46994 4.22231C3.00599 3.68513 3.54241 3.14832 4.07985 2.61253C4.42397 2.26947 4.67515 2.23946 5.09393 2.48981C5.67716 2.83848 6.26205 3.1845 6.84046 3.541C6.96024 3.61481 7.0519 3.6128 7.17527 3.55665C7.539 3.39109 7.90665 3.23322 8.2785 3.08691C8.41169 3.03451 8.48107 2.96808 8.51515 2.82281C8.68983 2.07831 8.87702 1.33673 9.06209 0.594686C9.1663 0.176891 9.38396 0.00284747 9.80797 0.00166517C10.6027 -0.000552332 11.3974 -0.00055778 12.192 0.00166517C12.6156 0.00285292 12.8343 0.177169 12.9385 0.594468C13.1239 1.33644 13.3093 2.07843 13.4868 2.82231C13.518 2.95328 13.571 3.02867 13.7022 3.0788C14.0556 3.21381 14.4042 3.36212 14.7493 3.51715C14.8663 3.56972 14.9536 3.56887 15.065 3.5005C15.6198 3.16012 16.1798 2.82839 16.7386 2.49447C17.1701 2.23657 17.4144 2.26642 17.7691 2.62051C18.3112 3.16173 18.8533 3.70299 19.394 4.24565C19.7198 4.57266 19.7523 4.82994 19.517 5.22483C19.1801 5.7901 18.844 6.35592 18.4994 6.91646C18.4268 7.03454 18.425 7.12707 18.4819 7.25179C18.636 7.58938 18.7806 7.9318 18.9136 8.27822C18.9652 8.4126 19.0335 8.48025 19.178 8.51427C19.9224 8.68956 20.664 8.87681 21.4059 9.06232C21.8236 9.16676 21.9972 9.3845 21.9983 9.80869C22.0005 10.6034 22.0006 11.3981 21.9983 12.1927C21.9971 12.6164 21.8233 12.8333 21.4045 12.938C20.6625 13.1234 19.9207 13.3093 19.1768 13.487C19.0456 13.5183 18.9709 13.5724 18.921 13.7033C18.7889 14.05 18.6443 14.3925 18.4908 14.7304C18.4368 14.8492 18.4444 14.9345 18.5117 15.0439C18.845 15.5862 19.1699 16.1337 19.497 16.6798C19.7572 17.1143 19.7295 17.3589 19.3779 17.7118C18.8372 18.2544 18.2949 18.7955 17.7539 19.3378C17.5981 19.4939 17.4292 19.6202 17.1789 19.638ZM11.0021 6.4904C8.52416 6.48837 6.49226 8.51826 6.49025 10.9978C6.48823 13.4757 8.51811 15.5076 10.9977 15.5096C13.4756 15.5116 15.5075 13.4818 15.5095 11.0022C15.5116 8.52429 13.4817 6.49242 11.0021 6.4904Z" fill="#265CFF"/>
</g>
<defs>
<clipPath id="clip0_4021_37668">
<rect width="22" height="22" fill="white"/>
</clipPath>
</defs>
</svg>
