<svg width="21" height="21" viewBox="0 0 21 21" fill="none" xmlns="http://www.w3.org/2000/svg">
<path d="M0.810528 20.9038C1.0196 20.1454 1.21537 19.434 1.41188 18.7227C1.64324 17.8853 1.87983 17.0493 2.10132 16.2093C2.12986 16.101 2.11715 15.9528 2.06372 15.8561C-0.942287 10.4179 1.50226 3.7034 7.32506 1.54054C12.8712 -0.519542 18.849 2.63269 20.4378 8.24029C21.9829 13.6934 18.601 19.3981 13.0527 20.6755C10.5472 21.2524 8.15602 20.9047 5.90409 19.6587C5.73175 19.5634 5.58847 19.5801 5.42276 19.6261C3.90445 20.0477 2.38568 20.4677 0.810528 20.9038ZM11.5559 13.2413C11.5559 12.9029 11.5421 12.587 11.5629 12.2733C11.5708 12.1531 11.6288 12.0083 11.7136 11.9258C12.1231 11.5276 12.5727 11.1688 12.9654 10.7554C13.8569 9.81673 14.1087 8.70816 13.6445 7.49777C13.1879 6.30753 12.2726 5.63102 11.0059 5.54172C9.71574 5.45077 8.73064 6.02461 8.08703 7.14795C7.83624 7.58569 7.70521 8.06444 7.73391 8.57974H9.24117C9.25322 8.49916 9.26363 8.43262 9.27308 8.36593C9.374 7.65463 9.98864 7.09461 10.7045 7.06188C11.3415 7.03275 11.9273 7.38734 12.1877 7.95975C12.4532 8.54326 12.3401 9.22859 11.869 9.68151C11.3221 10.2075 10.7529 10.7103 10.1975 11.2277C10.1269 11.2936 10.0343 11.3855 10.0323 11.4673C10.0181 12.0536 10.0247 12.6403 10.0247 13.2413L11.5559 13.2413ZM11.5424 14.8117H10.0363V16.3109H11.5424V14.8117Z" fill="url(#paint0_linear_4266_9164)"/>
<defs>
<linearGradient id="paint0_linear_4266_9164" x1="5.03787" y1="3.23491" x2="17.0825" y2="20.9463" gradientUnits="userSpaceOnUse">
<stop stop-color="#265CFF"/>
<stop offset="1" stop-color="#173799"/>
</linearGradient>
</defs>
</svg>
