<svg width="16" height="25" viewBox="0 0 16 25" fill="none" xmlns="http://www.w3.org/2000/svg">
<g clip-path="url(#clip0_4021_35930)">
<path d="M11.1987 8.03902C11.1987 9.5638 11.2018 11.0886 11.1947 12.6133C11.1938 12.8018 11.2543 12.9177 11.4225 13.0377C13.8241 14.7501 14.8504 17.0056 14.2247 19.7313C13.5891 22.5005 11.6352 24.2269 8.62001 24.8495C4.68292 25.6624 0.649288 23.0877 0.0875484 19.4192C-0.313386 16.8009 0.666661 14.6703 2.94742 13.0537C3.14821 12.9113 3.18584 12.7656 3.18557 12.5615C3.18165 9.64952 3.17845 6.73752 3.1846 3.82554C3.18855 1.95671 4.39924 0.515227 6.29442 0.0993747C8.72212 -0.433321 11.1325 1.24214 11.1877 3.53364C11.2238 5.03475 11.1945 6.53718 11.1945 8.03902L11.1987 8.03902ZM6.39484 9.47794C6.39484 11.369 6.38959 13.2602 6.40094 15.1512C6.4025 15.4123 6.34217 15.5405 6.04686 15.643C4.61819 16.1394 3.79091 17.5593 4.0988 18.921C4.41275 20.3096 5.79353 21.3439 7.25806 21.2875C8.75862 21.2297 10.0408 20.224 10.292 18.9077C10.5621 17.4918 9.77689 16.1552 8.33016 15.6367C8.03407 15.5306 7.9808 15.3953 7.98134 15.1381C7.98918 11.4246 7.98681 7.71119 7.9863 3.99775C7.98628 3.86031 7.98987 3.72199 7.97511 3.5856C7.94381 3.29653 7.76974 3.10032 7.47752 2.99437C6.92043 2.79238 6.39794 3.16168 6.39655 3.77024C6.39221 5.6728 6.39495 7.57537 6.39484 9.47794Z" fill="#265CFF"/>
<path d="M14.3992 10.2827C14.1377 10.2828 13.8753 10.2953 13.6148 10.28C13.1316 10.2516 12.797 9.9411 12.7979 9.54227C12.7987 9.14115 13.1311 8.82593 13.6172 8.80885C14.1396 8.79049 14.6639 8.79035 15.1862 8.809C15.6744 8.82644 16.0005 9.13916 15.9996 9.54462C15.9987 9.95043 15.6735 10.2517 15.1837 10.28C14.9232 10.2951 14.6608 10.2827 14.3992 10.2827Z" fill="#265CFF"/>
<path d="M14.392 2.93824C14.6672 2.93783 14.943 2.92707 15.2174 2.94026C15.6693 2.96199 16.0007 3.27995 15.9998 3.6721C15.9989 4.06728 15.6728 4.382 15.2134 4.39398C14.6636 4.4083 14.1126 4.40897 13.5629 4.39209C13.1257 4.37866 12.8076 4.06702 12.7976 3.68547C12.7873 3.2927 13.1151 2.96636 13.5668 2.94144C13.8409 2.9263 14.1169 2.93865 14.392 2.93824Z" fill="#265CFF"/>
<path d="M14.3986 5.88427C14.6862 5.88413 14.9747 5.87043 15.2611 5.88737C15.6797 5.91213 15.9844 6.20979 15.9995 6.58098C16.0148 6.95976 15.7073 7.31212 15.2823 7.33069C14.696 7.35632 14.1063 7.35585 13.5199 7.33097C13.0937 7.31288 12.7829 6.96104 12.7984 6.58364C12.8136 6.21435 13.1207 5.91286 13.5361 5.88773C13.8224 5.87041 14.111 5.88441 14.3986 5.88427Z" fill="#265CFF"/>
<path d="M7.19953 16.8909C8.08364 16.8927 8.79341 17.5415 8.79514 18.3494C8.79687 19.1574 8.08929 19.8097 7.20616 19.8142C6.30593 19.8188 5.57647 19.1535 5.58803 18.3383C5.59946 17.5314 6.3146 16.889 7.19953 16.8909Z" fill="#265CFF"/>
</g>
<defs>
<clipPath id="clip0_4021_35930">
<rect width="16" height="25" fill="white"/>
</clipPath>
</defs>
</svg>
