<svg width="22" height="22" viewBox="0 0 22 22" fill="none" xmlns="http://www.w3.org/2000/svg">
<g clip-path="url(#clip0_4021_37665)">
<path d="M20.9661 13.1285C18.3897 11.2821 15.3312 12.0368 13.6961 13.6396C12.1738 15.1318 11.1741 18.2295 13.1325 20.9776C12.5518 21.0022 11.99 21.0364 11.4278 21.0481C9.32714 21.0916 7.2329 20.9996 5.15725 20.6594C3.25016 20.3469 1.89753 19.2479 0.957306 17.5988C0.544731 16.8752 0.40828 16.0725 0.301444 15.2605C0.0111388 13.0539 -0.0614599 10.839 0.0492178 8.61823C0.116901 7.26014 0.197235 5.89751 0.524354 4.57407C1.04946 2.44963 3.06725 0.701675 5.2243 0.386212C7.64197 0.0326349 10.0698 -0.0858696 12.5048 0.0626779C13.7593 0.139208 15.0204 0.255299 16.2547 0.482944C18.4719 0.891882 20.3472 2.97911 20.6732 5.20374C21.0328 7.65696 21.1216 10.1185 21.0064 12.5911C20.9984 12.7624 20.981 12.9331 20.9661 13.1285ZM10.5187 7.52437C12.2653 7.52437 14.0118 7.52825 15.7584 7.52223C16.3516 7.52018 16.8576 7.06584 16.9313 6.49784C17.0129 5.86869 16.6603 5.30669 16.064 5.14582C15.8943 5.10004 15.7104 5.09207 15.533 5.09184C13.0277 5.08856 10.5224 5.0896 8.01705 5.08961C7.15808 5.08961 6.29911 5.09185 5.44015 5.08869C5.03339 5.08719 4.67333 5.19826 4.40679 5.51824C4.0845 5.90515 4.01717 6.34672 4.22087 6.80346C4.4285 7.26899 4.80788 7.52091 5.32195 7.52266C7.05418 7.52855 8.78644 7.5249 10.5187 7.52437ZM8.37907 10.1841C7.35562 10.1841 6.33214 10.1791 5.30874 10.1859C4.65422 10.1902 4.13638 10.7052 4.11644 11.3517C4.0937 12.0888 4.63296 12.6159 5.43127 12.6177C7.39943 12.6221 9.3676 12.6201 11.3358 12.617C11.4775 12.6167 11.6238 12.6031 11.7601 12.5662C12.3564 12.4046 12.7128 11.8489 12.6357 11.2188C12.5651 10.6419 12.054 10.1889 11.4494 10.1856C10.426 10.1798 9.40251 10.184 8.37907 10.1841Z" fill="#265CFF"/>
<path d="M17.6223 21.9999C15.205 22.0006 13.2359 20.0319 13.2387 17.6172C13.2415 15.2015 15.2131 13.2361 17.6294 13.2402C20.0377 13.2444 21.9982 15.2061 22 17.6137C22.0018 20.0353 20.0417 21.9992 17.6223 21.9999ZM18.4345 18.713C18.4345 18.3838 18.4345 18.0545 18.4345 17.7253C18.4345 17.711 18.4346 17.6967 18.4344 17.6824C18.4284 17.1801 18.0849 16.8238 17.6112 16.8286C17.1478 16.8333 16.8073 17.1876 16.8045 17.6792C16.8007 18.3734 16.8001 19.0677 16.8048 19.7619C16.808 20.2468 17.1606 20.6082 17.6187 20.6095C18.0769 20.6107 18.4288 20.2485 18.4337 19.7651C18.4373 19.4144 18.4344 19.0637 18.4345 18.713ZM16.7937 15.4523C16.7924 16.139 16.9362 16.2835 17.6187 16.2816C18.29 16.2797 18.4333 16.1356 18.4338 15.4616C18.4344 14.7734 18.2954 14.635 17.6062 14.6371C16.9261 14.6391 16.795 14.7706 16.7937 15.4523Z" fill="#265CFF"/>
</g>
<defs>
<clipPath id="clip0_4021_37665">
<rect width="22" height="22" fill="white"/>
</clipPath>
</defs>
</svg>
