<svg width="38" height="57" viewBox="0 0 38 57" fill="none" xmlns="http://www.w3.org/2000/svg">
<g opacity="0.5" clip-path="url(#clip0_37_2784)">
<path d="M8.4251 18.8444H6.84012C6.84012 18.7511 6.84012 18.6677 6.84012 18.5842C6.84012 17.4984 6.86562 16.412 6.83431 15.327C6.78401 13.584 7.04062 11.888 7.60466 10.2289C7.75867 9.77586 7.88277 9.31399 8.02997 8.85886C8.4107 7.6817 9.58177 6.85752 10.8869 6.85574C13.527 6.85213 16.1673 6.84038 18.8072 6.86094C20.0499 6.87061 21.184 7.25545 22.1561 7.98161C23.2631 8.80854 24.3342 9.6777 25.4268 10.5218C25.5574 10.6227 25.7163 10.7046 25.8765 10.7564C26.8035 11.0565 27.7352 11.3437 28.6646 11.6374C29.9739 12.0511 30.8261 13.1645 30.8274 14.464C30.8288 15.8388 30.8277 17.2136 30.8277 18.5884V18.8376H30.0361C29.9892 17.6454 29.4945 16.649 28.4887 15.9021C27.7221 15.3328 26.837 15.0754 25.8602 15.1079C24.0053 15.1695 22.0987 16.5595 22.0099 18.843H16.4469C16.3902 17.5719 15.8421 16.5297 14.7238 15.7828C13.9494 15.2655 13.0745 15.0486 12.1285 15.1158C10.2688 15.248 8.51459 16.6411 8.4251 18.8444ZM18.5392 16.0517C18.5587 16.0559 18.5782 16.0601 18.5977 16.0643C19.5653 14.7554 20.5328 13.4465 21.53 12.0976H19.1178V9.65298C19.1019 9.6505 19.086 9.64803 19.0701 9.64555C18.1026 10.9543 17.1352 12.263 16.1379 13.6121H18.5392L18.5392 16.0517Z" fill="#265CFF"/>
<path d="M24.4259 6.0725C23.4572 6.0725 22.5171 6.14698 21.596 6.05454C20.3067 5.92516 19.4578 5.18825 19.0156 4.05117C18.9565 3.89918 18.8898 3.85179 18.7191 3.85255C17.1869 3.85941 15.6546 3.8557 14.1223 3.85701C13.5642 3.85749 13.2411 4.16224 13.238 4.68548C13.2367 4.89622 13.2378 5.10697 13.2378 5.33703H11.6716C11.3358 3.45 12.6473 2.32917 14.1644 2.35056C15.6714 2.3718 17.1789 2.35219 18.6862 2.35912C18.8692 2.35996 18.958 2.32446 19.0225 2.14566C19.467 0.913096 20.6486 0.117201 22.0329 0.106727C22.8223 0.100753 23.6118 0.105646 24.4202 0.105646V0.843005H26.013V2.34726H24.4513V3.85075H26.0173V5.34673H24.4259V6.0725Z" fill="#265CFF"/>
<path d="M12.4321 21.1038C11.1121 21.1015 10.0367 20.0879 10.0391 18.8485C10.0415 17.6099 11.1214 16.6019 12.4434 16.6043C13.7644 16.6066 14.8386 17.619 14.8362 18.8593C14.8338 20.0984 13.7544 21.1061 12.4321 21.1038Z" fill="#265CFF"/>
<path d="M28.428 18.8558C28.4272 20.0952 27.3494 21.1046 26.0276 21.1038C24.7074 21.103 23.63 20.0908 23.6309 18.852C23.6318 17.6127 24.7097 16.6034 26.0315 16.6042C27.3528 16.6051 28.4288 17.616 28.428 18.8558Z" fill="#265CFF"/>
</g>
<path opacity="0.5" d="M2.50838 37.0414C2.50838 37.4614 2.57372 37.816 2.70438 38.1054C2.83505 38.3947 3.00772 38.628 3.22238 38.8054C3.44638 38.992 3.70305 39.1227 3.99238 39.1974C4.29105 39.2814 4.60838 39.3234 4.94438 39.3234H8.41638C8.96705 39.3234 9.34972 39.2347 9.56438 39.0574C9.77905 38.8894 9.88638 38.6514 9.88638 38.3434C9.88638 38.1007 9.81638 37.8954 9.67638 37.7274C9.54572 37.5687 9.34972 37.4194 9.08838 37.2794C8.82705 37.1394 8.50505 37.004 8.12238 36.8734C7.74905 36.7427 7.32438 36.5887 6.84838 36.4114C6.76438 36.3834 6.73638 36.3274 6.76438 36.2434L7.00238 35.6834C7.03038 35.59 7.08638 35.5574 7.17038 35.5854C7.46905 35.6974 7.75838 35.814 8.03838 35.9354C8.32772 36.0567 8.61238 36.1687 8.89238 36.2714C9.17238 36.3647 9.44305 36.444 9.70438 36.5094C9.97505 36.5747 10.2457 36.6074 10.5164 36.6074H11.3844C11.571 36.6074 11.711 36.6214 11.8044 36.6494C11.8977 36.6774 11.9444 36.7707 11.9444 36.9294C11.9444 37.116 11.8977 37.242 11.8044 37.3074C11.7204 37.3634 11.5804 37.3914 11.3844 37.3914H10.3484C10.3951 37.466 10.451 37.5967 10.5164 37.7834C10.591 37.97 10.6284 38.1707 10.6284 38.3854C10.6284 38.6 10.591 38.81 10.5164 39.0154C10.451 39.23 10.3344 39.4167 10.1664 39.5754C10.0077 39.7434 9.79772 39.8787 9.53638 39.9814C9.27505 40.084 8.95772 40.1354 8.58438 40.1354H4.81838C3.84772 40.1354 3.08705 39.8694 2.53638 39.3374C1.98572 38.8054 1.71038 38.068 1.71038 37.1254C1.71038 36.5374 1.80372 36.0007 1.99038 35.5154C2.18638 35.03 2.39638 34.6287 2.62038 34.3114C2.65772 34.2554 2.72305 34.2554 2.81638 34.3114L3.25038 34.5914C3.32505 34.638 3.33905 34.6987 3.29238 34.7734C3.10572 35.0627 2.92838 35.408 2.76038 35.8094C2.59238 36.2014 2.50838 36.612 2.50838 37.0414ZM6.59638 42.2914C6.50305 42.2914 6.45638 42.2447 6.45638 42.1514V41.3114C6.45638 41.218 6.50305 41.1714 6.59638 41.1714H7.32438C7.41772 41.1714 7.46438 41.218 7.46438 41.3114V42.1514C7.46438 42.2447 7.41772 42.2914 7.32438 42.2914H6.59638ZM4.80438 42.2914C4.71105 42.2914 4.66438 42.2447 4.66438 42.1514V41.3114C4.66438 41.218 4.71105 41.1714 4.80438 41.1714H5.53238C5.62572 41.1714 5.67238 41.218 5.67238 41.3114V42.1514C5.67238 42.2447 5.62572 42.2914 5.53238 42.2914H4.80438ZM13.9539 35.5574C13.9539 35.912 14.0753 36.178 14.3179 36.3554C14.5699 36.5234 14.9013 36.6074 15.3119 36.6074H15.3959C15.5826 36.6074 15.7226 36.6354 15.8159 36.6914C15.9093 36.738 15.9559 36.836 15.9559 36.9854C15.9559 37.1347 15.9139 37.242 15.8299 37.3074C15.7459 37.3634 15.6013 37.3914 15.3959 37.3914C15.0039 37.3914 14.6679 37.3494 14.3879 37.2654C14.1079 37.172 13.9026 36.9667 13.7719 36.6494C13.6599 36.8734 13.5106 37.0554 13.3239 37.1954C13.1373 37.326 12.8666 37.3914 12.5119 37.3914H11.3779C11.2006 37.3914 11.0746 37.368 10.9999 37.3214C10.9159 37.2654 10.8739 37.1627 10.8739 37.0134C10.8739 36.8547 10.9113 36.7474 10.9859 36.6914C11.0606 36.6354 11.1913 36.6074 11.3779 36.6074H12.4279C12.6053 36.6074 12.7453 36.584 12.8479 36.5374C12.9506 36.4907 13.0253 36.4207 13.0719 36.3274C13.1186 36.2247 13.1466 36.0987 13.1559 35.9494C13.1746 35.8 13.1839 35.6274 13.1839 35.4314V31.8894C13.1839 31.796 13.2306 31.7494 13.3239 31.7494H13.8139C13.9073 31.7494 13.9539 31.796 13.9539 31.8894V35.5574ZM14.0519 30.3774C13.9586 30.3774 13.9119 30.3307 13.9119 30.2374V29.3974C13.9119 29.304 13.9586 29.2574 14.0519 29.2574H14.7799C14.8733 29.2574 14.9199 29.304 14.9199 29.3974V30.2374C14.9199 30.3307 14.8733 30.3774 14.7799 30.3774H14.0519ZM12.2599 30.3774C12.1666 30.3774 12.1199 30.3307 12.1199 30.2374V29.3974C12.1199 29.304 12.1666 29.2574 12.2599 29.2574H12.9879C13.0813 29.2574 13.1279 29.304 13.1279 29.3974V30.2374C13.1279 30.3307 13.0813 30.3774 12.9879 30.3774H12.2599ZM17.9175 35.5574C17.9175 35.912 18.0388 36.178 18.2815 36.3554C18.5335 36.5234 18.8648 36.6074 19.2755 36.6074H19.3595C19.5461 36.6074 19.6861 36.6354 19.7795 36.6914C19.8728 36.738 19.9195 36.836 19.9195 36.9854C19.9195 37.1347 19.8775 37.242 19.7935 37.3074C19.7095 37.3634 19.5648 37.3914 19.3595 37.3914C18.9675 37.3914 18.6315 37.3494 18.3515 37.2654C18.0715 37.172 17.8661 36.9667 17.7355 36.6494C17.6235 36.8734 17.4741 37.0554 17.2875 37.1954C17.1008 37.326 16.8301 37.3914 16.4755 37.3914H15.3975C15.2201 37.3914 15.0848 37.368 14.9915 37.3214C14.8888 37.2654 14.8375 37.1627 14.8375 37.0134C14.8375 36.8547 14.8841 36.7474 14.9775 36.6914C15.0708 36.6354 15.2108 36.6074 15.3975 36.6074H16.3915C16.5688 36.6074 16.7088 36.584 16.8115 36.5374C16.9141 36.4907 16.9888 36.4207 17.0355 36.3274C17.0821 36.2247 17.1101 36.0987 17.1195 35.9494C17.1381 35.8 17.1475 35.6274 17.1475 35.4314V31.8894C17.1475 31.796 17.1941 31.7494 17.2875 31.7494H17.7775C17.8708 31.7494 17.9175 31.796 17.9175 31.8894V35.5574ZM17.2035 39.6314C17.1101 39.6314 17.0635 39.5847 17.0635 39.4914V38.6514C17.0635 38.558 17.1101 38.5114 17.2035 38.5114H17.9315C18.0248 38.5114 18.0715 38.558 18.0715 38.6514V39.4914C18.0715 39.5847 18.0248 39.6314 17.9315 39.6314H17.2035ZM20.4963 32.5334C20.403 32.5334 20.3563 32.4867 20.3563 32.3934V31.8754C20.3563 31.7914 20.3703 31.7494 20.3983 31.7494L23.5063 28.0954C23.5716 28.0207 23.6323 28.0067 23.6883 28.0534L24.0943 28.3754C24.1876 28.4407 24.2063 28.506 24.1503 28.5714L21.4623 31.7494H23.0723C23.427 31.7494 23.749 31.796 24.0383 31.8894C24.337 31.9827 24.589 32.1274 24.7943 32.3234C24.9996 32.51 25.1583 32.7527 25.2703 33.0514C25.3823 33.35 25.4383 33.7094 25.4383 34.1294V34.9974C25.4383 35.464 25.4056 35.8514 25.3403 36.1594C25.275 36.4674 25.163 36.7147 25.0043 36.9014C24.855 37.0787 24.6543 37.2047 24.4023 37.2794C24.1596 37.354 23.8516 37.3914 23.4783 37.3914H19.3623C19.1756 37.3914 19.0356 37.368 18.9423 37.3214C18.849 37.2654 18.8023 37.158 18.8023 36.9994C18.8023 36.8314 18.849 36.724 18.9423 36.6774C19.0263 36.6307 19.1663 36.6074 19.3623 36.6074H23.3103C23.5903 36.6074 23.8143 36.584 23.9823 36.5374C24.1596 36.4907 24.2903 36.416 24.3743 36.3134C24.4676 36.2014 24.5283 36.0567 24.5563 35.8794C24.5843 35.6927 24.5983 35.464 24.5983 35.1934V34.0874C24.5983 33.5647 24.4583 33.1774 24.1783 32.9254C23.8983 32.664 23.4503 32.5334 22.8343 32.5334H20.4963ZM28.6469 35.5574C28.6469 35.912 28.7683 36.178 29.0109 36.3554C29.2629 36.5234 29.5943 36.6074 30.0049 36.6074H30.0749C30.2616 36.6074 30.4016 36.6354 30.4949 36.6914C30.5883 36.738 30.6349 36.8267 30.6349 36.9574C30.6349 37.172 30.5883 37.298 30.4949 37.3354C30.4109 37.3727 30.2709 37.3914 30.0749 37.3914C29.7669 37.3914 29.4963 37.368 29.2629 37.3214C29.0296 37.2747 28.8243 37.1534 28.6469 36.9574V38.0774C28.6469 38.74 28.4836 39.2487 28.1569 39.6034C27.8303 39.958 27.3169 40.1354 26.6169 40.1354H26.3789C26.2856 40.1354 26.2389 40.0887 26.2389 39.9954V39.4914C26.2389 39.398 26.2856 39.3514 26.3789 39.3514H26.7009C27.0836 39.3514 27.3729 39.2534 27.5689 39.0574C27.7743 38.8614 27.8769 38.5627 27.8769 38.1614V31.8894C27.8769 31.796 27.9236 31.7494 28.0169 31.7494H28.5069C28.6003 31.7494 28.6469 31.796 28.6469 31.8894V35.5574ZM34.1691 37.4894C33.7584 37.4894 33.3804 37.4287 33.0351 37.3074C32.6991 37.186 32.4284 36.9854 32.2231 36.7054C32.0551 37.0134 31.8591 37.2047 31.6351 37.2794C31.4111 37.354 31.1684 37.3914 30.9071 37.3914H30.0811C29.8944 37.3914 29.7544 37.368 29.6611 37.3214C29.5677 37.2747 29.5211 37.172 29.5211 37.0134C29.5211 36.8267 29.5677 36.7147 29.6611 36.6774C29.7451 36.6307 29.8851 36.6074 30.0811 36.6074H30.8511C30.9537 36.6074 31.0564 36.5887 31.1591 36.5514C31.2617 36.514 31.3551 36.4487 31.4391 36.3554C31.5231 36.2527 31.5931 36.122 31.6491 35.9634C31.7051 35.8047 31.7331 35.604 31.7331 35.3614C31.7237 35.2494 31.7144 35.1327 31.7051 35.0114C31.7051 34.8807 31.7051 34.75 31.7051 34.6194C31.7051 32.538 32.5264 31.4974 34.1691 31.4974C34.9811 31.4974 35.5924 31.7447 36.0031 32.2394C36.4231 32.734 36.6331 33.4807 36.6331 34.4794C36.6331 35.5154 36.4231 36.276 36.0031 36.7614C35.5924 37.2467 34.9811 37.4894 34.1691 37.4894ZM34.1691 32.2814C33.5811 32.2814 33.1564 32.482 32.8951 32.8834C32.6337 33.2754 32.5031 33.8214 32.5031 34.5214C32.5031 35.2587 32.6337 35.8094 32.8951 36.1734C33.1564 36.528 33.5811 36.7054 34.1691 36.7054C34.7571 36.7054 35.1817 36.528 35.4431 36.1734C35.7137 35.8094 35.8491 35.2587 35.8491 34.5214C35.8491 33.8307 35.7137 33.2847 35.4431 32.8834C35.1817 32.482 34.7571 32.2814 34.1691 32.2814Z" fill="#265CFF"/>
<defs>
<clipPath id="clip0_37_2784">
<rect width="24" height="21" fill="white" transform="translate(6.82812 0.10376)"/>
</clipPath>
</defs>
</svg>
