<svg width="37" height="56" viewBox="0 0 37 56" fill="none" xmlns="http://www.w3.org/2000/svg">
<path opacity="0.5" d="M2.56209 36.9454C2.56209 37.3654 2.62743 37.7201 2.75809 38.0094C2.88876 38.2987 3.06143 38.5321 3.27609 38.7094C3.50009 38.8961 3.75676 39.0267 4.04609 39.1014C4.34476 39.1854 4.66209 39.2274 4.99809 39.2274H8.47009C9.02076 39.2274 9.40343 39.1387 9.61809 38.9614C9.83276 38.7934 9.94009 38.5554 9.94009 38.2474C9.94009 38.0047 9.87009 37.7994 9.73009 37.6314C9.59943 37.4727 9.40343 37.3234 9.14209 37.1834C8.88076 37.0434 8.55876 36.9081 8.17609 36.7774C7.80276 36.6467 7.37809 36.4927 6.90209 36.3154C6.81809 36.2874 6.79009 36.2314 6.81809 36.1474L7.05609 35.5874C7.08409 35.4941 7.14009 35.4614 7.22409 35.4894C7.52276 35.6014 7.81209 35.7181 8.09209 35.8394C8.38143 35.9607 8.66609 36.0727 8.94609 36.1754C9.22609 36.2687 9.49676 36.3481 9.75809 36.4134C10.0288 36.4787 10.2994 36.5114 10.5701 36.5114H11.4381C11.6248 36.5114 11.7648 36.5254 11.8581 36.5534C11.9514 36.5814 11.9981 36.6747 11.9981 36.8334C11.9981 37.0201 11.9514 37.1461 11.8581 37.2114C11.7741 37.2674 11.6341 37.2954 11.4381 37.2954H10.4021C10.4488 37.3701 10.5048 37.5007 10.5701 37.6874C10.6448 37.8741 10.6821 38.0747 10.6821 38.2894C10.6821 38.5041 10.6448 38.7141 10.5701 38.9194C10.5048 39.1341 10.3881 39.3207 10.2201 39.4794C10.0614 39.6474 9.85143 39.7827 9.59009 39.8854C9.32876 39.9881 9.01143 40.0394 8.63809 40.0394H4.87209C3.90143 40.0394 3.14076 39.7734 2.59009 39.2414C2.03943 38.7094 1.76409 37.9721 1.76409 37.0294C1.76409 36.4414 1.85743 35.9047 2.04409 35.4194C2.24009 34.9341 2.45009 34.5327 2.67409 34.2154C2.71143 34.1594 2.77676 34.1594 2.87009 34.2154L3.30409 34.4954C3.37876 34.5421 3.39276 34.6027 3.34609 34.6774C3.15943 34.9667 2.98209 35.3121 2.81409 35.7134C2.64609 36.1054 2.56209 36.5161 2.56209 36.9454ZM6.65009 42.1954C6.55676 42.1954 6.51009 42.1487 6.51009 42.0554V41.2154C6.51009 41.1221 6.55676 41.0754 6.65009 41.0754H7.37809C7.47143 41.0754 7.51809 41.1221 7.51809 41.2154V42.0554C7.51809 42.1487 7.47143 42.1954 7.37809 42.1954H6.65009ZM4.85809 42.1954C4.76476 42.1954 4.71809 42.1487 4.71809 42.0554V41.2154C4.71809 41.1221 4.76476 41.0754 4.85809 41.0754H5.58609C5.67943 41.0754 5.72609 41.1221 5.72609 41.2154V42.0554C5.72609 42.1487 5.67943 42.1954 5.58609 42.1954H4.85809ZM11.4316 37.2954C11.245 37.2954 11.105 37.2721 11.0116 37.2254C10.9183 37.1787 10.8716 37.0761 10.8716 36.9174C10.8716 36.7401 10.9183 36.6281 11.0116 36.5814C11.0956 36.5347 11.2356 36.5114 11.4316 36.5114H12.4536C12.687 36.5114 12.8643 36.4554 12.9856 36.3434C13.1163 36.2314 13.1816 36.0401 13.1816 35.7694V31.7934C13.1816 31.7001 13.2283 31.6534 13.3216 31.6534H13.8116C13.905 31.6534 13.9516 31.7001 13.9516 31.7934V35.5314C13.9516 35.8301 13.9283 36.0914 13.8816 36.3154C13.835 36.5394 13.751 36.7261 13.6296 36.8754C13.5083 37.0154 13.3403 37.1227 13.1256 37.1974C12.9203 37.2627 12.6496 37.2954 12.3136 37.2954H11.4316ZM12.8036 39.5354C12.7103 39.5354 12.6636 39.4887 12.6636 39.3954V38.5554C12.6636 38.4621 12.7103 38.4154 12.8036 38.4154H13.5316C13.625 38.4154 13.6716 38.4621 13.6716 38.5554V39.3954C13.6716 39.4887 13.625 39.5354 13.5316 39.5354H12.8036ZM16.05 27.9154C16.05 27.8221 16.0967 27.7754 16.19 27.7754H16.68C16.7733 27.7754 16.82 27.8221 16.82 27.9154V35.7694C16.82 36.0494 16.8807 36.2454 17.002 36.3574C17.1233 36.4601 17.3007 36.5114 17.534 36.5114H18.234C18.6073 36.5114 18.794 36.6421 18.794 36.9034C18.794 37.0901 18.7473 37.2021 18.654 37.2394C18.57 37.2767 18.43 37.2954 18.234 37.2954H17.688C17.1 37.2954 16.68 37.1787 16.428 36.9454C16.176 36.7027 16.05 36.3107 16.05 35.7694V27.9154ZM21.1942 35.4754C21.1942 35.8114 21.3202 36.0681 21.5722 36.2454C21.8242 36.4227 22.1602 36.5114 22.5802 36.5114C22.8416 36.5114 23.0469 36.4974 23.1962 36.4694C23.3549 36.4414 23.4716 36.3854 23.5462 36.3014C23.6302 36.2081 23.6816 36.0821 23.7002 35.9234C23.7189 35.7647 23.7282 35.5547 23.7282 35.2934V33.0954C23.7282 33.0021 23.7749 32.9554 23.8682 32.9554H24.3722C24.4656 32.9554 24.5122 33.0021 24.5122 33.0954V35.5454C24.5122 35.8627 24.6429 36.1054 24.9042 36.2734C25.1656 36.4321 25.5109 36.5114 25.9402 36.5114C26.2016 36.5114 26.4069 36.4974 26.5562 36.4694C26.7056 36.4321 26.8129 36.3667 26.8782 36.2734C26.9529 36.1801 26.9996 36.0587 27.0182 35.9094C27.0369 35.7507 27.0462 35.5454 27.0462 35.2934V31.7934C27.0462 31.7001 27.0929 31.6534 27.1862 31.6534H27.6902C27.7836 31.6534 27.8302 31.7001 27.8302 31.7934V35.4614C27.8302 35.8161 27.9516 36.0821 28.1942 36.2594C28.4462 36.4274 28.7776 36.5114 29.1882 36.5114H29.2582C29.4449 36.5114 29.5849 36.5394 29.6782 36.5954C29.7716 36.6514 29.8182 36.7587 29.8182 36.9174C29.8182 37.0761 29.7716 37.1787 29.6782 37.2254C29.5942 37.2721 29.4542 37.2954 29.2582 37.2954C28.8756 37.2954 28.5489 37.2487 28.2782 37.1554C28.0076 37.0621 27.7976 36.8614 27.6482 36.5534C27.5362 36.7961 27.3776 36.9827 27.1722 37.1134C26.9762 37.2347 26.6822 37.2954 26.2902 37.2954H25.6462C25.3849 37.2954 25.1282 37.2394 24.8762 37.1274C24.6242 37.0061 24.4376 36.8241 24.3162 36.5814C24.2042 36.8054 24.0456 36.9827 23.8402 37.1134C23.6349 37.2347 23.3456 37.2954 22.9722 37.2954H22.3282C22.0669 37.2954 21.8102 37.2394 21.5582 37.1274C21.3062 37.0061 21.1196 36.8241 20.9982 36.5814C20.8862 36.8054 20.7276 36.9827 20.5222 37.1134C20.3262 37.2347 20.0322 37.2954 19.6402 37.2954H18.1422C18.0022 37.2954 17.8902 37.2674 17.8062 37.2114C17.7222 37.1554 17.6802 37.0714 17.6802 36.9594C17.6802 36.7727 17.7269 36.6514 17.8202 36.5954C17.9042 36.5394 18.0442 36.5114 18.2402 36.5114H19.6822C19.8596 36.5114 19.9949 36.4881 20.0882 36.4414C20.1909 36.3854 20.2656 36.3107 20.3122 36.2174C20.3589 36.1147 20.3869 35.9887 20.3962 35.8394C20.4056 35.6807 20.4102 35.4987 20.4102 35.2934V33.0954C20.4102 33.0021 20.4569 32.9554 20.5502 32.9554H21.0542C21.1476 32.9554 21.1942 33.0021 21.1942 33.0954V35.4754ZM29.2598 37.2954C28.8864 37.2954 28.6998 37.1741 28.6998 36.9314C28.6998 36.7354 28.7464 36.6187 28.8398 36.5814C28.9238 36.5347 29.0638 36.5114 29.2598 36.5114H33.4878C33.7678 36.5114 33.9871 36.4881 34.1458 36.4414C34.3138 36.3947 34.4398 36.3154 34.5238 36.2034C34.6171 36.0821 34.6731 35.9281 34.6918 35.7414C34.7198 35.5547 34.7338 35.3214 34.7338 35.0414C34.7338 34.6027 34.6964 34.2107 34.6218 33.8654C34.5564 33.5107 34.4398 33.2121 34.2718 32.9694C34.1038 32.7267 33.8844 32.5401 33.6138 32.4094C33.3431 32.2787 33.0071 32.2134 32.6058 32.2134C32.2791 32.2134 31.9664 32.2741 31.6678 32.3954C31.3691 32.5074 31.0984 32.7081 30.8558 32.9974C30.7998 33.0814 30.7344 33.0907 30.6598 33.0254L30.2818 32.6894C30.1978 32.6427 30.1838 32.5774 30.2398 32.4934C30.4824 32.1854 30.7904 31.9287 31.1638 31.7234C31.5464 31.5087 32.0318 31.4014 32.6198 31.4014C33.2358 31.4014 33.7351 31.5087 34.1178 31.7234C34.5098 31.9287 34.8131 32.1994 35.0278 32.5354C35.2424 32.8714 35.3871 33.2541 35.4618 33.6834C35.5458 34.1127 35.5878 34.5467 35.5878 34.9854C35.5878 35.4054 35.5598 35.7647 35.5038 36.0634C35.4478 36.3527 35.3498 36.5907 35.2098 36.7774C35.0698 36.9547 34.8784 37.0854 34.6358 37.1694C34.4024 37.2534 34.1038 37.2954 33.7398 37.2954H29.2598Z" fill="#265CFF"/>
<g opacity="0.5">
<path d="M22.5439 4.31321C22.5439 6.36189 20.8831 8.02266 18.8345 8.02266C16.7858 8.02266 15.125 6.36189 15.125 4.31321C15.125 2.26454 16.7858 0.60376 18.8345 0.60376C20.8831 0.60376 22.5439 2.26454 22.5439 4.31321Z" fill="#265CFF" stroke="#265CFF"/>
<path d="M26.0219 13.3728L26.0241 13.375C27.4005 14.7394 28.354 16.4718 28.7704 18.3645C28.8264 18.6385 28.8212 18.9214 28.7552 19.1932C28.6889 19.4659 28.563 19.7205 28.3866 19.9388L28.3851 19.9406C28.2005 20.1713 27.9663 20.3574 27.6999 20.4853C27.4336 20.6131 27.1419 20.6794 26.8464 20.6792H26.8461H10.8221V20.6792L10.8158 20.6792C10.5212 20.683 10.2296 20.6206 9.96229 20.4966C9.69552 20.3729 9.45985 20.191 9.27256 19.9643C9.09347 19.7438 8.96613 19.4858 8.89993 19.2095C8.83367 18.933 8.83036 18.645 8.89025 18.367C9.30627 16.4737 10.2598 14.7406 11.6364 13.3757C13.5552 11.4905 16.1416 10.4402 18.8316 10.454L18.8316 10.454L18.8384 10.454C21.0369 10.435 23.1807 11.1394 24.9395 12.4587L24.9394 12.4589L24.9503 12.4666C25.3326 12.7377 25.6911 13.0409 26.0219 13.3728Z" fill="#265CFF" stroke="#265CFF"/>
</g>
</svg>
