<svg width="14" height="12" viewBox="0 0 14 12" fill="none" xmlns="http://www.w3.org/2000/svg">
<g clip-path="url(#clip0_2159_12395)">
<path d="M10.9958 1.5559C10.5685 2.06199 10.1603 2.54553 9.75705 3.02313C8.16751 1.7415 6.4905 1.52255 4.75639 2.65148C3.3939 3.53848 2.91233 5.07222 3.02252 6.25776C3.24214 6.25776 3.46396 6.25774 3.68577 6.25778C3.74956 6.25779 3.81337 6.25907 3.87713 6.25794C4.02906 6.25524 4.14306 6.32081 4.20706 6.4595C4.27411 6.6048 4.24022 6.73698 4.1378 6.85576C3.70026 7.36314 3.2635 7.87122 2.82642 8.37901C2.59337 8.64975 2.36023 8.9204 2.12117 9.19802C1.74854 8.76547 1.3833 8.34169 1.01827 7.91772C0.718851 7.56996 0.420822 7.22097 0.119795 6.87464C0.0152084 6.75432 -0.0372837 6.625 0.0301824 6.46978C0.0993551 6.31063 0.227979 6.25366 0.394432 6.25679C0.621114 6.26105 0.847933 6.25785 1.05711 6.25785C1.15645 3.25876 2.52385 1.21235 5.3516 0.231694C7.45562 -0.324096 9.3286 0.121092 10.9958 1.5559Z" fill="#265CFF"/>
<path d="M10.9941 6.27115C10.6986 6.27115 10.4303 6.26727 10.1623 6.27258C9.99671 6.27586 9.86444 6.2259 9.79251 6.06808C9.72027 5.90955 9.77289 5.77655 9.88136 5.65109C10.5266 4.90479 11.1693 4.15623 11.8124 3.40813C11.833 3.38418 11.85 3.35699 11.8738 3.32422C12.2617 3.77449 12.636 4.20873 13.01 4.64319C13.2974 4.97702 13.5828 5.31265 13.8726 5.64435C13.9846 5.77256 14.0419 5.909 13.9643 6.073C13.8901 6.23005 13.756 6.27683 13.5912 6.27257C13.369 6.26682 13.1465 6.27115 12.9364 6.27115C12.6373 8.97423 11.2979 10.8678 8.72714 11.7049C6.77676 12.3401 4.95352 11.9298 3.29929 10.6738C3.72418 10.1704 4.13637 9.68193 4.54347 9.19955C5.96961 10.1882 7.45168 10.3523 8.96625 9.50176C10.1947 8.81186 10.8408 7.70357 10.9941 6.27115Z" fill="#265CFF"/>
</g>
<defs>
<clipPath id="clip0_2159_12395">
<rect width="14" height="12" fill="white"/>
</clipPath>
</defs>
</svg>
