<svg width="15" height="17" viewBox="0 0 15 17" fill="none" xmlns="http://www.w3.org/2000/svg">
<g clip-path="url(#clip0_4033_44203)">
<path d="M8.55346 3.69435C8.55346 3.86383 8.55354 4.03331 8.55344 4.20279C8.55226 6.29304 8.55423 8.38331 8.54498 10.4735C8.54404 10.6841 8.50866 10.9074 8.43108 11.102C8.26159 11.5271 7.82377 11.7489 7.35721 11.6873C6.86328 11.6222 6.51762 11.2969 6.45098 10.8269C6.4332 10.7015 6.42565 10.5737 6.42557 10.447C6.42414 8.25718 6.42461 6.06739 6.42467 3.8776C6.42467 3.81289 6.42467 3.74818 6.42467 3.63741C6.26316 3.78916 6.12903 3.90886 6.00203 4.0356C5.35741 4.67886 4.71567 5.32496 4.07074 5.96792C3.7861 6.25169 3.44897 6.42535 3.03535 6.36526C2.35675 6.26668 1.96404 5.59502 2.22006 4.95907C2.29222 4.77982 2.41238 4.60592 2.54994 4.46832C3.9083 3.10956 5.2739 1.75789 6.63982 0.406587C7.18828 -0.136001 7.79056 -0.135765 8.34113 0.408715C9.71126 1.76367 11.0779 3.12208 12.4467 4.47839C12.7216 4.75076 12.88 5.07085 12.8288 5.46159C12.7738 5.88134 12.5388 6.17658 12.1336 6.31579C11.694 6.46676 11.3015 6.34709 10.98 6.03626C10.4212 5.49589 9.87651 4.94098 9.32963 4.38854C9.09196 4.14846 8.86352 3.8994 8.63089 3.65442C8.60508 3.66773 8.57927 3.68104 8.55346 3.69435Z" fill="#012087"/>
<path d="M7.50498 16.9986C6.09947 16.9985 4.69394 17.0025 3.28845 16.9969C2.47649 16.9936 1.73675 16.7651 1.11359 16.2336C0.350031 15.5823 0.0210837 14.7317 0.00547065 13.7517C-0.00492379 13.0992 0.00234228 12.4465 0.0042351 11.7938C0.00450684 11.7002 0.013892 11.6058 0.0278224 11.513C0.106759 10.9875 0.514588 10.6446 1.06246 10.6402C1.60837 10.6357 2.01835 10.9743 2.10194 11.5038C2.11996 11.618 2.12918 11.7346 2.12979 11.8502C2.1331 12.4696 2.13132 13.0891 2.13336 13.7085C2.13594 14.4958 2.52019 14.8787 3.3134 14.8864C3.47513 14.888 3.63689 14.8867 3.79863 14.8867C6.39214 14.8867 8.98564 14.887 11.5791 14.8861C11.7128 14.886 11.8483 14.888 11.9798 14.8684C12.4773 14.794 12.8187 14.4586 12.8414 13.9568C12.8728 13.2613 12.8608 12.5639 12.8693 11.8673C12.8708 11.7458 12.8681 11.6222 12.8897 11.5035C12.9907 10.9502 13.4105 10.6171 13.9644 10.6415C14.5443 10.6671 14.9505 11.019 14.9694 11.6109C15 12.5712 15.0461 13.5368 14.887 14.4916C14.6678 15.8075 13.5305 16.8556 12.1882 16.9628C11.6226 17.0079 11.0518 16.9947 10.4833 16.9974C9.49055 17.0021 8.49776 16.9987 7.50498 16.9986Z" fill="#012087"/>
</g>
<defs>
<clipPath id="clip0_4033_44203">
<rect width="15" height="17" fill="white"/>
</clipPath>
</defs>
</svg>
