<svg width="22" height="22" viewBox="0 0 22 22" fill="none" xmlns="http://www.w3.org/2000/svg">
<path d="M14.7153 5.11326C14.7153 7.16193 13.0545 8.82271 11.0058 8.82271C8.95716 8.82271 7.29639 7.16193 7.29639 5.11326C7.29639 3.06459 8.95716 1.40381 11.0058 1.40381C13.0545 1.40381 14.7153 3.06459 14.7153 5.11326Z" fill="#265CFF" stroke="#265CFF"/>
<path d="M18.1935 14.1729L18.1957 14.175C19.5721 15.5394 20.5257 17.2719 20.942 19.1646C20.998 19.4385 20.9928 19.7215 20.9268 19.9932C20.8605 20.2659 20.7347 20.5206 20.5582 20.7388L20.5568 20.7407C20.3721 20.9713 20.1379 21.1575 19.8716 21.2853C19.6052 21.4132 19.3135 21.4794 19.018 21.4793H19.0177H2.99376V21.4792L2.98744 21.4793C2.69285 21.483 2.40118 21.4206 2.13392 21.2967C1.86715 21.1729 1.63148 20.9911 1.44419 20.7644C1.2651 20.5438 1.13776 20.2859 1.07156 20.0096C1.0053 19.733 1.00199 19.4451 1.06188 19.1671C1.47791 17.2737 2.43144 15.5406 3.80805 14.1758C5.72687 12.2905 8.3132 11.2403 11.0032 11.254L11.0032 11.2541L11.0101 11.254C13.2086 11.2351 15.3523 11.9395 17.1111 13.2588L17.111 13.2589L17.1219 13.2666C17.5042 13.5377 17.8627 13.8409 18.1935 14.1729Z" fill="#265CFF" stroke="#265CFF"/>
</svg>
