<svg width="32" height="16" viewBox="0 0 32 16" fill="none" xmlns="http://www.w3.org/2000/svg">
<g clip-path="url(#clip0_2257_24411)">
<path d="M10.8593 0.588066C10.7639 0.804467 10.682 0.990428 10.5873 1.20543C11.318 1.60584 12.0377 1.99735 12.7546 2.39406C13.1975 2.63915 13.3467 2.98629 13.1674 3.33139C12.9891 3.67466 12.635 3.73402 12.1776 3.48787C11.4683 3.10621 10.7616 2.71939 10.0204 2.31657C9.95164 2.44004 9.89165 2.54775 9.80592 2.70164C9.85657 2.72798 9.89504 2.74709 9.93272 2.76772C10.6529 3.16202 11.3682 3.56611 12.0947 3.94792C12.6821 4.25669 13.285 4.07151 13.5575 3.52588C13.8211 2.99785 13.6346 2.39289 13.0811 2.06838C12.5411 1.75175 11.9864 1.46157 11.4077 1.14301C11.7847 0.683679 12.2437 0.524063 12.7493 0.522704C14.1644 0.518903 15.5801 0.515656 16.9946 0.552172C18.6938 0.596041 19.8517 1.46426 20.4465 3.09823C20.5514 3.3863 20.6736 3.48535 20.9783 3.45977C22.1121 3.3646 23.248 3.29301 24.3839 3.22856C24.8249 3.20355 25.0894 2.99113 25.1977 2.55806C25.2085 2.51472 25.2264 2.47324 25.2412 2.43094C25.3969 1.98421 25.433 1.35875 25.7417 1.14054C26.0564 0.918045 26.6418 1.06416 27.1036 1.10694C27.6202 1.15478 28.1664 1.17711 28.6371 1.37116C29.6537 1.79035 30.0895 2.69548 30.2712 3.82569C29.0571 4.0205 27.8439 4.21515 26.5712 4.41936C26.6302 4.85833 26.6866 5.27776 26.745 5.71215C27.9862 5.7101 29.0868 6.03294 30.0474 6.79642C31.747 8.14716 32.4262 10.455 31.7291 12.5198C31.0251 14.6048 29.1355 15.9903 26.9922 15.993C24.8494 15.9956 22.9565 14.6005 22.2686 12.5116C22.0925 11.9769 21.7094 11.6914 21.1191 11.6551C20.8112 12.6436 20.0749 12.8726 19.1373 12.846C17.694 12.805 16.2487 12.8384 14.8042 12.8343C13.1014 12.8293 11.8354 11.7606 11.4521 10.0622C11.1493 8.72082 10.8113 7.38756 10.4706 6.05566C10.2621 5.24077 9.71992 4.73113 8.93941 4.40671C8.56614 5.13584 8.20175 5.84766 7.82618 6.5813C7.94555 6.68703 8.05191 6.78481 8.16187 6.87811C9.90041 8.35325 10.4797 10.7349 9.61425 12.8523C8.75863 14.9456 6.67014 16.2048 4.43898 15.9726C2.30312 15.7502 0.49334 14.0064 0.0863736 11.7785C-0.588004 8.08679 2.79811 4.91508 6.35526 5.92545C6.70036 6.02347 6.83422 5.95499 6.98817 5.64527C7.73067 4.15152 8.49185 2.66748 9.25652 1.18551C9.61415 0.492399 10.1448 0.292521 10.8593 0.588066ZM5.97756 7.60116C4.28636 7.03234 2.46461 7.98728 1.86352 9.70237C1.25721 11.4324 2.09081 13.3542 3.75001 14.0515C5.41862 14.7528 7.33766 13.9518 8.07439 12.2464C8.70345 10.7904 8.17608 8.76902 7.00805 8.19402C6.85827 8.48414 6.72207 8.7836 6.55409 9.06287C6.39918 9.32039 6.40967 9.50546 6.59297 9.77013C7.01366 10.3776 7.04663 11.059 6.72813 11.7306C6.40887 12.4037 5.86426 12.7792 5.13774 12.8282C4.05882 12.9009 3.1619 12.0788 3.10309 10.9912C3.04134 9.8491 3.8569 8.9381 4.97601 8.87728C5.1253 8.86916 5.33341 8.80872 5.40438 8.69805C5.61823 8.3646 5.77783 7.99439 5.97756 7.60116ZM27.0009 7.47568C27.0531 7.8753 27.0817 8.25039 27.1607 8.61388C27.1881 8.73973 27.3212 8.89706 27.4392 8.93763C28.5803 9.32965 29.1613 10.3582 28.8349 11.4467C28.5095 12.5317 27.4475 13.0384 26.3028 12.7145C25.5437 12.4997 24.762 12.3699 23.9475 12.1927C24.5545 13.7925 26.31 14.6387 27.9192 14.1722C29.5861 13.6889 30.6072 11.9629 30.2759 10.1885C29.9779 8.59236 28.4679 7.3179 27.0009 7.47568ZM21.5416 8.87717C21.8619 8.79859 22.2598 9.09713 22.4732 8.66282C23.1 7.38676 24.0556 6.50423 25.3534 5.99817C25.4411 5.964 25.5476 5.81334 25.5419 5.7238C25.5197 5.37456 25.4559 5.02811 25.4072 4.67816C23.5707 5.09929 21.8497 6.97398 21.5416 8.87717ZM25.8074 7.53872C25.2382 7.98343 24.763 8.35466 24.2878 8.72588C24.3128 8.76457 24.3378 8.80326 24.3628 8.84195H26C25.94 8.43607 25.8863 8.07281 25.8074 7.53872Z" fill="#012087"/>
<path d="M6.21795 4.03047V0.00325362C7.25378 -0.0616623 8.17002 0.853571 8.19862 1.96489C8.2281 3.11051 7.333 4.05571 6.21795 4.03047Z" fill="#012087"/>
</g>
<defs>
<clipPath id="clip0_2257_24411">
<rect width="32" height="16" fill="white"/>
</clipPath>
</defs>
</svg>
