<svg width="15" height="13" viewBox="0 0 15 13" fill="none" xmlns="http://www.w3.org/2000/svg">
<g clip-path="url(#clip0_2159_12435)">
<path d="M10.6985 0.125C13.1415 0.125 14.5833 1.53075 14.5833 3.93711H11.5863V3.96166C10.1954 3.96166 9.06778 5.06101 9.06778 6.41713C9.06778 7.77324 10.1954 8.87259 11.5863 8.87259H14.5833V9.09358C14.5833 11.4692 13.1415 12.875 10.6985 12.875H4.30148C1.85852 12.875 0.416664 11.4692 0.416664 9.09358V3.90642C0.416664 1.53075 1.85852 0.125 4.30148 0.125H10.6985ZM14.0544 4.99296C14.3465 4.99296 14.5833 5.22382 14.5833 5.50861V7.3011C14.5799 7.5845 14.3451 7.81343 14.0544 7.81674H11.643C10.9388 7.82598 10.323 7.35593 10.1633 6.68723C10.0833 6.27212 10.1956 5.84378 10.4701 5.51699C10.7445 5.1902 11.1531 4.99839 11.5863 4.99296H14.0544ZM11.9263 5.82168H11.6933C11.5503 5.82004 11.4126 5.87429 11.3108 5.97232C11.2091 6.07035 11.1518 6.20401 11.1518 6.34346C11.1518 6.63604 11.3933 6.87416 11.6933 6.87753H11.9263C12.2253 6.87753 12.4678 6.64117 12.4678 6.3496C12.4678 6.05804 12.2253 5.82168 11.9263 5.82168ZM7.77074 2.88126H3.77259C3.47598 2.88124 3.23456 3.11388 3.23111 3.40305C3.23111 3.69562 3.47252 3.93375 3.77259 3.93711H7.77074C8.06979 3.93711 8.31222 3.70075 8.31222 3.40918C8.31222 3.11762 8.06979 2.88126 7.77074 2.88126Z" fill="white"/>
</g>
<defs>
<clipPath id="clip0_2159_12435">
<rect width="15" height="13" fill="white"/>
</clipPath>
</defs>
</svg>
