<svg width="38" height="38" viewBox="0 0 38 38" fill="none" xmlns="http://www.w3.org/2000/svg">
<path d="M19 0C8.51937 0 0 8.51937 0 19C0 29.4806 8.51937 38 19 38C29.4806 38 38 29.4806 38 19C38 8.51937 29.4806 0 19 0ZM17.1613 28.1935V26.8574C17.1613 25.8399 17.9826 25.0187 19 25.0187C20.0174 25.0187 20.8387 25.8399 20.8387 26.8574V28.1935C20.8387 29.2109 20.0174 30.0323 19 30.0323C17.9826 30.0323 17.1613 29.2109 17.1613 28.1935ZM20.8387 21.5006C20.8387 22.5058 20.0174 23.3393 19 23.3393C17.9826 23.3393 17.1613 22.5058 17.1613 21.5006V9.80645C17.1613 8.78901 17.9826 7.96774 19 7.96774C20.0174 7.96774 20.8387 8.78901 20.8387 9.80645V21.5006Z" fill="#265CFF"/>
</svg>
