<svg width="21" height="21" viewBox="0 0 21 21" fill="none" xmlns="http://www.w3.org/2000/svg">
<path d="M10.2344 0.960571C4.73609 0.960571 0.283691 5.42293 0.283691 10.9212C0.283691 16.4195 4.73609 20.8818 10.2344 20.8818C15.7426 20.8818 20.205 16.4195 20.205 10.9212C20.205 5.42293 15.7426 0.960571 10.2344 0.960571ZM17.1371 6.93695H14.1987C13.88 5.69187 13.4218 4.4966 12.8241 3.39097C14.6569 4.01849 16.1809 5.29345 17.1371 6.93695ZM10.2443 2.99254C11.0711 4.18782 11.7185 5.51258 12.1468 6.93695H8.34184C8.77015 5.51258 9.41759 4.18782 10.2443 2.99254ZM2.53479 12.9133C2.37542 12.2758 2.27582 11.6085 2.27582 10.9212C2.27582 10.2339 2.37542 9.56656 2.53479 8.92908H5.90149C5.8218 9.58648 5.76204 10.2439 5.76204 10.9212C5.76204 11.5985 5.8218 12.2559 5.90149 12.9133H2.53479ZM3.35157 14.9055H6.28995C6.60869 16.1505 7.06688 17.3458 7.66452 18.4514C5.83176 17.8239 4.30779 16.5589 3.35157 14.9055ZM6.28995 6.93695H3.35157C4.30779 5.28349 5.83176 4.01849 7.66452 3.39097C7.06688 4.4966 6.60869 5.69187 6.28995 6.93695ZM10.2443 18.8499C9.41759 17.6546 8.77015 16.3298 8.34184 14.9055H12.1468C11.7185 16.3298 11.0711 17.6546 10.2443 18.8499ZM12.5751 12.9133H7.91354C7.82389 12.2559 7.75417 11.5985 7.75417 10.9212C7.75417 10.2439 7.82389 9.57652 7.91354 8.92908H12.5751C12.6648 9.57652 12.7345 10.2439 12.7345 10.9212C12.7345 11.5985 12.6648 12.2559 12.5751 12.9133ZM12.8241 18.4514C13.4218 17.3458 13.88 16.1505 14.1987 14.9055H17.1371C16.1809 16.549 14.6569 17.8239 12.8241 18.4514ZM14.5872 12.9133C14.6668 12.2559 14.7266 11.5985 14.7266 10.9212C14.7266 10.2439 14.6668 9.58648 14.5872 8.92908H17.9539C18.1132 9.56656 18.2128 10.2339 18.2128 10.9212C18.2128 11.6085 18.1132 12.2758 17.9539 12.9133H14.5872Z" fill="#012087"/>
</svg>
